<svg width="32" height="32" viewBox="0 0 32 32" fill="none" xmlns="http://www.w3.org/2000/svg">
<path fill-rule="evenodd" clip-rule="evenodd" d="M16.3148 2.46156C13.4363 2.46156 10.6758 3.60502 8.64039 5.64039C6.60502 7.67577 5.46156 10.4363 5.46156 13.3148C5.46156 17.5194 8.19423 21.583 11.1663 24.7202C12.6271 26.2622 14.0921 27.5242 15.1933 28.401C15.6355 28.7531 16.0174 29.0419 16.3148 29.2604C16.6121 29.0419 16.994 28.7531 17.4362 28.401C18.5374 27.5242 20.0024 26.2622 21.4633 24.7202C24.4353 21.583 27.168 17.5194 27.168 13.3148C27.168 10.4363 26.0245 7.67577 23.9892 5.64039C21.9538 3.60502 19.1932 2.46156 16.3148 2.46156ZM16.3148 30.7694C15.6321 31.7935 15.6318 31.7933 15.6314 31.7931L15.6277 31.7906L15.619 31.7847L15.5886 31.7642C15.5627 31.7466 15.5257 31.7213 15.4783 31.6885C15.3835 31.6228 15.2471 31.527 15.0749 31.4027C14.7308 31.1542 14.2432 30.7911 13.66 30.3267C12.4954 29.3993 10.9394 28.0599 9.37929 26.4131C6.30933 23.1726 3 18.5088 3 13.3148C3 9.78348 4.4028 6.39681 6.89981 3.89981C9.39681 1.4028 12.7835 0 16.3148 0C19.8461 0 23.2327 1.4028 25.7297 3.89981C28.2268 6.39681 29.6296 9.78348 29.6296 13.3148C29.6296 18.5088 26.3202 23.1726 23.2503 26.4131C21.6901 28.0599 20.1341 29.3993 18.9696 30.3267C18.3863 30.7911 17.8988 31.1542 17.5546 31.4027C17.3825 31.527 17.246 31.6228 17.1513 31.6885C17.1039 31.7213 17.0668 31.7466 17.041 31.7642L17.0106 31.7847L17.0019 31.7906L16.9991 31.7924C16.9988 31.7927 16.9975 31.7935 16.3148 30.7694ZM16.3148 30.7694L16.9975 31.7935C16.5841 32.0691 16.0448 32.0687 15.6314 31.7931L16.3148 30.7694ZM16.3148 10.5176C14.7699 10.5176 13.5176 11.7699 13.5176 13.3148C13.5176 14.8596 14.7699 16.112 16.3148 16.112C17.8596 16.112 19.112 14.8596 19.112 13.3148C19.112 11.7699 17.8596 10.5176 16.3148 10.5176ZM11.056 13.3148C11.056 10.4104 13.4104 8.056 16.3148 8.056C19.2191 8.056 21.5736 10.4104 21.5736 13.3148C21.5736 16.2191 19.2191 18.5736 16.3148 18.5736C13.4104 18.5736 11.056 16.2191 11.056 13.3148Z" fill="black"/>
</svg>
