<svg width="32" height="32" viewBox="0 0 32 32" fill="none" xmlns="http://www.w3.org/2000/svg">
<path fill-rule="evenodd" clip-rule="evenodd" d="M4.17353 1.18718C4.93368 0.427053 5.96464 0 7.03965 0H18.9863C19.2692 0 19.5405 0.112381 19.7406 0.312421L28.7005 9.27242C28.9006 9.47246 29.0129 9.74377 29.0129 10.0267V27.9467C29.0129 29.0216 28.5859 30.0526 27.8259 30.8127C27.0656 31.5729 26.0346 32 24.9596 32H7.03965C5.96469 32 4.93375 31.573 4.17358 30.8128C3.41335 30.0527 2.98633 29.0216 2.98633 27.9467V4.05333C2.98633 2.97834 3.41336 1.94735 4.17351 1.18719L4.17353 1.18718ZM5.68199 2.6957C5.682 2.6957 5.682 2.69569 5.68201 2.69569C6.04211 2.33561 6.53046 2.13333 7.03965 2.13333H17.9197V10.0267C17.9197 10.6158 18.3972 11.0933 18.9863 11.0933H26.8796V27.9467C26.8796 28.4559 26.6773 28.9443 26.3174 29.3042C25.9572 29.6644 25.4688 29.8667 24.9596 29.8667H7.03965C6.53046 29.8667 6.04214 29.6644 5.68206 29.3043L5.68193 29.3041C5.32196 28.9442 5.11966 28.4559 5.11966 27.9467V4.05333C5.11966 3.54412 5.32194 3.05576 5.68199 2.6957ZM25.3711 8.96H20.053V3.64184L25.3711 8.96ZM8.95965 11.52C8.95965 10.9309 9.43722 10.4533 10.0263 10.4533H13.013C13.6021 10.4533 14.0797 10.9309 14.0797 11.52C14.0797 12.1091 13.6021 12.5867 13.013 12.5867H10.0263C9.43722 12.5867 8.95965 12.1091 8.95965 11.52ZM8.95965 17.4933C8.95965 16.9042 9.43722 16.4267 10.0263 16.4267H21.973C22.5621 16.4267 23.0397 16.9042 23.0397 17.4933C23.0397 18.0824 22.5621 18.56 21.973 18.56H10.0263C9.43722 18.56 8.95965 18.0824 8.95965 17.4933ZM8.95965 23.4667C8.95965 22.8776 9.43722 22.4 10.0263 22.4H21.973C22.5621 22.4 23.0397 22.8776 23.0397 23.4667C23.0397 24.0558 22.5621 24.5333 21.973 24.5333H10.0263C9.43722 24.5333 8.95965 24.0558 8.95965 23.4667Z" fill="black"/>
</svg>
