<?xml version="1.0" encoding="UTF-8"?>
<svg id="_圖層_1" data-name="圖層 1" xmlns="http://www.w3.org/2000/svg" viewBox="0 0 32 32">
  <defs>
    <style>
      .cls-1 {
        stroke-width: 0px;
      }
    </style>
  </defs>
  <path class="cls-1" d="m24.01.01h-4.16c-1.04-.06-2.08.11-3.05.48-.97.38-1.85.96-2.57,1.7-.73.75-1.28,1.64-1.64,2.62-.35.98-.49,2.02-.4,3.06v3.63h-4.17c-.17,0-.34.07-.46.19-.12.12-.19.29-.19.46v5.25c0,.17.07.34.19.46.12.12.29.19.46.19h4.17v13.28c0,.17.07.34.19.46.12.12.28.19.45.2h5.45c.17,0,.34-.07.46-.2.12-.12.19-.29.2-.46v-13.28h4.8c.17,0,.34-.07.46-.19s.19-.29.19-.46v-5.25c0-.09-.01-.17-.05-.25-.03-.08-.08-.15-.15-.21-.06-.06-.13-.11-.2-.14-.08-.03-.16-.05-.24-.05h-4.88v-3.09c0-1.47.35-2.22,2.27-2.22h2.86c.09,0,.17-.02.25-.05.08-.03.15-.08.21-.14.06-.06.11-.13.14-.21.03-.08.05-.16.04-.25V.75c0-.09-.01-.17-.04-.25-.03-.08-.08-.15-.14-.21-.06-.06-.13-.11-.21-.14-.08-.03-.16-.05-.25-.05"/>
</svg>