<svg width="32" height="32" viewBox="0 0 32 32" fill="none" xmlns="http://www.w3.org/2000/svg">
<path d="M30.6644 13.4847H1.33561C0.600342 13.4847 0 14.134 0 14.9298V26.8467C0 27.6407 0.600342 28.2919 1.33561 28.2919H3.75067V24.68C3.75067 23.8861 4.35101 23.2349 5.08629 23.2349H5.10584V23.2271H26.7006V23.2349H26.9137C27.649 23.2349 28.2493 23.8841 28.2493 24.68V28.2919H30.6644C31.3997 28.2919 32 27.6426 32 26.8467V14.9298C32 14.1359 31.3997 13.4847 30.6644 13.4847ZM28.3764 18.4361C27.78 18.4361 27.295 17.912 27.295 17.2667C27.295 16.6214 27.7781 16.0973 28.3764 16.0973C28.9748 16.0973 29.4578 16.6214 29.4578 17.2667C29.4578 17.912 28.9748 18.4361 28.3764 18.4361Z" fill="black"/>
<path d="M26.7006 5.95796V5.6177C26.7006 3.62308 25.187 2 23.3273 2H8.67074C6.81105 2 5.29748 3.62308 5.29748 5.6177V12.0552H26.7006V5.956V5.95796ZM21.2349 10.043H10.8453V8.50012H21.2349V10.043ZM21.2349 6.78318H10.8453V5.24028H21.2349V6.78318Z" fill="black"/>
<path d="M5.29748 24.6781V26.5788C5.29748 28.5735 6.81105 30.1965 8.67074 30.1965H23.3273C25.187 30.1965 26.7006 28.5735 26.7006 26.5788V24.6781H5.29748Z" fill="black"/>
</svg>
