<svg width="32" height="32" viewBox="0 0 32 32" fill="none" xmlns="http://www.w3.org/2000/svg">
<g clip-path="url(#clip0_2860_1408)">
<path fill-rule="evenodd" clip-rule="evenodd" d="M5.17548 2.7063C5.79198 2.7063 6.29176 3.20607 6.29176 3.82258V13.294C6.29176 13.9105 5.79198 14.4103 5.17548 14.4103C4.55897 14.4103 4.0592 13.9105 4.0592 13.294V3.82258C4.0592 3.20607 4.55897 2.7063 5.17548 2.7063ZM16 2.7063C16.6165 2.7063 17.1163 3.20607 17.1163 3.82258V9.47163H20.0592C20.6757 9.47163 21.1755 9.9714 21.1755 10.5879C21.1755 11.2044 20.6757 11.7042 20.0592 11.7042H11.9408C11.3243 11.7042 10.8245 11.2044 10.8245 10.5879C10.8245 9.9714 11.3243 9.47163 11.9408 9.47163H14.8837V3.82258C14.8837 3.20607 15.3835 2.7063 16 2.7063ZM26.8245 2.7063C27.441 2.7063 27.9408 3.20607 27.9408 3.82258V16.0002C27.9408 16.6167 27.441 17.1164 26.8245 17.1164C26.208 17.1164 25.7082 16.6167 25.7082 16.0002V3.82258C25.7082 3.20607 26.208 2.7063 26.8245 2.7063ZM16 14.8839C16.6165 14.8839 17.1163 15.3837 17.1163 16.0002V28.1778C17.1163 28.7943 16.6165 29.294 16 29.294C15.3835 29.294 14.8837 28.7943 14.8837 28.1778V16.0002C14.8837 15.3837 15.3835 14.8839 16 14.8839ZM0 18.7063C0 18.0898 0.499775 17.59 1.11628 17.59H9.23467C9.85118 17.59 10.351 18.0898 10.351 18.7063C10.351 19.3228 9.85118 19.8226 9.23467 19.8226H6.29176V28.1778C6.29176 28.7943 5.79198 29.294 5.17548 29.294C4.55897 29.294 4.0592 28.7943 4.0592 28.1778V19.8226H1.11628C0.499775 19.8226 0 19.3228 0 18.7063ZM21.649 21.4124C21.649 20.7959 22.1488 20.2961 22.7653 20.2961H30.8837C31.5002 20.2961 32 20.7959 32 21.4124C32 22.0289 31.5002 22.5287 30.8837 22.5287H27.9408V28.1778C27.9408 28.7943 27.441 29.294 26.8245 29.294C26.208 29.294 25.7082 28.7943 25.7082 28.1778V22.5287H22.7653C22.1488 22.5287 21.649 22.0289 21.649 21.4124Z" fill="black"/>
</g>
<defs>
<clipPath id="clip0_2860_1408">
<rect width="32" height="32" fill="white"/>
</clipPath>
</defs>
</svg>
