<svg width="32" height="32" viewBox="0 0 32 32" fill="none" xmlns="http://www.w3.org/2000/svg">
<g clip-path="url(#clip0_2303_1912)">
<path d="M31.9327 14.9899C31.8161 15.2736 31.6181 15.5166 31.3637 15.6881C31.1093 15.8595 30.8098 15.9518 30.503 15.9534H27.5814V29.7843C27.5732 30.132 27.4284 30.4624 27.1782 30.7038C26.928 30.9453 26.5926 31.0784 26.2449 31.0742H20.1842C19.9992 31.0742 19.816 31.0375 19.6453 30.9663C19.4746 30.895 19.3197 30.7906 19.1896 30.6591C19.0596 30.5276 18.9569 30.3715 18.8875 30.2C18.8181 30.0285 18.7835 29.845 18.7855 29.66V22.154C18.7855 21.9521 18.7053 21.7584 18.5625 21.6155C18.4197 21.4727 18.226 21.3925 18.024 21.3925H13.9835C13.7842 21.3966 13.5945 21.4786 13.4551 21.621C13.3156 21.7633 13.2375 21.9547 13.2376 22.154V29.7067C13.2396 29.8916 13.205 30.0752 13.1356 30.2466C13.0662 30.4181 12.9635 30.5742 12.8335 30.7057C12.7034 30.8372 12.5485 30.9416 12.3778 31.0129C12.2071 31.0842 12.0239 31.1208 11.8389 31.1208H5.77813C5.43044 31.125 5.09514 30.9919 4.84494 30.7504C4.59474 30.509 4.44983 30.1786 4.44168 29.831V16H1.52007C1.21326 15.9984 0.913766 15.9061 0.659338 15.7347C0.404909 15.5632 0.206957 15.3203 0.0903722 15.0365C-0.0130098 14.7663 -0.0281299 14.4704 0.0472622 14.1912C0.122654 13.9119 0.28466 13.6638 0.509947 13.4824L15.2112 1.15887C15.435 0.989941 15.7078 0.898548 15.9882 0.898548C16.2686 0.898548 16.5414 0.989941 16.7652 1.15887L20.3551 4.17372V2.18454C20.3592 1.83691 20.5001 1.50487 20.7474 1.2605C20.9947 1.01613 21.3284 0.879126 21.676 0.87915H26.0584C26.4076 0.879056 26.7429 1.01555 26.9926 1.2595C27.2424 1.50346 27.3868 1.8355 27.3949 2.18454V10.0635L31.4665 13.4824C31.6904 13.6547 31.8555 13.8922 31.9389 14.1621C32.0224 14.4321 32.0203 14.7212 31.9327 14.9899V14.9899Z" fill="black"/>
</g>
<defs>
<clipPath id="clip0_2303_1912">
<rect width="32" height="32" fill="white"/>
</clipPath>
</defs>
</svg>
