<svg width="32" height="32" viewBox="0 0 32 32" fill="none" xmlns="http://www.w3.org/2000/svg">
<g clip-path="url(#clip0_2151_164)">
<path d="M31.8396 8.304C31.7115 6.06454 30.7201 3.96128 29.0729 2.43439C27.4256 0.907494 25.2502 0.0753107 23.0018 0.112L21.6224 0H10.2664C9.4965 0 8.66244 0.112008 7.94066 0.208008C5.7086 0.405452 3.63687 1.44735 2.15038 3.12001C0.750341 4.75011 -0.0128452 6.8295 0.00108335 8.976C0.00108335 13.68 0.00108335 18.384 0.00108335 23.072C-0.0184359 24.3099 0.226009 25.5377 0.718221 26.6742C1.21043 27.8106 1.93917 28.8298 2.85612 29.664C4.5096 31.1491 6.6622 31.96 8.887 31.936C13.5812 32.0213 18.2915 32.0213 23.0178 31.936C24.2492 31.9487 25.4695 31.7031 26.5996 31.2153C27.7297 30.7274 28.7444 30.0081 29.578 29.104C31.0334 27.407 31.8502 25.257 31.8877 23.024C31.8877 22.576 31.8877 22.144 32 21.696V10.416C32 9.728 31.8877 9.04 31.8075 8.352L31.8396 8.304ZM28.9204 23.328C28.5996 26.928 26.8353 28.848 23.2424 29.024C18.4305 29.248 13.4903 29.248 8.63036 29.024C4.89314 28.848 2.98444 26.624 2.85612 22.832C2.74385 19.488 2.74385 16.144 2.75989 12.784C2.73536 11.2878 2.805 9.79151 2.9684 8.304C3.36939 5.104 5.55077 3.216 9.15967 3.104C12.5119 3.008 15.8642 2.99201 19.2325 3.00801C20.8411 2.97721 22.4496 3.06813 24.0444 3.28C25.3374 3.40794 26.5394 4.00169 27.4251 4.95005C28.3109 5.89841 28.8197 7.13634 28.8562 8.43201C29.0648 10.752 29.0327 13.088 29.0968 15.408V16.16C29.0968 18.576 29.0968 20.96 28.8562 23.376L28.9204 23.328ZM15.8642 7.904C14.2305 7.90084 12.6325 8.38102 11.2723 9.28381C9.91213 10.1866 8.85088 11.4715 8.22274 12.9759C7.5946 14.4804 7.4278 16.1368 7.74342 17.7358C8.05904 19.3349 8.8429 20.8046 9.99589 21.9592C11.1489 23.1138 12.6192 23.9015 14.2209 24.2225C15.8227 24.5436 17.4839 24.3836 18.9945 23.7629C20.5051 23.1421 21.7972 22.0885 22.7075 20.7352C23.6178 19.3819 24.1054 17.7897 24.1085 16.16C24.117 15.0761 23.9098 14.0014 23.4989 12.998C23.088 11.9946 22.4816 11.0825 21.7147 10.3146C20.9479 9.54666 20.0359 8.93819 19.0317 8.5244C18.0274 8.11061 16.9508 7.89974 15.8642 7.904ZM15.8642 21.472C14.8033 21.4752 13.7653 21.164 12.8819 20.5781C11.9984 19.9921 11.3093 19.1576 10.9018 18.1805C10.4944 17.2033 10.3869 16.1275 10.5931 15.0894C10.7993 14.0513 11.3099 13.0976 12.0601 12.3492C12.8103 11.6009 13.7663 11.0916 14.807 10.8859C15.8477 10.6802 16.9261 10.7874 17.9057 11.1939C18.8853 11.6003 19.7218 12.2878 20.3092 13.169C20.8967 14.0503 21.2086 15.0857 21.2054 16.144C21.197 17.5545 20.6315 18.9048 19.6317 19.9022C18.6318 20.8996 17.2782 21.4636 15.8642 21.472V21.472ZM24.4614 5.648C24.2067 5.64159 23.9533 5.68612 23.7162 5.77893C23.479 5.87174 23.2629 6.01097 23.0805 6.18842C22.8982 6.36586 22.7533 6.57792 22.6543 6.81211C22.5554 7.0463 22.5045 7.29787 22.5046 7.552C22.5486 8.03303 22.7712 8.48029 23.1288 8.80596C23.4864 9.13163 23.9531 9.31218 24.4374 9.31218C24.9216 9.31218 25.3883 9.13163 25.7459 8.80596C26.1035 8.48029 26.3261 8.03303 26.3701 7.552C26.3765 7.29719 26.332 7.04367 26.2391 6.80621C26.1463 6.56875 26.007 6.35211 25.8293 6.16892C25.6516 5.98573 25.4392 5.83967 25.2043 5.73925C24.9695 5.63882 24.7169 5.58605 24.4614 5.58401" fill="black"/>
</g>
<defs>
<clipPath id="clip0_2151_164">
<rect width="32" height="32" fill="white"/>
</clipPath>
</defs>
</svg>
