<svg width="32" height="32" viewBox="0 0 32 32" fill="none" xmlns="http://www.w3.org/2000/svg">
<g clip-path="url(#clip0_2149_433)">
<path fill-rule="evenodd" clip-rule="evenodd" d="M2.17375 14.9333H9.00483C9.29921 10.3772 10.8913 6.01063 13.5769 2.34432C7.41545 3.43018 2.65674 8.58418 2.17375 14.9333ZM16 2.69763C13.1585 6.17647 11.4612 10.451 11.143 14.9333H20.857C20.5388 10.451 18.8415 6.17647 16 2.69763ZM20.857 17.0667C20.5388 21.549 18.8415 25.8235 16 29.3024C13.1585 25.8235 11.4612 21.549 11.143 17.0667H20.857ZM9.00483 17.0667H2.17375C2.65674 23.4158 7.41544 28.5698 13.5769 29.6557C10.8913 25.9894 9.29921 21.6228 9.00483 17.0667ZM18.4231 29.6557C21.1087 25.9894 22.7008 21.6228 22.9952 17.0667H29.8263C29.3433 23.4158 24.5846 28.5698 18.4231 29.6557ZM29.8263 14.9333H22.9952C22.7008 10.3772 21.1087 6.01063 18.4231 2.34432C24.5845 3.43018 29.3433 8.58418 29.8263 14.9333ZM0 16C0 7.16344 7.16344 0 16 0C24.8366 0 32 7.16344 32 16C32 24.8366 24.8366 32 16 32C7.16344 32 0 24.8366 0 16Z" fill="black"/>
</g>
<defs>
<clipPath id="clip0_2149_433">
<rect width="32" height="32" fill="white"/>
</clipPath>
</defs>
</svg>
