<svg width="32" height="32" viewBox="0 0 32 32" fill="none" xmlns="http://www.w3.org/2000/svg">
<g clip-path="url(#clip0_2151_166)">
<path d="M32 32V20.2133C32 14.471 30.7556 10.0621 24.0535 10.0621C22.7891 10.015 21.5359 10.3148 20.4298 10.929C19.3236 11.5432 18.4066 12.4485 17.778 13.5466V10.631H11.2715V31.9644H17.8847V21.2977C17.8847 18.5244 18.418 15.8222 21.8669 15.8222C25.3157 15.8222 25.3157 19.0044 25.3157 21.4933V31.8933L32 32Z" fill="black"/>
<path d="M0.480026 10.6311H7.11101V31.9645H0.480026V10.6311Z" fill="black"/>
<path d="M3.7866 0.000370405C2.77746 0.0143879 1.8144 0.425138 1.10577 1.14377C0.397135 1.8624 -9.73285e-05 2.83113 1.78877e-08 3.84039C1.78877e-08 4.85883 0.404561 5.83555 1.12469 6.55569C1.84481 7.27583 2.82152 7.6804 3.83993 7.6804C4.85834 7.6804 5.83504 7.27583 6.55517 6.55569C7.2753 5.83555 7.67986 4.85883 7.67986 3.84039C7.67991 3.33159 7.57885 2.82785 7.38255 2.35845C7.18625 1.88905 6.89862 1.46334 6.53638 1.10606C6.17414 0.748776 5.74451 0.467039 5.27246 0.277227C4.8004 0.0874144 4.29533 -0.00669622 3.7866 0.000370405Z" fill="black"/>
</g>
<defs>
<clipPath id="clip0_2151_166">
<rect width="32" height="32" fill="white"/>
</clipPath>
</defs>
</svg>
