<svg width="32" height="36" viewBox="0 0 32 36" fill="none" xmlns="http://www.w3.org/2000/svg">
<path fill-rule="evenodd" clip-rule="evenodd" d="M2.56029 8.61294L16 18.0207L29.4397 8.61294C29.2016 7.94522 28.5603 7.46154 27.8154 7.46154H4.18462C3.43969 7.46154 2.79837 7.94522 2.56029 8.61294ZM29.5385 11.5485L16.7058 20.5314C16.282 20.828 15.718 20.828 15.2942 20.5314L2.46154 11.5485V26.9077C2.46154 27.8526 3.23974 28.6308 4.18462 28.6308H27.8154C28.7603 28.6308 29.5385 27.8526 29.5385 26.9077V11.5485ZM0 9.18461C0 6.88026 1.88026 5 4.18462 5H27.8154C30.1197 5 32 6.88026 32 9.18461V26.9077C32 29.212 30.1197 31.0923 27.8154 31.0923H4.18462C1.88026 31.0923 0 29.212 0 26.9077V9.18461Z" fill="black"/>
</svg>
