<svg width="32" height="32" viewBox="0 0 32 32" fill="none" xmlns="http://www.w3.org/2000/svg">
<g clip-path="url(#clip0_2205_545)">
<path fill-rule="evenodd" clip-rule="evenodd" d="M16 0C16.8033 0 17.4545 0.651222 17.4545 1.45455V14.5455H30.5455C31.3488 14.5455 32 15.1967 32 16C32 16.8033 31.3488 17.4545 30.5455 17.4545H17.4545V30.5455C17.4545 31.3488 16.8033 32 16 32C15.1967 32 14.5455 31.3488 14.5455 30.5455V17.4545H1.45455C0.651222 17.4545 0 16.8033 0 16C0 15.1967 0.651222 14.5455 1.45455 14.5455H14.5455V1.45455C14.5455 0.651222 15.1967 0 16 0Z" fill="black"/>
</g>
<defs>
<clipPath id="clip0_2205_545">
<rect width="32" height="32" fill="white"/>
</clipPath>
</defs>
</svg>
