<svg width="33" height="33" viewBox="0 0 33 33" fill="none" xmlns="http://www.w3.org/2000/svg">
<path fill-rule="evenodd" clip-rule="evenodd" d="M0.5 2.38474C0.5 1.34491 1.34295 0.501953 2.38279 0.501953H17.1139C17.6132 0.501953 18.0921 0.700318 18.4452 1.05341L31.1031 13.7114C32.0025 14.6161 32.5074 15.8401 32.5074 17.1158C32.5074 18.3916 32.0026 19.6155 31.1031 20.5203L31.0992 20.5242L20.5377 31.0857C20.0893 31.5346 19.5567 31.8908 18.9704 32.1339C18.3842 32.3769 17.7558 32.502 17.1212 32.502C16.4866 32.502 15.8582 32.3769 15.272 32.1339C14.686 31.8909 14.1535 31.5349 13.7051 31.0861C13.705 31.0859 13.7052 31.0862 13.7051 31.0861L1.05223 18.4479C0.698666 18.0948 0.5 17.6155 0.5 17.1158V2.38474ZM4.26557 4.26753V16.3353L16.3689 28.4245C16.4676 28.5234 16.5849 28.6018 16.714 28.6553C16.8431 28.7088 16.9815 28.7364 17.1212 28.7364C17.261 28.7364 17.3994 28.7088 17.5285 28.6553C17.6576 28.6018 17.7748 28.5234 17.8736 28.4245L28.4326 17.8655C28.433 17.8651 28.4335 17.8646 28.4339 17.8641C28.6311 17.665 28.7418 17.3961 28.7418 17.1158C28.7418 16.8355 28.6311 16.5666 28.4339 16.3675C28.4335 16.367 28.433 16.3666 28.4326 16.3661L16.334 4.26753H4.26557ZM7.86554 9.75028C7.86554 8.71044 8.70849 7.86749 9.74833 7.86749H9.76306C10.8029 7.86749 11.6458 8.71044 11.6458 9.75028C11.6458 10.7901 10.8029 11.6331 9.76306 11.6331H9.74833C8.70849 11.6331 7.86554 10.7901 7.86554 9.75028Z" fill="black"/>
</svg>
