<svg xmlns="http://www.w3.org/2000/svg" viewBox="0 0 40.7 50.6"><title>delete</title><g id="43be1258-c50e-4a59-816e-f3a0f4e91649" data-name="圖層 2"><g id="7c18026e-ca0f-489a-9cf8-72c99e671c7e" data-name="圖層 1"><path d="M1.68,13.7H39V46.58a4,4,0,0,1-4,4H5.7a4,4,0,0,1-4-4Zm9.59,4.2a1.81,1.81,0,0,0-1.8,1.8V44.24a1.8,1.8,0,0,0,3.6,0V19.7a1.81,1.81,0,0,0-1.8-1.8m9.08,0a1.81,1.81,0,0,0-1.8,1.8V44.24a1.8,1.8,0,1,0,3.6,0V19.7a1.81,1.81,0,0,0-1.8-1.8m9.07,0a1.81,1.81,0,0,0-1.8,1.8V44.24a1.8,1.8,0,1,0,3.6,0V19.7a1.81,1.81,0,0,0-1.8-1.8M14.55,0h11.6a3.41,3.41,0,0,1,2.41,1h0a3.4,3.4,0,0,1,1,2.42h0V6H38A2.74,2.74,0,0,1,40.7,8.76v2.73H0V8.76A2.73,2.73,0,0,1,2.73,6h8.4V3.42h0a3.38,3.38,0,0,1,1-2.41h0a3.41,3.41,0,0,1,2.41-1Zm11.6,2.84H14.55a.59.59,0,0,0-.41.18h0a.55.55,0,0,0-.17.41h0V6H26.72V3.42h0A.58.58,0,0,0,26.55,3h0a.55.55,0,0,0-.4-.18Z" fill="#040000" fill-rule="evenodd"/></g></g></svg>