<svg xmlns="http://www.w3.org/2000/svg" viewBox="0 0 56.28 45.81"><title>folder-open</title><g id="e0eaeefd-2e16-40a5-a3f8-4752a188cfc0" data-name="圖層 2"><g id="42658fd5-c674-4880-a076-8fe0716c5f6b" data-name="圖層 1"><path d="M5.53,18.58a5.19,5.19,0,0,1,3.61-1.47H28c2.46-.15,3-.7,3.09-.81s.24-.33.37-.53c.74-1.1,1.85-2.77,4.3-2.77H51V8.55h0a4.62,4.62,0,0,0-.07-.65l0,0a4.23,4.23,0,0,0-4.19-3.59l-19.31,0A6.17,6.17,0,0,1,25.15,4,2.41,2.41,0,0,1,24,2.93,4.24,4.24,0,0,0,20,0H4.24A4.24,4.24,0,0,0,0,4.24V38L4,22A5.12,5.12,0,0,1,5.53,18.58Z"/><path d="M56.28,18.44A4.24,4.24,0,0,0,52,14.33H36.15c-2.34,0-3.15,1.91-3.93,2.93-.62.81-2.33,1.1-3.81,1.18H9.52a4.24,4.24,0,0,0-4.24,4.11l-4.71,19a4.24,4.24,0,0,0,4.24,4.24H47.33a4.24,4.24,0,0,0,4.24-4.24l4.71-23.13Z"/></g></g></svg>