<svg xmlns="http://www.w3.org/2000/svg" viewBox="0 0 46.22 41.68"><title>folder-add</title><g id="bb982bd3-944c-4bfd-997d-35ea8749661c" data-name="圖層 2"><g id="f6153a1d-0fac-4d54-af2a-cd14b613048c" data-name="圖層 1"><path d="M46.22,8.22a4,4,0,0,0,0-.51h0v0s0-.09,0-.13a.64.64,0,0,1,0-.07l0-.11s0-.06,0-.09l0-.09a.45.45,0,0,1,0-.11L46,7a.88.88,0,0,0,0-.15v0a3.85,3.85,0,0,0-3.57-2.63H28a2.82,2.82,0,0,0-.52,0H25.34A6.58,6.58,0,0,1,22.79,4a2.06,2.06,0,0,1-1.05-1.18A4.06,4.06,0,0,0,18.09,0H3.84A4,4,0,0,0,0,4.12V15.44H0V37.55a4,4,0,0,0,3.84,4.13H42.38a4,4,0,0,0,3.84-4.13V8.22ZM25.67,25.71l0,7.67-5.29,0,0-7.62-7.11,0,0-5.67,7.16,0,0-7.67,5.29,0,0,7.62,7.11,0,0,5.67Z" fill="#040000"/></g></g></svg>