<svg xmlns="http://www.w3.org/2000/svg" viewBox="0 0 51 45.24"><title>folder</title><g id="1def649c-5fa4-4685-a35c-95a0fe8c36ee" data-name="圖層 2"><g id="46e6945b-a361-48cb-b9bf-486be691febc" data-name="圖層 1"><path d="M51,10.81a4.24,4.24,0,0,0-4.24-4.12H30.87c-2.34,0-3.15,1.92-3.93,2.94-.62.81-2.33,1.09-3.81,1.18H4.24A4.23,4.23,0,0,0,1,12.37,4.23,4.23,0,0,1,5.18,8.44H26.65l.07-.11c.72-1.07,1.8-2.68,4.15-2.68H46.76a5,5,0,0,1,3.49,1.41,4.79,4.79,0,0,1,.7.86,4.23,4.23,0,0,0-4.19-3.59L28,4.39a7.81,7.81,0,0,1-2.81-.24A2.13,2.13,0,0,1,24,2.93,4.45,4.45,0,0,0,20,0H4.24A4.24,4.24,0,0,0,0,4.24V15.89H0V41a4.24,4.24,0,0,0,4.24,4.24H46.76A4.24,4.24,0,0,0,51,41V10.81Z" fill="#231815"/></g></g></svg>