<svg xmlns="http://www.w3.org/2000/svg" viewBox="0 0 54.58 54.59"><title>recycle</title><g id="95b31fbd-a39f-44dc-af5c-24d67af0c6d0" data-name="圖層 2"><g id="c6bb7519-814d-4016-b969-ea73fb9d39ad" data-name="圖層 1"><path d="M15.55,36.62l3.91-6.77,1.6.92L18,23.41l-7.92,1,1.6.92L9.54,29c-.5.87-.65,1.21-.08,2.14l6.25,10.21C15.19,39.6,14.85,37.84,15.55,36.62Z" fill="none"/><path d="M26.84,17.15c-2.53-4.87-3.4-5-7.07-5.34l-4.58,8.07,7.58,4.37Z" fill="none"/><path d="M17.79,42.44l9.28-.07V33.63l-8.19,0C15.92,38.28,16.22,39.11,17.79,42.44Z" fill="none"/><path d="M37.27,32c5.49.24,6.06-.43,8.17-3.46l-4.71-8L33.15,25Z" fill="none"/><path d="M36.18,21.48l3.09-7.36-1.6.93-2.09-3.63c-.51-.87-.73-1.17-1.82-1.14l-12,.31c1.74.39,3.44,1,4.14,2.19l3.92,6.78-1.6.92Z" fill="none"/><path d="M41.51,33.44H33.68V31.59L28.85,38l4.83,6.36V42.46h4.19c1,0,1.38,0,1.9-1L45.49,31C44.27,32.26,42.91,33.44,41.51,33.44Z" fill="none"/><path d="M27.29,0A27.3,27.3,0,1,0,54.58,27.29,27.29,27.29,0,0,0,27.29,0ZM45.44,28.58c-2.11,3-2.68,3.7-8.17,3.46L33.15,25l7.58-4.38ZM19.77,11.81c3.67.32,4.54.47,7.07,5.34l-4.07,7.1-7.58-4.37ZM9.46,31.1c-.57-.93-.42-1.27.08-2.14l2.1-3.63L10,24.41l7.92-1,3.1,7.36-1.6-.92-3.91,6.77c-.7,1.22-.36,3,.16,4.69ZM27.07,42.37l-9.28.07c-1.57-3.33-1.87-4.16,1.09-8.79l8.19,0ZM25.93,12.78c-.7-1.21-2.4-1.8-4.14-2.19l12-.31c1.09,0,1.31.27,1.82,1.14l2.09,3.63,1.6-.93-3.09,7.36-7.93-1,1.6-.92ZM39.77,41.46c-.52,1-.89,1-1.9,1H33.68v1.85L28.85,38l4.83-6.36v1.85h7.83c1.4,0,2.76-1.18,4-2.49Z"/></g></g></svg>