<svg xmlns="http://www.w3.org/2000/svg" viewBox="0 0 58.17 38.42"><title>upload</title><g id="82eca94f-1317-4ed5-b0d3-616d21c340de" data-name="圖層 2"><g id="1456ab80-9100-4aa2-bcaf-fe01307d20ed" data-name="圖層 1"><path d="M47.09,16a11,11,0,0,0-2.48.25v-.13a15.85,15.85,0,0,0-31.4-3.31h-.52a12.8,12.8,0,0,0-.3,25.6H24.27V29.57H19.84a1.16,1.16,0,0,1-1-.65,1.07,1.07,0,0,1,.07-1.18L28.16,14.3a1.08,1.08,0,0,1,.91-.52,1,1,0,0,1,.92.52l9.25,13.46a1.28,1.28,0,0,1,.19.66,1.19,1.19,0,0,1-1.18,1.17H33.94V38.4l13.26,0a11.27,11.27,0,0,0,11-10.5V26.55A11.21,11.21,0,0,0,47.09,16" fill="#221f20"/></g></g></svg>