<svg width="41" height="42" viewBox="0 0 41 42" fill="none" xmlns="http://www.w3.org/2000/svg">
<path d="M21.3 29.8C21.3 30.6837 22.0163 31.4 22.9 31.4C23.7837 31.4 24.5 30.6837 24.5 29.8C24.5 28.9163 23.7837 28.2 22.9 28.2C22.0163 28.2 21.3 28.9163 21.3 29.8ZM21.3 29.8H18.1C17.22 29.8 16.5 30.52 16.5 31.4V41M26.1 36.2C26.1 37.0837 25.3837 37.8 24.5 37.8C23.6163 37.8 22.9 37.0837 22.9 36.2C22.9 35.3163 23.6163 34.6 24.5 34.6C25.3837 34.6 26.1 35.3163 26.1 36.2ZM26.1 36.2H35.7M29.3 25C30.1837 25 30.9 24.2837 30.9 23.4C30.9 22.5163 30.1837 21.8 29.3 21.8C28.4163 21.8 27.7 22.5163 27.7 23.4C27.7 24.2837 28.4163 25 29.3 25ZM29.3 25V29.8C29.3 30.68 30.02 31.4 30.9 31.4H35.7M11.7 31.4C12.5837 31.4 13.3 30.6837 13.3 29.8C13.3 28.9163 12.5837 28.2 11.7 28.2C10.8163 28.2 10.1 28.9163 10.1 29.8C10.1 30.6837 10.8163 31.4 11.7 31.4ZM11.7 31.4V34.6C11.7 35.48 10.98 36.2 10.1 36.2H5.3M5.3 36.2C5.3 38.851 7.44904 41 10.1 41H30.9C33.551 41 35.7 38.851 35.7 36.2M5.3 36.2V23.4M35.7 36.2V23.4C35.7 20.749 33.551 18.6 30.9 18.6M16.5 23.4C16.5 24.2837 17.2163 25 18.1 25C18.9837 25 19.7 24.2837 19.7 23.4C19.7 22.5163 18.9837 21.8 18.1 21.8C17.2163 21.8 16.5 22.5163 16.5 23.4ZM16.5 23.4H5.3M5.3 23.4C5.3 20.749 7.44904 18.6 10.1 18.6M10.1 18.6H30.9M10.1 18.6V11.4C10.1 5.656 14.756 1 20.5 1C26.244 1 30.9 5.656 30.9 11.4V18.6" stroke="white" stroke-width="2" stroke-linejoin="round"/>
</svg>
