<svg width="32" height="32" viewBox="0 0 32 32" fill="none" xmlns="http://www.w3.org/2000/svg">
<path d="M16 0C14.4228 -1.40196e-06 12.8611 0.310934 11.4041 0.91499C9.94716 1.51905 8.62358 2.40436 7.50907 3.52036C6.39455 4.63636 5.51097 5.96114 4.90886 7.4189C4.30674 8.87665 3.99791 10.4388 4.00001 12.016C4.00001 18.64 16 32 16 32C16 32 28.016 18.64 28.016 12.016C28.016 8.82917 26.75 5.77282 24.4966 3.51938C22.2432 1.26595 19.1869 0 16 0ZM16 15.728C15.1101 15.728 14.2402 15.4639 13.5005 14.9691C12.7608 14.4744 12.1846 13.7713 11.8447 12.9488C11.5049 12.1264 11.4168 11.2215 11.5916 10.349C11.7664 9.4764 12.1962 8.6753 12.8266 8.04717C13.4569 7.41903 14.2595 6.99213 15.1327 6.82046C16.0059 6.64879 16.9104 6.74012 17.7317 7.08286C18.5529 7.42561 19.254 8.00434 19.7461 8.7458C20.2382 9.48727 20.4992 10.3581 20.496 11.248C20.4918 12.4376 20.0162 13.5771 19.1735 14.4168C18.3308 15.2565 17.1897 15.728 16 15.728V15.728Z" fill="black"/>
</svg>
