<svg width="33" height="33" viewBox="0 0 33 33" fill="none" xmlns="http://www.w3.org/2000/svg">
<path fill-rule="evenodd" clip-rule="evenodd" d="M12.5096 0.892522C14.6966 0.1269 17.012 0.0437555 19.235 0.652491C21.4569 1.26096 23.5005 2.53686 25.1803 4.34379C26.8592 6.14985 28.1212 8.42814 28.8611 10.9588C29.1071 11.8002 28.6866 12.7017 27.9219 12.9724C27.1572 13.243 26.3378 12.7804 26.0918 11.939C25.4904 9.88222 24.4728 8.05912 23.1466 6.63245C21.8212 5.20668 20.2319 4.2239 18.5324 3.75849C16.8338 3.29335 15.0669 3.35613 13.3916 3.94261C11.7152 4.52949 10.1732 5.62621 8.9166 7.14783C8.9064 7.16019 8.89602 7.17237 8.88546 7.18437L5.13564 11.4489H9.63843C10.4418 11.4489 11.093 12.1654 11.093 13.0492C11.093 13.9331 10.4418 14.6496 9.63843 14.6496H1.70455C0.901222 14.6496 0.25 13.9331 0.25 13.0492V3.44697C0.25 2.56311 0.901222 1.84659 1.70455 1.84659C2.50787 1.84659 3.15909 2.56311 3.15909 3.44697V9.09342L6.77931 4.97632C8.36232 3.06588 10.3309 1.65521 12.5096 0.892522ZM21.407 19.4508C21.407 18.5669 22.0582 17.8504 22.8616 17.8504H30.7955C31.5988 17.8504 32.25 18.5669 32.25 19.4508V29.053C32.25 29.9369 31.5988 30.6534 30.7955 30.6534C29.9921 30.6534 29.3409 29.9369 29.3409 29.053V23.4066L25.7207 27.5237C24.1377 29.4341 22.1691 30.8448 19.9904 31.6075C17.8034 32.3731 15.488 32.4562 13.265 31.8475C11.0431 31.239 8.99947 29.9631 7.31972 28.1562C5.64078 26.3502 4.37881 24.0719 3.63889 21.5412C3.39288 20.6998 3.81339 19.7983 4.57811 19.5276C5.34284 19.257 6.1622 19.7196 6.40821 20.561C7.00957 22.6178 8.02717 24.4409 9.35342 25.8675C10.6788 27.2933 12.2681 28.2761 13.9676 28.7415C15.6662 29.2067 17.4331 29.1439 19.1084 28.5574C20.7848 27.9705 22.3268 26.8738 23.5834 25.3522C23.5936 25.3398 23.604 25.3276 23.6145 25.3156L27.3644 21.0511H22.8616C22.0582 21.0511 21.407 20.3346 21.407 19.4508Z" fill="black"/>
</svg>
