<svg width="32" height="32" viewBox="0 0 32 32" fill="none" xmlns="http://www.w3.org/2000/svg">
<g clip-path="url(#clip0_2488_1454)">
<path fill-rule="evenodd" clip-rule="evenodd" d="M16 0C16.7364 0 17.3333 0.596954 17.3333 1.33333V17.6699L23.2053 11.7979C23.726 11.2772 24.5703 11.2772 25.091 11.7979C25.6117 12.3186 25.6117 13.1629 25.091 13.6835L16.9428 21.8317C16.4221 22.3524 15.5779 22.3524 15.0572 21.8317L6.90904 13.6835C6.38834 13.1629 6.38834 12.3186 6.90904 11.7979C7.42974 11.2772 8.27396 11.2772 8.79466 11.7979L14.6667 17.6699V1.33333C14.6667 0.596954 15.2636 0 16 0ZM1.33333 19.5556C2.06971 19.5556 2.66667 20.1525 2.66667 20.8889V27.4074C2.66667 27.9182 2.86958 28.4081 3.23076 28.7692C3.59194 29.1304 4.08181 29.3333 4.59259 29.3333H27.4074C27.9182 29.3333 28.4081 29.1304 28.7692 28.7692C29.1304 28.4081 29.3333 27.9182 29.3333 27.4074V20.8889C29.3333 20.1525 29.9303 19.5556 30.6667 19.5556C31.403 19.5556 32 20.1525 32 20.8889V27.4074C32 28.6254 31.5161 29.7936 30.6549 30.6549C29.7936 31.5161 28.6254 32 27.4074 32H4.59259C3.37456 32 2.20642 31.5161 1.34514 30.6549C0.483861 29.7936 0 28.6254 0 27.4074V20.8889C0 20.1525 0.596954 19.5556 1.33333 19.5556Z" fill="black"/>
</g>
<defs>
<clipPath id="clip0_2488_1454">
<rect width="32" height="32" fill="white"/>
</clipPath>
</defs>
</svg>
