<svg width="32" height="32" viewBox="0 0 32 32" fill="none" xmlns="http://www.w3.org/2000/svg">
<path d="M26.0918 11.8246H25.4311C25.0069 11.4352 24.3393 11.1292 23.31 11.1292H21.2584C20.8341 10.7397 20.1665 10.4337 19.1372 10.4337H17.7463V3.47905C17.7463 2.79055 17.7463 0.697202 14.9644 0.697202C12.1826 0.697202 12.1826 2.79055 12.1826 3.47905V17.3883C12.1826 17.7361 12.1269 17.9238 12.0922 18.0073C11.96 17.9795 11.5149 17.8265 10.583 16.9015C8.87911 15.1976 6.9944 14.5369 5.54089 15.142C4.45596 15.594 3.83005 16.665 3.83005 18.0907C3.83005 18.2785 3.90655 18.4524 4.03173 18.5845C6.18767 20.7405 8.16974 23.4667 9.4633 26.0538C11.4384 29.9971 14.9227 32 19.8187 32C26.0988 32 29.5552 28.5435 29.5552 22.2635V16.6998C29.5552 13.6537 28.2547 11.8316 26.0779 11.8316L26.0918 11.8246ZM19.8327 30.6021C15.4999 30.6021 12.4399 28.8565 10.7151 25.4209C9.40071 22.7921 7.41168 20.0311 5.23488 17.8056C5.29747 17.1101 5.58957 16.6164 6.07639 16.4147C6.75099 16.1365 8.07933 16.3521 9.60239 17.8751C10.4161 18.6888 11.6192 19.7181 12.6416 19.3008C13.0658 19.127 13.5735 18.6471 13.5735 17.3883V3.47905C13.5735 2.70014 13.5735 2.08813 14.9644 2.08813C16.3553 2.08813 16.3553 2.70014 16.3553 3.47905V13.911C16.3553 15.3019 17.0508 15.9974 17.7463 15.9974V11.8246H19.1372C20.4168 11.8246 20.5212 12.4227 20.5281 12.5201V13.2155C20.5281 14.6065 21.2236 15.3019 21.919 15.3019V12.5201H23.31C24.5896 12.5201 24.6939 13.1182 24.7009 13.2155C24.7009 14.6065 25.3964 15.3019 26.0918 15.3019V13.2155C27.9765 13.2155 28.1782 15.6497 28.1782 16.6929V22.2566C28.1782 27.7924 25.3685 30.6021 19.8327 30.6021Z" fill="black"/>
<path d="M5.92339 6.95637C6.10421 6.95637 6.27808 6.88683 6.41717 6.75469C6.6884 6.48346 6.6884 6.04531 6.41717 5.77408L4.82456 4.18147H10.1031C10.4856 4.18147 10.7986 3.86851 10.7986 3.48601C10.7986 3.1035 10.4856 2.79055 10.1031 2.79055H4.8176L6.41021 1.19794C6.68145 0.926705 6.68145 0.488563 6.41021 0.217332C6.13898 -0.0538984 5.70084 -0.0538984 5.42961 0.217332L2.64776 2.98528C2.37653 3.25651 2.37653 3.69465 2.64776 3.96588L5.42961 6.74773C5.5687 6.88682 5.74257 6.94942 5.92339 6.94942V6.95637Z" fill="black"/>
<path d="M19.8327 4.17452H25.1112L23.5186 5.76713C23.2474 6.03836 23.2474 6.4765 23.5186 6.74773C23.6577 6.88682 23.8316 6.94942 24.0124 6.94942C24.1932 6.94942 24.3671 6.87987 24.5062 6.74773L27.288 3.96588C27.5593 3.69465 27.5593 3.25651 27.288 2.98528L24.4992 0.203423C24.228 -0.0678077 23.7898 -0.0678077 23.5186 0.203423C23.2474 0.474654 23.2474 0.912796 23.5186 1.18403L25.1112 2.77664H19.8327C19.4502 2.77664 19.1372 3.0896 19.1372 3.4721C19.1372 3.8546 19.4502 4.16756 19.8327 4.16756V4.17452Z" fill="black"/>
</svg>
