<svg width="33" height="32" viewBox="0 0 33 32" fill="none" xmlns="http://www.w3.org/2000/svg">
<path fill-rule="evenodd" clip-rule="evenodd" d="M1.50448 0.52075C1.99794 0.0113718 2.74041 -0.140262 3.38459 0.136775L30.9401 11.9872C31.6014 12.2716 32.0231 12.949 31.999 13.6881C31.9749 14.4272 31.51 15.0737 30.8316 15.3116L21.4538 18.5995L29.9205 27.3393C30.5931 28.0335 30.5931 29.1592 29.9205 29.8534C29.2479 30.5477 28.1575 30.5477 27.4849 29.8534L19.0183 21.1136L15.8331 30.794C15.6027 31.4942 14.9764 31.9741 14.2603 31.999C13.5443 32.0239 12.8881 31.5886 12.6126 30.9059L1.1325 2.46152C0.864121 1.79655 1.01102 1.03013 1.50448 0.52075ZM5.92035 5.07907L14.0383 25.193L16.6473 17.2637C16.8195 16.7406 17.2174 16.3298 17.7242 16.1521L25.4057 13.4589L5.92035 5.07907Z" fill="black"/>
</svg>
