<svg width="32" height="32" viewBox="0 0 32 32" fill="none" xmlns="http://www.w3.org/2000/svg">
<g clip-path="url(#clip0_2667_1461)">
<path d="M31.9356 23.9581V28.7754C31.9374 29.2226 31.8458 29.6653 31.6667 30.0751C31.4875 30.4848 31.2247 30.8526 30.8952 31.155C30.5657 31.4573 30.1766 31.6875 29.753 31.8307C29.3293 31.974 28.8804 32.0272 28.435 31.987C23.4938 31.4501 18.7475 29.7616 14.5773 27.0573C10.6975 24.5919 7.40811 21.3025 4.94273 17.4227C2.22895 13.2336 0.540114 8.46413 0.0130335 3.50072C-0.0270937 3.05667 0.0256788 2.60914 0.16799 2.1866C0.310302 1.76407 0.539035 1.3758 0.839626 1.04651C1.14022 0.717214 1.50608 0.45412 1.91392 0.273974C2.32176 0.0938272 2.76265 0.000575556 3.2085 0.000155683H8.02579C8.80508 -0.00751416 9.56057 0.268444 10.1514 0.776595C10.7423 1.28475 11.1283 1.99041 11.2373 2.76207C11.4406 4.30371 11.8177 5.8174 12.3614 7.27426C12.5774 7.84901 12.6242 8.47363 12.4961 9.07413C12.368 9.67463 12.0705 10.2258 11.6388 10.6624L9.59944 12.7017C11.8853 16.7218 15.2139 20.0504 19.234 22.3363L21.2733 20.297C21.7099 19.8653 22.2611 19.5677 22.8616 19.4397C23.4621 19.3116 24.0868 19.3584 24.6615 19.5744C26.1184 20.118 27.6321 20.4951 29.1737 20.6984C29.9537 20.8085 30.6661 21.2014 31.1753 21.8024C31.6846 22.4034 31.9552 23.1706 31.9356 23.9581Z" fill="black"/>
</g>
<defs>
<clipPath id="clip0_2667_1461">
<rect width="32" height="32" fill="white"/>
</clipPath>
</defs>
</svg>
