<svg width="32" height="32" viewBox="0 0 32 32" fill="none" xmlns="http://www.w3.org/2000/svg">
<path d="M2.83796 19.0199C1.28998 19.0199 0 17.8159 0 16.053C0 14.247 1.28998 13 2.83796 13C4.38594 13 5.67592 14.247 5.67592 16.053C5.67592 17.8159 4.38594 19.0199 2.83796 19.0199Z" fill="black"/>
<path d="M16 19.0199C14.452 19.0199 13.162 17.8159 13.162 16.053C13.162 14.247 14.452 13 16 13C17.548 13 18.838 14.247 18.838 16.053C18.838 17.8159 17.548 19.0199 16 19.0199Z" fill="black"/>
<path d="M29.162 19.0199C27.6141 19.0199 26.3241 17.8159 26.3241 16.053C26.3241 14.247 27.6141 13 29.162 13C30.71 13 32 14.247 32 16.053C32 17.8159 30.71 19.0199 29.162 19.0199Z" fill="black"/>
</svg>
