<svg width="32" height="32" viewBox="0 0 32 32" fill="none" xmlns="http://www.w3.org/2000/svg">
<g clip-path="url(#clip0_2149_434)">
<path fill-rule="evenodd" clip-rule="evenodd" d="M14.3407 2.13333C7.59878 2.13333 2.13333 7.59878 2.13333 14.3407C2.13333 21.0827 7.59878 26.5481 14.3407 26.5481C17.6477 26.5481 20.6475 25.2332 22.8459 23.0977C22.8799 23.0498 22.9184 23.0042 22.9613 22.9613C23.0042 22.9184 23.0498 22.8799 23.0977 22.8459C25.2332 20.6475 26.5481 17.6477 26.5481 14.3407C26.5481 7.59878 21.0827 2.13333 14.3407 2.13333ZM25.2075 23.699C27.3725 21.1873 28.6815 17.9169 28.6815 14.3407C28.6815 6.42057 22.2609 0 14.3407 0C6.42057 0 0 6.42057 0 14.3407C0 22.2609 6.42057 28.6815 14.3407 28.6815C17.9169 28.6815 21.1873 27.3725 23.699 25.2075L30.1791 31.6876C30.5956 32.1041 31.271 32.1041 31.6876 31.6876C32.1041 31.271 32.1041 30.5956 31.6876 30.1791L25.2075 23.699Z" fill="black"/>
</g>
<defs>
<clipPath id="clip0_2149_434">
<rect width="32" height="32" fill="white"/>
</clipPath>
</defs>
</svg>
