<svg width="32" height="32" viewBox="0 0 32 32" fill="none" xmlns="http://www.w3.org/2000/svg">
<path fill-rule="evenodd" clip-rule="evenodd" d="M8.09734 3.9646C7.79692 3.9646 7.5088 4.08394 7.29637 4.29637C7.08394 4.5088 6.9646 4.79692 6.9646 5.09734V26.1657L14.7328 20.617C15.422 20.1247 16.3479 20.1247 17.0371 20.617L24.8053 26.1657V5.09734C24.8053 4.79692 24.686 4.5088 24.4735 4.29637C24.2611 4.08394 23.973 3.9646 23.6726 3.9646H8.09734ZM4.49298 1.49298C5.44892 0.53704 6.74544 0 8.09734 0H23.6726C25.0245 0 26.321 0.53704 27.2769 1.49298C28.2329 2.44891 28.7699 3.74544 28.7699 5.09734V30.0177C28.7699 30.7602 28.3549 31.4405 27.6947 31.7803C27.0344 32.1201 26.2396 32.0624 25.6354 31.6308L15.885 24.6661L6.13449 31.6308C5.53026 32.0624 4.73548 32.1201 4.07524 31.7803C3.41499 31.4405 3 30.7602 3 30.0177V5.09734C3 3.74544 3.53704 2.44892 4.49298 1.49298Z" fill="black"/>
</svg>
