<svg width="32" height="32" viewBox="0 0 32 32" fill="none" xmlns="http://www.w3.org/2000/svg">
<path fill-rule="evenodd" clip-rule="evenodd" d="M14.0092 2.49603C14.6169 2.15387 15.3026 1.97412 16 1.97412C16.6974 1.97412 17.3831 2.15387 17.9908 2.49603C18.5986 2.83819 19.1078 3.3312 19.4695 3.92751L19.4731 3.93335L31.4563 23.9385C31.8107 24.5521 31.998 25.2478 32 25.9564C32.002 26.665 31.8184 27.3617 31.4675 27.9773C31.1166 28.5929 30.6107 29.1058 30 29.4652C29.3893 29.8245 28.6952 30.0177 27.9866 30.0255L27.9731 30.0256L4.01335 30.0255C3.30483 30.0178 2.6107 29.8245 2.00002 29.4652C1.38933 29.1058 0.883377 28.5929 0.532495 27.9773C0.181613 27.3617 -0.00196812 26.665 1.59125e-05 25.9564C0.00199985 25.2478 0.18948 24.5521 0.543804 23.9385L0.553666 23.9215L12.5304 3.9275C12.8921 3.33119 13.4014 2.83819 14.0092 2.49603ZM16 4.43566C15.7256 4.43566 15.4559 4.50637 15.2168 4.64098C14.9786 4.77511 14.7788 4.96816 14.6366 5.20163C14.6361 5.20246 14.6356 5.20329 14.6351 5.20413L2.67127 25.1768C2.5346 25.4164 2.46232 25.6874 2.46154 25.9633C2.46076 26.242 2.53299 26.5161 2.67102 26.7583C2.80906 27.0005 3.00811 27.2023 3.24835 27.3437C3.48695 27.4841 3.75792 27.56 4.03466 27.564H27.9653C28.2421 27.56 28.513 27.4841 28.7516 27.3437C28.9919 27.2023 29.1909 27.0005 29.329 26.7583C29.467 26.5161 29.5392 26.242 29.5385 25.9633C29.5377 25.6874 29.4654 25.4164 29.3287 25.1768L17.3649 5.20413C17.3644 5.20329 17.3639 5.20246 17.3634 5.20163C17.2212 4.96816 17.0214 4.77511 16.7832 4.64098C16.5441 4.50637 16.2744 4.43566 16 4.43566ZM16 10.6009C16.6797 10.6009 17.2308 11.1519 17.2308 11.8317V17.486C17.2308 18.1658 16.6797 18.7168 16 18.7168C15.3203 18.7168 14.7692 18.1658 14.7692 17.486V11.8317C14.7692 11.1519 15.3203 10.6009 16 10.6009ZM14.7692 23.1404C14.7692 22.4607 15.3203 21.9096 16 21.9096H16.0141C16.6939 21.9096 17.2449 22.4607 17.2449 23.1404C17.2449 23.8201 16.6939 24.3712 16.0141 24.3712H16C15.3203 24.3712 14.7692 23.8201 14.7692 23.1404Z" fill="black"/>
</svg>
