<svg width="32" height="32" viewBox="0 0 32 32" fill="none" xmlns="http://www.w3.org/2000/svg">
<g clip-path="url(#clip0_2815_1457)">
<path fill-rule="evenodd" clip-rule="evenodd" d="M20.8485 2.90909C20.0452 2.90909 19.3939 2.25787 19.3939 1.45455C19.3939 0.651222 20.0452 0 20.8485 0H30.5455C31.3488 0 32 0.651222 32 1.45455V11.1515C32 11.9548 31.3488 12.6061 30.5455 12.6061C29.7421 12.6061 29.0909 11.9548 29.0909 11.1515V4.96613L13.7962 20.2608C13.2282 20.8289 12.3072 20.8289 11.7392 20.2608C11.1711 19.6928 11.1711 18.7718 11.7392 18.2038L27.0339 2.90909H20.8485ZM4.68687 7.75758C4.21537 7.75758 3.76319 7.94488 3.42979 8.27828C3.09639 8.61167 2.90909 9.06386 2.90909 9.53535V27.3131C2.90909 27.7846 3.09639 28.2368 3.42979 28.5702C3.76319 28.9036 4.21537 29.0909 4.68687 29.0909H22.4646C22.9361 29.0909 23.3883 28.9036 23.7217 28.5702C24.0551 28.2368 24.2424 27.7846 24.2424 27.3131V17.6162C24.2424 16.8128 24.8936 16.1616 25.697 16.1616C26.5003 16.1616 27.1515 16.8128 27.1515 17.6162V27.3131C27.1515 28.5562 26.6577 29.7483 25.7788 30.6273C24.8998 31.5062 23.7077 32 22.4646 32H4.68687C3.44383 32 2.25171 31.5062 1.37275 30.6273C0.493794 29.7483 0 28.5562 0 27.3131V9.53535C0 8.29232 0.493793 7.1002 1.37275 6.22124C2.25171 5.34228 3.44383 4.84849 4.68687 4.84849H14.3838C15.1872 4.84849 15.8384 5.49971 15.8384 6.30303C15.8384 7.10635 15.1872 7.75758 14.3838 7.75758H4.68687Z" fill="black"/>
</g>
<defs>
<clipPath id="clip0_2815_1457">
<rect width="32" height="32" fill="white"/>
</clipPath>
</defs>
</svg>
