<svg width="32" height="32" viewBox="0 0 32 32" fill="none" xmlns="http://www.w3.org/2000/svg">
<path d="M24.2142 23.4494H22.5299V22.4273C22.5336 22.2109 22.6213 22.0043 22.7744 21.8512C22.9274 21.6982 23.134 21.6105 23.3505 21.6068H23.4656C23.6846 21.6068 23.8948 21.6928 24.051 21.8462C24.2071 21.9997 24.2967 22.2084 24.3005 22.4273L24.2142 23.4494ZM17.6213 21.2613C17.4249 21.2453 17.2301 21.3074 17.0792 21.4341C16.9283 21.5607 16.8334 21.7417 16.8151 21.9379V26.9042C16.8369 27.0977 16.9333 27.2752 17.0839 27.3988C17.2344 27.5225 17.4271 27.5826 17.6213 27.5663C17.817 27.5828 18.0115 27.5231 18.1643 27.3998C18.3171 27.2765 18.4165 27.0989 18.4418 26.9042V21.9379C18.42 21.7405 18.322 21.5594 18.1688 21.4331C18.0156 21.3068 17.8192 21.2452 17.6213 21.2613ZM28.2879 18.4255V27.883C28.2361 28.9931 27.7583 30.0404 26.954 30.8072C26.1497 31.574 25.0807 32.0012 23.9694 32H6.00452C4.89327 32.0012 3.82431 31.574 3.01999 30.8072C2.21567 30.0404 1.73789 28.9931 1.68604 27.883V18.4255C1.73789 17.3155 2.21567 16.2682 3.01999 15.5014C3.82431 14.7346 4.89327 14.3074 6.00452 14.3086H23.9694C25.0807 14.3074 26.1497 14.7346 26.954 15.5014C27.7583 16.2682 28.2361 17.3155 28.2879 18.4255ZM7.15612 28.9051V18.9582H9.43052V17.5187H3.4998V18.9582H5.34235V28.9339L7.15612 28.9051ZM13.893 20.4408H12.0216V25.7526C12.0466 26.1793 12.0466 26.6071 12.0216 27.0337C11.8633 27.4512 11.1867 27.883 10.9276 27.0337C10.8992 26.6024 10.8992 26.1696 10.9276 25.7382V20.3977H9.07065V25.6518C9.07065 26.4723 9.07065 27.0913 9.07065 27.336C9.07065 27.8254 9.07065 28.3869 9.56008 28.7755C10.0714 29.0089 10.652 29.0407 11.1857 28.8646C11.7195 28.6884 12.1671 28.3173 12.4391 27.8254V28.9339H13.8786V20.4696L13.893 20.4408ZM19.8237 26.5155V22.0963C19.8237 20.412 18.5569 19.4044 16.8439 20.7575V17.4755H14.987V28.8331H16.5128L16.6424 28.1277C18.6001 29.9127 19.8237 28.6891 19.8093 26.5443L19.8237 26.5155ZM25.5817 25.9397H24.1422V26.9042C24.1422 27.0037 24.1224 27.1022 24.0839 27.194C24.0453 27.2858 23.9889 27.3689 23.9179 27.4386C23.8468 27.5083 23.7626 27.5632 23.6701 27.5999C23.5776 27.6367 23.4787 27.6546 23.3792 27.6527H23.1057C23.0062 27.6546 22.9074 27.6367 22.8149 27.5999C22.7224 27.5632 22.6382 27.5083 22.5671 27.4386C22.4961 27.3689 22.4396 27.2858 22.4011 27.194C22.3626 27.1022 22.3428 27.0037 22.3428 26.9042V24.8889H25.5385V23.6941C25.5499 22.9394 25.5162 22.1848 25.4377 21.4341C25.2074 19.8507 22.9906 19.6059 21.8678 20.412C21.4983 20.6654 21.2246 21.0355 21.0904 21.4629C20.9088 22.0694 20.8261 22.7013 20.8457 23.3342V25.9685C20.8457 30.359 26.1719 29.74 25.5385 25.9685L25.5817 25.9397ZM18.3842 11.6167C18.4785 11.8413 18.6329 12.0356 18.8304 12.1781C19.0559 12.3281 19.3227 12.4036 19.5934 12.3941C19.8478 12.3994 20.0965 12.3182 20.2987 12.1637C20.529 11.9948 20.7083 11.7657 20.8169 11.5016V12.2357H22.9618V3.42599H21.3352V10.278C21.3352 10.4689 21.2593 10.652 21.1243 10.7869C20.9894 10.9219 20.8063 10.9978 20.6154 10.9978C20.4245 10.9978 20.2415 10.9219 20.1065 10.7869C19.9715 10.652 19.8957 10.4689 19.8957 10.278V3.42599H18.2115V9.37111C18.2115 10.1197 18.2115 10.6235 18.2115 10.8826C18.2261 11.1355 18.2846 11.3839 18.3842 11.6167ZM12.108 6.65047C12.136 5.99959 12.2522 5.35553 12.4535 4.73593C12.5784 4.26618 12.8613 3.85378 13.2545 3.56803C13.6477 3.28229 14.1273 3.14063 14.6127 3.16689C15.0419 3.15166 15.4679 3.24578 15.8507 3.4404C16.1742 3.60518 16.4476 3.85373 16.6424 4.16014C16.8224 4.44341 16.9538 4.7548 17.0311 5.08142C17.106 5.55746 17.1397 6.03908 17.1318 6.52092V8.73773C17.1483 9.33928 17.1146 9.94115 17.0311 10.5371C16.9708 10.9205 16.8337 11.2877 16.628 11.6167C16.4373 11.9318 16.1565 12.1825 15.8219 12.3365C15.4788 12.5098 15.0976 12.594 14.7135 12.5812C14.3014 12.5899 13.8913 12.5215 13.5043 12.3797C13.1946 12.253 12.9292 12.0377 12.7414 11.7607C12.5527 11.4611 12.421 11.1292 12.3527 10.7818C12.2644 10.2056 12.2259 9.62286 12.2375 9.04003L12.108 6.65047ZM13.893 10.134C13.8871 10.2475 13.9038 10.361 13.9419 10.468C13.98 10.575 14.0388 10.6735 14.1151 10.7577C14.1913 10.842 14.2834 10.9103 14.3861 10.9589C14.4887 11.0075 14.6 11.0354 14.7135 11.0409C14.8269 11.0354 14.9382 11.0075 15.0409 10.9589C15.1436 10.9103 15.2357 10.842 15.3119 10.7577C15.3881 10.6735 15.447 10.575 15.4851 10.468C15.5232 10.361 15.5398 10.2475 15.534 10.134V5.45568C15.5398 5.34223 15.5232 5.22875 15.4851 5.12173C15.447 5.01471 15.3881 4.91625 15.3119 4.83201C15.2357 4.74777 15.1436 4.67938 15.0409 4.63079C14.9382 4.58219 14.8269 4.55432 14.7135 4.54879C14.6 4.55432 14.4887 4.58219 14.3861 4.63079C14.2834 4.67938 14.1913 4.74777 14.1151 4.83201C14.0388 4.91625 13.98 5.01471 13.9419 5.12173C13.9038 5.22875 13.8871 5.34223 13.893 5.45568V10.134ZM8.13498 12.5092H10.0927V5.75799L12.3959 0H10.2366L9.01307 4.31849L7.76071 0H5.64465L8.10619 5.75799L8.13498 12.5092Z" fill="black"/>
</svg>
