<svg xmlns="http://www.w3.org/2000/svg" viewBox="0 0 25 25"><defs><style>.cls-1{fill:#fff;}.cls-2{fill:#333;}</style></defs><g id="圖層_2" data-name="圖層 2"><g id="圖層_1-2" data-name="圖層 1"><path class="cls-1" d="M12.5,0h0A12.5,12.5,0,0,0,0,12.5H0A12.5,12.5,0,0,0,12.5,25h0A12.5,12.5,0,0,0,25,12.5h0A12.5,12.5,0,0,0,12.5,0Z"/><path class="cls-2" d="M12.5,10a1,1,0,1,1,.95-.95.94.94,0,0,1-.95.95Zm-.72,6.86a.15.15,0,0,1-.11,0,.17.17,0,0,1,0-.1v-5.9a.12.12,0,0,1,0-.09.16.16,0,0,1,.11-.05h1.4a.12.12,0,0,1,.1.05.11.11,0,0,1,.05.09v5.9a.14.14,0,0,1-.05.1.12.12,0,0,1-.1,0Z"/></g></g></svg>