<svg width="35" height="35" viewBox="0 0 35 35" fill="none" xmlns="http://www.w3.org/2000/svg">
<path fill-rule="evenodd" clip-rule="evenodd" d="M10.9583 0V2.91667H9.45833V0H10.9583ZM14.6042 0V2.91667H13.1042V0H14.6042ZM18.25 0V2.91667H16.75V0H18.25ZM21.8958 0V2.91667H20.3958V0H21.8958ZM25.5417 0V2.91667H24.0417V0H25.5417ZM9.16851 4.35417H25.8315L30.6458 9.16851V25.8315L25.8315 30.6458H9.16851L4.35417 25.8315V9.16851L9.16851 4.35417ZM9.78983 5.85417L5.85417 9.78983V25.2102L9.78983 29.1458H25.2102L29.1458 25.2102V9.78983L25.2102 5.85417H9.78983ZM0 9.45833H2.91667V10.9583H0V9.45833ZM32.0833 9.45833H35V10.9583H32.0833V9.45833ZM12.375 12.375H22.625V22.625H12.375V12.375ZM13.875 13.875V21.125H21.125V13.875H13.875ZM0 13.1042H2.91667V14.6042H0V13.1042ZM32.0833 13.1042H35V14.6042H32.0833V13.1042ZM9.45833 15.3125V13.8542H10.9583V15.3125H9.45833ZM24.0417 15.3125V13.8542H25.5417V15.3125H24.0417ZM0 16.75H2.91667V18.25H0V16.75ZM32.0833 16.75H35V18.25H32.0833V16.75ZM9.45833 18.2292V16.7708H10.9583V18.2292H9.45833ZM24.0417 18.2292V16.7708H25.5417V18.2292H24.0417ZM9.45833 21.1458V19.6875H10.9583V21.1458H9.45833ZM24.0417 21.1458V19.6875H25.5417V21.1458H24.0417ZM0 20.3958H2.91667V21.8958H0V20.3958ZM32.0833 20.3958H35V21.8958H32.0833V20.3958ZM0 24.0417H2.91667V25.5417H0V24.0417ZM32.0833 24.0417H35V25.5417H32.0833V24.0417ZM10.9583 32.0833V35H9.45833V32.0833H10.9583ZM14.6042 32.0833V35H13.1042V32.0833H14.6042ZM18.25 32.0833V35H16.75V32.0833H18.25ZM21.8958 32.0833V35H20.3958V32.0833H21.8958ZM25.5417 32.0833V35H24.0417V32.0833H25.5417Z" fill="#00AAE8"/>
</svg>
