<svg width="30" height="30" viewBox="0 0 30 30" fill="none" xmlns="http://www.w3.org/2000/svg">
<path fill-rule="evenodd" clip-rule="evenodd" d="M4.48318 11.3598C4.56688 5.07361 9.69224 0 15.9983 0H17.1596C23.4986 0 28.6717 5.18363 28.6757 11.5204M4.48318 11.3598L1.33439 15.776C0.632019 16.6571 1.09785 17.9105 2.15678 18.2118L2.15994 18.2127L4.49955 18.8615V22.5542C4.49955 24.424 6.01103 25.9355 7.88085 25.9355H11.4499V29.5161C11.4499 29.7834 11.6665 30 11.9337 30H23.5467C23.8139 30 24.0305 29.7834 24.0305 29.5161V20.3739C26.839 18.4468 28.6668 15.3114 28.6757 11.532C28.6757 11.5306 28.6757 11.5292 28.6757 11.5277M5.0191 18.0013C5.26968 18.0196 5.4673 18.2286 5.4673 18.4839V22.5542C5.4673 23.8895 6.5455 24.9677 7.88085 24.9677H11.9337C12.201 24.9677 12.4176 25.1844 12.4176 25.4516V29.0323H23.0628V20.1155C23.0628 19.952 23.1454 19.7995 23.2823 19.7102C25.9564 17.9663 27.7021 15.0612 27.7079 11.5221C27.7049 5.71769 22.9633 0.967742 17.1596 0.967742H15.9983C10.1745 0.967742 5.44988 5.6924 5.44988 11.5161C5.44988 11.6168 5.41845 11.715 5.35999 11.797L2.11418 16.3493C2.10822 16.3577 2.10199 16.3658 2.09551 16.3738C1.84934 16.6763 1.97591 17.1533 2.42034 17.2807C2.42079 17.2808 2.42124 17.2809 2.42169 17.2811L5.0191 18.0013ZM11.4499 10.3548C11.4499 7.52115 13.7452 5.22581 16.5789 5.22581C19.4126 5.22581 21.7079 7.52115 21.7079 10.3548C21.7079 12.1519 20.7823 13.7298 19.3854 14.6432V17.3226C19.3854 18.873 18.1294 20.129 16.5789 20.129C15.0285 20.129 13.7725 18.873 13.7725 17.3226V16.7429C13.7725 16.7426 13.7725 16.7432 13.7725 16.7429C13.7725 16.7426 13.7725 16.7413 13.7725 16.741V14.6432C12.3755 13.7298 11.4499 12.1519 11.4499 10.3548ZM14.7402 16.2581V14.3729C14.7402 14.2 14.648 14.0403 14.4983 13.9539C13.2538 13.2353 12.4176 11.8934 12.4176 10.3548C12.4176 8.05562 14.2797 6.19355 16.5789 6.19355C18.8781 6.19355 20.7402 8.05562 20.7402 10.3548C20.7402 11.8934 19.904 13.2353 18.6595 13.9539C18.5098 14.0403 18.4176 14.2 18.4176 14.3729V16.2581H17.0628V13.1682L18.663 11.568C18.852 11.379 18.852 11.0726 18.663 10.8837C18.474 10.6947 18.1677 10.6947 17.9787 10.8837L16.6617 12.2006C16.6348 12.196 16.6072 12.1936 16.5789 12.1936C16.5507 12.1936 16.523 12.196 16.4961 12.2006L15.1791 10.8837C14.9902 10.6947 14.6838 10.6947 14.4948 10.8837C14.3059 11.0726 14.3059 11.379 14.4948 11.568L16.095 13.1682V16.2581H14.7402ZM14.7402 17.2258V17.3226C14.7402 18.3386 15.5629 19.1613 16.5789 19.1613C17.5949 19.1613 18.4176 18.3386 18.4176 17.3226V17.2258H14.7402Z" fill="black"/>
</svg>
