<svg width="35" height="28" viewBox="0 0 35 28" fill="none" xmlns="http://www.w3.org/2000/svg">
<path d="M34.5069 18.3569L28.7094 15.8757L26.6894 16.7425L32.1768 19.0965L17.496 25.3871L2.81527 19.0886L8.30266 16.7346L6.28266 15.8677L0.485117 18.349C0.190866 18.4762 0 18.7625 0 19.0806C0 19.3987 0.190866 19.685 0.485117 19.8123L17.1859 26.9697C17.2893 27.0095 17.3926 27.0333 17.496 27.0333C17.5994 27.0333 17.7107 27.0095 17.8062 26.9697L34.5069 19.8123C34.8012 19.685 34.9921 19.3987 34.9921 19.0806C34.9921 18.7625 34.8012 18.4762 34.5069 18.349V18.3569Z" fill="#00AAE8"/>
<path d="M34.5069 12.79L28.7094 10.3087L26.6894 11.1756L32.1768 13.5296L17.496 19.8202L2.81527 13.5216L8.30266 11.1676L6.28266 10.3008L0.485117 12.782C0.190866 12.9093 0 13.1956 0 13.5137C0 13.8318 0.190866 14.1181 0.485117 14.2453L17.1859 21.4028C17.2893 21.4426 17.3926 21.4664 17.496 21.4664C17.5994 21.4664 17.7107 21.4426 17.8062 21.4028L34.5069 14.2453C34.8012 14.1181 34.9921 13.8318 34.9921 13.5137C34.9921 13.1956 34.8012 12.9093 34.5069 12.782V12.79Z" fill="#00AAE8"/>
<path d="M17.496 15.9075C17.3926 15.9075 17.2813 15.8836 17.1859 15.8438L0.485117 8.68638C0.190866 8.55913 0 8.27284 0 7.95473C0 7.63662 0.190866 7.35032 0.485117 7.22307L17.1859 0.0656101C17.3847 -0.02187 17.6153 -0.02187 17.8141 0.0656101L34.5149 7.22307C34.8091 7.35032 35 7.63662 35 7.95473C35 8.27284 34.8091 8.55913 34.5149 8.68638L17.8141 15.8438C17.7107 15.8836 17.6074 15.9075 17.504 15.9075H17.496ZM2.81527 7.95473L17.496 14.2453L32.1768 7.95473L17.496 1.66411L2.81527 7.95473Z" fill="#00AAE8"/>
</svg>
