<svg width="433" height="413" viewBox="0 0 433 413" fill="none" xmlns="http://www.w3.org/2000/svg">
<g opacity="0.05">
<g style="mix-blend-mode:multiply">
<path opacity="0.01" d="M215.516 356.168C327.366 356.168 418.039 351.788 418.039 346.384C418.039 340.98 327.366 336.6 215.516 336.6C103.665 336.6 12.9919 340.98 12.9919 346.384C12.9919 351.788 103.665 356.168 215.516 356.168Z" fill="#545454"/>
<path opacity="0.01" d="M215.516 356.053C327.137 356.053 417.623 351.703 417.623 346.338C417.623 340.973 327.137 336.623 215.516 336.623C103.894 336.623 13.4077 340.973 13.4077 346.338C13.4077 351.703 103.894 356.053 215.516 356.053Z" fill="#545454"/>
<path opacity="0.01" d="M215.515 355.926C326.901 355.926 417.196 351.607 417.196 346.28C417.196 340.953 326.901 336.634 215.515 336.634C104.13 336.634 13.8351 340.953 13.8351 346.28C13.8351 351.607 104.13 355.926 215.515 355.926Z" fill="#545454"/>
<path opacity="0.02" d="M215.516 355.81C326.665 355.81 416.769 351.522 416.769 346.234C416.769 340.945 326.665 336.657 215.516 336.657C104.367 336.657 14.2626 340.945 14.2626 346.234C14.2626 351.522 104.367 355.81 215.516 355.81Z" fill="#545454"/>
<path opacity="0.02" d="M215.516 355.683C326.428 355.683 416.341 351.427 416.341 346.176C416.341 340.925 326.428 336.669 215.516 336.669C104.603 336.669 14.6899 340.925 14.6899 346.176C14.6899 351.427 104.603 355.683 215.516 355.683Z" fill="#545454"/>
<path opacity="0.02" d="M215.516 355.568C326.192 355.568 415.914 351.342 415.914 346.13C415.914 340.918 326.192 336.692 215.516 336.692C104.839 336.692 15.1173 340.918 15.1173 346.13C15.1173 351.342 104.839 355.568 215.516 355.568Z" fill="#545454"/>
<path opacity="0.02" d="M215.516 355.441C325.956 355.441 415.486 351.247 415.486 346.072C415.486 340.898 325.956 336.704 215.516 336.704C105.075 336.704 15.5448 340.898 15.5448 346.072C15.5448 351.247 105.075 355.441 215.516 355.441Z" fill="#545454"/>
<path opacity="0.02" d="M215.516 355.337C325.72 355.337 415.059 351.168 415.059 346.026C415.059 340.884 325.72 336.715 215.516 336.715C105.311 336.715 15.9722 340.884 15.9722 346.026C15.9722 351.168 105.311 355.337 215.516 355.337Z" fill="#545454"/>
<path opacity="0.02" d="M215.516 355.21C325.484 355.21 414.632 351.072 414.632 345.968C414.632 340.865 325.484 336.727 215.516 336.727C105.547 336.727 16.3997 340.865 16.3997 345.968C16.3997 351.072 105.547 355.21 215.516 355.21Z" fill="#545454"/>
<path opacity="0.03" d="M215.516 355.094C325.248 355.094 414.204 350.988 414.204 345.922C414.204 340.856 325.248 336.75 215.516 336.75C105.783 336.75 16.827 340.856 16.827 345.922C16.827 350.988 105.783 355.094 215.516 355.094Z" fill="#545454"/>
<path opacity="0.03" d="M413.777 345.876C413.777 350.901 325.014 354.979 215.516 354.979C106.017 354.979 17.2545 350.901 17.2545 345.876C17.2545 340.851 106.017 336.773 215.516 336.773C325.014 336.773 413.777 340.851 413.777 345.876Z" fill="#545454"/>
<path opacity="0.03" d="M215.515 354.851C324.776 354.851 413.349 350.807 413.349 345.818C413.349 340.829 324.776 336.785 215.515 336.785C106.255 336.785 17.6818 340.829 17.6818 345.818C17.6818 350.807 106.255 354.851 215.515 354.851Z" fill="#545454"/>
<path opacity="0.03" d="M215.516 354.736C324.54 354.736 412.922 350.722 412.922 345.772C412.922 340.821 324.54 336.808 215.516 336.808C106.491 336.808 18.1093 340.821 18.1093 345.772C18.1093 350.722 106.491 354.736 215.516 354.736Z" fill="#545454"/>
<path opacity="0.03" d="M215.516 354.609C324.304 354.609 412.494 350.627 412.494 345.714C412.494 340.802 324.304 336.819 215.516 336.819C106.727 336.819 18.5366 340.802 18.5366 345.714C18.5366 350.627 106.727 354.609 215.516 354.609Z" fill="#545454"/>
<path opacity="0.03" d="M215.516 354.493C324.068 354.493 412.067 350.542 412.067 345.668C412.067 340.794 324.068 336.842 215.516 336.842C106.963 336.842 18.9641 340.794 18.9641 345.668C18.9641 350.542 106.963 354.493 215.516 354.493Z" fill="#545454"/>
<path opacity="0.04" d="M215.515 354.378C323.832 354.378 411.64 350.452 411.64 345.61C411.64 340.768 323.832 336.842 215.515 336.842C107.199 336.842 19.3914 340.768 19.3914 345.61C19.3914 350.452 107.199 354.378 215.515 354.378Z" fill="#545454"/>
<path opacity="0.04" d="M215.515 354.263C323.602 354.263 411.224 350.368 411.224 345.564C411.224 340.76 323.602 336.866 215.515 336.866C107.429 336.866 19.8073 340.76 19.8073 345.564C19.8073 350.368 107.429 354.263 215.515 354.263Z" fill="#545454"/>
<path opacity="0.04" d="M215.516 354.135C323.366 354.135 410.796 350.272 410.796 345.506C410.796 340.74 323.366 336.877 215.516 336.877C107.665 336.877 20.2347 340.74 20.2347 345.506C20.2347 350.272 107.665 354.135 215.516 354.135Z" fill="#545454"/>
<path opacity="0.04" d="M215.516 354.019C323.13 354.019 410.369 350.187 410.369 345.46C410.369 340.732 323.13 336.9 215.516 336.9C107.901 336.9 20.6622 340.732 20.6622 345.46C20.6622 350.187 107.901 354.019 215.516 354.019Z" fill="#545454"/>
<path opacity="0.04" d="M215.516 353.893C322.894 353.893 409.942 350.091 409.942 345.402C409.942 340.713 322.894 336.912 215.516 336.912C108.137 336.912 21.0896 340.713 21.0896 345.402C21.0896 350.091 108.137 353.893 215.516 353.893Z" fill="#545454"/>
<path opacity="0.04" d="M215.516 353.777C322.658 353.777 409.514 350.007 409.514 345.356C409.514 340.705 322.658 336.935 215.516 336.935C108.373 336.935 21.5171 340.705 21.5171 345.356C21.5171 350.007 108.373 353.777 215.516 353.777Z" fill="#545454"/>
<path opacity="0.05" d="M409.087 345.298C409.087 349.919 322.426 353.65 215.516 353.65C108.605 353.65 21.9443 349.907 21.9443 345.298C21.9443 340.689 108.605 336.946 215.516 336.946C322.426 336.946 409.087 340.689 409.087 345.298Z" fill="#545454"/>
<path opacity="0.05" d="M408.659 345.252C408.659 349.827 322.184 353.546 215.516 353.546C108.848 353.546 22.3718 349.838 22.3718 345.252C22.3718 340.666 108.848 336.958 215.516 336.958C322.184 336.958 408.659 340.666 408.659 345.252Z" fill="#545454"/>
<path opacity="0.05" d="M215.516 353.431C321.95 353.431 408.232 349.748 408.232 345.206C408.232 340.663 321.95 336.981 215.516 336.981C109.081 336.981 22.7992 340.663 22.7992 345.206C22.7992 349.748 109.081 353.431 215.516 353.431Z" fill="#545454"/>
<path opacity="0.05" d="M215.516 353.303C321.714 353.303 407.805 349.652 407.805 345.148C407.805 340.644 321.714 336.992 215.516 336.992C109.317 336.992 23.2267 340.644 23.2267 345.148C23.2267 349.652 109.317 353.303 215.516 353.303Z" fill="#545454"/>
<path opacity="0.05" d="M407.377 345.102C407.377 349.572 321.479 353.188 215.516 353.188C109.552 353.188 23.6541 349.572 23.6541 345.102C23.6541 340.631 109.552 337.016 215.516 337.016C321.479 337.016 407.377 340.631 407.377 345.102Z" fill="#545454"/>
<path opacity="0.05" d="M406.95 345.044C406.95 349.468 321.236 353.061 215.516 353.061C109.795 353.061 24.0814 349.468 24.0814 345.044C24.0814 340.62 109.795 337.027 215.516 337.027C321.236 337.027 406.95 340.62 406.95 345.044Z" fill="#545454"/>
<path opacity="0.06" d="M406.522 344.998C406.522 349.387 321.005 352.945 215.516 352.945C110.026 352.945 24.5089 349.387 24.5089 344.998C24.5089 340.608 110.026 337.05 215.516 337.05C321.005 337.05 406.522 340.608 406.522 344.998Z" fill="#545454"/>
<path opacity="0.06" d="M406.095 344.94C406.095 349.295 320.763 352.818 215.516 352.818C110.268 352.818 24.9363 349.295 24.9363 344.94C24.9363 340.585 110.268 337.062 215.516 337.062C320.763 337.062 406.095 340.585 406.095 344.94Z" fill="#545454"/>
<path opacity="0.06" d="M405.668 344.894C405.668 349.214 320.532 352.703 215.516 352.703C110.5 352.703 25.3638 349.203 25.3638 344.894C25.3638 340.585 110.5 337.085 215.516 337.085C320.532 337.085 405.668 340.585 405.668 344.894Z" fill="#545454"/>
<path opacity="0.06" d="M215.516 352.587C320.298 352.587 405.24 349.117 405.24 344.836C405.24 340.555 320.298 337.085 215.516 337.085C110.734 337.085 25.7911 340.555 25.7911 344.836C25.7911 349.117 110.734 352.587 215.516 352.587Z" fill="#545454"/>
<path opacity="0.06" d="M215.516 352.472C320.061 352.472 404.813 349.032 404.813 344.79C404.813 340.547 320.061 337.108 215.516 337.108C110.97 337.108 26.2185 340.547 26.2185 344.79C26.2185 349.032 110.97 352.472 215.516 352.472Z" fill="#545454"/>
<path opacity="0.06" d="M215.516 352.345C319.832 352.345 404.397 348.936 404.397 344.732C404.397 340.528 319.832 337.12 215.516 337.12C111.199 337.12 26.6344 340.528 26.6344 344.732C26.6344 348.936 111.199 352.345 215.516 352.345Z" fill="#545454"/>
<path opacity="0.07" d="M403.969 344.686C403.969 348.856 319.596 352.229 215.516 352.229C111.435 352.229 27.0618 348.856 27.0618 344.686C27.0618 340.516 111.435 337.143 215.516 337.143C319.596 337.143 403.969 340.516 403.969 344.686Z" fill="#545454"/>
<path opacity="0.07" d="M403.542 344.64C403.542 348.764 319.365 352.114 215.516 352.114C111.666 352.114 27.4893 348.764 27.4893 344.64C27.4893 340.516 111.666 337.166 215.516 337.166C319.365 337.166 403.542 340.516 403.542 344.64Z" fill="#545454"/>
<path opacity="0.07" d="M215.516 351.987C319.124 351.987 403.115 348.672 403.115 344.582C403.115 340.493 319.124 337.178 215.516 337.178C111.908 337.178 27.9166 340.493 27.9166 344.582C27.9166 348.672 111.908 351.987 215.516 351.987Z" fill="#545454"/>
<path opacity="0.07" d="M402.687 344.536C402.687 348.591 318.891 351.871 215.516 351.871C112.14 351.871 28.344 348.591 28.344 344.536C28.344 340.481 112.14 337.201 215.516 337.201C318.891 337.201 402.687 340.481 402.687 344.536Z" fill="#545454"/>
<path opacity="0.07" d="M215.516 351.756C318.651 351.756 402.26 348.497 402.26 344.478C402.26 340.459 318.651 337.201 215.516 337.201C112.38 337.201 28.7714 340.459 28.7714 344.478C28.7714 348.497 112.38 351.756 215.516 351.756Z" fill="#545454"/>
<path opacity="0.07" d="M215.516 351.64C318.415 351.64 401.832 348.413 401.832 344.432C401.832 340.451 318.415 337.224 215.516 337.224C112.616 337.224 29.1989 340.451 29.1989 344.432C29.1989 348.413 112.616 351.64 215.516 351.64Z" fill="#545454"/>
<path opacity="0.08" d="M215.516 351.513C318.18 351.513 401.405 348.316 401.405 344.374C401.405 340.431 318.18 337.235 215.516 337.235C112.852 337.235 29.6263 340.431 29.6263 344.374C29.6263 348.316 112.852 351.513 215.516 351.513Z" fill="#545454"/>
<path opacity="0.08" d="M400.978 344.328C400.978 348.232 317.944 351.398 215.516 351.398C113.087 351.398 30.0537 348.232 30.0537 344.328C30.0537 340.423 113.087 337.258 215.516 337.258C317.944 337.258 400.978 340.423 400.978 344.328Z" fill="#545454"/>
<path opacity="0.08" d="M400.55 344.27C400.55 348.14 317.702 351.271 215.516 351.271C113.33 351.271 30.4811 348.14 30.4811 344.27C30.4811 340.401 113.33 337.27 215.516 337.27C317.702 337.27 400.55 340.401 400.55 344.27Z" fill="#545454"/>
<path opacity="0.08" d="M215.516 351.155C317.471 351.155 400.123 348.052 400.123 344.224C400.123 340.396 317.471 337.293 215.516 337.293C113.56 337.293 30.9084 340.396 30.9084 344.224C30.9084 348.052 113.56 351.155 215.516 351.155Z" fill="#545454"/>
<path opacity="0.08" d="M215.516 351.028C317.235 351.028 399.695 347.955 399.695 344.166C399.695 340.376 317.235 337.304 215.516 337.304C113.796 337.304 31.3359 340.376 31.3359 344.166C31.3359 347.955 113.796 351.028 215.516 351.028Z" fill="#545454"/>
<path opacity="0.08" d="M399.268 344.12C399.268 347.874 316.997 350.912 215.516 350.912C114.034 350.912 31.7633 347.874 31.7633 344.12C31.7633 340.366 114.034 337.328 215.516 337.328C316.997 337.328 399.268 340.366 399.268 344.12Z" fill="#545454"/>
<path opacity="0.09" d="M215.516 350.809C316.763 350.809 398.84 347.793 398.84 344.074C398.84 340.355 316.763 337.339 215.516 337.339C114.268 337.339 32.1908 340.355 32.1908 344.074C32.1908 347.793 114.268 350.809 215.516 350.809Z" fill="#545454"/>
<path opacity="0.09" d="M215.515 350.681C316.527 350.681 398.413 347.697 398.413 344.016C398.413 340.335 316.527 337.351 215.515 337.351C114.504 337.351 32.618 340.335 32.618 344.016C32.618 347.697 114.504 350.681 215.515 350.681Z" fill="#545454"/>
<path opacity="0.09" d="M397.997 343.97C397.997 347.608 316.304 350.566 215.516 350.566C114.727 350.566 33.0339 347.608 33.0339 343.97C33.0339 340.331 114.727 337.374 215.516 337.374C316.304 337.374 397.997 340.331 397.997 343.97Z" fill="#545454"/>
<path opacity="0.09" d="M397.57 343.912C397.57 347.516 316.061 350.439 215.516 350.439C114.97 350.439 33.4614 347.516 33.4614 343.912C33.4614 340.308 114.97 337.385 215.516 337.385C316.061 337.385 397.57 340.308 397.57 343.912Z" fill="#545454"/>
<path opacity="0.09" d="M215.516 350.323C315.825 350.323 397.142 347.432 397.142 343.866C397.142 340.3 315.825 337.409 215.516 337.409C115.206 337.409 33.8888 340.3 33.8888 343.866C33.8888 347.432 115.206 350.323 215.516 350.323Z" fill="#545454"/>
<path opacity="0.09" d="M215.516 350.196C315.589 350.196 396.715 347.336 396.715 343.808C396.715 340.28 315.589 337.42 215.516 337.42C115.442 337.42 34.3163 340.28 34.3163 343.808C34.3163 347.336 115.442 350.196 215.516 350.196Z" fill="#545454"/>
<path opacity="0.1" d="M396.287 343.762C396.287 347.25 315.356 350.08 215.515 350.08C115.674 350.08 34.7435 347.25 34.7435 343.762C34.7435 340.273 115.674 337.443 215.515 337.443C315.356 337.443 396.287 340.273 396.287 343.762Z" fill="#545454"/>
<path opacity="0.1" d="M395.86 343.704C395.86 347.158 315.114 349.953 215.516 349.953C115.917 349.953 35.171 347.158 35.171 343.704C35.171 340.25 115.917 337.455 215.516 337.455C315.114 337.455 395.86 340.25 395.86 343.704Z" fill="#545454"/>
<path opacity="0.1" d="M395.433 343.657C395.433 347.077 314.883 349.849 215.516 349.849C116.148 349.849 35.5985 347.077 35.5985 343.657C35.5985 340.238 116.148 337.466 215.516 337.466C314.883 337.466 395.433 340.238 395.433 343.657Z" fill="#545454"/>
<path opacity="0.1" d="M395.005 343.6C395.005 346.985 314.64 349.722 215.516 349.722C116.391 349.722 36.0259 346.985 36.0259 343.6C36.0259 340.215 116.391 337.478 215.516 337.478C314.64 337.478 395.005 340.215 395.005 343.6Z" fill="#545454"/>
<path opacity="0.1" d="M394.578 343.554C394.578 346.892 314.409 349.607 215.516 349.607C116.622 349.607 36.4534 346.892 36.4534 343.554C36.4534 340.216 116.622 337.501 215.516 337.501C314.409 337.501 394.578 340.216 394.578 343.554Z" fill="#545454"/>
<path opacity="0.1" d="M215.515 349.48C314.173 349.48 394.15 346.801 394.15 343.496C394.15 340.191 314.173 337.512 215.515 337.512C116.858 337.512 36.8806 340.191 36.8806 343.496C36.8806 346.801 116.858 349.48 215.515 349.48Z" fill="#545454"/>
<path opacity="0.11" d="M215.516 349.364C313.937 349.364 393.723 346.716 393.723 343.45C393.723 340.183 313.937 337.535 215.516 337.535C117.094 337.535 37.3081 340.183 37.3081 343.45C37.3081 346.716 117.094 349.364 215.516 349.364Z" fill="#545454"/>
<path opacity="0.11" d="M215.516 349.249C313.701 349.249 393.296 346.632 393.296 343.404C393.296 340.176 313.701 337.559 215.516 337.559C117.33 337.559 37.7355 340.176 37.7355 343.404C37.7355 346.632 117.33 349.249 215.516 349.249Z" fill="#545454"/>
<path opacity="0.11" d="M392.868 343.346C392.868 346.534 313.462 349.122 215.516 349.122C117.569 349.122 38.163 346.534 38.163 343.346C38.163 340.158 117.569 337.57 215.516 337.57C313.462 337.57 392.868 340.158 392.868 343.346Z" fill="#545454"/>
<path opacity="0.11" d="M392.441 343.3C392.441 346.453 313.231 349.018 215.516 349.018C117.8 349.018 38.5903 346.465 38.5903 343.3C38.5903 340.134 117.8 337.582 215.516 337.582C313.231 337.582 392.441 340.134 392.441 343.3Z" fill="#545454"/>
<path opacity="0.11" d="M215.516 348.891C312.993 348.891 392.013 346.362 392.013 343.242C392.013 340.122 312.993 337.593 215.516 337.593C118.038 337.593 39.0177 340.122 39.0177 343.242C39.0177 346.362 118.038 348.891 215.516 348.891Z" fill="#545454"/>
<path opacity="0.11" d="M391.597 343.196C391.597 346.28 312.769 348.775 215.516 348.775C118.262 348.775 39.4336 346.28 39.4336 343.196C39.4336 340.111 118.262 337.616 215.516 337.616C312.769 337.616 391.597 340.111 391.597 343.196Z" fill="#545454"/>
<path opacity="0.12" d="M215.516 348.648C312.527 348.648 391.17 346.181 391.17 343.138C391.17 340.094 312.527 337.627 215.516 337.627C118.504 337.627 39.861 340.094 39.861 343.138C39.861 346.181 118.504 348.648 215.516 348.648Z" fill="#545454"/>
<path opacity="0.12" d="M215.516 348.533C312.291 348.533 390.743 346.097 390.743 343.092C390.743 340.087 312.291 337.651 215.516 337.651C118.74 337.651 40.2885 340.087 40.2885 343.092C40.2885 346.097 118.74 348.533 215.516 348.533Z" fill="#545454"/>
<path opacity="0.12" d="M215.516 348.406C312.055 348.406 390.315 346.001 390.315 343.034C390.315 340.068 312.055 337.663 215.516 337.663C118.976 337.663 40.7159 340.068 40.7159 343.034C40.7159 346.001 118.976 348.406 215.516 348.406Z" fill="#545454"/>
<path opacity="0.12" d="M389.888 342.988C389.888 345.922 311.822 348.29 215.515 348.29C119.209 348.29 41.1432 345.91 41.1432 342.988C41.1432 340.065 119.209 337.686 215.515 337.686C311.822 337.686 389.888 340.065 389.888 342.988Z" fill="#545454"/>
<path opacity="0.12" d="M389.46 342.93C389.46 345.818 311.579 348.163 215.516 348.163C119.452 348.163 41.5707 345.818 41.5707 342.93C41.5707 340.042 119.452 337.697 215.516 337.697C311.579 337.697 389.46 340.042 389.46 342.93Z" fill="#545454"/>
<path opacity="0.12" d="M215.516 348.059C311.347 348.059 389.033 345.742 389.033 342.884C389.033 340.025 311.347 337.708 215.516 337.708C119.684 337.708 41.998 340.025 41.998 342.884C41.998 345.742 119.684 348.059 215.516 348.059Z" fill="#545454"/>
<path opacity="0.13" d="M215.516 347.944C311.111 347.944 388.606 345.658 388.606 342.838C388.606 340.018 311.111 337.732 215.516 337.732C119.921 337.732 42.4255 340.018 42.4255 342.838C42.4255 345.658 119.921 347.944 215.516 347.944Z" fill="#545454"/>
<path opacity="0.13" d="M388.178 342.78C388.178 345.564 310.875 347.817 215.516 347.817C120.157 347.817 42.8529 345.564 42.8529 342.78C42.8529 339.996 120.157 337.744 215.516 337.744C310.875 337.744 388.178 339.996 388.178 342.78Z" fill="#545454"/>
<path opacity="0.13" d="M215.516 347.701C310.638 347.701 387.751 345.477 387.751 342.734C387.751 339.991 310.638 337.767 215.516 337.767C120.393 337.767 43.2803 339.991 43.2803 342.734C43.2803 345.477 120.393 347.701 215.516 347.701Z" fill="#545454"/>
<path opacity="0.13" d="M215.515 347.574C310.402 347.574 387.323 345.381 387.323 342.676C387.323 339.971 310.402 337.778 215.515 337.778C120.629 337.778 43.7076 339.971 43.7076 342.676C43.7076 345.381 120.629 347.574 215.515 347.574Z" fill="#545454"/>
<path opacity="0.13" d="M386.896 342.63C386.896 345.298 310.17 347.458 215.516 347.458C120.861 347.458 44.1351 345.298 44.1351 342.63C44.1351 339.961 120.861 337.801 215.516 337.801C310.17 337.801 386.896 339.961 386.896 342.63Z" fill="#545454"/>
<path opacity="0.13" d="M386.469 342.572C386.469 345.206 309.927 347.332 215.516 347.332C121.104 347.332 44.5626 345.194 44.5626 342.572C44.5626 339.95 121.104 337.813 215.516 337.813C309.927 337.813 386.469 339.95 386.469 342.572Z" fill="#545454"/>
<path opacity="0.14" d="M215.516 347.227C309.694 347.227 386.041 345.122 386.041 342.526C386.041 339.929 309.694 337.824 215.516 337.824C121.337 337.824 44.99 339.929 44.99 342.526C44.99 345.122 121.337 347.227 215.516 347.227Z" fill="#545454"/>
<path opacity="0.14" d="M215.516 347.1C309.458 347.1 385.614 345.026 385.614 342.468C385.614 339.91 309.458 337.836 215.516 337.836C121.573 337.836 45.4175 339.91 45.4175 342.468C45.4175 345.026 121.573 347.1 215.516 347.1Z" fill="#545454"/>
<path opacity="0.14" d="M385.186 342.422C385.186 344.94 309.223 346.985 215.516 346.985C121.808 346.985 45.8447 344.94 45.8447 342.422C45.8447 339.904 121.808 337.859 215.516 337.859C309.223 337.859 385.186 339.904 385.186 342.422Z" fill="#545454"/>
<path opacity="0.14" d="M384.77 342.364C384.77 344.847 308.992 346.857 215.516 346.857C122.04 346.857 46.2606 344.847 46.2606 342.364C46.2606 339.88 122.04 337.87 215.516 337.87C308.992 337.87 384.77 339.88 384.77 342.364Z" fill="#545454"/>
<path opacity="0.14" d="M384.343 342.318C384.343 344.767 308.761 346.742 215.516 346.742C122.271 346.742 46.6881 344.755 46.6881 342.318C46.6881 339.88 122.271 337.894 215.516 337.894C308.761 337.894 384.343 339.869 384.343 342.318Z" fill="#545454"/>
<path opacity="0.14" d="M383.916 342.271C383.916 344.674 308.518 346.626 215.516 346.626C122.513 346.626 47.1155 344.674 47.1155 342.271C47.1155 339.869 122.513 337.917 215.516 337.917C308.518 337.917 383.916 339.869 383.916 342.271Z" fill="#545454"/>
<path opacity="0.15" d="M383.488 342.214C383.488 344.582 308.287 346.5 215.516 346.5C122.744 346.5 47.5428 344.582 47.5428 342.214C47.5428 339.846 122.744 337.928 215.516 337.928C308.287 337.928 383.488 339.846 383.488 342.214Z" fill="#545454"/>
<path opacity="0.15" d="M215.516 346.384C308.048 346.384 383.061 344.496 383.061 342.168C383.061 339.839 308.048 337.951 215.516 337.951C122.983 337.951 47.9702 339.839 47.9702 342.168C47.9702 344.496 122.983 346.384 215.516 346.384Z" fill="#545454"/>
<path opacity="0.15" d="M215.516 346.268C307.812 346.268 382.633 344.407 382.633 342.11C382.633 339.813 307.812 337.951 215.516 337.951C123.219 337.951 48.3977 339.813 48.3977 342.11C48.3977 344.407 123.219 346.268 215.516 346.268Z" fill="#545454"/>
<path opacity="0.15" d="M215.516 346.153C307.576 346.153 382.206 344.322 382.206 342.064C382.206 339.805 307.576 337.975 215.516 337.975C123.455 337.975 48.8251 339.805 48.8251 342.064C48.8251 344.322 123.455 346.153 215.516 346.153Z" fill="#545454"/>
<path opacity="0.15" d="M381.779 342.006C381.779 344.224 307.34 346.026 215.516 346.026C123.691 346.026 49.2526 344.224 49.2526 342.006C49.2526 339.788 123.691 337.986 215.516 337.986C307.34 337.986 381.779 339.788 381.779 342.006Z" fill="#545454"/>
<path opacity="0.15" d="M381.351 341.959C381.351 344.143 307.109 345.91 215.516 345.91C123.923 345.91 49.6801 344.143 49.6801 341.959C49.6801 339.776 123.923 338.009 215.516 338.009C307.109 338.009 381.351 339.776 381.351 341.959Z" fill="#545454"/>
<path opacity="0.16" d="M215.516 345.783C306.868 345.783 380.924 344.045 380.924 341.902C380.924 339.758 306.868 338.021 215.516 338.021C124.163 338.021 50.1073 339.758 50.1073 341.902C50.1073 344.045 124.163 345.783 215.516 345.783Z" fill="#545454"/>
<path opacity="0.16" d="M380.496 341.856C380.496 343.958 306.635 345.668 215.516 345.668C124.396 345.668 50.5348 343.958 50.5348 341.856C50.5348 339.754 124.396 338.044 215.516 338.044C306.635 338.044 380.496 339.754 380.496 341.856Z" fill="#545454"/>
<path opacity="0.16" d="M380.069 341.798C380.069 343.866 306.392 345.541 215.516 345.541C124.639 345.541 50.9622 343.866 50.9622 341.798C50.9622 339.73 124.639 338.055 215.516 338.055C306.392 338.055 380.069 339.73 380.069 341.798Z" fill="#545454"/>
<path opacity="0.16" d="M215.516 345.425C306.16 345.425 379.642 343.78 379.642 341.752C379.642 339.723 306.16 338.078 215.516 338.078C124.871 338.078 51.3896 339.723 51.3896 341.752C51.3896 343.78 124.871 345.425 215.516 345.425Z" fill="#545454"/>
<path opacity="0.16" d="M215.515 345.309C305.924 345.309 379.214 343.691 379.214 341.694C379.214 339.697 305.924 338.078 215.515 338.078C125.107 338.078 51.8169 339.697 51.8169 341.694C51.8169 343.691 125.107 345.309 215.515 345.309Z" fill="#545454"/>
<path opacity="0.16" d="M378.787 341.647C378.787 343.6 305.688 345.194 215.516 345.194C125.343 345.194 52.2444 343.611 52.2444 341.647C52.2444 339.684 125.343 338.101 215.516 338.101C305.688 338.101 378.787 339.684 378.787 341.647Z" fill="#545454"/>
<path opacity="0.17" d="M378.371 341.602C378.371 343.52 305.457 345.079 215.516 345.079C125.574 345.079 52.6603 343.52 52.6603 341.602C52.6603 339.684 125.574 338.125 215.516 338.125C305.457 338.125 378.371 339.684 378.371 341.602Z" fill="#545454"/>
<path opacity="0.17" d="M215.516 344.952C305.222 344.952 377.943 343.426 377.943 341.544C377.943 339.662 305.222 338.136 215.516 338.136C125.809 338.136 53.0876 339.662 53.0876 341.544C53.0876 343.426 125.809 344.952 215.516 344.952Z" fill="#545454"/>
<path opacity="0.17" d="M215.516 344.836C304.986 344.836 377.516 343.341 377.516 341.498C377.516 339.654 304.986 338.159 215.516 338.159C126.045 338.159 53.5151 339.654 53.5151 341.498C53.5151 343.341 126.045 344.836 215.516 344.836Z" fill="#545454"/>
<path opacity="0.17" d="M377.089 341.44C377.089 343.242 304.752 344.709 215.515 344.709C126.279 344.709 53.9424 343.242 53.9424 341.44C53.9424 339.638 126.279 338.171 215.515 338.171C304.752 338.171 377.089 339.638 377.089 341.44Z" fill="#545454"/>
<path opacity="0.17" d="M215.516 344.593C304.514 344.593 376.661 343.161 376.661 341.394C376.661 339.626 304.514 338.194 215.516 338.194C126.517 338.194 54.3699 339.626 54.3699 341.394C54.3699 343.161 126.517 344.593 215.516 344.593Z" fill="#545454"/>
<path opacity="0.17" d="M215.516 344.478C304.278 344.478 376.234 343.071 376.234 341.336C376.234 339.601 304.278 338.194 215.516 338.194C126.753 338.194 54.7974 339.601 54.7974 341.336C54.7974 343.071 126.753 344.478 215.516 344.478Z" fill="#545454"/>
<path opacity="0.18" d="M375.806 341.29C375.806 342.988 304.047 344.363 215.516 344.363C126.984 344.363 55.2247 342.988 55.2247 341.29C55.2247 339.592 126.984 338.217 215.516 338.217C304.047 338.217 375.806 339.592 375.806 341.29Z" fill="#545454"/>
<path opacity="0.18" d="M375.379 341.232C375.379 342.884 303.805 344.235 215.516 344.235C127.226 344.235 55.6522 342.895 55.6522 341.232C55.6522 339.569 127.226 338.229 215.516 338.229C303.805 338.229 375.379 339.569 375.379 341.232Z" fill="#545454"/>
<path opacity="0.18" d="M215.516 344.12C303.57 344.12 374.952 342.806 374.952 341.186C374.952 339.565 303.57 338.251 215.516 338.251C127.462 338.251 56.0796 339.565 56.0796 341.186C56.0796 342.806 127.462 344.12 215.516 344.12Z" fill="#545454"/>
<path opacity="0.18" d="M215.516 343.993C303.334 343.993 374.524 342.71 374.524 341.128C374.524 339.546 303.334 338.263 215.516 338.263C127.698 338.263 56.507 339.546 56.507 341.128C56.507 342.71 127.698 343.993 215.516 343.993Z" fill="#545454"/>
<path opacity="0.18" d="M374.097 341.082C374.097 342.63 303.1 343.878 215.516 343.878C127.931 343.878 56.9343 342.63 56.9343 341.082C56.9343 339.534 127.931 338.287 215.516 338.287C303.1 338.287 374.097 339.534 374.097 341.082Z" fill="#545454"/>
<path opacity="0.18" d="M373.669 341.036C373.669 342.549 302.858 343.762 215.516 343.762C128.174 343.762 57.3618 342.537 57.3618 341.036C57.3618 339.534 128.174 338.31 215.516 338.31C302.858 338.31 373.669 339.534 373.669 341.036Z" fill="#545454"/>
<path opacity="0.19" d="M373.242 340.978C373.242 342.445 302.627 343.635 215.516 343.635C128.404 343.635 57.7892 342.445 57.7892 340.978C57.7892 339.511 128.404 338.321 215.516 338.321C302.627 338.321 373.242 339.511 373.242 340.978Z" fill="#545454"/>
<path opacity="0.19" d="M372.815 340.932C372.815 342.364 302.384 343.531 215.516 343.531C128.647 343.531 58.2167 342.364 58.2167 340.932C58.2167 339.499 128.647 338.333 215.516 338.333C302.384 338.333 372.815 339.499 372.815 340.932Z" fill="#545454"/>
<path opacity="0.19" d="M372.387 340.874C372.387 342.271 302.153 343.403 215.515 343.403C128.878 343.403 58.6439 342.271 58.6439 340.874C58.6439 339.476 128.878 338.344 215.515 338.344C302.153 338.344 372.387 339.476 372.387 340.874Z" fill="#545454"/>
<path opacity="0.19" d="M371.96 340.828C371.96 342.191 301.91 343.288 215.516 343.288C129.121 343.288 59.0714 342.191 59.0714 340.828C59.0714 339.465 129.121 338.367 215.516 338.367C301.91 338.367 371.96 339.465 371.96 340.828Z" fill="#545454"/>
<path opacity="0.19" d="M215.516 343.161C301.688 343.161 371.544 342.091 371.544 340.77C371.544 339.449 301.688 338.379 215.516 338.379C129.344 338.379 59.4873 339.449 59.4873 340.77C59.4873 342.091 129.344 343.161 215.516 343.161Z" fill="#545454"/>
<path opacity="0.19" d="M215.516 343.046C301.452 343.046 371.117 342.006 371.117 340.724C371.117 339.441 301.452 338.402 215.516 338.402C129.58 338.402 59.9148 339.441 59.9148 340.724C59.9148 342.006 129.58 343.046 215.516 343.046Z" fill="#545454"/>
<path opacity="0.2" d="M370.689 340.666C370.689 341.913 301.217 342.918 215.516 342.918C129.814 342.918 60.342 341.913 60.342 340.666C60.342 339.418 129.814 338.413 215.516 338.413C301.217 338.413 370.689 339.418 370.689 340.666Z" fill="#545454"/>
<path opacity="0.2" d="M370.262 340.62C370.262 341.833 300.986 342.803 215.516 342.803C130.045 342.803 60.7695 341.821 60.7695 340.62C60.7695 339.418 130.045 338.437 215.516 338.437C300.986 338.437 370.262 339.418 370.262 340.62Z" fill="#545454"/>
<path opacity="0.2" d="M215.516 342.688C300.743 342.688 369.834 341.736 369.834 340.562C369.834 339.388 300.743 338.437 215.516 338.437C130.288 338.437 61.1969 339.388 61.1969 340.562C61.1969 341.736 130.288 342.688 215.516 342.688Z" fill="#545454"/>
<path opacity="0.2" d="M215.516 342.572C300.507 342.572 369.407 341.651 369.407 340.516C369.407 339.38 300.507 338.459 215.516 338.459C130.524 338.459 61.6244 339.38 61.6244 340.516C61.6244 341.651 130.524 342.572 215.516 342.572Z" fill="#545454"/>
</g>
</g>
<path d="M214.978 137.981L225.146 151.211H293.073L215.016 16L136.959 151.211H204.822L214.978 137.981Z" fill="#B49161"/>
<path d="M296.714 157.511H223.344L214.978 145.541L206.611 157.511H133.317L81.4807 247.601H132.637L143.158 233.741L153.679 247.601H273.757L284.278 233.741L294.799 247.601H348.55L296.714 157.511Z" fill="#333333"/>
<path d="M151.889 253.901L143.158 241.301L134.438 253.901H77.8393L26.0155 343.361H212.495V253.901H151.889Z" fill="#003A2E"/>
<path d="M352.192 253.901H293.009L284.278 241.301L275.559 253.901H217.536V343.361H404.015L352.192 253.901Z" fill="#004F3D"/>
<path d="M102.826 292.51L104.564 293.126C103.838 293.962 103.068 294.842 102.452 295.414L101.22 294.842C101.748 294.204 102.452 293.192 102.826 292.51ZM97.8535 293.984L96.5555 295.018C96.1815 294.468 95.4555 293.522 94.8615 292.84L96.0935 291.938C96.7095 292.598 97.4575 293.456 97.8535 293.984ZM93.2115 292.554L94.8615 293.148C94.2015 293.962 93.4755 294.798 92.9255 295.326L91.7155 294.82C92.2435 294.182 92.8595 293.214 93.2115 292.554ZM88.5915 294.072L87.2935 295.106C86.9415 294.556 86.1935 293.632 85.6215 292.928L86.8535 292.026C87.4475 292.686 88.1955 293.544 88.5915 294.072ZM100.846 309.67V307.976H89.5815V309.67H100.846ZM91.0335 302.542V304.082H98.9095V302.542H91.0335ZM94.9055 305.424L94.3555 306.502H102.87V311.738H100.846V311.188H89.5815V311.76H87.6455V306.502H92.5735C92.7275 306.172 92.8815 305.776 93.0355 305.424H89.1415V301.222H100.934V305.424H94.9055ZM95.4775 298.604H102.936C102.034 297.988 100.604 297.152 99.3495 296.47C98.5575 297.416 97.3475 298.098 95.4775 298.604ZM98.8875 291.564H100.736C100.648 292.906 100.494 294.05 100.142 295.018C101.594 295.744 103.508 296.778 104.52 297.46L103.53 298.604H104.234V302.652H102.188V300.188H87.7775V302.652H85.8195V298.604H86.0175C85.8195 298.164 85.3795 297.592 85.0715 297.284C88.8335 296.404 89.4495 294.842 89.6255 291.564H91.4075C91.3415 292.95 91.1875 294.116 90.8355 295.084C91.9355 295.722 93.3215 296.58 94.0915 297.13L92.8375 298.406C92.1995 297.922 91.0775 297.152 90.0655 296.492C89.3175 297.416 88.2395 298.098 86.5235 298.604H95.3675C95.1695 298.142 94.7295 297.46 94.3555 297.086C98.1175 296.25 98.6895 294.732 98.8875 291.564ZM126.276 293.808H116.904V295.546H120.71V294.578H122.69V295.546H126.276V293.808ZM125.55 299.44H122.69V300.628H125.55V299.44ZM125.55 303.092V301.882H122.69V303.092H125.55ZM117.894 303.092H120.71V301.882H117.894V303.092ZM117.894 299.44V300.628H120.71V299.44H117.894ZM116.75 297.02V296.294H115.034V292.268H128.234V296.294H126.672V297.02H122.69V298.12H127.31V304.434H122.69V305.6H128.498V307.162H122.69V308.79H120.71V307.162H115.21V305.6H120.71V304.434H116.222V298.12H120.71V297.02H116.75ZM114 294.886L112.372 295.964C111.866 295.04 110.722 293.522 109.776 292.444L111.338 291.542C112.306 292.598 113.428 293.984 114 294.886ZM113.78 301.926L114.66 302.278C114.44 304.038 114.044 305.578 113.538 306.92C114.88 309.274 117.498 309.626 121.392 309.626C123.702 309.626 127.046 309.516 129.378 309.296C129.092 309.736 128.828 310.66 128.718 311.188C126.584 311.32 123.812 311.386 121.37 311.386C117.124 311.386 114.484 310.946 112.768 308.57C112.02 309.956 111.118 311.012 110.084 311.804C109.798 311.364 109.138 310.682 108.72 310.396C110.612 309.098 111.998 306.766 112.636 303.576H110.788C110.26 303.576 109.644 303.73 109.468 303.906C109.358 303.444 108.984 302.542 108.786 302.168C109.116 302.08 109.468 301.926 109.864 301.486C110.304 301.046 111.36 299.55 112.218 298.274H109.116V296.624H113.45L113.736 296.492L115.034 297.064C114.176 298.318 112.702 300.474 111.558 301.97H113.45L113.78 301.926ZM143.984 301.816V302.85L147.526 302.806C147.086 302.586 146.624 302.388 146.184 302.234L146.69 301.816H143.984ZM137.362 300.54H141.982V299.396H137.362V300.54ZM137.362 297.042V298.142H141.982V297.042H137.362ZM148.758 297.042H143.984V298.142H148.758V297.042ZM148.758 300.54V299.396H143.984V300.54H148.758ZM152.938 305.314V306.964H147.856V309.67C147.856 310.638 147.658 311.166 146.866 311.452C146.118 311.716 144.952 311.716 143.258 311.716C143.17 311.21 142.884 310.44 142.62 309.956C143.83 310 145.084 310 145.414 309.978C145.766 309.956 145.854 309.868 145.854 309.604V306.964H138.55C139.672 307.69 140.904 308.658 141.542 309.362L140.046 310.682C139.342 309.846 137.846 308.636 136.592 307.822L137.582 306.964H133.116V305.314H145.854V304.192C141.454 304.302 137.186 304.39 134.062 304.434L133.996 302.894C136.108 302.894 138.924 302.872 141.982 302.85V301.816H135.426V295.722H141.982V294.688H133.732V293.104H141.982V291.564H143.984V293.104H152.102V294.688H143.984V295.722H150.76V301.816H148.714C150.034 302.41 151.332 303.18 152.124 303.796L150.914 304.896C150.606 304.632 150.21 304.368 149.77 304.082L147.856 304.126V305.314H152.938ZM171.9 295.832V293.94H162.198V295.832H171.9ZM174.056 292.312V297.46H160.152V292.312H174.056ZM161.23 305.27V306.568H172.78V305.27H161.23ZM161.23 302.63V303.906H172.78V302.63H161.23ZM161.23 299.99V301.244H172.78V299.99H161.23ZM174.914 308.02H170.646C172.868 308.658 175.53 309.626 177.202 310.33L175.398 311.76C173.748 311.012 170.778 309.89 168.468 309.23L170.096 308.02H163.672L165.256 309.076C163.496 310.132 160.68 311.188 158.436 311.738C158.062 311.32 157.402 310.638 156.896 310.264C159.008 309.78 161.604 308.856 163.056 308.02H159.206V298.516H174.914V308.02Z" fill="white"/>
<path d="M264.1 294.754H262.142V296.162H264.1V294.754ZM264.1 299.198V297.702H262.142V299.198H264.1ZM260.448 296.162V294.754H257.852V293.28H260.448V291.652H262.142V293.28H265.684V296.162H267.158V297.702H265.684V300.694H262.142V302.058H265.926V303.642H262.142V305.072H266.564V306.678H262.142V309.054H260.448V306.678H257.082V305.072H260.448V303.642H257.61V302.058H260.448V300.694H257.852V299.198H260.448V297.702H256.928V296.162H260.448ZM250.46 291.586L252.33 292.092C251.934 293.5 251.428 294.93 250.878 296.294V311.716H249.074V299.99C248.634 300.738 248.194 301.42 247.71 302.014C247.578 301.53 247.072 300.386 246.742 299.88C248.348 297.834 249.668 294.732 250.46 291.586ZM256.092 299.396L257.17 299.638C256.884 302.806 256.356 305.336 255.542 307.338C257.412 309.252 259.92 309.648 262.692 309.67C263.484 309.67 266.212 309.67 267.18 309.648C266.894 310.066 266.608 310.902 266.52 311.408H262.626C259.502 311.408 256.796 310.946 254.728 308.944C254.046 310.11 253.254 311.034 252.33 311.738C252.022 311.342 251.362 310.704 250.966 310.462C252 309.758 252.858 308.79 253.54 307.492C252.814 306.392 252.198 305.05 251.714 303.312L253.166 302.806C253.474 303.95 253.848 304.896 254.31 305.688C254.772 304.368 255.102 302.828 255.3 301.024H253.078C252.748 301.222 252.44 301.442 252.44 301.618C252.286 301.266 251.868 300.518 251.604 300.166C252.022 300.056 252.572 299.44 252.99 298.78C253.32 298.252 254.178 296.624 254.882 294.798H252.286V293.038H255.564L256.136 292.796L257.324 293.588C256.51 295.7 255.52 297.768 254.53 299.418H255.762L256.092 299.396ZM288.804 295.898V294.578H287.308V295.898H288.804ZM288.804 298.56V297.218H287.308V298.56H288.804ZM281.874 297.218V298.56H283.326V297.218H281.874ZM281.874 294.578V295.898H283.326V294.578H281.874ZM286.01 297.218H284.624V298.56H286.01V297.218ZM284.624 295.898H286.01V294.578H284.624V295.898ZM290.41 293.192V299.968H280.312V293.192H283.018V291.564H284.624V293.192H285.944V291.564H287.572V293.192H290.41ZM290.938 300.936L290.916 302.454H279.916V300.936H290.938ZM273.91 304.06V305.138C273.91 305.864 273.888 306.656 273.8 307.47C274.68 307.118 275.802 306.546 276.99 305.952V302.432H273.91V303.95L274.724 303.092C275.56 303.62 276.506 304.302 276.968 304.786L276.044 305.842C275.582 305.358 274.658 304.566 273.91 304.06ZM273.668 293.786V298.406H274.79V294.952H277.078V293.786H273.668ZM275.912 298.406H277.078V296.184H275.912V298.406ZM278.112 301.024V299.836H272.678V301.024H278.112ZM279.674 301.64H278.706V309.824C278.706 310.638 278.552 311.056 278.024 311.342C277.496 311.606 276.726 311.628 275.538 311.628C275.45 311.166 275.208 310.506 274.988 310.088C275.78 310.11 276.462 310.11 276.704 310.088C276.924 310.088 276.99 310.022 276.99 309.802V307.294C276.088 307.866 275.208 308.394 274.394 308.9L273.778 307.668C273.58 309.142 273.228 310.66 272.436 311.826C272.15 311.496 271.402 310.968 271.006 310.792C272.128 309.12 272.238 306.876 272.238 305.116V301.64H271.16V298.406H272.062V292.268H278.772V298.406H279.674V301.64ZM287.198 307.514H283.436C283.788 308.24 284.162 309.142 284.382 309.802H286.318C286.648 309.076 287 308.152 287.198 307.514ZM282.666 304.676V306.216H288.034V304.676H282.666ZM288.012 309.802H291.136V311.342H279.674V309.802H282.578C282.38 309.208 282.138 308.526 281.896 307.954L283.37 307.514H280.884V303.356H289.948V307.514H287.374L289.046 307.976C288.672 308.592 288.342 309.23 288.012 309.802ZM312.43 299.286V297.592H308.118V299.286H312.43ZM312.43 302.52V300.782H308.118V302.52H312.43ZM312.43 305.732V303.994H308.118V305.732H312.43ZM306.424 296.008H309.042C309.13 295.458 309.218 294.82 309.284 294.27H305.874V292.532H314.85V294.27H311.33C311.176 294.864 311.022 295.458 310.868 296.008H314.19V307.316H306.424V296.008ZM299.89 307.954V308.988H301.782V307.954H299.89ZM301.782 304.5V303.488H299.89V304.5H301.782ZM301.782 306.722V305.71H299.89V306.722H301.782ZM303.41 297.042H297.69V298.648H303.41V297.042ZM305.632 308.988V310.176C306.666 309.538 307.744 308.548 308.294 307.778L309.988 308.746C309.042 309.846 307.59 311.078 306.358 311.782C306.072 311.408 305.456 310.858 305.038 310.528L305.28 310.396H299.89V311.496H298.35V305.446C298.174 305.666 297.998 305.886 297.822 306.106C297.756 305.974 297.624 305.776 297.47 305.578C297.272 307.69 296.92 309.868 296.282 311.584C295.952 311.298 295.182 310.902 294.72 310.748C295.908 307.668 295.974 303.312 295.974 300.232V293.214H295.996C298.702 292.95 301.892 292.51 303.674 291.938L305.17 293.302C303.124 293.918 300.286 294.336 297.69 294.578V295.458H305.236V300.21H297.69V300.232C297.69 301.288 297.668 302.542 297.602 303.84C298.284 302.806 298.878 301.53 299.23 300.276L300.682 300.65C300.528 301.156 300.33 301.662 300.154 302.146H301.76C301.584 301.684 301.364 301.178 301.144 300.738L302.508 300.386C302.838 300.914 303.168 301.596 303.366 302.146H305.478V303.488H303.19V304.5H305.258V305.71H303.19V306.722H305.28V307.954H303.19V308.988H305.632ZM310.956 308.724L312.43 307.8C313.398 308.592 314.586 309.758 315.18 310.55L313.64 311.606C313.09 310.814 311.924 309.582 310.956 308.724ZM326.178 294.05H322.042V295.59H326.178V294.05ZM322.042 298.692H326.178V297.042H322.042V298.692ZM328.114 300.298H322.042V311.738H320.018V292.422H328.114V300.298ZM331.172 303.774H326.684V306.964H331.172V303.774ZM333.086 308.658H326.684V309.934H324.792V302.058H333.086V308.658ZM331.81 298.714H336.056V297.042H331.81V298.714ZM336.056 294.028H331.81V295.59H336.056V294.028ZM338.146 292.422V309.142C338.146 310.374 337.86 311.012 337.068 311.364C336.254 311.694 334.956 311.716 332.976 311.716C332.91 311.144 332.58 310.198 332.272 309.626C333.658 309.692 335.088 309.67 335.528 309.67C335.946 309.648 336.056 309.516 336.056 309.12V300.32H329.852V292.422H338.146Z" fill="white"/>
<path d="M164.856 382.19V384.258H156.034V391.738H153.922V384.258H145.21V382.19H153.922V374.974H146.354V372.972H163.602V374.974H156.034V382.19H164.856ZM147.784 376.448L149.632 375.876C150.446 377.394 151.282 379.352 151.568 380.628L149.61 381.288C149.324 380.034 148.576 377.988 147.784 376.448ZM159.906 381.31L158.146 380.738C158.894 379.418 159.818 377.328 160.302 375.788L162.48 376.382C161.688 378.098 160.72 380.078 159.906 381.31ZM188.35 372.818V374.776H177.68V372.818H188.35ZM173.808 371.52L175.766 372.334C174.27 374.292 171.982 376.47 169.958 377.9C169.716 377.438 169.166 376.646 168.792 376.25C170.618 375.062 172.73 373.104 173.808 371.52ZM174.666 376.228L176.602 376.954C175.92 378.076 175.106 379.22 174.204 380.32V391.782H172.158V382.586C171.432 383.312 170.684 383.994 169.98 384.566C169.716 384.126 168.99 383.224 168.572 382.828C170.816 381.222 173.192 378.714 174.666 376.228ZM188.966 378.824V380.782H185.798V389.252C185.798 390.418 185.534 391.012 184.698 391.342C183.884 391.65 182.586 391.672 180.54 391.672C180.452 391.078 180.166 390.22 179.88 389.626C181.288 389.67 182.762 389.67 183.158 389.648C183.576 389.648 183.708 389.538 183.708 389.23V380.782H176.756V378.824H188.966ZM212.482 376.69L210.898 377.306C210.656 376.272 209.996 374.622 209.358 373.39L210.832 372.884C211.514 374.094 212.196 375.7 212.482 376.69ZM206.696 373.786V375.392H200.162V373.786H202.626C202.428 373.192 202.164 372.51 201.944 371.96L203.66 371.652C203.946 372.29 204.254 373.126 204.474 373.786H206.696ZM197.522 377.02V374.27H195.564V377.02H197.522ZM195.564 383.18V386.304C196.18 386.194 196.862 386.062 197.522 385.908V383.18H195.564ZM197.522 381.486V378.714H195.564V381.486H197.522ZM200.03 374.27H199.106V391.76H197.522V387.602C195.982 387.932 194.464 388.284 193.166 388.57L192.77 386.81C193.166 386.744 193.562 386.7 194.024 386.612V374.27H192.99V372.444H200.03V374.27ZM202.142 387.184H204.782V385.424H202.142V387.184ZM204.782 382.3H202.142V383.994H204.782V382.3ZM211.294 380.76L212.856 381.552C212.174 383.598 211.206 385.468 210.04 387.074C210.37 388.57 210.744 389.428 211.184 389.45C211.514 389.45 211.756 388.35 211.866 386.502C212.174 386.898 212.856 387.404 213.164 387.58C212.702 390.88 211.866 391.694 211.118 391.694C210.04 391.672 209.292 390.594 208.72 388.724C207.708 389.846 206.586 390.814 205.442 391.584C205.2 391.232 204.672 390.748 204.254 390.44C204.848 390.066 205.42 389.648 205.97 389.164H204.782V388.614H202.142V390.176H200.558V380.848H206.344V388.834C207.004 388.218 207.664 387.492 208.258 386.744C207.906 384.852 207.664 382.52 207.51 379.814H199.766V378.076H201.042C200.954 377.372 200.756 376.47 200.558 375.766L202.01 375.524C202.252 376.316 202.494 377.35 202.582 378.076H203.99C204.21 377.284 204.452 376.25 204.562 375.502L206.168 375.788C205.926 376.558 205.706 377.416 205.486 378.076H207.422C207.312 376.052 207.268 373.874 207.224 371.564H208.984C208.984 373.852 209.05 376.052 209.138 378.076H213.01V379.814H209.226C209.336 381.596 209.49 383.246 209.666 384.632C210.326 383.444 210.876 382.146 211.294 380.76ZM234.26 379.396V377.636H229.398V379.396H234.26ZM234.26 382.652V380.87H229.398V382.652H234.26ZM234.26 385.93V384.126H229.398V385.93H234.26ZM227.55 376.074H230.146C230.3 375.502 230.432 374.842 230.542 374.27H226.78V372.51H236.966V374.27H232.742C232.522 374.886 232.302 375.524 232.082 376.074H236.196V387.514H227.55V376.074ZM222.974 379.352L224.008 378.582C224.58 378.934 226.428 380.386 226.89 380.804L225.746 382.124C225.196 381.42 223.656 379.924 222.974 379.352ZM224.646 372.4L226.34 372.884C225.812 373.896 225.284 374.93 224.866 375.612L223.502 375.15C223.898 374.402 224.382 373.192 224.646 372.4ZM220.202 374.952L218.706 375.546C218.552 374.82 218.068 373.72 217.54 372.884L218.948 372.334C219.498 373.17 220.026 374.226 220.202 374.952ZM221.038 381.904V377.922H217.144V376.272H221.038V371.674H222.82V376.272H226.538V377.922H222.82V381.904H221.038ZM219.41 378.472L220.664 378.934C220.092 380.386 219.014 381.97 217.914 382.806C217.628 382.388 217.1 381.794 216.704 381.508C217.76 380.87 218.838 379.616 219.41 378.472ZM226.252 389.362L225.13 390.792C224.382 390.132 223.062 389.164 221.852 388.35C221.17 389.56 219.96 390.704 217.826 391.606C217.628 391.166 217.122 390.484 216.77 390.11C219.564 388.944 220.488 387.448 220.796 385.974H217.122V384.28H220.906V382.366H222.688V384.28H224.734C224.382 383.796 223.898 383.246 223.458 382.784L224.602 382.036C225.174 382.542 225.834 383.29 226.142 383.774L225.438 384.28H226.692V385.974H222.6C222.578 386.238 222.534 386.524 222.468 386.766C223.766 387.58 225.394 388.658 226.252 389.362ZM229.706 387.8L231.444 388.834C230.432 389.956 228.738 391.166 227.33 391.826C227 391.452 226.428 390.836 225.988 390.506C227.396 389.868 228.936 388.724 229.706 387.8ZM232.214 388.856L233.71 387.844C234.942 388.658 236.548 389.824 237.384 390.66L235.822 391.782C235.074 390.946 233.468 389.714 232.214 388.856ZM256.258 381.42V382.63L258.172 382.608C257.93 382.3 257.666 382.036 257.424 381.772L258.15 381.42H256.258ZM252.21 380.232H254.498V379.088H252.21V380.232ZM252.21 376.844V377.944H254.498V376.844H252.21ZM258.634 376.844H256.258V377.944H258.634V376.844ZM258.634 380.232V379.088H256.258V380.232H258.634ZM250.032 384.236L249.9 382.74C251.154 382.718 252.76 382.696 254.498 382.674V381.42H250.56V375.656H254.498V374.622H250.12V373.082H254.498V371.542H256.258V373.082H260.812V374.622H256.258V375.656H260.35V381.42H259.118C259.954 382.256 260.79 383.29 261.23 384.06L259.778 384.852C259.646 384.588 259.47 384.302 259.25 383.994C255.884 384.082 252.452 384.17 250.032 384.236ZM243.102 381.552V383.224H244.796V381.552H243.102ZM243.102 378.472V380.122H244.796V378.472H243.102ZM247.92 380.122V378.472H246.182V380.122H247.92ZM247.92 383.224V381.552H246.182V383.224H247.92ZM258.524 384.302V385.336H261.098V386.898H258.524V389.868C258.524 390.792 258.326 391.254 257.644 391.496C256.94 391.782 255.928 391.782 254.476 391.782C254.388 391.276 254.124 390.594 253.882 390.11C254.894 390.154 255.928 390.154 256.236 390.154C256.544 390.132 256.632 390.044 256.632 389.802V386.898H252.54C253.354 387.624 254.168 388.614 254.542 389.34L253.046 390.308C252.672 389.538 251.88 388.416 251.066 387.646L252.364 386.898H249.966V388.086H246.402V391.738H244.576V388.086H240.858V386.26H244.576V384.72H241.628V376.998H244.576V375.568H241.166V373.786H244.576V371.542H246.402V373.786H249.68V375.568H246.402V376.998H249.46V384.72H246.402V386.26H249.9V385.336H256.632V384.302H258.524ZM272.514 375.194V376.844H264.924V375.194H268.686C268.356 374.402 267.718 373.17 267.19 372.268L268.708 371.608C269.302 372.51 269.984 373.72 270.314 374.468L268.84 375.194H272.514ZM271.832 378.142V379.748H265.826V378.142H271.832ZM265.804 382.63V381.046H271.81V382.63H265.804ZM270.226 385.666H267.41V388.812H270.226V385.666ZM271.876 390.484H267.41V391.408H265.782V384.016H271.876V390.484ZM280.17 384.17H277.464V386.436H280.17V384.17ZM281.732 387.932H277.464V388.922H275.99V382.674H281.732V387.932ZM279.774 379.814H282.722V377.878H279.774V379.814ZM275.22 377.878V379.814H278.08V377.878H275.22ZM278.08 374.248H275.22V376.25H278.08V374.248ZM282.722 376.25V374.248H279.774V376.25H282.722ZM284.416 372.466V389.428C284.416 390.374 284.218 390.902 283.624 391.188C283.03 391.496 282.084 391.54 280.61 391.54C280.544 391.078 280.302 390.264 280.06 389.802C281.072 389.846 282.018 389.846 282.304 389.824C282.612 389.824 282.722 389.736 282.722 389.406V381.42H275.22C275.176 384.676 274.846 389.01 273.218 391.804C272.932 391.496 272.184 390.968 271.832 390.792C273.416 387.976 273.548 383.884 273.548 380.782V372.466H284.416Z" fill="#003A2E"/>
<path d="M178.378 200.334L177.168 202.006C176.75 201.28 175.826 199.96 175.034 198.882V208.716H173.054V199.542C172.086 201.654 170.876 203.678 169.688 204.998C169.468 204.404 168.984 203.568 168.654 203.04C170.15 201.544 171.734 198.948 172.724 196.594H169.336V194.68H173.054V191.82C171.954 191.996 170.876 192.15 169.842 192.282C169.776 191.842 169.512 191.138 169.27 190.698C172.086 190.28 175.276 189.598 177.234 188.806L178.378 190.5C177.41 190.852 176.266 191.16 175.034 191.424V194.68H178.466V196.594H175.034V196.77C175.716 197.408 177.894 199.74 178.378 200.334ZM189.158 207.352L187.09 208.188C186.936 207.506 186.716 206.714 186.43 205.834C179.302 206.956 178.312 207.176 177.63 207.506C177.52 207.088 177.146 206.076 176.904 205.504C177.498 205.284 177.938 204.228 178.554 202.512C179.17 200.862 180.974 194.68 181.876 189.158L184.054 189.554C183.108 194.834 181.634 200.422 180.028 204.822L185.858 204.008C185.22 202.094 184.406 200.026 183.658 198.244L185.55 197.562C186.98 200.708 188.564 204.822 189.158 207.352ZM201.74 188.608H204.072C204.05 189.444 204.028 190.588 203.918 191.886C204.226 194.636 205.568 203.414 213.246 206.824C212.652 207.286 212.036 208.012 211.75 208.562C206.58 206.12 204.182 201.28 203.016 197.342C201.916 201.478 199.584 205.922 194.612 208.672C194.26 208.144 193.6 207.484 192.918 207.044C201.916 202.38 201.674 192.128 201.74 188.608ZM233.638 194.482H230.404C230.778 196.704 231.328 198.772 232.076 200.62C232.824 198.86 233.33 196.836 233.638 194.482ZM225.542 197.364L226.312 197.958C226.73 197.408 227.126 196.77 227.456 196.088H223.892C223.474 196.572 223.034 197.034 222.594 197.474H225.168L225.542 197.364ZM222.396 192.458V194.306H222.902C223.408 193.734 223.848 193.096 224.266 192.458H222.396ZM237.114 194.482H235.75C235.266 197.87 234.474 200.642 233.22 202.93C234.276 204.668 235.618 206.076 237.312 206.956C236.828 207.352 236.19 208.144 235.86 208.716C234.276 207.77 233 206.45 231.966 204.866C230.712 206.45 229.128 207.77 227.082 208.804C226.862 208.32 226.246 207.396 225.872 206.956C228.05 205.966 229.678 204.602 230.866 202.842C230.14 201.236 229.546 199.454 229.106 197.496C228.71 198.266 228.27 198.948 227.808 199.586C227.544 199.3 226.994 198.772 226.532 198.42C225.63 199.432 224.464 200.488 223.32 201.302V202.028C224.662 201.896 226.048 201.72 227.412 201.566L227.434 203.304L223.32 203.81V206.692C223.32 207.616 223.144 208.122 222.484 208.386C221.824 208.694 220.834 208.694 219.448 208.694C219.36 208.166 219.096 207.44 218.832 206.956C219.822 206.978 220.768 206.978 221.032 206.956C221.34 206.956 221.406 206.89 221.406 206.648V204.052L217.138 204.558L216.918 202.732C218.15 202.6 219.712 202.446 221.406 202.248V200.84C222.132 200.4 222.902 199.74 223.606 199.102H220.68C219.866 199.718 219.008 200.29 218.128 200.796C217.842 200.4 217.138 199.608 216.72 199.234C218.37 198.42 219.91 197.342 221.23 196.088H216.918V194.306H220.504V192.458H217.798V190.72H220.504V188.564H222.396V190.72H224.53V192.04C225.08 191.116 225.608 190.126 226.026 189.092L227.918 189.642C227.214 191.336 226.334 192.898 225.3 194.306H227.5V196.022C228.556 193.91 229.304 191.27 229.722 188.542L231.79 188.872C231.57 190.126 231.306 191.38 230.954 192.568H237.114V194.482ZM248.926 201.522L247.364 202.006C247.32 201.676 247.232 201.258 247.144 200.818C242.722 201.456 242.018 201.654 241.556 201.874C241.468 201.478 241.16 200.576 240.94 200.07C241.424 199.96 241.908 199.41 242.59 198.618C242.898 198.266 243.514 197.452 244.196 196.418C242.216 196.638 241.71 196.77 241.402 196.902C241.292 196.528 241.028 195.626 240.808 195.164C241.182 195.054 241.556 194.614 241.996 193.954C242.458 193.294 243.91 190.852 244.724 188.498L246.528 189.224C245.67 191.182 244.548 193.206 243.382 194.856L245.296 194.68C245.846 193.756 246.418 192.722 246.858 191.732L248.552 192.744C247.21 195.164 245.56 197.628 243.888 199.63L246.814 199.256C246.638 198.596 246.462 197.936 246.264 197.32L247.716 196.968C248.222 198.442 248.772 200.378 248.926 201.522ZM241.82 202.688L243.426 202.974C243.206 204.954 242.81 207.132 242.348 208.518C241.996 208.342 241.248 208.1 240.808 207.968C241.314 206.604 241.622 204.558 241.82 202.688ZM244.174 202.886L245.604 202.644C245.89 204.228 246.11 206.274 246.198 207.638L244.68 207.924C244.636 206.56 244.416 204.47 244.174 202.886ZM257.154 199.41L256.142 199.08C256.516 198.266 256.978 196.968 257.198 196.088L258.43 196.462C258.012 197.496 257.55 198.64 257.154 199.41ZM251.5 196.484L252.556 196.198C253.018 197.078 253.436 198.244 253.568 199.036L252.446 199.344C252.336 198.574 251.94 197.364 251.5 196.484ZM250.928 195.692V199.762H253.942V195.692H250.928ZM258.562 199.762V195.692H255.614V199.762H258.562ZM260.278 201.39H256.78C257.946 203.172 259.684 205.042 261.158 206.054C260.718 206.384 260.124 207.022 259.794 207.484C258.474 206.318 256.912 204.338 255.768 202.402V208.716H253.832V203.04C252.71 204.888 251.17 206.626 249.674 207.682C249.454 207.308 249.058 206.714 248.706 206.318L247.342 206.736C247.188 205.57 246.726 203.832 246.33 202.468L247.672 202.094C248.068 203.304 248.486 204.866 248.706 205.988C250.246 204.998 251.83 203.216 252.842 201.39H249.322V194.064H253.81V192.524H248.794V190.764H253.81V188.542H255.746V190.764H260.784V192.524H255.746V194.064H260.278V201.39Z" fill="white"/>
<path d="M214.614 44.814H209.114V45.98H214.614V44.814ZM209.026 48.488H214.614V47.256H209.092C209.07 47.652 209.048 48.07 209.026 48.488ZM215.186 52.272H210.456V54.252H215.186V52.272ZM216.462 49.962H208.894C208.85 50.248 208.806 50.534 208.762 50.82H216.99V56.562H215.186V55.814H210.456V56.606H208.718V51.084C208.41 52.778 207.904 54.494 207.046 55.902C206.672 55.616 205.792 55.22 205.286 55.044C207.002 52.338 207.2 48.598 207.2 46.112V43.34H216.462V49.962ZM211.622 36.63L213.492 37.334C213.382 37.532 213.25 37.708 213.118 37.906C214.79 38.896 216.726 40.084 217.76 40.876L216.704 42.592C215.648 41.734 213.668 40.436 211.974 39.358C211.402 39.974 210.786 40.568 210.126 41.118H214.328V42.394H209.774V41.426C208.718 42.284 207.552 43.032 206.408 43.648C206.21 43.186 205.66 42.174 205.308 41.734C207.794 40.59 210.258 38.764 211.622 36.63ZM220.554 38.896V50.996H218.64V38.896H220.554ZM222.666 36.63H224.646V54.164C224.646 55.352 224.382 55.946 223.678 56.254C222.996 56.606 221.852 56.672 220.07 56.672C219.982 56.122 219.696 55.198 219.41 54.626C220.664 54.67 221.808 54.67 222.16 54.648C222.534 54.648 222.666 54.538 222.666 54.142V36.63ZM212.15 78.558L213.646 79.262C212.106 80.45 209.356 81.594 207.09 82.1C206.804 81.66 206.276 80.978 205.858 80.604C208.08 80.274 210.742 79.46 212.15 78.558ZM217.694 79.46L219.014 78.426C220.95 79.13 223.634 80.186 225.108 80.89L223.744 82.078C222.38 81.396 219.696 80.23 217.694 79.46ZM218.86 67.932H212.37C212.81 68.548 213.228 69.362 213.404 69.868L212.414 70.132H218.42L217.628 69.89C218.046 69.34 218.552 68.504 218.86 67.932ZM216.484 75.918H225.152V77.634H216.484V82.738H214.482V77.634H205.946V75.918H214.482V74.598H207.992V73.058H214.482V71.738H206.914V70.132H211.336C211.116 69.582 210.742 68.812 210.368 68.24L211.644 67.932H206.034V66.304H209.312C208.982 65.446 208.322 64.236 207.706 63.334L209.488 62.718C210.17 63.664 210.94 65.006 211.248 65.864L210.082 66.304H212.546V62.52H214.46V66.304H216.638V62.52H218.574V66.304H220.972L220.114 66.018C220.642 65.138 221.324 63.752 221.654 62.762L223.766 63.312C223.172 64.39 222.512 65.49 221.94 66.304H225.086V67.932H219.322L221.038 68.372C220.554 69.032 220.048 69.626 219.608 70.132H224.272V71.738H216.484V73.058H223.238V74.598H216.484V75.918ZM210.06 105.68H221.192V102.842H210.06V105.68ZM221.192 98.134H210.06V100.95H221.192V98.134ZM221.192 93.426H210.06V96.242H221.192V93.426ZM215.648 91.468H223.348V108.672H221.192V107.572H210.06V108.76H208.014V91.468H213.558C213.866 90.522 214.13 89.378 214.284 88.52L216.726 88.806C216.374 89.73 216.022 90.676 215.648 91.468ZM223.326 115.51L225.064 116.126C224.338 116.962 223.568 117.842 222.952 118.414L221.72 117.842C222.248 117.204 222.952 116.192 223.326 115.51ZM218.354 116.984L217.056 118.018C216.682 117.468 215.956 116.522 215.362 115.84L216.594 114.938C217.21 115.598 217.958 116.456 218.354 116.984ZM213.712 115.554L215.362 116.148C214.702 116.962 213.976 117.798 213.426 118.326L212.216 117.82C212.744 117.182 213.36 116.214 213.712 115.554ZM209.092 117.072L207.794 118.106C207.442 117.556 206.694 116.632 206.122 115.928L207.354 115.026C207.948 115.686 208.696 116.544 209.092 117.072ZM221.346 132.67V130.976H210.082V132.67H221.346ZM211.534 125.542V127.082H219.41V125.542H211.534ZM215.406 128.424L214.856 129.502H223.37V134.738H221.346V134.188H210.082V134.76H208.146V129.502H213.074C213.228 129.172 213.382 128.776 213.536 128.424H209.642V124.222H221.434V128.424H215.406ZM215.978 121.604H223.436C222.534 120.988 221.104 120.152 219.85 119.47C219.058 120.416 217.848 121.098 215.978 121.604ZM219.388 114.564H221.236C221.148 115.906 220.994 117.05 220.642 118.018C222.094 118.744 224.008 119.778 225.02 120.46L224.03 121.604H224.734V125.652H222.688V123.188H208.278V125.652H206.32V121.604H206.518C206.32 121.164 205.88 120.592 205.572 120.284C209.334 119.404 209.95 117.842 210.126 114.564H211.908C211.842 115.95 211.688 117.116 211.336 118.084C212.436 118.722 213.822 119.58 214.592 120.13L213.338 121.406C212.7 120.922 211.578 120.152 210.566 119.492C209.818 120.416 208.74 121.098 207.024 121.604H215.868C215.67 121.142 215.23 120.46 214.856 120.086C218.618 119.25 219.19 117.732 219.388 114.564Z" fill="white"/>
</svg>
