<?xml version="1.0" standalone="no"?>
<!DOCTYPE svg PUBLIC "-//W3C//DTD SVG 1.1//EN" "http://www.w3.org/Graphics/SVG/1.1/DTD/svg11.dtd" >
<svg xmlns="http://www.w3.org/2000/svg">
<metadata>Generated by IcoMoon</metadata>
<defs>
<font id="icomoon" horiz-adv-x="1024">
<font-face units-per-em="1024" ascent="960" descent="-64" />
<missing-glyph horiz-adv-x="1024" />
<glyph unicode="&#x20;" horiz-adv-x="512" d="" />
<glyph unicode="&#xe900;" glyph-name="add" d="M649.6 873.6c0 48-38.4 86.4-86.4 86.4h-105.6c-48 0-86.4-38.4-86.4-86.4v-288h-288c-48 0-86.4-38.4-86.4-86.4v-105.6c0-48 38.4-86.4 86.4-86.4h288v-288c0-48 38.4-86.4 86.4-86.4h105.6c48 0 86.4 38.4 86.4 86.4v288h288c48 0 86.4 38.4 86.4 86.4v105.6c0 48-38.4 86.4-86.4 86.4h-288v288z" />
<glyph unicode="&#xe901;" glyph-name="ams" d="M825.6 531.2h-51.2v166.4c0 144-118.4 262.4-262.4 262.4s-262.4-118.4-262.4-262.4v-166.4h-51.2c-28.8 0-51.2-22.4-51.2-51.2v-496c0-28.8 22.4-51.2 51.2-51.2h624c28.8 0 51.2 22.4 51.2 51.2v499.2c0 25.6-22.4 48-48 48zM374.4 697.6c0 76.8 60.8 137.6 137.6 137.6s137.6-60.8 137.6-137.6v-166.4h-275.2v166.4zM547.2 211.2v-144h-73.6v144c-25.6 12.8-44.8 38.4-44.8 70.4 0 44.8 35.2 80 80 80s80-35.2 80-80c3.2-32-16-57.6-41.6-70.4z" />
<glyph unicode="&#xe902;" glyph-name="arrow-right" d="M284.8-64l-137.6 160 406.4 352-406.4 352 137.6 160 592-512z" />
<glyph unicode="&#xe903;" glyph-name="check" d="M1017.6 704l-128 128c-9.6 9.6-22.4 9.6-32 0l-467.2-464-224 224c-9.6 9.6-22.4 9.6-32 0l-128-128c-9.6-9.6-9.6-22.4 0-32l368-368c9.6-9.6 22.4-9.6 32 0l611.2 608c9.6 9.6 9.6 22.4 0 32z" />
<glyph unicode="&#xe904;" glyph-name="cms" d="M928 873.6h-832c-54.4 0-96-44.8-96-96v-508.8c0-54.4 44.8-96 96-96h316.8c-3.2-19.2-12.8-105.6-83.2-105.6-35.2-6.4-32-41.6 0-41.6h364.8c32 0 35.2 35.2 0 41.6-70.4 3.2-80 89.6-83.2 105.6h316.8c54.4 0 96 44.8 96 96v508.8c0 51.2-44.8 96-96 96zM902.4 284.8h-780.8v476.8h784v-476.8z" />
<glyph unicode="&#xe905;" glyph-name="dashbord" d="M1011.2 393.6l-457.6 483.2c-22.4 22.4-57.6 22.4-80 0l-460.8-483.2c-22.4-22.4-12.8-41.6 16-41.6h144v-291.2c0-32 25.6-57.6 57.6-57.6h163.2v316.8h236.8v-316.8h163.2c32 0 57.6 25.6 57.6 57.6v291.2h144c28.8 0 38.4 19.2 16 41.6z" />
<glyph unicode="&#xe906;" glyph-name="delete" d="M134.4 681.6h755.2v-665.6c0-44.8-35.2-80-80-80h-595.2c-44.8 0-80 35.2-80 80v665.6zM329.6 598.4c-19.2 0-35.2-16-35.2-35.2v-499.2c0-19.2 16-35.2 35.2-35.2v0c19.2 0 35.2 16 35.2 35.2v496c0 22.4-16 38.4-35.2 38.4v0 0zM512 598.4c-19.2 0-35.2-16-35.2-35.2v-499.2c0-19.2 16-35.2 35.2-35.2v0c19.2 0 35.2 16 35.2 35.2v496c0 22.4-16 38.4-35.2 38.4v0 0zM694.4 598.4c-19.2 0-35.2-16-35.2-35.2v-499.2c0-19.2 16-35.2 35.2-35.2v0c19.2 0 35.2 16 35.2 35.2v496c3.2 22.4-12.8 38.4-35.2 38.4v0 0zM393.6 960h233.6c19.2 0 35.2-6.4 48-19.2v0c12.8-12.8 19.2-28.8 19.2-48v0 0-51.2h169.6c32 0 54.4-25.6 54.4-54.4v-54.4h-819.2v51.2c0 32 25.6 54.4 54.4 54.4h169.6v51.2c0 19.2 6.4 35.2 19.2 48v0c16 16 32 22.4 51.2 22.4v0 0 0zM630.4 902.4h-233.6c-3.2 0-6.4 0-9.6-3.2v0c-3.2-3.2-3.2-6.4-3.2-9.6v0 0-51.2h256v51.2c0 3.2 0 6.4-3.2 9.6v0c0 3.2-3.2 3.2-6.4 3.2v0 0z" />
<glyph unicode="&#xe907;" glyph-name="filter" d="M956.8 876.8c0 0 0 0 0 0 0 44.8-198.4 83.2-444.8 83.2s-444.8-38.4-444.8-83.2c0 0 0 0 0 0s0-9.6 0-19.2 0-44.8 0-64c0-9.6 6.4-22.4 9.6-28.8l342.4-390.4v-425.6c0-9.6 6.4-12.8 16-9.6l150.4 70.4c9.6 3.2 16 16 16 25.6v339.2l345.6 390.4c6.4 6.4 9.6 19.2 9.6 28.8v64c0 9.6 0 19.2 0 19.2zM512 784c-224 0-403.2 32-403.2 73.6s179.2 73.6 403.2 73.6c224 0 403.2-32 403.2-73.6s-179.2-73.6-403.2-73.6z" />
<glyph unicode="&#xe908;" glyph-name="fms" d="M864 547.2c-41.6 128-163.2 217.6-304 217.6s-259.2-89.6-300.8-217.6c-12.8 3.2-28.8 3.2-44.8 3.2-118.4 0-214.4-96-214.4-214.4s96-208 214.4-208h233.6v185.6h-108.8l185.6 220.8 185.6-220.8h-108.8v-185.6c73.6 0 208 0 208 0 118.4 0 214.4 96 214.4 214.4 0 99.2-67.2 182.4-160 204.8z" />
<glyph unicode="&#xe909;" glyph-name="logs" d="M809.6 832c-64 83.2-156.8 128-268.8 128 0 0 0 0-3.2 0-345.6 0-416-435.2-416-438.4-3.2-16 9.6-28.8 22.4-32 16-3.2 28.8 9.6 32 22.4 0 3.2 60.8 390.4 358.4 390.4 0 0 0 0 3.2 0 96 0 169.6-35.2 224-105.6 80-105.6 92.8-268.8 64-371.2-3.2-16 3.2-32 19.2-35.2 3.2 0 6.4 0 6.4 0 12.8 0 22.4 9.6 28.8 22.4 38.4 115.2 22.4 297.6-70.4 419.2zM268.8 518.4c35.2 131.2 102.4 304 278.4 297.6 64 0 115.2-25.6 150.4-67.2 73.6-92.8 64-252.8 48-323.2-9.6-41.6 3.2-67.2 16-80 19.2-22.4 51.2-25.6 67.2-25.6 3.2 0 6.4 0 9.6 0 16 3.2 25.6 16 25.6 32s-16 25.6-32 25.6c-6.4 0-22.4 0-28.8 6.4-6.4 9.6-3.2 22.4-3.2 32 19.2 86.4 28.8 259.2-57.6 371.2-44.8 57.6-112 89.6-192 89.6-3.2 0-3.2 0-6.4 0-236.8 0-307.2-256-329.6-342.4-19.2-67.2-57.6-70.4-60.8-70.4-16 0-28.8-12.8-28.8-28.8s12.8-28.8 28.8-28.8c0 0 86.4-3.2 115.2 112zM345.6 470.4c48 182.4 112 262.4 204.8 259.2 38.4-3.2 67.2-16 86.4-44.8 48-67.2 38.4-188.8 12.8-284.8s-99.2-137.6-156.8-128c-57.6 12.8-83.2 73.6-67.2 160 25.6 156.8 83.2 204.8 115.2 208 19.2 3.2 28.8-12.8 32-22.4 25.6-57.6 3.2-166.4-9.6-204.8-3.2-9.6-12.8-38.4-28.8-48-6.4-3.2-12.8-3.2-19.2-3.2-12.8 19.2 9.6 108.8 44.8 195.2 6.4 16 0 32-16 38.4s-32 0-38.4-16c-19.2-41.6-73.6-182.4-44.8-243.2 6.4-16 19.2-25.6 35.2-28.8 22.4-6.4 44.8-3.2 64 9.6 38.4 22.4 51.2 73.6 54.4 83.2 3.2 12.8 44.8 156.8 6.4 243.2-19.2 38.4-54.4 57.6-92.8 54.4-76.8-9.6-137.6-105.6-163.2-256-25.6-144 44.8-211.2 112-227.2 12.8-3.2 22.4-3.2 35.2-3.2 89.6 0 166.4 80 192 169.6 12.8 51.2 54.4 227.2-22.4 332.8-28.8 41.6-73.6 64-131.2 67.2-179.2 12.8-243.2-224-262.4-300.8-28.8-105.6-121.6-108.8-128-108.8-16 0-28.8-12.8-28.8-28.8s12.8-28.8 28.8-28.8c51.2 6.4 153.6 38.4 185.6 156.8zM851.2 262.4c-57.6 41.6-118.4 41.6-156.8 0-51.2-54.4-160-118.4-252.8-70.4-35.2 19.2-54.4 41.6-73.6 64-19.2 25.6-38.4 51.2-76.8 57.6-41.6 6.4-115.2-16-121.6-19.2-16-6.4-22.4-22.4-19.2-35.2 6.4-16 22.4-22.4 35.2-19.2 25.6 9.6 73.6 19.2 96 16 16-3.2 25.6-12.8 44.8-35.2 19.2-25.6 44.8-54.4 89.6-80 32-16 64-22.4 99.2-22.4 83.2 0 169.6 48 224 105.6 25.6 25.6 57.6 9.6 83.2-6.4 12.8-9.6 32-6.4 38.4 6.4 3.2 12.8 3.2 28.8-9.6 38.4zM825.6 179.2c-41.6 25.6-64 28.8-80 12.8-54.4-54.4-137.6-115.2-246.4-105.6-115.2 9.6-185.6 86.4-208 128-12.8 25.6-44.8 25.6-105.6 0-16-6.4-22.4-22.4-16-38.4s25.6-22.4 38.4-16c12.8 6.4 28.8 9.6 41.6 12.8 35.2-54.4 118.4-131.2 243.2-144 9.6 0 16 0 25.6 0 115.2 0 208 64 256 112 6.4-3.2 16-6.4 22.4-12.8 12.8-9.6 32-3.2 38.4 9.6 6.4 16 3.2 35.2-9.6 41.6zM752 83.2c0 0-108.8-105.6-278.4-86.4-147.2 19.2-204.8 112-208 118.4-9.6 12.8-25.6 16-41.6 6.4-12.8-9.6-19.2-25.6-9.6-38.4 3.2-6.4 76.8-121.6 249.6-144 19.2-3.2 35.2-3.2 51.2-3.2 166.4 0 268.8 102.4 272 105.6 9.6 9.6 9.6 28.8 0 41.6-6.4 9.6-25.6 9.6-35.2 0z" />
<glyph unicode="&#xe90a;" glyph-name="open" d="M592 960v-137.6h198.4l-326.4-326.4 96-96 326.4 326.4v-198.4h137.6v432zM886.4 73.6h-748.8v748.8h294.4v137.6h-432v-1024h1024v432h-137.6z" />
<glyph unicode="&#xe90b;" glyph-name="option" d="M614.4 76.8l-32-140.8h-140.8l-32 140.8c-32 9.6-60.8 19.2-86.4 35.2l-121.6-76.8-102.4 102.4 76.8 121.6c-16 28.8-25.6 57.6-35.2 86.4l-140.8 32v144l140.8 32c9.6 32 19.2 60.8 35.2 86.4l-76.8 121.6 51.2 48 48 51.2 124.8-76.8c28.8 16 57.6 25.6 86.4 35.2l32 140.8h140.8l32-140.8c32-9.6 60.8-19.2 86.4-35.2l121.6 76.8 102.4-102.4-76.8-121.6c16-28.8 25.6-57.6 35.2-86.4l140.8-32v-140.8l-140.8-32c-9.6-32-19.2-60.8-35.2-86.4l76.8-121.6-102.4-102.4-121.6 76.8c-28.8-16-57.6-25.6-86.4-35.2zM512 240c115.2 0 208 92.8 208 208s-92.8 208-208 208c-115.2 0-208-92.8-208-208s92.8-208 208-208v0z" />
<glyph unicode="&#xe90c;" glyph-name="other" d="M406.4 758.4c-16 70.4-80 121.6-153.6 121.6s-137.6-51.2-153.6-121.6h-99.2v-73.6h99.2c16-70.4 80-121.6 153.6-121.6s137.6 51.2 153.6 121.6h617.6v73.6h-617.6zM816 604.8c-73.6 0-137.6-51.2-153.6-121.6h-662.4v-73.6h665.6c16-70.4 80-121.6 153.6-121.6s137.6 51.2 153.6 121.6h51.2v73.6h-54.4c-16 70.4-76.8 121.6-153.6 121.6zM508.8 332.8c-73.6 0-137.6-51.2-153.6-121.6h-355.2v-73.6h355.2c16-70.4 80-121.6 153.6-121.6s137.6 51.2 153.6 121.6h361.6v73.6h-364.8c-16 70.4-76.8 121.6-150.4 121.6z" />
<glyph unicode="&#xe90d;" glyph-name="photos" d="M982.4 713.6h-44.8v-592h-790.4v-44.8c0-22.4 19.2-41.6 41.6-41.6h793.6c22.4 0 41.6 19.2 41.6 41.6v595.2c0 22.4-19.2 41.6-41.6 41.6zM876.8 224v595.2c0 22.4-19.2 41.6-41.6 41.6h-793.6c-22.4 0-41.6-19.2-41.6-41.6v-595.2c0-22.4 19.2-41.6 41.6-41.6h793.6c22.4 0 41.6 19.2 41.6 41.6zM787.2 268.8h-700.8v502.4h700.8v-502.4zM537.6 547.2l-169.6-166.4-70.4 67.2-124.8-112h531.2zM243.2 534.4c32 0 60.8 28.8 60.8 60.8s-28.8 60.8-60.8 60.8c-32 0-60.8-28.8-60.8-60.8s25.6-60.8 60.8-60.8z" />
<glyph unicode="&#xe90e;" glyph-name="search" d="M992 147.2l-208 192c25.6 54.4 38.4 112 38.4 172.8 0 227.2-182.4 409.6-409.6 409.6-230.4 3.2-412.8-182.4-412.8-406.4 0-227.2 182.4-412.8 409.6-412.8 89.6 0 176 28.8 243.2 80l201.6-185.6c41.6-38.4 105.6-35.2 144 6.4 19.2 19.2 25.6 44.8 25.6 67.2 0 28.8-9.6 57.6-32 76.8zM409.6 214.4c-163.2 0-297.6 134.4-297.6 297.6s134.4 297.6 297.6 297.6c163.2 0 297.6-134.4 297.6-297.6s-131.2-297.6-297.6-297.6z" />
<glyph unicode="&#xe90f;" glyph-name="seo-tool" d="M422.4 217.6c-76.8 0-140.8 64-140.8 140.8s64 140.8 140.8 140.8c76.8 0 140.8-64 140.8-140.8s-60.8-140.8-140.8-140.8zM422.4 428.8c-38.4 0-70.4-32-70.4-70.4s32-70.4 70.4-70.4c38.4 0 70.4 32 70.4 70.4s-32 70.4-70.4 70.4zM422.4 76.8c-156.8 0-281.6 128-281.6 281.6 0 156.8 128 281.6 281.6 281.6s281.6-128 281.6-281.6c3.2-153.6-124.8-281.6-281.6-281.6zM422.4 569.6c-115.2 0-211.2-92.8-211.2-211.2s92.8-211.2 211.2-211.2c115.2 0 211.2 92.8 211.2 211.2s-92.8 211.2-211.2 211.2zM422.4-64c-233.6 0-422.4 192-422.4 425.6s188.8 422.4 422.4 422.4c233.6 0 422.4-188.8 422.4-422.4s-188.8-425.6-422.4-425.6zM422.4 710.4c-192 0-352-156.8-352-352s156.8-352 352-352c192 0 352 156.8 352 352s-156.8 352-352 352zM499.2 396.8c-9.6 0-19.2 3.2-25.6 9.6-12.8 12.8-12.8 38.4 0 51.2l336 339.2c12.8 12.8 38.4 12.8 51.2 0s12.8-38.4 0-51.2l-336-336c-6.4-9.6-16-12.8-25.6-12.8zM988.8 736h-150.4c-22.4 0-38.4 16-38.4 35.2v150.4c0 22.4 16 38.4 35.2 38.4s35.2-16 35.2-35.2v-115.2h115.2c19.2 0 35.2-16 35.2-35.2s-12.8-38.4-32-38.4z" />
<glyph unicode="&#xe910;" glyph-name="setting" d="M723.2 313.6c-28.8 28.8-73.6 28.8-102.4 0l-48-48c-28.8-28.8-28.8-73.6 0-102.4l195.2-195.2c28.8-28.8 73.6-28.8 102.4 0l48 48c28.8 28.8 28.8 73.6 0 102.4l-195.2 195.2zM211.2 608v0 0l121.6-124.8 67.2 70.4-121.6 121.6-57.6 118.4-179.2 96-41.6-41.6 89.6-182.4zM1014.4 780.8l-140.8-140.8c0 0-64-28.8-124.8 35.2-64 64-35.2 124.8-35.2 124.8l140.8 140.8c-86.4 25.6-179.2 3.2-246.4-60.8-67.2-67.2-86.4-163.2-57.6-249.6l-470.4-470.4c-41.6-41.6-41.6-112 0-153.6l3.2-3.2c41.6-41.6 112-41.6 153.6 0l467.2 473.6c83.2-28.8 182.4-9.6 249.6 57.6 64 67.2 86.4 160 60.8 246.4zM198.4 64c-16-16-44.8-16-60.8 0s-16 44.8 0 60.8c16 16 44.8 16 60.8 0s16-44.8 0-60.8z" />
<glyph unicode="&#xe911;" glyph-name="support" d="M512 960c-281.6 0-512-230.4-512-512s230.4-512 512-512c281.6 0 512 230.4 512 512s-230.4 512-512 512zM656 659.2c28.8 0 54.4-51.2 54.4-115.2s-25.6-115.2-54.4-115.2c-28.8 0-54.4 51.2-54.4 115.2s25.6 115.2 54.4 115.2zM368 659.2c28.8 0 54.4-51.2 54.4-115.2s-25.6-115.2-54.4-115.2c-28.8 0-54.4 51.2-54.4 115.2s25.6 115.2 54.4 115.2zM822.4 345.6c-44.8-134.4-169.6-224-310.4-224s-265.6 89.6-310.4 224c-6.4 16 3.2 35.2 19.2 41.6s35.2-3.2 41.6-19.2c35.2-108.8 137.6-182.4 249.6-182.4 115.2 0 214.4 73.6 249.6 182.4 6.4 16 22.4 25.6 41.6 19.2 16-6.4 25.6-25.6 19.2-41.6z" />
<glyph unicode="&#xe912;" glyph-name="system" d="M512 960c-281.6 0-512-230.4-512-512s230.4-512 512-512 512 230.4 512 512-230.4 512-512 512zM454.4 739.2c16 16 32 22.4 54.4 22.4 19.2 0 38.4-6.4 54.4-22.4s22.4-32 22.4-51.2c0-22.4-6.4-38.4-22.4-54.4s-32-22.4-54.4-22.4c-19.2 0-38.4 6.4-54.4 22.4s-22.4 32-22.4 54.4c0 19.2 6.4 35.2 22.4 51.2zM643.2 172.8c0-3.2-3.2-6.4-3.2-6.4-16 0-38.4 0-64 3.2-25.6 0-48 3.2-67.2 3.2s-38.4 0-60.8-3.2c-22.4 0-41.6-3.2-57.6-3.2-3.2 0-3.2 3.2-3.2 6.4s-3.2 9.6-3.2 12.8c0 3.2 0 6.4 3.2 9.6 0 3.2 3.2 6.4 3.2 6.4 19.2 3.2 35.2 6.4 44.8 16s12.8 25.6 12.8 54.4v124.8c0 22.4-3.2 35.2-12.8 41.6s-22.4 9.6-44.8 12.8c-3.2 0-3.2 3.2-3.2 6.4s-3.2 6.4-3.2 9.6c0 3.2 0 6.4 3.2 9.6 0 3.2 3.2 6.4 3.2 6.4 25.6 6.4 57.6 12.8 89.6 25.6s57.6 22.4 76.8 32c3.2 0 3.2 3.2 9.6 3.2 3.2 3.2 6.4 3.2 9.6 3.2 6.4 0 12.8 0 16-3.2s3.2-3.2 3.2-6.4c0-19.2-3.2-41.6-3.2-70.4-3.2-28.8-3.2-51.2-3.2-70.4v-128c0-25.6 3.2-44.8 12.8-54.4s22.4-16 41.6-16c3.2 0 3.2-3.2 3.2-6.4s3.2-9.6 3.2-9.6c-6.4 0-6.4-3.2-6.4-9.6z" />
<glyph unicode="&#xe913;" glyph-name="tables" d="M953.6 390.4h-352c-28.8 0-51.2-22.4-51.2-51.2v-352c0-28.8 22.4-51.2 51.2-51.2h352c28.8 0 51.2 22.4 51.2 51.2v352c0 25.6-22.4 51.2-51.2 51.2zM406.4 390.4h-352c-28.8 0-51.2-22.4-51.2-51.2v-352c0-28.8 22.4-51.2 51.2-51.2h352c28.8 0 51.2 22.4 51.2 51.2v352c0 25.6-22.4 51.2-51.2 51.2zM739.2 496c22.4-22.4 60.8-22.4 83.2 0l182.4 182.4c22.4 22.4 22.4 60.8 0 83.2l-182.4 182.4c-22.4 22.4-60.8 22.4-83.2 0l-182.4-182.4c-22.4-22.4-22.4-60.8 0-83.2l182.4-182.4zM406.4 947.2h-352c-25.6 0-51.2-22.4-51.2-51.2v-352c0-28.8 22.4-51.2 51.2-51.2h352c28.8 0 51.2 22.4 51.2 51.2v352c0 28.8-22.4 51.2-51.2 51.2z" />
<glyph unicode="&#xe914;" glyph-name="watch" d="M1008 496c-67.2 76.8-227.2 224-496 224-265.6 0-428.8-144-496-224-22.4-25.6-22.4-67.2 0-96 67.2-76.8 227.2-224 496-224 265.6 0 428.8 144 496 224 22.4 25.6 22.4 70.4 0 96zM512 259.2c-102.4 0-188.8 83.2-188.8 188.8 0 102.4 83.2 188.8 188.8 188.8 102.4 0 188.8-83.2 188.8-188.8 0-102.4-86.4-188.8-188.8-188.8zM512 547.2c-54.4 0-99.2-44.8-99.2-99.2s44.8-99.2 99.2-99.2c54.4 0 99.2 44.8 99.2 99.2s-44.8 99.2-99.2 99.2z" />
<glyph unicode="&#xe915;" glyph-name="open-menu" d="M243.2 448c0-67.158-54.442-121.6-121.6-121.6s-121.6 54.442-121.6 121.6c0 67.158 54.442 121.6 121.6 121.6s121.6-54.442 121.6-121.6zM633.6 448c0-67.158-54.442-121.6-121.6-121.6s-121.6 54.442-121.6 121.6c0 67.158 54.442 121.6 121.6 121.6s121.6-54.442 121.6-121.6zM1024 448c0-67.158-54.442-121.6-121.6-121.6s-121.6 54.442-121.6 121.6c0 67.158 54.442 121.6 121.6 121.6s121.6-54.442 121.6-121.6z" />
<glyph unicode="&#xe916;" glyph-name="batch" horiz-adv-x="921" d="M459.741 960l0.078-0.001c-0.51 0.004-1.021 0.006-1.533 0.006-25.781 0-50.287-5.46-71.285-14.836l-335.999-166.879c-27.814-12.108-47.931-38.586-51.002-70.407v-0.016c0.118-32.799 19.184-61.133 47.316-74.842l335.372-182.518c21.14-11.507 45.375-18.045 71.138-18.045 0.093 0 0.186 0 0.265 0l5.773 0.002c25.806 0.402 50.071 7.154 70.498 18.36l339.472 183.831c27.639 13.492 46.705 41.826 46.823 74.641l-0.027 0.348c-3.044 31.473-23.161 57.951-51.526 70.272l-333.696 164.821c-21.335 9.803-45.076 15.268-70.094 15.268-0.553 0-1.105-0.003-1.573-0.007zM459.741 536.276c-8.705 0.256-16.92 2.048-24.484 5.113l0.473-0.17-294.488 163.134 293.782 141.241c7.714 3.15 16.666 4.978 26.044 4.978 0.775 0 1.547-0.012 2.316-0.037l-0.112 0.003c0.45 0.011 0.98 0.018 1.511 0.018 8.888 0 17.35-1.824 25.032-5.119l-0.414 0.158 294.488-144.772-299.432-158.19c-6.756-3.629-14.717-5.931-23.174-6.351l-0.131-0.005zM7.062 465.655c9.026 16.426 26.211 27.374 45.954 27.374 9.032 0 17.529-2.291 24.941-6.325l-0.274 0.137 358.753-192.088c6.651-3.124 14.443-4.947 22.662-4.947 0.226 0 0.452 0.001 0.677 0.004h-0.034c0.176-0.002 0.384-0.003 0.593-0.003 8.477 0 16.528 1.821 23.784 5.094l-0.365-0.147 358.047 194.913c7.354 4.028 16.112 6.398 25.423 6.398 29.665 0 53.714-24.048 53.714-53.714 0-20.354-11.321-38.063-28.009-47.175l-0.281-0.14-357.341-192.794c-20.46-11.055-44.692-17.783-70.443-18.358l-0.178-0.003h-7.768c-25.859 0.736-50.050 7.176-71.583 18.098l0.962-0.443-358.047 193.501c-16.307 9.239-27.132 26.474-27.132 46.238 0 8.909 2.199 17.304 6.085 24.672l-0.139-0.289zM918.069 220.601c3.506-6.938 5.56-15.124 5.56-23.789 0-20.011-10.951-37.464-27.187-46.693l-0.265-0.139-361.578-195.619c-20.46-11.055-44.692-17.783-70.443-18.358l-0.178-0.003h-7.768c-25.856 0.61-50.068 7.066-71.551 18.089l0.93-0.434-358.047 194.913c-16.002 9.314-26.587 26.386-26.587 45.93 0 9.031 2.26 17.534 6.246 24.975l-0.139-0.284c8.803 16.551 25.941 27.629 45.666 27.629 9.159 0 17.76-2.388 25.214-6.576l-0.259 0.134 356.634-194.207c6.44-2.727 13.929-4.312 21.789-4.312 1.030 0 2.054 0.027 3.070 0.081l-0.142-0.006c0.35-0.008 0.763-0.013 1.176-0.013 8.278 0 16.13 1.826 23.175 5.098l-0.34-0.142 358.753 194.913c8.070 5.114 17.897 8.15 28.433 8.15 20.762 0 38.77-11.788 47.697-29.037l0.141-0.299z" />
<glyph unicode="&#xe917;" glyph-name="recover" horiz-adv-x="1041" d="M407.864 283.119l112.814 112.814 112.814-112.814 60.746 60.746-112.814 112.814 112.814 112.814-60.746 60.746-112.814-112.814-112.814 112.814-60.746-60.746 112.814-112.814-112.814-112.814zM807.051 170.305v0c-28.934-29.175-63.554-52.66-102.066-68.662l-2.069-0.762c-49.462-32.683-110.158-52.141-175.398-52.141-2.405 0-4.803 0.026-7.196 0.079l0.356-0.006c-0.649-0.004-1.417-0.006-2.185-0.006-111.681 0-212.485 46.571-284.050 121.353l-0.138 0.145c-74.012 73.124-120.236 174.231-121.489 286.136l-0.002 0.237v52.068h-112.814v-52.068c-0.017-1.551-0.027-3.383-0.027-5.218 0-140.070 56.342-266.981 147.6-359.306l-0.048 0.049c92.888-94.737 221.55-154.104 364.082-156.199l0.393-0.005c1.342-0.013 2.926-0.021 4.513-0.021 98.316 0 189.825 29.144 266.36 79.263l-1.856-1.14c33.52 18.99 62.152 42.092 86.51 69.12l0.27 0.304 112.814-112.814v312.407h-286.373l112.814-112.814zM885.153 821.153c-71.031 70.63-163.101 120.171-265.987 138.403l-3.030 0.445h-104.136c-1.342 0.013-2.926 0.021-4.513 0.021-98.316 0-189.825-29.144-266.36-79.263l1.856 1.14c-33.52-18.99-62.152-42.092-86.51-69.12l-0.27-0.304-121.492 130.169v-312.407h312.407l-112.814 112.814c27.361 27.211 58.809 50.352 93.335 68.413l2.123 1.011c54.207 32.715 119.67 52.070 189.652 52.070 0.444 0 0.888-0.001 1.332-0.002h-0.069c223.7-3.832 404.033-184.165 407.86-407.501l0.005-0.363v-52.068h112.814v52.068c0.037 2.22 0.057 4.839 0.057 7.463 0 140.986-60.038 267.95-155.941 356.72l-0.319 0.292z" />
</font>
</defs>
</svg>
