<svg xmlns="http://www.w3.org/2000/svg" viewBox="0 0 232.08 29.54"><defs><style>.cls-1{fill:#082821;}</style></defs><g id="圖層_2" data-name="圖層 2"><g id="圖層_1-2" data-name="圖層 1"><path class="cls-1" d="M6.63,23.25a2.74,2.74,0,0,1-.29,1.29,2.23,2.23,0,0,1-.76.85,3.51,3.51,0,0,1-1.11.47A5.79,5.79,0,0,1,3.16,26H2.11v3.32H0V20.56H3.2a6.72,6.72,0,0,1,1.35.13,3.06,3.06,0,0,1,1.08.47,2,2,0,0,1,.73.83A2.73,2.73,0,0,1,6.63,23.25Zm-2.11,0a1,1,0,0,0-.14-.52.63.63,0,0,0-.33-.29,1,1,0,0,0-.46-.15,2.53,2.53,0,0,0-.55,0H2.11v2.07H3a2.81,2.81,0,0,0,.58,0,1.4,1.4,0,0,0,.48-.18.78.78,0,0,0,.33-.32,1,1,0,0,0,.12-.59Z"/><path class="cls-1" d="M17.09,24.89a5,5,0,0,1-.37,1.9,4.11,4.11,0,0,1-1,1.47,4.59,4.59,0,0,1-1.51.95,5.66,5.66,0,0,1-3.81,0,4.76,4.76,0,0,1-1.51-.95,4.41,4.41,0,0,1-1-1.47,5.07,5.07,0,0,1,0-3.79,4.19,4.19,0,0,1,1-1.44,4.36,4.36,0,0,1,1.51-.92,5.92,5.92,0,0,1,3.81,0,4.36,4.36,0,0,1,1.51.92,4,4,0,0,1,1,1.44A4.9,4.9,0,0,1,17.09,24.89Zm-2.26,0a2.77,2.77,0,0,0-.2-1.06,2.17,2.17,0,0,0-.51-.85,2.86,2.86,0,0,0-.78-.56,2.7,2.7,0,0,0-2.05,0,2.86,2.86,0,0,0-.78.56,2.17,2.17,0,0,0-.51.85,3.2,3.2,0,0,0-.19,1.06A3.39,3.39,0,0,0,10,26a2.64,2.64,0,0,0,.51.85,2.29,2.29,0,0,0,.78.56,2.4,2.4,0,0,0,1,.22,2.55,2.55,0,0,0,1.81-.78,2.64,2.64,0,0,0,.51-.85A2.94,2.94,0,0,0,14.83,24.89Z"/><path class="cls-1" d="M27.82,29.31h-2.1l-1.66-5.93L22.4,29.31H20.31l-2.49-8.75h2.27l1.38,5.81L23,20.56h2.21l1.56,5.81,1.39-5.81h2.21Z"/><path class="cls-1" d="M31.24,29.31V20.56h5.88v1.78H33.28V24H36.9v1.66H33.28v1.81h4.07v1.81Z"/><path class="cls-1" d="M43.51,29.31l-1.89-3.49H40.9v3.49H38.83V20.56h3.32a5.15,5.15,0,0,1,1.23.13,3.59,3.59,0,0,1,1.08.43,2.49,2.49,0,0,1,.76.82,2.61,2.61,0,0,1,.28,1.26A2.28,2.28,0,0,1,45,24.69a2.66,2.66,0,0,1-1.34.87L46,29.31Zm0-6.08a1,1,0,0,0-.13-.5.8.8,0,0,0-.34-.29,1.23,1.23,0,0,0-.46-.14H41v2.05h1.54a1.62,1.62,0,0,0,.48-.17.88.88,0,0,0,.37-.32.91.91,0,0,0,.07-.63Z"/><path class="cls-1" d="M59.35,29.31H57.28l-1.75-5.93-1.66,5.93H51.66l-2.47-8.75h2.27l1.38,5.81,1.56-5.81h2.21l1.56,5.81,1.41-5.81h2.21Z"/><path class="cls-1" d="M62.79,29.31V20.56h2.13v8.75Z"/><path class="cls-1" d="M72.37,29.31l-3.52-5.7v5.73h-2V20.56h2.41l3.53,5.71V20.56h2v8.75Z"/><path class="cls-1" d="M84.79,24.91a4.33,4.33,0,0,1-.41,2,4.05,4.05,0,0,1-1.13,1.37,4.67,4.67,0,0,1-1.58.78,5.91,5.91,0,0,1-1.78.27H76.57v-8.8h3.16a8.09,8.09,0,0,1,1.83.21,4.64,4.64,0,0,1,1.66.72,3.54,3.54,0,0,1,1.12,1.34A4.3,4.3,0,0,1,84.79,24.91Zm-2.19,0a2.61,2.61,0,0,0-.25-1.23,1.84,1.84,0,0,0-.63-.78,2.35,2.35,0,0,0-.91-.41,4.3,4.3,0,0,0-1.07-.14h-1v5.12h1a5.06,5.06,0,0,0,1.09-.12,2.72,2.72,0,0,0,.93-.43,2,2,0,0,0,.63-.8A2.53,2.53,0,0,0,82.6,24.91Z"/><path class="cls-1" d="M94.94,29.31V25.64H91.52v3.67H89.36V20.56h2.11v3.32h3.42V20.56H97v8.75Z"/><path class="cls-1" d="M98.91,29.31V20.56h5.88v1.78H101V24h3.64v1.66H101v1.81h4.07v1.81Z"/><path class="cls-1" d="M112.41,29.31l-.68-1.66h-3.32l-.65,1.66h-2.29l3.67-8.75h2l3.64,8.75Zm-2.36-6.43-1.11,3h2.21Z"/><path class="cls-1" d="M115.55,29.31V20.56h2.12v6.91H121v1.84Z"/><path class="cls-1" d="M124.88,22.35v7h-2.12v-7h-2.48V20.56h7.06v1.79Z"/><path class="cls-1" d="M133.9,29.31V25.64h-3.42v3.67h-2.11V20.56h2.11v3.32h3.42V20.56H136v8.75Z"/><path class="cls-1" d="M141,29.31V20.56h2.13v8.75Z"/><path class="cls-1" d="M150.57,29.31l-3.52-5.7v5.73H145V20.56h2.49L151,26.27V20.56h2.06v8.75Z"/><path class="cls-1" d="M163,24.91a4.27,4.27,0,0,1-.43,2,4.05,4.05,0,0,1-1.13,1.37,4.67,4.67,0,0,1-1.56.78,6.07,6.07,0,0,1-1.79.27h-3.33V20.56h3.16a8.11,8.11,0,0,1,1.84.21,4.33,4.33,0,0,1,1.66.72,3.71,3.71,0,0,1,1.15,1.34A4.52,4.52,0,0,1,163,24.91Zm-2.21,0a2.75,2.75,0,0,0-.23-1.23,2,2,0,0,0-.65-.78,2.35,2.35,0,0,0-.91-.41,4.29,4.29,0,0,0-1.06-.14h-1v5.12h1a4.83,4.83,0,0,0,1.08-.12,2.63,2.63,0,0,0,.93-.43,2.11,2.11,0,0,0,.65-.8,2.64,2.64,0,0,0,.2-1.21Z"/><path class="cls-1" d="M171.61,27.45a3.14,3.14,0,0,1-.76,1.11,3.41,3.41,0,0,1-1.18.72,4.81,4.81,0,0,1-3.12,0,3.33,3.33,0,0,1-1.16-.72,3,3,0,0,1-.75-1.11,4,4,0,0,1-.27-1.44V20.56h2.11v5.26a2.24,2.24,0,0,0,.1.68,1.53,1.53,0,0,0,.28.59,1.2,1.2,0,0,0,.5.39,2,2,0,0,0,1.53,0,1.51,1.51,0,0,0,.51-.39,2.16,2.16,0,0,0,.29-.59,3.08,3.08,0,0,0,.08-.68V20.56h2.11V26A3.58,3.58,0,0,1,171.61,27.45Z"/><path class="cls-1" d="M178.27,22.83a2.24,2.24,0,0,0-1.56-.76h-.43a1.37,1.37,0,0,0-.38.15,1,1,0,0,0-.3.27.82.82,0,0,0-.12.43.65.65,0,0,0,.1.36.87.87,0,0,0,.27.27,2.11,2.11,0,0,0,.43.2l.55.2c.3.1.61.2.93.33a3.36,3.36,0,0,1,.88.46,2.79,2.79,0,0,1,.66.75,2.15,2.15,0,0,1,.25,1.08,2.72,2.72,0,0,1-1,2.23,3.3,3.3,0,0,1-1.06.53,5.29,5.29,0,0,1-1.25.16,5.14,5.14,0,0,1-1.82-.33,4.13,4.13,0,0,1-1.47-.93l1.4-1.41a2.5,2.5,0,0,0,.85.66,2.12,2.12,0,0,0,1,.27,1.69,1.69,0,0,0,.45,0,.77.77,0,0,0,.38-.17.61.61,0,0,0,.27-.28,1,1,0,0,0,.1-.45.67.67,0,0,0-.12-.43,1.47,1.47,0,0,0-.35-.31,4,4,0,0,0-.56-.25l-.78-.25c-.28-.1-.55-.21-.82-.33a3.14,3.14,0,0,1-.73-.47,2.65,2.65,0,0,1-.49-.71,2.32,2.32,0,0,1-.2-1,2.4,2.4,0,0,1,.3-1.26,2.54,2.54,0,0,1,.78-.85,3.33,3.33,0,0,1,1.09-.48,4.53,4.53,0,0,1,1.21-.17,4.66,4.66,0,0,1,1.52.29,4,4,0,0,1,1.36.79Z"/><path class="cls-1" d="M184.6,22.35v7h-2.11v-7H180V20.56h7v1.79Z"/><path class="cls-1" d="M192.77,29.31l-1.89-3.49h-.72v3.49h-2.07V20.56h3.32a5.15,5.15,0,0,1,1.23.13,3.59,3.59,0,0,1,1.08.43,2.3,2.3,0,0,1,1,2.08,2.28,2.28,0,0,1-.48,1.49,2.59,2.59,0,0,1-1.33.87l2.28,3.75Zm0-6.08a.82.82,0,0,0-.13-.5.8.8,0,0,0-.34-.29,1.23,1.23,0,0,0-.46-.14h-1.61v2.05h1.54a1.64,1.64,0,0,0,.5-.17,1.14,1.14,0,0,0,.37-.32,1,1,0,0,0,.05-.63Z"/><path class="cls-1" d="M200.48,25.59v3.72h-2.11V25.59l-3.33-5h2.56l1.86,3.32,1.88-3.32h2.46Z"/><path class="cls-1" d="M207.4,29.31V20.56h2.13v8.75Z"/><path class="cls-1" d="M217,29.31l-3.52-5.7v5.73h-2V20.56h2.41l3.5,5.71V20.56h2.06v8.75Z"/><path class="cls-1" d="M227.49,29.14a4.46,4.46,0,0,1-2,.4,5.1,5.1,0,0,1-1.86-.33,4.34,4.34,0,0,1-2.49-2.41,4.88,4.88,0,0,1-.35-1.89,4.71,4.71,0,0,1,.36-1.89,4.21,4.21,0,0,1,2.51-2.38,5.56,5.56,0,0,1,3.69,0,3.6,3.6,0,0,1,1.46,1L227.39,23a1.65,1.65,0,0,0-.78-.59,2.4,2.4,0,0,0-1-.2,2.48,2.48,0,0,0-1,.2,2.32,2.32,0,0,0-.8.56,2.49,2.49,0,0,0-.53.85,3.19,3.19,0,0,0-.18,1.06,3.47,3.47,0,0,0,.18,1.1,2.91,2.91,0,0,0,.58.93,2.33,2.33,0,0,0,.78.54,2.41,2.41,0,0,0,1,.2,2.18,2.18,0,0,0,1.09-.25,2,2,0,0,0,.75-.64L229,28.18A3.9,3.9,0,0,1,227.49,29.14Z"/><path class="cls-1" d="M232.08,28.21a1.28,1.28,0,0,1-.09.48,1.08,1.08,0,0,1-.28.39,1.24,1.24,0,0,1-.63.33,1.32,1.32,0,0,1-.71-.08,1,1,0,0,1-.42-.25,1.36,1.36,0,0,1-.27-.39,1.18,1.18,0,0,1-.09-.46,1,1,0,0,1,.1-.46,1.2,1.2,0,0,1,.26-.4,1.27,1.27,0,0,1,.88-.36,1.25,1.25,0,0,1,.88.36,1.17,1.17,0,0,1,.28.38A1.25,1.25,0,0,1,232.08,28.21Z"/><path class="cls-1" d="M2.57,3V.13h2.1V3H7V4.85H4.67v.9a30.67,30.67,0,0,1,2.57,2.4L5.91,10c-.43-.62-.85-1.18-1.24-1.66v7.84H2.59V9.58A19.57,19.57,0,0,1,1.35,12L0,10.33a18.43,18.43,0,0,0,1.53-3,18.62,18.62,0,0,0,.95-2.62H.35V3ZM13,.63a19,19,0,0,1-.6,2.08h4.09v13.4h-2V15H9.65v1.11h-2V2.71H10.3q.33-1.27.54-2.58Zm1.48,7.19V4.5H9.65V7.82Zm0,5.45V9.6H9.65v3.67Z"/><path class="cls-1" d="M29.43,0V2.42H36.6v2H33.71a12.17,12.17,0,0,1-3.62,6.64A19.58,19.58,0,0,0,37,13.65l-.76,2.11a18.3,18.3,0,0,1-7.86-3.32,30.82,30.82,0,0,1-7.15,3.62l-1.6-1.89a25.64,25.64,0,0,0,6.91-3.33,20.62,20.62,0,0,1-4.07-6.49H20v-2h7.11V0ZM28.28,9.53a10.4,10.4,0,0,0,3-5.11H24.84A17.88,17.88,0,0,0,28.28,9.53Z"/><path class="cls-1" d="M43.86.7a2.77,2.77,0,0,1-.12.41h3.82V2.56a17.67,17.67,0,0,1-1.29,3h1.87A23.49,23.49,0,0,1,46.91,12c-.08.2-.16.41-.25.59a1.46,1.46,0,0,0,.4.42q1.17,1.13,5,1.13c1.35,0,2.81-.07,4.38-.2l-.67,2H52.05c-3,0-5-.5-6-1.39a1.88,1.88,0,0,1-.34-.28,12.55,12.55,0,0,1-1.46,1.89L43,14.85v1.26H41V7.57a13.45,13.45,0,0,1-.73,1.15L39.21,6.78A24.51,24.51,0,0,0,41.85.13Zm.75,12a11.41,11.41,0,0,1-1.2-3.6L45,8.44a14.46,14.46,0,0,0,.6,2,22,22,0,0,0,.53-3.11h-.89c-.19.28-.4.56-.58.81L43.19,7a17.09,17.09,0,0,0,2.25-4H43.56V1.78c-.15.5-.32,1-.52,1.49V14.73A10.62,10.62,0,0,0,44.61,12.65ZM50.82,1.18v-1h1.86v1h3V3.54h.81V5.2H55.7V7.56h-3v.83h2.79v1.66H52.68v.69H56v1.67H52.68v1.17H50.82V12.41H48V10.74h2.83v-.58h-2.3V8.5h2.3V7.67h-2.1V6h2.1V5.38h-3V3.72h3V3.11H48.71V1.18Zm1.86,2.36h1.16V2.92H52.68Zm0,2.34h1.16V5.25H52.68Z"/><path class="cls-1" d="M69.43.13V1.25h6.36V3.17H62.51V8.44a22.81,22.81,0,0,1-.4,4.28,19.9,19.9,0,0,1-1,3.32L59,14.86a24.64,24.64,0,0,0,1-3.68,26.28,26.28,0,0,0,.28-3.86V1.18h6.88V.07ZM68,4V3.54H70.1V4h4.51V6.36h1.46V8.15H74.51v2.28h-.94L75,11.54a9.19,9.19,0,0,1-1.66,1l-.6.27a14.68,14.68,0,0,0,3.32,1.33l-1,1.87a17.28,17.28,0,0,1-3.21-1.48A8.7,8.7,0,0,1,70,13.2v.7a2,2,0,0,1-.08.95,2.23,2.23,0,0,1-.48.83,3.27,3.27,0,0,1-2.09.49,3.51,3.51,0,0,1-1.43-.28l-.32-1.66c-.93.42-1.77.78-2.55,1l-.9-1.66A27.47,27.47,0,0,0,65,12.67a13.36,13.36,0,0,0-2.21-1.33l.95-1.08V8.67h4.15V8.1h-5V6.36h5V5.75H63.72V4.09Zm-.66,7.46.35,1.66c-.54.31-1.09.6-1.66.86a3.89,3.89,0,0,0,1.54.31c.33,0,.52-.26.52-.83V10.43H65c.55.25,1.06.5,1.56.76l-1.2,1.23a20.59,20.59,0,0,0,1.88-.94ZM70.1,6.36h2.35V5.75H70.1Zm0,2.36h2.35V8.15H70.1Zm1,2.87a9.66,9.66,0,0,0,1-.46,9.61,9.61,0,0,0,1.09-.7H70.1v.31a8.88,8.88,0,0,0,1,.85Z"/><path class="cls-1" d="M85.87.76V.07h2.06V.76h7.49V2.42H87.93V3h6.41V6.71H88v.5h6.52V9.48h1.26v1.85H94.49V14.1H92.42v-.45H88a3.36,3.36,0,0,1-.42,1.91,2.52,2.52,0,0,1-.88.48,2.41,2.41,0,0,1-1,.1A15.51,15.51,0,0,1,83,15.93L82.57,14a14.81,14.81,0,0,0,2.82.27.4.4,0,0,0,.24,0,.42.42,0,0,0,.18-.17,1.34,1.34,0,0,0,0-.4H79.4V12h6.44v-.66H78.58V9.55h7.26V9H79.4V7.32h6.44V6.83H79.63V3h6.21V2.49h-7V.83Zm0,4.42V4.63H81.72v.55Zm2.06,0h4.3V4.63h-4.3Zm0,4.37h4.45V9H87.93Zm0,2.32h4.45v-.54H87.93Z"/><path class="cls-1" d="M101.9,4.42H98.58V2.64h2a10.43,10.43,0,0,0-.85-1.13l1.78-1a8.86,8.86,0,0,1,1.26,1.66l-.75.43h1.78V.13h2.07V2.64h1.66V.13h2.08V2.64h1c.3-.68.58-1.38.83-2.08l2.29.62a15.87,15.87,0,0,1-.8,1.46H115V4.42h-3.68l-.45,1.11h3.55V7.39h-6.64V8h5.85V9.81h-5.85v.62h7.32v1.88H110.5a7.69,7.69,0,0,0,.91.34,20.87,20.87,0,0,0,3.81,1L114,15.76A20.12,20.12,0,0,1,109.75,14a12.7,12.7,0,0,1-1.94-1.23v3.32h-2.23V12.77a12.91,12.91,0,0,1-1.81,1.2,29.09,29.09,0,0,1-4.33,1.76l-1.11-1.86a24.36,24.36,0,0,0,3.73-1.15l1-.45H98.56V10.43h7V9.81H100.1V8h5.48V7.39H99.32V5.53h3.08Zm2.29,0,.43,1.11h4L109,4.42Z"/><path class="cls-1" d="M124.42.37V13.5c0,1.66-.8,2.49-2.38,2.49a4.72,4.72,0,0,1-1.18-.21l-.45-2.08a2.69,2.69,0,0,0,1.27.35c.45,0,.68-.43.68-1.31V10.33h-1.88a28.34,28.34,0,0,1-.23,3.32,15.57,15.57,0,0,1-.65,2.61l-2-.78a14,14,0,0,0,.62-2.71,29,29,0,0,0,.25-3.95V.37Zm-2.06,4V2.28H120.5V4.42Zm0,4.08V6.23H120.5V8.5Zm10-8V4c0,.44,0,.69.18.78a1,1,0,0,0,.34,0H133a.33.33,0,0,0,0-.14,5.45,5.45,0,0,0,.1-1.21l1.91.88a2.41,2.41,0,0,1-.62,1.93,1.52,1.52,0,0,1-.63.25h-1a3.36,3.36,0,0,1-1.66-.25c-.55-.09-.81-.67-.81-1.75V2.28h-1.91a6.28,6.28,0,0,1-.83,3.07,3.71,3.71,0,0,1-2,1.66l-1-1.66a2.77,2.77,0,0,0,1.34-1.12,8.82,8.82,0,0,0,.5-3.57h5.93Zm1.55,6.84V8.67a12.1,12.1,0,0,1-2.33,3.92A13.18,13.18,0,0,0,135,14.05l-1.13,2a13.55,13.55,0,0,1-3.94-2,13,13,0,0,1-4.2,2l-1-1.88a11.09,11.09,0,0,0,3.7-1.56,12.27,12.27,0,0,1-2.31-3.55h-.94V7.34ZM130,11.34a9.28,9.28,0,0,0,1.54-2.27h-3.2A8.31,8.31,0,0,0,130,11.39Z"/><path class="cls-1" d="M143.28.76a30.43,30.43,0,0,1-1.48,3.59V16.11h-2.15V8a16.52,16.52,0,0,1-1.1,1.4l-1.2-2.06A22.76,22.76,0,0,0,141.14.13Zm7.84-.34a9.62,9.62,0,0,0,1.16,3.72,8.54,8.54,0,0,0,2.26,2.64l-1.66,1.37a9,9,0,0,1-.85-.79,39.59,39.59,0,0,1-.63,7.37,1.76,1.76,0,0,1-.84,1,3.55,3.55,0,0,1-1.66.35,7.67,7.67,0,0,1-1.85-.28l-.23-2.08a6.7,6.7,0,0,0,2.08.42.35.35,0,0,0,.2-.05.36.36,0,0,0,.16-.14c.1,0,.17-.35.25-.81a46.91,46.91,0,0,0,.28-5h-1.94a13.34,13.34,0,0,1-1.25,4.41,8.32,8.32,0,0,1-3.17,3.48l-1.34-1.67a7.12,7.12,0,0,0,2.62-2.85,11.78,11.78,0,0,0,1-3.44h-1.25V7.17a7.55,7.55,0,0,1-.81.88l-1.54-1.37A9.86,9.86,0,0,0,143.53,5a12.32,12.32,0,0,0,1.08-2.26l1.93.4a12,12,0,0,1-1.07,2.57c-.11.22-.23.38-.31.55h5.94a4.92,4.92,0,0,1-.54-.83,11.1,11.1,0,0,1-1.28-3.13h-3.46V.37Z"/><path class="cls-1" d="M162.43,1.88c.28-.57.55-1.18.8-1.81l2.09.43a13.47,13.47,0,0,1-.52,1.38h8.87V3.8h-9.78c-.26.5-.53,1-.81,1.38h9.31v8.47c0,1.66-.81,2.56-2.45,2.56a8.33,8.33,0,0,1-1.93-.28l-.43-2.15a5.26,5.26,0,0,0,2,.42c.45,0,.68-.47.68-1.38h-7.49v3.32h-2.14V8.3a18.61,18.61,0,0,1-2,1.86L157,8.72A22.63,22.63,0,0,0,160.52,5c.27-.37.53-.77.78-1.17h-3.85V1.88Zm7.85,5.24h-7.49v1h7.49Zm0,2.83h-7.49v1h7.49Z"/><path class="cls-1" d="M181.51,5.81a11,11,0,0,1,1.18,2,6.83,6.83,0,0,1,.55,2.44c0,2-.93,2.91-2.68,2.91h-.94l-.47-2v5H177V.37h6.64Zm-.95,5.32c.34,0,.52-.29.54-.9a4.72,4.72,0,0,0-.4-1.81,7.35,7.35,0,0,0-1.4-2.13l1.38-3.95h-1.53v8.54A5.64,5.64,0,0,0,180.56,11.13ZM192.7,8.5h-3.4a7,7,0,0,0,.7,1.83l.64-.4a8.08,8.08,0,0,0,1.25-1.08l1.66,1.33A10.33,10.33,0,0,1,192,11.44c-.35.23-.68.42-.95.57a10.72,10.72,0,0,0,2.77,2.3L192.35,16A12.46,12.46,0,0,1,189,12.54a11.44,11.44,0,0,1-1.66-4H186v5.15c1.18-.12,2.24-.22,3.19-.33l.28,1.86q-3,.54-6.64.91L182.32,14l1.48-.12V.55h9Zm-2.14-5V2.26h-4.67V3.69Zm0,3V5.35h-4.67V6.58Z"/><path class="cls-1" d="M202.92,1.39a22.86,22.86,0,0,1-2.08,4.06A18.76,18.76,0,0,1,198.1,9l-1.93-1.37a16.57,16.57,0,0,0,2.69-3.33A20.38,20.38,0,0,0,200.77.75Zm2.59,4.84a59.25,59.25,0,0,1-3.77,7.19c2.46-.13,4.7-.3,6.64-.48-.6-.85-1.23-1.66-1.91-2.51l1.84-1.1a27.18,27.18,0,0,1,4,5.67l-2.15,1.17c-.23-.49-.44-.94-.69-1.41-3.71.39-7.73.72-12.11,1l-.32-2.11,2.26-.12a52.44,52.44,0,0,0,3.89-8ZM209.13.42a10.14,10.14,0,0,0,1.41,4.16,9.61,9.61,0,0,0,2.81,2.94l-1.78,1.53A12.63,12.63,0,0,1,208.75,6a13.13,13.13,0,0,1-1.67-3.65h-3.42v-2Z"/><path class="cls-1" d="M231.91.37V13.5a2.27,2.27,0,0,1-2.52,2.56,21.48,21.48,0,0,1-2.88-.22l-.44-2.14a14.1,14.1,0,0,0,3,.35c.43,0,.66-.47.66-1.38V2.34H216.42v-2Zm-4.38,3.32v2H217.12v-2Zm-.33,9.38h-7.76v.83h-2.21v-7h10ZM225,11.13V8.83h-5.55v2.3Z"/></g></g></svg>