<svg xmlns="http://www.w3.org/2000/svg" viewBox="0 0 49.74 58.84"><defs><style>.cls-1{fill:#fff;}</style></defs><g id="圖層_2" data-name="圖層 2"><g id="圖層_1-2" data-name="圖層 1"><path class="cls-1" d="M20.14,25.74a1.25,1.25,0,0,0-1.42.47L0,52.06H5.6L16.49,36.93v8.31L21,39V27a1.26,1.26,0,0,0-.24-.75A1.21,1.21,0,0,0,20.14,25.74Z"/><polygon class="cls-1" points="33.08 18.1 38.68 18.1 25.52 0 12.39 18.1 17.98 18.1 23.28 10.81 23.28 58.84 27.78 58.84 27.78 10.81 33.08 18.1"/><polygon class="cls-1" points="30.04 45.27 34.58 45.27 34.58 32.12 44.14 45.27 49.74 45.27 30.04 18.17 30.04 45.27"/><rect class="cls-1" x="30.04" y="47.53" width="4.53" height="4.53"/></g></g></svg>