<svg width="11" height="7" viewBox="0 0 11 7" fill="none" xmlns="http://www.w3.org/2000/svg">
<path d="M1.37065 6.70458H9.82484C10.0264 6.70459 10.2198 6.62501 10.363 6.48315C10.5062 6.34129 10.5876 6.14863 10.5895 5.94707C10.5912 5.84668 10.5717 5.74706 10.5323 5.65471C10.4929 5.56236 10.4344 5.47935 10.3608 5.41109L6.13015 1.18043C5.98836 1.04033 5.79707 0.961768 5.59774 0.961768C5.39842 0.961768 5.20713 1.04033 5.06534 1.18043L0.827528 5.41109C0.752668 5.47812 0.692786 5.56018 0.651788 5.65191C0.610791 5.74365 0.5896 5.84301 0.5896 5.94349C0.5896 6.04397 0.610791 6.14333 0.651788 6.23507C0.692786 6.32681 0.752668 6.40887 0.827528 6.47589C0.896595 6.55044 0.980763 6.60939 1.07442 6.64883C1.16808 6.68826 1.26907 6.70727 1.37065 6.70458Z" fill="#B49161"/>
</svg>
