<svg width="50" height="50" viewBox="0 0 50 50" fill="none" xmlns="http://www.w3.org/2000/svg">
<path d="M20.5556 20.5648C20.9698 20.5648 21.3056 20.229 21.3056 19.8148C21.3056 19.4006 20.9698 19.0648 20.5556 19.0648V20.5648ZM6.35556 19.0648C5.94134 19.0648 5.60556 19.4006 5.60556 19.8148C5.60556 20.229 5.94134 20.5648 6.35556 20.5648V19.0648ZM44.4697 29.234C44.7626 29.5269 45.2374 29.5269 45.5303 29.234C45.8232 28.9411 45.8232 28.4662 45.5303 28.1733L44.4697 29.234ZM39.7451 22.3882C39.4523 22.0953 38.9774 22.0953 38.6845 22.3882C38.3916 22.681 38.3916 23.1559 38.6845 23.4488L39.7451 22.3882ZM21.7844 10.2069C22.1974 10.1746 22.5059 9.81368 22.4736 9.40073C22.4413 8.98778 22.0804 8.6792 21.6674 8.71151L21.7844 10.2069ZM30.8747 28.5308C30.8979 28.1173 30.5815 27.7632 30.1679 27.74C29.7543 27.7169 29.4003 28.0333 29.3771 28.4469L30.8747 28.5308ZM21.7465 10.2017C22.1607 10.1944 22.4905 9.85278 22.4832 9.43863C22.4759 9.02448 22.1343 8.69465 21.7201 8.70193L21.7465 10.2017ZM39.809 26.9761C39.8203 26.562 39.4939 26.2172 39.0798 26.2058C38.6658 26.1944 38.3209 26.5209 38.3095 26.935L39.809 26.9761ZM36.8426 20.5555C36.8426 20.9697 37.1784 21.3055 37.5926 21.3055C38.0068 21.3055 38.3426 20.9697 38.3426 20.5555H36.8426ZM26.4722 20.5555C26.4722 20.9697 26.808 21.3055 27.2222 21.3055C27.6364 21.3055 27.9722 20.9697 27.9722 20.5555H26.4722ZM20.5556 19.0648H6.35556V20.5648H20.5556V19.0648ZM6.35556 33.8981H37.7185V32.3981H6.35556V33.8981ZM45.5303 28.1733L39.7451 22.3882L38.6845 23.4488L44.4697 29.234L45.5303 28.1733ZM21.6674 8.71151C19.0664 8.91499 16.9383 11.207 15.4932 14.3365C14.024 17.518 13.1389 21.7998 13.1389 26.4814H14.6389C14.6389 21.9705 15.4945 17.9116 16.855 14.9653C18.2395 11.9671 20.0299 10.3442 21.7844 10.2069L21.6674 8.71151ZM13.1389 26.4814C13.1389 31.1665 14.066 35.5394 15.5963 38.7684C17.0975 41.9357 19.3225 44.2685 22.037 44.2685V42.7685C20.2479 42.7685 18.3988 41.179 16.9518 38.126C15.534 35.1346 14.6389 30.989 14.6389 26.4814H13.1389ZM22.037 44.2685C24.55 44.2685 26.6492 42.308 28.1321 39.529C29.6362 36.7102 30.6332 32.8404 30.8747 28.5308L29.3771 28.4469C29.1445 32.5966 28.186 36.2416 26.8087 38.8228C25.4101 41.4438 23.7018 42.7685 22.037 42.7685V44.2685ZM21.7201 8.70193C12.0457 8.87207 4.25 16.76 4.25 26.4814H5.75C5.75 17.5807 12.8876 10.3575 21.7465 10.2017L21.7201 8.70193ZM4.25 26.4814C4.25 36.204 12.2127 44.2685 22.037 44.2685V42.7685C13.0466 42.7685 5.75 35.3811 5.75 26.4814H4.25ZM22.037 44.2685C31.8569 44.2685 39.5462 36.561 39.809 26.9761L38.3095 26.935C38.0686 35.7204 31.032 42.7685 22.037 42.7685V44.2685ZM41.287 16.1111C41.287 21.0152 37.3115 24.9907 32.4074 24.9907V26.4907C38.1399 26.4907 42.787 21.8436 42.787 16.1111H41.287ZM32.4074 24.9907C27.5033 24.9907 23.5278 21.0152 23.5278 16.1111H22.0278C22.0278 21.8436 26.6749 26.4907 32.4074 26.4907V24.9907ZM23.5278 16.1111C23.5278 11.207 27.5033 7.23145 32.4074 7.23145V5.73145C26.6749 5.73145 22.0278 10.3786 22.0278 16.1111H23.5278ZM32.4074 7.23145C37.3115 7.23145 41.287 11.207 41.287 16.1111H42.787C42.787 10.3786 38.1399 5.73145 32.4074 5.73145V7.23145ZM34.6204 13.1481C34.6204 14.3703 33.6296 15.3611 32.4074 15.3611V16.8611C34.458 16.8611 36.1204 15.1987 36.1204 13.1481H34.6204ZM32.4074 15.3611C31.1852 15.3611 30.1944 14.3703 30.1944 13.1481H28.6944C28.6944 15.1987 30.3568 16.8611 32.4074 16.8611V15.3611ZM30.1944 13.1481C30.1944 11.9259 31.1852 10.9351 32.4074 10.9351V9.43515C30.3568 9.43515 28.6944 11.0975 28.6944 13.1481H30.1944ZM32.4074 10.9351C33.6296 10.9351 34.6204 11.9259 34.6204 13.1481H36.1204C36.1204 11.0975 34.458 9.43515 32.4074 9.43515V10.9351ZM38.3426 20.5555C38.3426 19.036 37.6144 17.8837 36.4831 17.1429C35.3833 16.4227 33.9285 16.1018 32.4074 16.1018V17.6018C33.7456 17.6018 34.8833 17.8883 35.6614 18.3978C36.4078 18.8866 36.8426 19.5861 36.8426 20.5555H38.3426ZM32.4074 16.1018C30.8863 16.1018 29.4315 16.4227 28.3317 17.1429C27.2004 17.8837 26.4722 19.036 26.4722 20.5555H27.9722C27.9722 19.5861 28.407 18.8866 29.1535 18.3978C29.9315 17.8883 31.0692 17.6018 32.4074 17.6018V16.1018Z" fill="#00AAE8"/>
</svg>
