<svg width="50" height="50" viewBox="0 0 50 50" fill="none" xmlns="http://www.w3.org/2000/svg">
<path d="M20.6721 15.312L20.4317 16.0224L20.4334 16.023L20.6721 15.312ZM18.6001 14.6L18.8449 13.8911C18.5737 13.7974 18.2727 13.8667 18.0698 14.0697L18.6001 14.6ZM14.6001 18.6L14.0698 19.1303C14.3627 19.4232 14.8375 19.4232 15.1304 19.1303L14.6001 18.6ZM10.6001 14.6L11.1304 14.0697C10.9275 13.8667 10.6265 13.7974 10.3553 13.8911L10.6001 14.6ZM8.5281 15.312L8.76676 16.023L8.76854 16.0224L8.5281 15.312ZM29.8001 30.65C29.3859 30.65 29.0501 30.9858 29.0501 31.4C29.0501 31.8142 29.3859 32.15 29.8001 32.15V30.65ZM31.0721 15.312L30.8316 16.0224L30.8334 16.023L31.0721 15.312ZM29.0001 14.6L29.2449 13.8911C28.9737 13.7974 28.6727 13.8667 28.4698 14.0697L29.0001 14.6ZM25.2698 17.2697C24.9769 17.5626 24.9769 18.0374 25.2698 18.3303C25.5627 18.6232 26.0375 18.6232 26.3304 18.3303L25.2698 17.2697ZM40.2001 30.65C39.7859 30.65 39.4501 30.9858 39.4501 31.4C39.4501 31.8142 39.7859 32.15 40.2001 32.15V30.65ZM41.4721 15.312L41.2317 16.0224L41.2334 16.023L41.4721 15.312ZM39.4001 14.6L39.6449 13.8911C39.3737 13.7974 39.0727 13.8667 38.8698 14.0697L39.4001 14.6ZM35.6698 17.2697C35.3769 17.5626 35.3769 18.0374 35.6698 18.3303C35.9627 18.6232 36.4375 18.6232 36.7304 18.3303L35.6698 17.2697ZM20.1501 21C20.1501 20.5858 19.8143 20.25 19.4001 20.25C18.9859 20.25 18.6501 20.5858 18.6501 21H20.1501ZM10.5501 21C10.5501 20.5858 10.2143 20.25 9.8001 20.25C9.38588 20.25 9.0501 20.5858 9.0501 21H10.5501ZM30.5501 21C30.5501 20.5858 30.2143 20.25 29.8001 20.25C29.3859 20.25 29.0501 20.5858 29.0501 21H30.5501ZM22.6001 44.25C22.1859 44.25 21.8501 44.5858 21.8501 45C21.8501 45.4142 22.1859 45.75 22.6001 45.75V44.25ZM40.9501 21C40.9501 20.5858 40.6143 20.25 40.2001 20.25C39.7859 20.25 39.4501 20.5858 39.4501 21H40.9501ZM33.0001 44.25C32.5859 44.25 32.2501 44.5858 32.2501 45C32.2501 45.4142 32.5859 45.75 33.0001 45.75V44.25ZM15.3501 30.6C15.3501 30.1858 15.0143 29.85 14.6001 29.85C14.1859 29.85 13.8501 30.1858 13.8501 30.6H15.3501ZM13.8501 45C13.8501 45.4142 14.1859 45.75 14.6001 45.75C15.0143 45.75 15.3501 45.4142 15.3501 45H13.8501ZM25.7501 30.6C25.7501 30.1858 25.4143 29.85 25.0001 29.85C24.5859 29.85 24.2501 30.1858 24.2501 30.6H25.7501ZM24.2501 45C24.2501 45.4142 24.5859 45.75 25.0001 45.75C25.4143 45.75 25.7501 45.4142 25.7501 45H24.2501ZM36.1501 30.6C36.1501 30.1858 35.8143 29.85 35.4001 29.85C34.9859 29.85 34.6501 30.1858 34.6501 30.6H36.1501ZM34.6501 45C34.6501 45.4142 34.9859 45.75 35.4001 45.75C35.8143 45.75 36.1501 45.4142 36.1501 45H34.6501ZM19.4001 32.15C21.5823 32.15 23.3501 30.3822 23.3501 28.2H21.8501C21.8501 29.5538 20.7539 30.65 19.4001 30.65V32.15ZM23.3501 28.2V17.984H21.8501V28.2H23.3501ZM23.3501 17.984C23.3501 16.4508 22.3574 15.0866 20.9108 14.601L20.4334 16.023C21.2747 16.3054 21.8501 17.1012 21.8501 17.984H23.3501ZM20.9125 14.6016C20.6548 14.5144 20.1388 14.3371 19.6853 14.1809C19.459 14.1029 19.2489 14.0305 19.0953 13.9775C19.0186 13.951 18.9559 13.9294 18.9125 13.9144C18.8908 13.9069 18.8739 13.9011 18.8624 13.8971C18.8567 13.8952 18.8523 13.8936 18.8494 13.8926C18.8479 13.8921 18.8468 13.8917 18.846 13.8915C18.8457 13.8913 18.8454 13.8912 18.8452 13.8912C18.8451 13.8912 18.845 13.8911 18.845 13.8911C18.845 13.8911 18.845 13.8911 18.8449 13.8911C18.8449 13.8911 18.8449 13.8911 18.6001 14.6C18.3553 15.3089 18.3553 15.3089 18.3553 15.3089C18.3553 15.3089 18.3553 15.3089 18.3553 15.3089C18.3554 15.309 18.3555 15.309 18.3556 15.309C18.3557 15.3091 18.356 15.3092 18.3564 15.3093C18.3572 15.3096 18.3583 15.31 18.3598 15.3105C18.3627 15.3115 18.3671 15.313 18.3729 15.315C18.3844 15.319 18.4013 15.3248 18.4231 15.3323C18.4666 15.3473 18.5293 15.369 18.6061 15.3955C18.7598 15.4485 18.9702 15.5211 19.1969 15.5991C19.6494 15.755 20.1694 15.9336 20.4317 16.0224L20.9125 14.6016ZM18.0698 14.0697L14.0698 18.0697L15.1304 19.1303L19.1304 15.1303L18.0698 14.0697ZM15.1304 18.0697L11.1304 14.0697L10.0698 15.1303L14.0698 19.1303L15.1304 18.0697ZM10.6001 14.6C10.3553 13.8911 10.3553 13.8911 10.3553 13.8911C10.3552 13.8911 10.3552 13.8911 10.3552 13.8911C10.3552 13.8911 10.3551 13.8912 10.355 13.8912C10.3548 13.8912 10.3545 13.8913 10.3542 13.8915C10.3534 13.8917 10.3523 13.8921 10.3508 13.8926C10.3479 13.8936 10.3435 13.8952 10.3378 13.8971C10.3263 13.9011 10.3094 13.9069 10.2877 13.9144C10.2443 13.9294 10.1816 13.951 10.1049 13.9775C9.95134 14.0305 9.74123 14.1029 9.51489 14.1809C9.06137 14.3371 8.54539 14.5144 8.28765 14.6016L8.76854 16.0224C9.0308 15.9336 9.55082 15.755 10.0033 15.5991C10.23 15.5211 10.4404 15.4485 10.5941 15.3955C10.6709 15.369 10.7336 15.3473 10.7771 15.3323C10.7989 15.3248 10.8158 15.319 10.8273 15.315C10.8331 15.313 10.8375 15.3115 10.8404 15.3105C10.8419 15.31 10.843 15.3096 10.8438 15.3093C10.8442 15.3092 10.8444 15.3091 10.8446 15.309C10.8447 15.309 10.8448 15.309 10.8449 15.3089C10.8449 15.3089 10.8449 15.3089 10.8449 15.3089C10.8449 15.3089 10.8449 15.3089 10.6001 14.6ZM8.28944 14.601C6.84275 15.0866 5.8501 16.4508 5.8501 17.984H7.3501C7.3501 17.1012 7.92545 16.3054 8.76676 16.023L8.28944 14.601ZM5.8501 17.984V28.2H7.3501V17.984H5.8501ZM5.8501 28.2C5.8501 30.3822 7.61788 32.15 9.8001 32.15V30.65C8.44631 30.65 7.3501 29.5538 7.3501 28.2H5.8501ZM29.8001 32.15C31.9823 32.15 33.7501 30.3822 33.7501 28.2H32.2501C32.2501 29.5538 31.1539 30.65 29.8001 30.65V32.15ZM33.7501 28.2V17.984H32.2501V28.2H33.7501ZM33.7501 17.984C33.7501 16.4508 32.7574 15.0866 31.3108 14.601L30.8334 16.023C31.6747 16.3054 32.2501 17.1012 32.2501 17.984H33.7501ZM31.3125 14.6016C31.0548 14.5144 30.5388 14.3371 30.0853 14.1809C29.859 14.1029 29.6489 14.0305 29.4953 13.9775C29.4186 13.951 29.3559 13.9294 29.3125 13.9144C29.2908 13.9069 29.2739 13.9011 29.2624 13.8971C29.2567 13.8952 29.2523 13.8936 29.2494 13.8926C29.2479 13.8921 29.2468 13.8917 29.246 13.8915C29.2457 13.8913 29.2454 13.8912 29.2452 13.8912C29.2451 13.8912 29.245 13.8911 29.245 13.8911C29.245 13.8911 29.245 13.8911 29.2449 13.8911C29.2449 13.8911 29.2449 13.8911 29.0001 14.6C28.7553 15.3089 28.7553 15.3089 28.7553 15.3089C28.7553 15.3089 28.7553 15.3089 28.7553 15.3089C28.7554 15.309 28.7555 15.309 28.7556 15.309C28.7557 15.3091 28.756 15.3092 28.7564 15.3093C28.7572 15.3096 28.7583 15.31 28.7598 15.3105C28.7627 15.3115 28.7671 15.313 28.7729 15.315C28.7844 15.319 28.8013 15.3248 28.8231 15.3323C28.8666 15.3473 28.9293 15.369 29.0061 15.3955C29.1598 15.4485 29.3702 15.5211 29.5969 15.5991C30.0494 15.755 30.5694 15.9336 30.8317 16.0224L31.3125 14.6016ZM28.4698 14.0697L25.2698 17.2697L26.3304 18.3303L29.5304 15.1303L28.4698 14.0697ZM40.2001 32.15C42.3823 32.15 44.1501 30.3822 44.1501 28.2H42.6501C42.6501 29.5538 41.5539 30.65 40.2001 30.65V32.15ZM44.1501 28.2V17.984H42.6501V28.2H44.1501ZM44.1501 17.984C44.1501 16.4508 43.1574 15.0866 41.7108 14.601L41.2334 16.023C42.0747 16.3054 42.6501 17.1012 42.6501 17.984H44.1501ZM41.7125 14.6016C41.4548 14.5144 40.9388 14.3371 40.4853 14.1809C40.259 14.1029 40.0489 14.0305 39.8953 13.9775C39.8186 13.951 39.7559 13.9294 39.7125 13.9144C39.6908 13.9069 39.6739 13.9011 39.6624 13.8971C39.6567 13.8952 39.6523 13.8936 39.6494 13.8926C39.6479 13.8921 39.6468 13.8917 39.646 13.8915C39.6457 13.8913 39.6454 13.8912 39.6452 13.8912C39.6451 13.8912 39.645 13.8911 39.645 13.8911C39.645 13.8911 39.645 13.8911 39.6449 13.8911C39.6449 13.8911 39.6449 13.8911 39.4001 14.6C39.1553 15.3089 39.1553 15.3089 39.1553 15.3089C39.1553 15.3089 39.1553 15.3089 39.1553 15.3089C39.1554 15.309 39.1555 15.309 39.1556 15.309C39.1557 15.3091 39.156 15.3092 39.1564 15.3093C39.1572 15.3096 39.1583 15.31 39.1598 15.3105C39.1627 15.3115 39.1671 15.313 39.1729 15.315C39.1844 15.319 39.2013 15.3248 39.2231 15.3323C39.2666 15.3473 39.3293 15.369 39.4061 15.3955C39.5598 15.4485 39.7702 15.5211 39.9969 15.5991C40.4494 15.755 40.9694 15.9336 41.2317 16.0224L41.7125 14.6016ZM38.8698 14.0697L35.6698 17.2697L36.7304 18.3303L39.9304 15.1303L38.8698 14.0697ZM17.8501 9C17.8501 10.7949 16.395 12.25 14.6001 12.25V13.75C17.2235 13.75 19.3501 11.6234 19.3501 9H17.8501ZM14.6001 12.25C12.8052 12.25 11.3501 10.7949 11.3501 9H9.8501C9.8501 11.6234 11.9767 13.75 14.6001 13.75V12.25ZM11.3501 9C11.3501 7.20507 12.8052 5.75 14.6001 5.75V4.25C11.9767 4.25 9.8501 6.37665 9.8501 9H11.3501ZM14.6001 5.75C16.395 5.75 17.8501 7.20507 17.8501 9H19.3501C19.3501 6.37665 17.2235 4.25 14.6001 4.25V5.75ZM28.2501 9C28.2501 10.7949 26.795 12.25 25.0001 12.25V13.75C27.6235 13.75 29.7501 11.6234 29.7501 9H28.2501ZM25.0001 12.25C23.2052 12.25 21.7501 10.7949 21.7501 9H20.2501C20.2501 11.6234 22.3767 13.75 25.0001 13.75V12.25ZM21.7501 9C21.7501 7.20507 23.2052 5.75 25.0001 5.75V4.25C22.3767 4.25 20.2501 6.37665 20.2501 9H21.7501ZM25.0001 5.75C26.795 5.75 28.2501 7.20507 28.2501 9H29.7501C29.7501 6.37665 27.6235 4.25 25.0001 4.25V5.75ZM38.6501 9C38.6501 10.7949 37.195 12.25 35.4001 12.25V13.75C38.0235 13.75 40.1501 11.6234 40.1501 9H38.6501ZM35.4001 12.25C33.6052 12.25 32.1501 10.7949 32.1501 9H30.6501C30.6501 11.6234 32.7767 13.75 35.4001 13.75V12.25ZM32.1501 9C32.1501 7.20507 33.6052 5.75 35.4001 5.75V4.25C32.7767 4.25 30.6501 6.37665 30.6501 9H32.1501ZM35.4001 5.75C37.195 5.75 38.6501 7.20507 38.6501 9H40.1501C40.1501 6.37665 38.0235 4.25 35.4001 4.25V5.75ZM18.6501 21V44.2H20.1501V21H18.6501ZM18.6501 44.2C18.6501 44.2114 18.6461 44.2233 18.6348 44.2347C18.6234 44.246 18.6115 44.25 18.6001 44.25V45.75C19.4543 45.75 20.1501 45.0542 20.1501 44.2H18.6501ZM18.6001 44.25H10.6001V45.75H18.6001V44.25ZM10.6001 44.25C10.5887 44.25 10.5768 44.246 10.5654 44.2347C10.5541 44.2233 10.5501 44.2114 10.5501 44.2H9.0501C9.0501 45.0542 9.74588 45.75 10.6001 45.75V44.25ZM10.5501 44.2V21H9.0501V44.2H10.5501ZM29.0501 21V44.2H30.5501V21H29.0501ZM29.0501 44.2C29.0501 44.2114 29.0461 44.2233 29.0348 44.2347C29.0234 44.246 29.0115 44.25 29.0001 44.25V45.75C29.8543 45.75 30.5501 45.0542 30.5501 44.2H29.0501ZM29.0001 44.25H22.6001V45.75H29.0001V44.25ZM39.4501 21V44.2H40.9501V21H39.4501ZM39.4501 44.2C39.4501 44.2114 39.4461 44.2233 39.4348 44.2347C39.4234 44.246 39.4115 44.25 39.4001 44.25V45.75C40.2543 45.75 40.9501 45.0542 40.9501 44.2H39.4501ZM39.4001 44.25H33.0001V45.75H39.4001V44.25ZM13.8501 30.6V45H15.3501V30.6H13.8501ZM24.2501 30.6V45H25.7501V30.6H24.2501ZM34.6501 30.6V45H36.1501V30.6H34.6501Z" fill="#00AAE8"/>
</svg>
