<svg width="50" height="50" viewBox="0 0 50 50" fill="none" xmlns="http://www.w3.org/2000/svg">
<path d="M25 5V10.9259M5 25H10.9259M25 39.0741V45M39.0741 25H45M30.1852 29.4444C30.1852 26.9556 27.8593 25.7407 25 25.7407C22.1407 25.7407 19.8148 26.9556 19.8148 29.4444M42.037 25C42.037 34.4093 34.4093 42.037 25 42.037C15.5907 42.037 7.96296 34.4093 7.96296 25C7.96296 15.5907 15.5907 7.96296 25 7.96296C34.4093 7.96296 42.037 15.5907 42.037 25ZM34.6296 25C34.6296 30.3183 30.3183 34.6296 25 34.6296C19.6817 34.6296 15.3704 30.3183 15.3704 25C15.3704 19.6817 19.6817 15.3704 25 15.3704C30.3183 15.3704 34.6296 19.6817 34.6296 25ZM27.963 22.037C27.963 23.6734 26.6364 25 25 25C23.3636 25 22.037 23.6734 22.037 22.037C22.037 20.4006 23.3636 19.0741 25 19.0741C26.6364 19.0741 27.963 20.4006 27.963 22.037Z" stroke="#00AAE8" stroke-width="1.5" stroke-linecap="round" stroke-linejoin="round"/>
</svg>
