<?xml version="1.0" encoding="utf-8"?>
<!-- Generator: Adobe Illustrator 15.1.0, SVG Export Plug-In  -->
<!DOCTYPE svg PUBLIC "-//W3C//DTD SVG 1.1//EN" "http://www.w3.org/Graphics/SVG/1.1/DTD/svg11.dtd" [
	<!ENTITY ns_flows "http://ns.adobe.com/Flows/1.0/">
]>
<svg version="1.1"
	 xmlns="http://www.w3.org/2000/svg" xmlns:xlink="http://www.w3.org/1999/xlink" xmlns:a="http://ns.adobe.com/AdobeSVGViewerExtensions/3.0/"
	 x="0px" y="0px" width="11px" height="14px" viewBox="32.354 34.208 11 14" enable-background="new 32.354 34.208 11 14"
	 xml:space="preserve">
<defs>
</defs>
<path fill="#040000" d="M32.354,34.208h6.026c3.332,0,4.596,1.737,4.596,3.529c0,1.555-0.824,2.564-1.755,2.99
	c0.93,0.351,2.15,1.33,2.15,3.144c0,2.36-1.854,4.129-4.788,4.129h-6.229V34.208z M38.037,39.648c1.417,0,2.003-0.636,2.003-1.604
	c0-1.011-0.767-1.533-1.917-1.533h-2.842v3.137H38.037z M35.281,45.696h2.69c1.612,0,2.342-0.673,2.342-1.924
	c0-1.111-0.718-1.82-2.358-1.82h-2.674V45.696z"/>
<rect fill="none" width="841.89" height="595.276"/>
</svg>
