<?xml version="1.0" encoding="utf-8"?>
<!-- Generator: Adobe Illustrator 15.1.0, SVG Export Plug-In  -->
<!DOCTYPE svg PUBLIC "-//W3C//DTD SVG 1.1//EN" "http://www.w3.org/Graphics/SVG/1.1/DTD/svg11.dtd" [
	<!ENTITY ns_flows "http://ns.adobe.com/Flows/1.0/">
]>
<svg version="1.1"
	 xmlns="http://www.w3.org/2000/svg" xmlns:xlink="http://www.w3.org/1999/xlink" xmlns:a="http://ns.adobe.com/AdobeSVGViewerExtensions/3.0/"
	 x="0px" y="0px" width="18px" height="9px" viewBox="105.126 36.403 18 9" enable-background="new 105.126 36.403 18 9"
	 xml:space="preserve">
<defs>
</defs>
<rect x="111.175" y="40.104" fill="#262626" width="5.948" height="2"/>
<path fill="#262626" d="M106.626,41.104c0-1.765,1.436-3.201,3.201-3.201h3.23v-1.5h-3.23c-2.597,0-4.701,2.105-4.701,4.701
	c0,2.596,2.104,4.701,4.701,4.701h3.23v-1.5h-3.23C108.063,44.305,106.626,42.869,106.626,41.104"/>
<path fill="#262626" d="M118.471,36.403h-3.23v1.5h3.23c1.765,0,3.201,1.436,3.201,3.201c0,1.764-1.436,3.2-3.201,3.2h-3.23v1.5
	h3.23c2.596,0,4.701-2.104,4.701-4.7C123.172,38.507,121.067,36.403,118.471,36.403"/>
<rect fill="none" width="841.89" height="595.276"/>
</svg>
