<?xml version="1.0" encoding="utf-8"?>
<!-- Generator: Adobe Illustrator 15.1.0, SVG Export Plug-In  -->
<!DOCTYPE svg PUBLIC "-//W3C//DTD SVG 1.1//EN" "http://www.w3.org/Graphics/SVG/1.1/DTD/svg11.dtd" [
	<!ENTITY ns_flows "http://ns.adobe.com/Flows/1.0/">
]>
<svg version="1.1"
	 xmlns="http://www.w3.org/2000/svg" xmlns:xlink="http://www.w3.org/1999/xlink" xmlns:a="http://ns.adobe.com/AdobeSVGViewerExtensions/3.0/"
	 x="0px" y="0px" width="16px" height="16px" viewBox="131.682 34.014 16 16" enable-background="new 131.682 34.014 16 16"
	 xml:space="preserve">
<defs>
</defs>
<rect x="136.453" y="35.195" fill="#040000" width="11.02" height="2"/>
<path fill="#040000" d="M133.002,37.958h0.755v-3.944h-0.534c-0.24,0.25-0.618,0.466-0.968,0.54v0.565
	c0.204-0.024,0.56-0.126,0.747-0.229V37.958z"/>
<rect x="136.453" y="41.126" fill="#040000" width="11.02" height="2"/>
<path fill="#040000" d="M133.465,42.418c0.726-0.527,0.975-0.789,0.975-1.37c0-0.576-0.346-1.167-1.313-1.167
	c-0.87,0-1.308,0.545-1.369,1.22h0.72c0.064-0.39,0.232-0.631,0.649-0.631c0.38,0,0.56,0.228,0.56,0.588
	c0,0.375-0.169,0.519-0.75,0.951c-0.839,0.619-1.169,1.186-1.169,1.833v0.047h2.725l0.096-0.629h-1.933
	C132.734,43.041,132.961,42.785,133.465,42.418"/>
<rect x="136.453" y="47.057" fill="#040000" width="11.02" height="2"/>
<path fill="#040000" d="M133.878,47.687v-0.017c0.224-0.095,0.5-0.328,0.5-0.803c0-0.545-0.393-1.055-1.272-1.055
	c-0.935,0-1.278,0.573-1.335,1.058h0.71c0.054-0.236,0.176-0.469,0.6-0.469c0.372,0,0.559,0.204,0.559,0.503
	c0,0.357-0.181,0.512-0.616,0.512h-0.286v0.582h0.33c0.483,0,0.716,0.226,0.716,0.644c0,0.374-0.209,0.669-0.662,0.669
	c-0.44,0-0.653-0.259-0.715-0.555h-0.726c0.047,0.523,0.414,1.135,1.417,1.135c1.078,0,1.439-0.651,1.439-1.24
	C134.538,48.046,134.167,47.788,133.878,47.687"/>
<rect fill="none" width="841.89" height="595.276"/>
</svg>
