<?xml version="1.0" encoding="utf-8"?>
<!-- Generator: Adobe Illustrator 15.1.0, SVG Export Plug-In  -->
<!DOCTYPE svg PUBLIC "-//W3C//DTD SVG 1.1//EN" "http://www.w3.org/Graphics/SVG/1.1/DTD/svg11.dtd" [
	<!ENTITY ns_flows "http://ns.adobe.com/Flows/1.0/">
]>
<svg version="1.1"
	 xmlns="http://www.w3.org/2000/svg" xmlns:xlink="http://www.w3.org/1999/xlink" xmlns:a="http://ns.adobe.com/AdobeSVGViewerExtensions/3.0/"
	 x="0px" y="0px" width="16px" height="15px" viewBox="157.094 34.754 16 15" enable-background="new 157.094 34.754 16 15"
	 xml:space="preserve">
<defs>
</defs>
<rect x="161.899" y="35.195" fill="#040000" width="11.02" height="2"/>
<path fill="#040000" d="M158.534,34.754c-0.795,0-1.44,0.645-1.44,1.44c0,0.796,0.645,1.441,1.44,1.441
	c0.796,0,1.441-0.645,1.441-1.441C159.975,35.399,159.33,34.754,158.534,34.754"/>
<rect x="161.899" y="41.126" fill="#040000" width="11.02" height="2"/>
<path fill="#040000" d="M158.534,40.685c-0.795,0-1.44,0.645-1.44,1.44c0,0.796,0.645,1.441,1.44,1.441
	c0.796,0,1.441-0.645,1.441-1.441C159.975,41.33,159.33,40.685,158.534,40.685"/>
<rect x="161.899" y="47.057" fill="#040000" width="11.02" height="2"/>
<path fill="#040000" d="M158.534,46.616c-0.795,0-1.44,0.645-1.44,1.44c0,0.796,0.645,1.441,1.44,1.441
	c0.796,0,1.441-0.645,1.441-1.441C159.975,47.261,159.33,46.616,158.534,46.616"/>
<rect fill="none" width="841.89" height="595.276"/>
</svg>
