<svg width="37" height="24" viewBox="0 0 37 24" fill="none" xmlns="http://www.w3.org/2000/svg">
<path fill-rule="evenodd" clip-rule="evenodd" d="M18.5 0L36.75 8.72826V12.5551L35.7695 13.5356L34.7088 12.4749L35.25 11.9337V9.67359L18.5 1.66272L1.75 9.67359V11.9337L2.2912 12.4749L1.23054 13.5356L0.25 12.5551V8.72826L18.5 0ZM3.85687 10.6384L4.504 9.28518L18.5 15.9783L32.496 9.28518L33.1431 10.6384L18.5 17.641L3.85687 10.6384ZM3.51315 11.7141L4.57381 12.7747L3.27174 14.0768V17.5705H1.77174V13.4555L3.51315 11.7141ZM33.7283 14.0768L32.4262 12.7747L33.4869 11.7141L35.2283 13.4555V17.5705H33.7283V14.0768ZM6.55663 13.2358L7.61729 14.2965L6.31522 15.5985V19.0922H4.81522V14.9772L6.55663 13.2358ZM30.6848 15.5985L29.3827 14.2965L30.4434 13.2358L32.1848 14.9772V19.0922H30.6848V15.5985ZM9.6001 14.7576L10.6608 15.8182L9.3587 17.1203V20.614H7.8587V16.499L9.6001 14.7576ZM27.6413 17.1203L26.3392 15.8182L27.3999 14.7576L29.1413 16.499V20.614H27.6413V17.1203ZM12.6436 16.2793L13.7042 17.34L12.4022 18.642V22.1357H10.9022V18.0207L12.6436 16.2793ZM24.5978 18.642L23.2958 17.34L24.3564 16.2793L26.0978 18.0207V22.1357H24.5978V18.642ZM15.6871 17.801L16.7477 18.8617L15.4457 20.1638V23.6574H13.9457V19.5424L15.6871 17.801ZM21.5543 20.1638L20.2523 18.8617L21.3129 17.801L23.0543 19.5424V23.6574H21.5543V20.1638ZM18.5 20.8712L16.5401 19.937L15.8947 21.291L18.5 22.5329L21.1053 21.291L20.4599 19.937L18.5 20.8712Z" fill="#00AAE8"/>
</svg>
