<svg width="30" height="30" viewBox="0 0 30 30" fill="none" xmlns="http://www.w3.org/2000/svg">
<path fill-rule="evenodd" clip-rule="evenodd" d="M6.35692 0.967742C5.58461 0.967742 4.96774 1.58461 4.96774 2.35692V27.6431C4.96774 28.4154 5.58461 29.0323 6.35692 29.0323H24.1509C24.9232 29.0323 25.5401 28.4154 25.5401 27.6431V2.35692C25.5401 1.58461 24.9232 0.967742 24.1509 0.967742H6.35692ZM4 2.35692C4 1.05014 5.05014 0 6.35692 0H24.1509C25.4577 0 26.5078 1.05014 26.5078 2.35692V27.6431C26.5078 28.9499 25.4577 30 24.1509 30H6.35692C5.05014 30 4 28.9499 4 27.6431V2.35692ZM5.87305 3.29344C5.87305 3.02621 6.08969 2.80957 6.35692 2.80957H24.1509C24.4181 2.80957 24.6348 3.02621 24.6348 3.29344V24.8335C24.6348 25.1007 24.4181 25.3174 24.1509 25.3174H6.35692C6.08969 25.3174 5.87305 25.1007 5.87305 24.8335V3.29344ZM6.84079 3.77732V24.3496H23.667V3.77732H6.84079ZM14.3018 27.1748C14.3018 26.9076 14.5184 26.6909 14.7856 26.6909H15.7222C15.9894 26.6909 16.206 26.9076 16.206 27.1748C16.206 27.4421 15.9894 27.6587 15.7222 27.6587H14.7856C14.5184 27.6587 14.3018 27.4421 14.3018 27.1748Z" fill="black"/>
</svg>
