<svg width="31" height="26" viewBox="0 0 31 26" fill="none" xmlns="http://www.w3.org/2000/svg">
<g clip-path="url(#clip0_703_2024)">
<path d="M28.052 17.0386H2.66741C1.71154 17.0386 0.936646 17.8135 0.936646 18.7693V23.3847C0.936646 24.3406 1.71154 25.1155 2.66741 25.1155H28.052C29.0079 25.1155 29.7828 24.3406 29.7828 23.3847V18.7693C29.7828 17.8135 29.0079 17.0386 28.052 17.0386Z" stroke="black" stroke-linejoin="round"/>
<path d="M4.39954 17.0385V2.03849C4.39954 1.40387 4.91877 0.884644 5.55338 0.884644C6.188 0.884644 6.70723 1.40387 6.70723 2.03849V17.0385" stroke="black" stroke-linejoin="round"/>
<path d="M24.0148 17.0385V2.03849C24.0148 1.40387 24.534 0.884644 25.1686 0.884644C25.8032 0.884644 26.3225 1.40387 26.3225 2.03849V17.0385" stroke="black" stroke-linejoin="round"/>
<path d="M6.13031 22.8077C7.08618 22.8077 7.86107 22.0328 7.86107 21.077C7.86107 20.1211 7.08618 19.3462 6.13031 19.3462C5.17443 19.3462 4.39954 20.1211 4.39954 21.077C4.39954 22.0328 5.17443 22.8077 6.13031 22.8077Z" stroke="black" stroke-linejoin="round"/>
<path d="M19.3995 20.5V21.6538" stroke="black" stroke-linecap="round" stroke-linejoin="round"/>
<path d="M15.9366 20.5V21.6538" stroke="black" stroke-linecap="round" stroke-linejoin="round"/>
<path d="M22.8605 20.5V21.6538" stroke="black" stroke-linecap="round" stroke-linejoin="round"/>
<path d="M26.3214 20.5V21.6538" stroke="black" stroke-linecap="round" stroke-linejoin="round"/>
<path d="M9.38977 7.975C12.6898 4.675 18.0378 4.675 21.3378 7.975" stroke="black" stroke-linecap="round" stroke-linejoin="round"/>
<path d="M12.1866 10.2769C13.9405 8.52309 16.779 8.52309 18.5328 10.2769" stroke="black" stroke-linecap="round" stroke-linejoin="round"/>
<path d="M15.36 14.7308C15.9973 14.7308 16.5139 14.2142 16.5139 13.5769C16.5139 12.9397 15.9973 12.4231 15.36 12.4231C14.7228 12.4231 14.2062 12.9397 14.2062 13.5769C14.2062 14.2142 14.7228 14.7308 15.36 14.7308Z" stroke="black" stroke-linecap="round" stroke-linejoin="round"/>
</g>
<defs>
<clipPath id="clip0_703_2024">
<rect width="30" height="25.3846" fill="white" transform="translate(0.360474 0.307739)"/>
</clipPath>
</defs>
</svg>
