<svg width="6" height="7" viewBox="0 0 6 7" fill="none" xmlns="http://www.w3.org/2000/svg">
<rect width="6" height="7" fill="#E5E5E5"/>
<g id="contact3" clip-path="url(#clip0_4428_17689)">
<rect width="1920" height="3416" transform="translate(-521 -1004)" fill="white"/>
<g id="body">
<rect width="1920" height="1596" transform="translate(-521 -344)" fill="white"/>
<g id="solutions">
<g id="table" filter="url(#filter0_d_4428_17689)">
<rect x="-161" y="-70" width="1200" height="1092" rx="20" fill="#F7F7F7" shape-rendering="crispEdges"/>
<rect x="-160.5" y="-69.5" width="1199" height="1091" rx="19.5" stroke="white" shape-rendering="crispEdges"/>
<g id="row">
<g id="form_input">
<g id="title">
<g id="icon_&#239;&#188;&#138;">
<path id="*" d="M5.27181 1.40401L5.99181 2.684L3.79981 3.5L5.99181 4.31601L5.25581 5.62801L3.43181 4.18801L3.76781 6.50801H2.29581L2.59981 4.18801L0.775813 5.66001L0.0078125 4.3L2.18381 3.484L0.0078125 2.7L0.743813 1.38801L2.61581 2.828L2.29581 0.492004H3.78381L3.43181 2.828L5.27181 1.40401Z" fill="#00AAE8"/>
</g>
</g>
</g>
</g>
</g>
</g>
</g>
</g>
<defs>
<filter id="filter0_d_4428_17689" x="-161" y="-70" width="1260" height="1152" filterUnits="userSpaceOnUse" color-interpolation-filters="sRGB">
<feFlood flood-opacity="0" result="BackgroundImageFix"/>
<feColorMatrix in="SourceAlpha" type="matrix" values="0 0 0 0 0 0 0 0 0 0 0 0 0 0 0 0 0 0 127 0" result="hardAlpha"/>
<feOffset dx="30" dy="30"/>
<feGaussianBlur stdDeviation="15"/>
<feComposite in2="hardAlpha" operator="out"/>
<feColorMatrix type="matrix" values="0 0 0 0 0 0 0 0 0 0 0 0 0 0 0 0 0 0 0.08 0"/>
<feBlend mode="normal" in2="BackgroundImageFix" result="effect1_dropShadow_4428_17689"/>
<feBlend mode="normal" in="SourceGraphic" in2="effect1_dropShadow_4428_17689" result="shape"/>
</filter>
<clipPath id="clip0_4428_17689">
<rect width="1920" height="3416" fill="white" transform="translate(-521 -1004)"/>
</clipPath>
</defs>
</svg>
