<?xml version="1.0" encoding="utf-8"?>
<!-- Generator: Adobe Illustrator 15.1.0, SVG Export Plug-In  -->
<!DOCTYPE svg PUBLIC "-//W3C//DTD SVG 1.1//EN" "http://www.w3.org/Graphics/SVG/1.1/DTD/svg11.dtd" [
	<!ENTITY ns_flows "http://ns.adobe.com/Flows/1.0/">
]>
<svg version="1.1"
	 xmlns="http://www.w3.org/2000/svg" xmlns:xlink="http://www.w3.org/1999/xlink" xmlns:a="http://ns.adobe.com/AdobeSVGViewerExtensions/3.0/"
	 x="0px" y="0px" width="214px" height="39px" viewBox="0 0 214 39" enable-background="new 0 0 214 39" xml:space="preserve">
<defs>
</defs>
<polygon fill="#FFFFFF" points="90.041,34.268 91.434,34.268 91.434,37.899 92.118,37.899 92.118,34.268 93.505,34.268 
	93.505,33.658 90.041,33.658 "/>
<path fill="#FFFFFF" d="M98.225,33.545c-0.716,0-1.261,0.266-1.63,0.789c-0.281,0.403-0.426,0.898-0.426,1.467
	c0,0.629,0.171,1.154,0.503,1.57c0.372,0.432,0.891,0.651,1.54,0.651c0.695,0,1.24-0.249,1.62-0.744
	c0.317-0.416,0.479-0.944,0.479-1.569c0-0.582-0.14-1.063-0.422-1.44C99.527,33.789,98.966,33.545,98.225,33.545 M99.297,36.902
	c-0.213,0.337-0.546,0.501-1.019,0.501c-0.492,0-0.856-0.147-1.074-0.444c-0.221-0.302-0.337-0.68-0.337-1.119
	c0-0.556,0.132-0.978,0.388-1.256c0.258-0.283,0.593-0.42,1.003-0.42c0.423,0,0.752,0.137,0.992,0.422
	c0.247,0.285,0.367,0.662,0.367,1.129C99.617,36.164,99.51,36.561,99.297,36.902"/>
<path fill="#FFFFFF" d="M106.178,36.266c0,0.29-0.047,0.518-0.132,0.684c-0.162,0.301-0.463,0.453-0.922,0.453
	c-0.379,0-0.638-0.138-0.794-0.418c-0.111-0.193-0.163-0.429-0.163-0.719v-2.607h-0.683v2.375c0,0.512,0.071,0.918,0.211,1.198
	c0.26,0.517,0.754,0.779,1.476,0.779c0.718,0,1.216-0.263,1.477-0.779c0.142-0.28,0.213-0.687,0.213-1.198v-2.375h-0.683V36.266z"/>
<path fill="#FFFFFF" d="M113.068,36.314c-0.054,0.266-0.135,0.477-0.242,0.637c-0.203,0.301-0.486,0.444-0.871,0.444
	c-0.426,0-0.735-0.136-0.946-0.424c-0.213-0.29-0.319-0.673-0.319-1.138c0-0.573,0.116-1.002,0.354-1.277
	c0.232-0.27,0.542-0.406,0.919-0.406c0.312,0,0.556,0.076,0.726,0.217c0.168,0.148,0.284,0.35,0.342,0.602l0.009,0.047h0.659
	l-0.006-0.066c-0.031-0.363-0.199-0.689-0.492-0.977c-0.295-0.282-0.713-0.428-1.243-0.428c-0.622,0-1.113,0.221-1.468,0.658
	c-0.324,0.398-0.49,0.914-0.49,1.531c0,0.819,0.218,1.432,0.65,1.823c0.334,0.301,0.75,0.453,1.239,0.453
	c0.56,0,1.017-0.188,1.349-0.552c0.279-0.301,0.447-0.68,0.494-1.125l0.01-0.068h-0.664L113.068,36.314z"/>
<polygon fill="#FFFFFF" points="119.615,35.359 117.617,35.359 117.617,33.658 116.935,33.658 116.935,37.9 117.617,37.9 
	117.617,35.973 119.615,35.973 119.615,37.9 120.304,37.9 120.304,33.658 119.615,33.658 "/>
<path fill="#FFFFFF" d="M130.602,35.801c-0.155-0.117-0.373-0.206-0.646-0.273l-0.561-0.131c-0.369-0.088-0.607-0.16-0.709-0.22
	c-0.146-0.083-0.216-0.208-0.216-0.392c0-0.164,0.063-0.309,0.188-0.438c0.129-0.127,0.341-0.189,0.639-0.189
	c0.368,0,0.637,0.1,0.784,0.298c0.08,0.106,0.135,0.269,0.159,0.478l0.008,0.055h0.638v-0.063c0-0.475-0.155-0.833-0.467-1.048
	c-0.302-0.216-0.674-0.325-1.106-0.325c-0.471,0-0.842,0.123-1.101,0.371c-0.262,0.249-0.395,0.57-0.395,0.958
	c0,0.36,0.139,0.636,0.409,0.823c0.154,0.102,0.405,0.195,0.769,0.277l0.539,0.129c0.288,0.064,0.502,0.146,0.63,0.234
	c0.118,0.084,0.178,0.229,0.178,0.432c0,0.273-0.143,0.459-0.441,0.563c-0.159,0.062-0.336,0.09-0.532,0.09
	c-0.431,0-0.723-0.128-0.892-0.382c-0.088-0.141-0.138-0.318-0.151-0.544v-0.054h-0.646v0.058c-0.006,0.462,0.142,0.832,0.437,1.104
	c0.291,0.271,0.704,0.408,1.215,0.408c0.442,0,0.828-0.103,1.158-0.304c0.346-0.205,0.519-0.552,0.519-1.03
	C131.008,36.301,130.873,36.005,130.602,35.801"/>
<path fill="#FFFFFF" d="M136.102,33.545c-0.714,0-1.259,0.266-1.628,0.789c-0.284,0.403-0.428,0.898-0.428,1.467
	c0,0.629,0.174,1.154,0.502,1.57c0.375,0.432,0.895,0.651,1.543,0.651c0.694,0,1.237-0.249,1.615-0.744
	c0.323-0.416,0.48-0.944,0.48-1.569c0-0.582-0.142-1.063-0.421-1.44C137.406,33.789,136.847,33.545,136.102,33.545 M137.175,36.902
	c-0.212,0.337-0.543,0.501-1.018,0.501c-0.496,0-0.859-0.147-1.076-0.444c-0.222-0.302-0.334-0.68-0.334-1.119
	c0-0.556,0.133-0.978,0.389-1.256c0.254-0.283,0.591-0.42,1.002-0.42c0.424,0,0.752,0.137,0.99,0.422
	c0.246,0.285,0.367,0.662,0.367,1.129C137.495,36.164,137.389,36.561,137.175,36.902"/>
<polygon fill="#FFFFFF" points="141.998,33.658 141.322,33.658 141.322,37.9 144.067,37.9 144.067,37.289 141.998,37.289 "/>
<path fill="#FFFFFF" d="M149.838,36.266c0,0.29-0.044,0.518-0.133,0.684c-0.164,0.301-0.46,0.453-0.92,0.453
	c-0.376,0-0.638-0.138-0.794-0.418c-0.108-0.193-0.164-0.429-0.164-0.719v-2.607h-0.685v2.375c0,0.512,0.072,0.918,0.212,1.198
	c0.263,0.517,0.758,0.779,1.477,0.779c0.718,0,1.214-0.263,1.479-0.779c0.14-0.28,0.211-0.687,0.211-1.198v-2.375h-0.684V36.266z"/>
<polygon fill="#FFFFFF" points="153.497,34.268 154.884,34.268 154.884,37.899 155.571,37.899 155.571,34.268 156.96,34.268 
	156.96,33.658 153.497,33.658 "/>
<rect x="160.066" y="33.658" fill="#FFFFFF" width="0.682" height="4.241"/>
<path fill="#FFFFFF" d="M165.964,33.545c-0.712,0-1.263,0.266-1.626,0.789c-0.284,0.403-0.429,0.898-0.429,1.467
	c0,0.629,0.171,1.154,0.501,1.57c0.377,0.432,0.894,0.651,1.543,0.651c0.696,0,1.239-0.249,1.617-0.744
	c0.317-0.416,0.479-0.944,0.479-1.569c0-0.582-0.14-1.063-0.421-1.44C167.271,33.789,166.709,33.545,165.964,33.545 M167.036,36.902
	c-0.21,0.337-0.54,0.501-1.016,0.501c-0.498,0-0.86-0.147-1.079-0.444c-0.22-0.302-0.333-0.68-0.333-1.119
	c0-0.556,0.132-0.978,0.39-1.256c0.254-0.283,0.594-0.42,0.999-0.42c0.429,0,0.75,0.137,0.993,0.422s0.367,0.662,0.367,1.129
	C167.357,36.164,167.25,36.561,167.036,36.902"/>
<polygon fill="#FFFFFF" points="173.898,36.837 171.95,33.684 171.935,33.658 171.183,33.658 171.183,37.9 171.834,37.9 
	171.834,34.725 173.813,37.875 173.827,37.9 174.549,37.9 174.549,33.658 173.898,33.658 "/>
<polygon fill="#FFFFFF" points="68.264,16.244 54.681,16.244 54.681,9.51 51.329,9.51 51.329,26.328 54.681,26.328 54.681,19.593 
	68.264,19.593 68.264,26.328 71.594,26.328 71.594,9.51 68.264,9.51 "/>
<rect x="75.229" y="9.51" fill="#FFFFFF" width="3.349" height="16.818"/>
<path fill="#FFFFFF" d="M89.617,19.593h9.533v2.414c0,0.534-0.433,0.971-0.969,0.971H86.537c-0.539,0-0.972-0.437-0.972-0.971V13.83
	c0-0.55,0.433-0.993,0.972-0.993h15.432V9.51H86.537c-2.382,0-4.323,1.937-4.323,4.32v8.177c0,2.381,1.941,4.321,4.323,4.321h11.644
	c2.37,0,4.302-1.94,4.302-4.321v-5.763H89.617V19.593z"/>
<path fill="#FFFFFF" d="M113.043,19.593h9.533v2.414c0,0.534-0.436,0.971-0.969,0.971h-11.646c-0.535,0-0.974-0.437-0.974-0.971
	V13.83c0-0.55,0.438-0.993,0.974-0.993h15.432V9.51h-15.432c-2.383,0-4.322,1.937-4.322,4.32v8.177c0,2.381,1.939,4.321,4.322,4.321
	h11.646c2.372,0,4.298-1.94,4.298-4.321v-5.763h-12.862V19.593z"/>
<path fill="#FFFFFF" d="M167.938,9.51h-19.125h-1.143h-14.287c-2.381,0-4.319,1.937-4.319,4.32v1.442
	c0,2.384,1.938,4.321,4.319,4.321h11.648c0.532,0,0.968,0.436,0.968,0.972v1.442c0,0.534-0.436,0.971-0.968,0.971h-15.435v3.351
	h15.435c2.368,0,4.295-1.94,4.295-4.321v-1.442c0-2.382-1.927-4.321-4.295-4.321h-11.648c-0.534,0-0.971-0.435-0.971-0.972V13.83
	c0-0.55,0.437-0.993,0.971-0.993h14.287h1.143h7.326v13.491h3.349V12.837h8.45V9.51z"/>
<path fill="#FFFFFF" d="M170.844,13.83v8.176c0,2.382,1.939,4.322,4.321,4.322h15.434v-3.351h-15.434
	c-0.534,0-0.97-0.437-0.97-0.972v-2.413h16.403v-3.349h-16.403V13.83c0-0.55,0.436-0.993,0.97-0.993h15.434V9.51h-15.434
	C172.783,9.51,170.844,11.447,170.844,13.83"/>
<path fill="#FFFFFF" d="M198.081,12.837h15.43V9.51h-15.43c-2.386,0-4.321,1.937-4.321,4.32v8.177c0,2.381,1.936,4.321,4.321,4.321
	h15.43v-3.35h-15.43c-0.536,0-0.97-0.438-0.97-0.972V13.83C197.111,13.279,197.545,12.837,198.081,12.837"/>
<path fill="#FFFFFF" d="M12.136,16.701c-1.414-1.437-2.586-3.123-3.413-4.994c-0.851-1.91-1.321-3.967-1.321-6.07
	c0-0.432,0.022-0.858,0.061-1.277c0.04-0.419,0.095-0.827,0.175-1.229c0.078-0.402,0.171-0.79,0.285-1.174
	c0.109-0.382,0.24-0.753,0.388-1.111L4.894,0.133C4.253,0,3.634-0.032,3.06,0.032C2.476,0.096,1.946,0.253,1.495,0.498
	C1.038,0.743,0.666,1.069,0.406,1.465C0.144,1.867,0,2.334,0,2.849v29.906c0,0.517,0.144,0.977,0.406,1.368
	c0.26,0.392,0.632,0.707,1.089,0.938c0.451,0.229,0.981,0.376,1.565,0.42c0.574,0.047,1.193,0,1.834-0.15l10.874-2.59l5.964,6.021
	v-8.757v-8.472c-1.706-0.197-3.395-0.709-4.993-1.497C15.062,19.209,13.496,18.082,12.136,16.701"/>
<path fill="#FFFFFF" d="M37.811,8.245c-0.082-0.262-0.197-0.506-0.339-0.717c-0.147-0.216-0.32-0.403-0.511-0.548
	c-0.195-0.147-0.411-0.251-0.641-0.293l-1.324-0.28c0.057,0.263,0.113,0.53,0.158,0.796c0.047,0.268,0.085,0.536,0.118,0.807
	c0.03,0.268,0.052,0.541,0.068,0.81c0.015,0.271,0.025,0.547,0.025,0.821c0,1.333-0.191,2.593-0.543,3.755
	c-0.36,1.183-0.888,2.282-1.569,3.264c-0.698,1.007-1.564,1.909-2.571,2.656c-1.047,0.772-2.26,1.388-3.611,1.788v8.942l9.249-2.202
	c0.23-0.052,0.446-0.164,0.641-0.318c0.191-0.15,0.364-0.342,0.511-0.563c0.142-0.216,0.257-0.462,0.339-0.725
	c0.078-0.263,0.121-0.539,0.121-0.824V9.064C37.932,8.782,37.889,8.504,37.811,8.245"/>
<path fill="#FFFFFF" d="M31.151,15.773c0.742-0.838,1.329-1.823,1.724-2.901c0.392-1.067,0.607-2.244,0.607-3.5
	c0-0.292-0.009-0.577-0.036-0.865c-0.02-0.287-0.052-0.571-0.097-0.853c-0.042-0.279-0.094-0.561-0.16-0.839
	c-0.062-0.28-0.134-0.554-0.221-0.833l-4.757-0.991c0.209,0.279,0.395,0.57,0.559,0.875c0.161,0.3,0.301,0.614,0.413,0.936
	c0.114,0.321,0.199,0.649,0.26,0.983c0.055,0.337,0.089,0.676,0.089,1.019c0,0.704-0.127,1.359-0.363,1.944
	c-0.238,0.589-0.581,1.114-1.014,1.549c-0.441,0.444-0.972,0.794-1.577,1.034c-0.618,0.239-1.31,0.354-2.055,0.318
	c-0.766-0.038-1.514-0.232-2.214-0.561c-0.711-0.336-1.367-0.81-1.929-1.384c-0.575-0.588-1.042-1.281-1.374-2.038
	c-0.331-0.768-0.514-1.596-0.514-2.442c0-0.416,0.041-0.812,0.126-1.187s0.209-0.731,0.366-1.06
	c0.163-0.326,0.354-0.631,0.575-0.906c0.22-0.27,0.47-0.513,0.744-0.726l-7.607-1.586c-0.161,0.326-0.308,0.666-0.438,1.015
	c-0.125,0.354-0.235,0.717-0.322,1.095c-0.087,0.375-0.156,0.764-0.2,1.158c-0.044,0.4-0.068,0.807-0.068,1.22
	c0,1.803,0.435,3.563,1.209,5.17c0.756,1.576,1.823,2.98,3.1,4.128c1.226,1.112,2.63,1.973,4.125,2.537
	c1.43,0.533,2.924,0.791,4.421,0.734c1.42-0.052,2.715-0.388,3.842-0.933C29.448,17.359,30.388,16.638,31.151,15.773"/>
</svg>
