<svg width="173" height="28" viewBox="0 0 173 28" fill="none" xmlns="http://www.w3.org/2000/svg">
<g clip-path="url(#clip0_6010_4)">
<path d="M13.2585 3.13454C12.4121 3.15074 11.7439 3.85135 11.7601 4.69774C11.7763 5.54414 12.4769 6.21235 13.3233 6.19615C14.1575 6.17995 14.8217 5.4996 14.8217 4.66535C14.8176 3.8149 14.1251 3.13049 13.2747 3.13454C13.2706 3.13454 13.2625 3.13454 13.2585 3.13454Z" fill="#319F39"/>
<path d="M16.4171 0H14.7891V0.00809951L16.4171 0.0121493V0Z" fill="white"/>
<path d="M16.4177 0.0121498H14.7978V1.91958C13.2751 1.09343 11.3677 1.6604 10.5415 3.18716C9.71536 4.70987 10.2823 6.6173 11.8091 7.44345C13.3318 8.2696 15.2392 7.70263 16.0654 6.17588C16.3124 5.71825 16.442 5.21204 16.442 4.68962L16.4177 0.0121498ZM14.8221 4.66532C14.8302 5.51982 14.1458 6.22042 13.2913 6.22852C12.4368 6.23662 11.7362 5.55221 11.7281 4.69772C11.72 3.84322 12.4044 3.14261 13.2589 3.13451C13.2629 3.13451 13.271 3.13451 13.2751 3.13451C14.1255 3.13046 14.8181 3.81487 14.8221 4.66532Z" fill="white"/>
<path d="M24.4767 13.2629C24.4767 12.8539 24.3147 12.4651 24.0272 12.1776C23.7356 11.886 23.3347 11.724 22.9216 11.7281C22.0752 11.7281 21.3908 12.4125 21.3908 13.2589C21.3908 14.1053 22.0752 14.7897 22.9216 14.7897C23.7721 14.7978 24.4686 14.1174 24.4767 13.267C24.4767 13.267 24.4767 13.267 24.4767 13.2629Z" fill="#23B934"/>
<path d="M25.72 14.7573C25.9792 14.3037 26.1169 13.7894 26.125 13.267C26.125 12.4327 25.7929 11.6268 25.2016 11.0396C24.6063 10.4484 23.8004 10.1122 22.9621 10.1122C21.2207 10.1082 19.8033 11.5094 19.7912 13.2508C19.7831 14.0891 20.1192 14.8909 20.7145 15.4782C21.3017 16.0654 22.0914 16.3975 22.9216 16.4056L29.1299 16.3367V14.7168L25.72 14.7573ZM21.3908 13.2548C21.3949 12.4125 22.0793 11.7321 22.9216 11.7281C23.3306 11.7281 23.7235 11.8901 24.011 12.1776C24.2985 12.4651 24.4605 12.8539 24.4605 13.2629C24.4524 14.1093 23.768 14.7897 22.9216 14.7897C22.0752 14.7897 21.3868 14.1053 21.3827 13.2589C21.3827 13.2589 21.3827 13.2589 21.3827 13.2548H21.3908Z" fill="white"/>
<path d="M11.1324 16.2922C10.286 16.2922 9.59753 16.9847 9.60158 17.8311C9.60158 18.6775 10.2941 19.366 11.1405 19.362C11.9869 19.362 12.6713 18.6735 12.6713 17.8271C12.6713 16.9807 11.9828 16.2922 11.1364 16.2922C11.1364 16.2922 11.1364 16.2922 11.1324 16.2922Z" fill="#23B934"/>
<path d="M29.1507 14.7206V2.50246C29.179 1.16199 28.118 0.04831 26.7735 0.0199618C26.7735 0.0199618 26.7694 0.0199618 26.7654 0.0199618H16.4183V4.67313C16.4223 6.42262 15.0049 7.84814 13.2554 7.85219C11.5059 7.85624 10.0804 6.43882 10.0763 4.68933C10.0723 2.93983 11.4897 1.51432 13.2392 1.51027C13.7859 1.51027 14.3205 1.64796 14.7984 1.91525V0.0078125H2.38586C1.03729 0.0442603 -0.0277932 1.16199 0.000555054 2.51056V23.0509C-0.0277932 24.3914 1.03324 25.5051 2.37776 25.5334C2.37776 25.5334 2.38181 25.5334 2.38586 25.5334H12.6884V20.5765C12.2187 20.8438 11.6881 20.9815 11.1455 20.9815C9.40409 20.9815 7.99072 19.5641 7.99477 17.8227C7.99477 16.0813 9.41219 14.6679 11.1536 14.672C12.895 14.672 14.3043 16.0853 14.3043 17.8267V17.8551V25.5496H26.7654C28.1059 25.5253 29.175 24.4197 29.1507 23.0752C29.1507 23.0752 29.1507 23.0712 29.1507 23.0671V16.3364L22.9424 16.4053C22.1041 16.4053 21.2982 16.0732 20.7029 15.4779C20.1076 14.8907 19.7715 14.0888 19.7796 13.2505C19.7917 11.5213 21.1929 10.1241 22.9222 10.1119C23.7605 10.1119 24.5664 10.4481 25.1617 11.0393C25.7529 11.6266 26.0891 12.4325 26.085 13.2667C26.0769 13.7891 25.9392 14.3034 25.6801 14.757L29.1507 14.7206Z" fill="#00AAE8"/>
<path d="M12.6875 25.5377L13.4975 25.5337H13.8781H12.6875V25.5377Z" fill="white"/>
<path d="M14.2903 17.8553V17.8269C14.2903 16.0815 12.881 14.6681 11.1355 14.6641C9.39007 14.6641 7.97671 16.0734 7.97266 17.8188C7.97266 19.5643 9.38197 20.9776 11.1274 20.9817C11.6701 20.9817 12.2006 20.844 12.6704 20.5767V25.5336H14.2903V17.8553ZM11.1315 19.3618C10.2851 19.3618 9.59661 18.6693 9.60066 17.8229C9.60066 16.9765 10.2932 16.288 11.1396 16.2921C11.986 16.2921 12.6704 16.9805 12.6704 17.8269C12.6704 18.6733 11.9819 19.3618 11.1355 19.3618C11.1355 19.3618 11.1355 19.3618 11.1315 19.3618Z" fill="white"/>
<path d="M46.7873 13.8176C47.2854 13.7731 47.7795 13.6678 48.2493 13.4977C48.7191 13.3681 49.0511 12.9469 49.0592 12.4569C49.1119 11.975 48.8729 11.5093 48.4518 11.2703C47.8929 11.0193 47.2854 10.9059 46.6739 10.9423C45.7951 10.9423 45.1755 11.1529 44.811 11.5822C44.5276 11.9588 44.3453 12.4043 44.2886 12.87H40.741C40.7694 11.7806 41.1298 10.7277 41.7697 9.84888C42.7457 8.61371 44.4142 7.99409 46.7792 7.99814C48.1926 7.97385 49.5938 8.28568 50.8654 8.90934C52.0601 9.5168 52.6595 10.6669 52.6595 12.3557V18.7826C52.6595 19.2281 52.6676 19.7667 52.6838 20.4025C52.6757 20.7427 52.7526 21.0789 52.9025 21.3826C53.0442 21.5648 53.2305 21.7025 53.4451 21.7876V22.3302H49.4602C49.3549 22.071 49.2779 21.7997 49.2293 21.5203C49.1848 21.2732 49.1524 20.9898 49.124 20.6698C48.6219 21.2327 48.0346 21.7187 47.3826 22.1034C46.5646 22.5692 45.6331 22.804 44.6936 22.7878C43.5475 22.8243 42.4298 22.4355 41.551 21.6985C40.6924 20.9128 40.2348 19.7829 40.3037 18.6206C40.3037 16.8995 40.98 15.6562 42.3285 14.8827C43.341 14.3806 44.4425 14.0768 45.5683 13.9837L46.7873 13.8176ZM49.0268 15.5307C48.8 15.6724 48.5611 15.7899 48.3141 15.883C47.9941 15.9924 47.6661 16.0774 47.33 16.1341L46.4957 16.288C45.9126 16.3649 45.3456 16.531 44.8151 16.7902C44.2481 17.0979 43.912 17.7014 43.9484 18.3453C43.8998 18.8555 44.0942 19.3577 44.4749 19.7019C44.8434 19.9814 45.3011 20.1231 45.7627 20.1069C46.5524 20.1069 47.3259 19.868 47.9739 19.4104C48.6502 18.9487 48.9985 18.1063 49.0268 16.8793V15.5307Z" fill="#23B934"/>
<path d="M67.6592 9.83685C68.8013 11.0437 69.3723 12.8175 69.3723 15.1582C69.3723 17.6245 68.8134 19.5036 67.6957 20.7995C66.6306 22.0712 65.0391 22.7839 63.3827 22.7394C62.3865 22.7758 61.4024 22.4842 60.5884 21.9051C60.1186 21.5244 59.7177 21.0709 59.3977 20.5566V27.8461H55.7732V8.33439H59.2803V10.3998C59.6245 9.8571 60.0498 9.37113 60.5479 8.9621C61.3902 8.33034 62.4189 7.99826 63.4718 8.02256C65.0634 7.99826 66.5901 8.65837 67.6592 9.83685ZM64.8447 12.4692C64.3344 11.6268 63.3949 11.1449 62.4148 11.2219C61.1715 11.1571 60.0376 11.9306 59.6488 13.1131C59.3613 13.9271 59.2236 14.7897 59.2439 15.6563C59.2439 17.2763 59.6812 18.4223 60.556 19.0905C61.0946 19.4874 61.7547 19.694 62.4229 19.6737C63.3625 19.7183 64.2575 19.2728 64.7799 18.4912C65.363 17.5476 65.6465 16.4501 65.5898 15.3405C65.6101 14.3321 65.3549 13.3399 64.8447 12.4692Z" fill="#23B934"/>
<path d="M89.4348 8.38299C90.7104 8.92566 91.6216 10.0758 91.8646 11.4406C91.9659 12.125 92.0064 12.8175 91.9942 13.51L91.9659 22.3425H88.2158V13.433C88.232 12.9835 88.1429 12.534 87.9566 12.1209C87.6326 11.473 87.0333 11.1449 86.1585 11.1449C85.2716 11.0801 84.4374 11.5742 84.0729 12.3841C83.8623 12.8985 83.7611 13.4492 83.7773 14.004V22.3465H80.092V14.004C80.1244 13.3885 80.0353 12.7729 79.8328 12.1898C79.5169 11.5094 78.9054 11.1692 77.9983 11.1692C76.9494 11.1692 76.2488 11.5053 75.8883 12.1817C75.6616 12.7284 75.5603 13.3156 75.5927 13.9069V22.3425H71.8791V8.35869H75.4388V10.3836C75.7749 9.79635 76.2083 9.26989 76.7226 8.82846C77.5285 8.25745 78.5004 7.96991 79.4886 8.01851C80.4119 7.97396 81.3272 8.2291 82.0966 8.73937C82.6393 9.18484 83.0564 9.76396 83.3115 10.42C83.7287 9.66271 84.3483 9.035 85.0975 8.60978C85.8791 8.21695 86.7417 8.01851 87.6164 8.03066C88.2401 8.03066 88.8557 8.15215 89.4348 8.38299Z" fill="#00AAE8"/>
<path d="M104.491 8.61378C105.483 9.05926 106.326 9.78011 106.921 10.6873C107.508 11.562 107.885 12.5582 108.027 13.599C108.136 14.5224 108.177 15.4538 108.148 16.3812H97.9428C97.9995 17.7865 98.4895 18.7706 99.4088 19.3375C100.02 19.702 100.721 19.8883 101.434 19.864C102.608 19.9571 103.718 19.3092 104.22 18.2441H107.966C107.796 19.212 107.318 20.1029 106.605 20.7792C105.35 22.1278 103.596 22.8041 101.341 22.8041C99.5425 22.8284 97.797 22.2169 96.4039 21.083C94.9784 19.9328 94.2656 18.0619 94.2656 15.4741C94.2656 13.0442 94.9095 11.1813 96.1974 9.88945C97.5257 8.57733 99.34 7.87268 101.207 7.94557C102.337 7.93342 103.455 8.16021 104.491 8.61378ZM99.0079 11.7807C98.4612 12.3801 98.121 13.1414 98.0319 13.9473H104.345C104.337 13.109 103.985 12.3072 103.369 11.7361C102.762 11.2218 101.989 10.9545 101.195 10.9788C100.385 10.9302 99.591 11.2218 99.0079 11.7807Z" fill="#00AAE8"/>
<path d="M127.483 8.38294C128.758 8.92561 129.67 10.0757 129.913 11.4405C130.01 12.1249 130.054 12.8174 130.038 13.5099L130.014 22.3424H126.26V13.433C126.276 12.9835 126.187 12.5339 126.005 12.1209C125.656 11.4608 124.948 11.076 124.202 11.1449C123.311 11.072 122.473 11.5701 122.109 12.3841C121.898 12.8984 121.797 13.4492 121.813 14.004V22.3465H118.124V14.004C118.156 13.3884 118.071 12.7729 117.869 12.1897C117.557 11.5094 116.957 11.1692 116.066 11.1692C115.022 11.1692 114.317 11.5053 113.961 12.1816C113.734 12.7283 113.633 13.3155 113.665 13.9068V22.3424H109.947V8.35865H113.511V10.3835C113.847 9.79631 114.281 9.26984 114.795 8.82842C115.601 8.2574 116.573 7.97392 117.557 8.01847C118.472 7.98202 119.375 8.2331 120.141 8.73932C120.683 9.1848 121.1 9.76391 121.355 10.42C121.769 9.66267 122.388 9.03495 123.141 8.60973C123.923 8.2169 124.786 8.01847 125.66 8.03062C126.284 8.03062 126.904 8.15211 127.483 8.38294Z" fill="#00AAE8"/>
<path d="M145.091 20.6294C143.909 22.0873 142.115 22.8163 139.705 22.8163C137.296 22.8163 135.502 22.0873 134.319 20.6294C133.128 19.1391 132.501 17.2721 132.545 15.3647C132.505 13.4573 133.132 11.5944 134.319 10.1C135.502 8.61781 137.296 7.87671 139.705 7.87671C142.115 7.87671 143.909 8.61781 145.091 10.1C146.278 11.5944 146.906 13.4573 146.865 15.3647C146.91 17.2721 146.282 19.1391 145.091 20.6294ZM142.159 18.6045C142.734 17.8432 143.022 16.7578 143.022 15.3647C143.022 13.9716 142.734 12.8782 142.159 12.1249C141.001 10.7601 138.956 10.5941 137.591 11.7523C137.458 11.8657 137.332 11.9913 137.219 12.1249C136.639 12.8782 136.352 13.9594 136.352 15.3647C136.352 16.77 136.639 17.8513 137.219 18.6045C138.377 19.9693 140.422 20.1353 141.787 18.9771C141.92 18.8637 142.046 18.7381 142.159 18.6045Z" fill="#00AAE8"/>
<path d="M157.269 8.00231H157.585V11.7767C157.354 11.7483 157.147 11.7321 156.965 11.724H156.532C155.058 11.724 154.065 12.2019 153.559 13.1617C153.239 13.9514 153.102 14.8059 153.154 15.6563V22.3425H149.465V8.33439H152.96V10.7642C153.349 10.0515 153.851 9.40757 154.438 8.8487C155.199 8.25339 156.147 7.94966 157.111 7.99016L157.269 8.00231Z" fill="#00AAE8"/>
<path d="M160.282 25.0276L160.747 25.0519C161.088 25.0721 161.432 25.06 161.772 25.0154C162.06 24.983 162.339 24.8818 162.582 24.7198C162.861 24.4768 163.068 24.1609 163.177 23.8086C163.315 23.5453 163.396 23.2538 163.416 22.9581L158.285 8.33447H162.359L165.417 18.6694L168.308 8.33447H172.204L167.401 22.1036C166.474 24.7603 165.741 26.4085 165.198 27.0443C164.659 27.6842 163.578 28.0001 161.958 28.0001H161.177C160.978 28.0001 160.683 28.0001 160.286 27.9555V25.0276H160.282Z" fill="#00AAE8"/>
</g>
<defs>
<clipPath id="clip0_6010_4">
<rect width="172.204" height="28" fill="white"/>
</clipPath>
</defs>
</svg>
