<svg width="15" height="15" viewBox="0 0 15 15" fill="none" xmlns="http://www.w3.org/2000/svg">
<path d="M12.3221 5.3362C12.1771 5.33619 12.038 5.39331 11.9349 5.49519C11.8318 5.59707 11.773 5.73549 11.7713 5.88043V12.3129C11.7713 12.4524 11.7438 12.5905 11.6904 12.7194C11.637 12.8482 11.5588 12.9653 11.4601 13.064C11.3615 13.1626 11.2444 13.2409 11.1155 13.2942C10.9867 13.3476 10.8485 13.3751 10.709 13.3751H2.65701C2.51782 13.3751 2.38001 13.3476 2.2515 13.2941C2.12299 13.2407 2.00632 13.1623 1.9082 13.0636C1.81009 12.9649 1.73247 12.8477 1.6798 12.7189C1.62714 12.59 1.60047 12.4521 1.60133 12.3129V4.27396C1.60132 3.99337 1.71234 3.72417 1.91013 3.52515C2.10792 3.32613 2.37643 3.21345 2.65701 3.21172H9.10256C9.23744 3.19694 9.36212 3.13289 9.45268 3.03186C9.54325 2.93082 9.59335 2.7999 9.59335 2.66421C9.59335 2.52853 9.54325 2.39761 9.45268 2.29657C9.36212 2.19554 9.23744 2.13148 9.10256 2.1167H2.65701C2.08487 2.1167 1.53616 2.34398 1.1316 2.74855C0.727031 3.15311 0.499756 3.70182 0.499756 4.27396V12.3129C0.499753 12.8856 0.726818 13.435 1.1312 13.8406C1.53557 14.2462 2.08427 14.4749 2.65701 14.4767H10.709C10.9929 14.4767 11.2739 14.4207 11.5361 14.3118C11.7983 14.203 12.0364 14.0435 12.2368 13.8425C12.4372 13.6415 12.5959 13.4029 12.704 13.1404C12.812 12.8779 12.8672 12.5967 12.8663 12.3129V5.87387C12.8629 5.7312 12.8043 5.59543 12.7028 5.49513C12.6012 5.39484 12.4648 5.33786 12.3221 5.3362Z" fill="black"/>
<path d="M14.4412 0.851173C14.3834 0.723077 14.2808 0.620487 14.1527 0.562663C14.0882 0.536341 14.0191 0.522975 13.9494 0.523322H10.5332C10.3871 0.523322 10.2471 0.581353 10.1438 0.684646C10.0405 0.787939 9.98244 0.928031 9.98244 1.07411C9.98244 1.22019 10.0405 1.36028 10.1438 1.46357C10.2471 1.56687 10.3871 1.6249 10.5332 1.6249H12.6249L8.44154 5.80828C8.34138 5.91216 8.2854 6.05084 8.2854 6.19514C8.2854 6.33945 8.34138 6.47812 8.44154 6.582C8.49169 6.63396 8.55179 6.67528 8.61825 6.70351C8.68472 6.73173 8.75619 6.74628 8.8284 6.74628C8.90061 6.74628 8.97209 6.73173 9.03855 6.70351C9.10502 6.67528 9.16512 6.63396 9.21527 6.582L13.3986 2.39863V4.44442C13.3986 4.5905 13.4567 4.73059 13.56 4.83388C13.6633 4.93717 13.8034 4.9952 13.9494 4.9952C14.0955 4.9952 14.2356 4.93717 14.3389 4.83388C14.4422 4.73059 14.5002 4.5905 14.5002 4.44442V1.02821C14.4912 0.966172 14.4712 0.906241 14.4412 0.851173Z" fill="black"/>
</svg>
