<svg width="15" height="15" viewBox="0 0 15 15" fill="none" xmlns="http://www.w3.org/2000/svg">
<path d="M7.5 10.9115C7.37948 10.9115 7.26731 10.8923 7.16347 10.8538C7.05962 10.8154 6.96091 10.7494 6.86732 10.6558L3.75771 7.54617C3.60899 7.39746 3.5356 7.22342 3.53754 7.02407C3.53945 6.82472 3.61284 6.64748 3.75771 6.49235C3.91285 6.33723 4.09105 6.2571 4.29231 6.25197C4.4936 6.24684 4.67181 6.32184 4.82694 6.47697L6.75002 8.40005V0.750002C6.75002 0.537185 6.82181 0.358985 6.9654 0.215401C7.10898 0.0718009 7.28718 0 7.5 0C7.71282 0 7.89102 0.0718009 8.0346 0.215401C8.17819 0.358985 8.24998 0.537185 8.24998 0.750002V8.40005L10.1731 6.47697C10.3218 6.32825 10.4984 6.25485 10.7029 6.25677C10.9073 6.2587 11.0872 6.33723 11.2423 6.49235C11.3872 6.64748 11.4621 6.82312 11.4673 7.01927C11.4724 7.21542 11.3974 7.39106 11.2423 7.54617L8.13268 10.6558C8.03909 10.7494 7.94038 10.8154 7.83653 10.8538C7.73269 10.8923 7.62052 10.9115 7.5 10.9115ZM1.80771 15C1.30257 15 0.875003 14.825 0.525002 14.475C0.175001 14.125 0 13.6974 0 13.1923V11.2308C0 11.0179 0.0718002 10.8397 0.215401 10.6962C0.358984 10.5526 0.537185 10.4808 0.750002 10.4808C0.96282 10.4808 1.14102 10.5526 1.2846 10.6962C1.42819 10.8397 1.49998 11.0179 1.49998 11.2308V13.1923C1.49998 13.2692 1.53203 13.3398 1.59613 13.4039C1.66025 13.468 1.73077 13.5 1.80771 13.5H13.1923C13.2692 13.5 13.3398 13.468 13.4039 13.4039C13.468 13.3398 13.5 13.2692 13.5 13.1923V11.2308C13.5 11.0179 13.5718 10.8397 13.7154 10.6962C13.859 10.5526 14.0372 10.4808 14.25 10.4808C14.4628 10.4808 14.641 10.5526 14.7846 10.6962C14.9282 10.8397 15 11.0179 15 11.2308V13.1923C15 13.6974 14.825 14.125 14.475 14.475C14.125 14.825 13.6974 15 13.1923 15H1.80771Z" fill="black"/>
</svg>
