<svg width="12" height="16" viewBox="0 0 12 16" fill="none" xmlns="http://www.w3.org/2000/svg">
<path d="M12 6.52446C12 5.81041 11.4191 5.22947 10.705 5.22947H10.6851C10.4293 5.22947 10.1908 5.30432 9.98979 5.4327C9.86836 4.84375 9.34577 4.39967 8.72142 4.39967H8.70155C8.4226 4.39967 8.1642 4.4886 7.95258 4.63926C7.76961 4.1458 7.29418 3.79316 6.73784 3.79316H6.71797C6.47345 3.79316 6.24457 3.86136 6.04925 3.97961V1.295C6.04944 0.580945 5.4685 0 4.75435 0H4.73448C4.02043 0 3.43939 0.580945 3.43939 1.295V8.10439L1.97733 6.88443C1.63453 6.59381 1.10779 6.54539 0.666804 6.76415C0.224465 6.98368 -0.0240983 7.40538 0.00184791 7.89228C0.0108182 8.06021 0.054512 8.22727 0.131772 8.38864C0.788433 9.76041 1.83853 11.2855 3.53584 13.3329C3.60857 13.4212 3.72788 13.5562 3.81507 13.6539C3.94172 13.7957 4.01146 13.9786 4.01146 14.1691V14.1815C4.01146 14.7976 4.51273 15.2988 5.12878 15.2988H9.5299C10.1461 15.2988 10.6472 14.7975 10.6472 14.1815V14.0259C10.6472 13.8543 10.7029 13.6884 10.804 13.5589C11.1956 13.0566 11.4703 12.4872 11.6205 11.8662C11.8423 10.9488 11.975 10.0436 11.9757 9.44308L11.9883 9.03257C11.9957 9.00604 11.9999 8.97817 11.9999 8.94933V6.52446H12ZM11.3495 9.43816C11.3495 9.9918 11.2233 10.8445 11.0117 11.719C10.8826 12.2528 10.6466 12.7422 10.3101 13.1737C10.1237 13.4128 10.0209 13.7155 10.0209 14.026V14.1816C10.0209 14.4523 9.80065 14.6726 9.5299 14.6726H5.12878C4.85804 14.6726 4.63783 14.4523 4.63783 14.1816V14.1692C4.63783 13.8246 4.51148 13.4934 4.28211 13.2366C4.16414 13.1046 4.07078 12.9974 4.01859 12.934C2.35476 10.927 1.33031 9.44182 0.696705 8.11818C0.65523 8.03147 0.631791 7.94427 0.627258 7.85891C0.609607 7.52846 0.843702 7.37567 0.945172 7.32532C1.1619 7.21778 1.41982 7.23302 1.57415 7.36381L3.25564 8.76674C3.40553 8.89184 3.60828 8.91769 3.78469 8.83416C3.96111 8.75073 4.06981 8.57759 4.06817 8.38237L4.06586 8.09599V1.295C4.06586 0.926251 4.36583 0.626278 4.73448 0.626278H4.75435C5.123 0.626278 5.42297 0.926251 5.42297 1.295V7.19193C5.42297 7.36487 5.56321 7.50511 5.73616 7.50511C5.9091 7.50511 6.04934 7.36487 6.04934 7.19193V5.08806C6.04934 4.71932 6.34932 4.41935 6.71806 4.41935H6.73793C7.10668 4.41935 7.40665 4.71932 7.40665 5.08806V7.79843C7.40665 7.97137 7.54689 8.11162 7.71984 8.11162C7.89278 8.11162 8.03302 7.97137 8.03302 7.79843V5.69457C8.03302 5.32582 8.333 5.02585 8.70174 5.02585H8.72161C9.09036 5.02585 9.39033 5.32582 9.39033 5.69457V6.52128L9.37191 8.37021C9.37094 8.4684 9.41531 8.55637 9.48534 8.61444C9.54176 8.66922 9.61864 8.70317 9.70352 8.70317C9.87646 8.70317 10.0167 8.56293 10.0167 8.38999V6.52437C10.0167 6.15562 10.3167 5.85565 10.6854 5.85565H10.7053C11.074 5.85565 11.374 6.15562 11.374 6.52437V8.64549L11.35 9.42841V9.43806L11.3495 9.43816Z" fill="black"/>
</svg>
