<svg width="20" height="17" viewBox="0 0 20 17" fill="none" xmlns="http://www.w3.org/2000/svg">
<path fill-rule="evenodd" clip-rule="evenodd" d="M2.38504 2.82387L10 8.15434L17.615 2.82387C17.4787 2.62895 17.2527 2.5 17 2.5H3C2.74729 2.5 2.52132 2.62895 2.38504 2.82387ZM17.75 5.17066L10.5735 10.1942C10.2291 10.4353 9.77086 10.4353 9.42654 10.1942L2.25 5.17066V13.75C2.25 14.1602 2.58978 14.5 3 14.5H17C17.4102 14.5 17.75 14.1602 17.75 13.75V5.17066ZM0.25 3.25C0.25 1.73522 1.48522 0.5 3 0.5H17C18.5148 0.5 19.75 1.73522 19.75 3.25V13.75C19.75 15.2648 18.5148 16.5 17 16.5H3C1.48522 16.5 0.25 15.2648 0.25 13.75V3.25Z" fill="black"/>
</svg>
