<svg width="20" height="20" viewBox="0 0 20 20" fill="none" xmlns="http://www.w3.org/2000/svg">
<path d="M6.04393 13.8235C5.65908 13.8235 5.33332 13.6897 5.06665 13.4221C4.79999 13.1544 4.66665 12.8275 4.66665 12.4412V4.88235C4.66665 4.49607 4.79999 4.16911 5.06665 3.90147C5.33332 3.63382 5.65908 3.5 6.04393 3.5H16.6227C17.0076 3.5 17.3333 3.63382 17.6 3.90147C17.8667 4.16911 18 4.49607 18 4.88235V12.4412C18 12.8275 17.8667 13.1544 17.6 13.4221C17.3333 13.6897 17.0076 13.8235 16.6227 13.8235H6.04393ZM10.9318 9.73234L5.80949 6.02346V12.4412C5.80949 12.5098 5.83147 12.5662 5.87542 12.6103C5.91938 12.6544 5.97555 12.6765 6.04393 12.6765H16.6227C16.6911 12.6765 16.7473 12.6544 16.7912 12.6103C16.8352 12.5662 16.8572 12.5098 16.8572 12.4412V6.02346L11.7348 9.73234C11.6098 9.82449 11.4759 9.87056 11.3333 9.87056C11.1907 9.87056 11.0569 9.82449 10.9318 9.73234ZM11.3333 8.62059L16.7839 4.69115C16.7692 4.67644 16.7534 4.66541 16.7363 4.65806C16.7192 4.6507 16.696 4.64703 16.6667 4.64703H5.99997C5.97555 4.64703 5.95113 4.65316 5.92671 4.66542C5.9023 4.67767 5.88276 4.69114 5.8681 4.70585L11.3333 8.62059ZM3.3773 16.5C2.99243 16.5 2.66667 16.3662 2.4 16.0985C2.13333 15.8309 2 15.5039 2 15.1177V7.27944C2 7.1167 2.0547 6.98043 2.16411 6.87063C2.27351 6.76083 2.40928 6.70593 2.57141 6.70593C2.73354 6.70593 2.86932 6.76083 2.97873 6.87063C3.08814 6.98043 3.14284 7.1167 3.14284 7.27944V15.1177C3.14284 15.1863 3.16482 15.2427 3.20878 15.2868C3.25275 15.3309 3.30892 15.353 3.3773 15.353H14.7179C14.8801 15.353 15.0159 15.4079 15.1253 15.5177C15.2347 15.6275 15.2894 15.7637 15.2894 15.9265C15.2894 16.0892 15.2347 16.2255 15.1253 16.3353C15.0159 16.4451 14.8801 16.5 14.7179 16.5H3.3773ZM16.8572 5.98817C16.8572 5.73917 16.8486 5.51932 16.8315 5.32863C16.8144 5.13795 16.7985 4.92546 16.7839 4.69115C16.7692 4.67644 16.7534 4.66541 16.7363 4.65806C16.7192 4.6507 16.696 4.64703 16.6667 4.64703H5.99997C5.97555 4.64703 5.95113 4.65316 5.92671 4.66542C5.9023 4.67767 5.88276 4.69114 5.8681 4.70585C5.85345 4.94016 5.84002 5.15143 5.8278 5.33966C5.8156 5.52789 5.80949 5.74407 5.80949 5.98817V4.64703H16.8572V5.98817Z" fill="black"/>
</svg>
