<svg width="12" height="20" viewBox="0 0 12 20" fill="none" xmlns="http://www.w3.org/2000/svg">
<path d="M11.0038 0.00328233H8.40375C7.75392 -0.0332889 7.10382 0.0699845 6.49731 0.306124C5.8908 0.542263 5.34199 0.905772 4.88797 1.37212C4.43395 1.83846 4.08527 2.39679 3.86545 3.00941C3.64563 3.62202 3.55978 4.27467 3.61374 4.92329V7.19328H1.00375C0.895015 7.19328 0.790727 7.23648 0.713837 7.31337C0.636947 7.39026 0.59375 7.49455 0.59375 7.60329V10.8833C0.59375 10.992 0.636947 11.0963 0.713837 11.1732C0.790727 11.2501 0.895015 11.2933 1.00375 11.2933H3.61374V19.5933C3.61371 19.7003 3.65555 19.8031 3.73029 19.8797C3.80503 19.9563 3.90677 20.0007 4.01376 20.0033H7.42377C7.53171 20.0007 7.6345 19.9567 7.71085 19.8804C7.78719 19.804 7.8312 19.7012 7.83374 19.5933V11.2933H10.8337C10.9425 11.2933 11.0468 11.2501 11.1237 11.1732C11.2005 11.0963 11.2437 10.992 11.2437 10.8833V7.60329C11.2455 7.54919 11.2358 7.49533 11.2151 7.44531C11.1944 7.3953 11.1633 7.35029 11.1237 7.31329C11.0879 7.27505 11.0445 7.24465 10.9963 7.224C10.9481 7.20335 10.8962 7.19289 10.8438 7.19328H7.79376V5.26328C7.79376 4.34328 8.01375 3.87329 9.21375 3.87329H11.0038C11.0571 3.8733 11.11 3.86264 11.1592 3.84191C11.2084 3.82119 11.2529 3.79082 11.2902 3.75261C11.3275 3.7144 11.3567 3.66912 11.3762 3.61943C11.3957 3.56974 11.4051 3.51665 11.4037 3.46328V0.463281C11.4051 0.409917 11.3957 0.356829 11.3762 0.307138C11.3567 0.257448 11.3275 0.212161 11.2902 0.173952C11.2529 0.135743 11.2084 0.105382 11.1592 0.0846575C11.11 0.0639331 11.0571 0.0532687 11.0038 0.0532854" fill="black"/>
</svg>
