<svg width="20" height="20" viewBox="0 0 20 20" fill="none" xmlns="http://www.w3.org/2000/svg">
<path d="M10 2.5C8.51665 2.5 7.0666 2.93987 5.83323 3.76398C4.59986 4.58809 3.63857 5.75943 3.07091 7.12988C2.50325 8.50032 2.35472 10.0083 2.64411 11.4632C2.9335 12.918 3.64781 14.2544 4.6967 15.3033C5.7456 16.3522 7.08198 17.0665 8.53684 17.3559C9.99169 17.6453 11.4997 17.4968 12.8701 16.9291C14.2406 16.3615 15.4119 15.4001 16.236 14.1668C17.0601 12.9334 17.5 11.4834 17.5 10C17.5 8.01088 16.7098 6.10321 15.3033 4.69669C13.8968 3.29017 11.9891 2.5 10 2.5ZM15.405 6.8647H13.3608C12.9113 5.81806 12.3189 4.83881 11.6004 3.9549C13.2042 4.3864 14.572 5.43512 15.405 6.87196V6.8647ZM12.8152 9.99272C12.8067 10.6294 12.7062 11.2616 12.517 11.8696H7.48304C7.08523 10.65 7.08523 9.3355 7.48304 8.11591H12.517C12.7079 8.72601 12.8083 9.36078 12.8152 10V9.99272ZM7.98498 13.1135H12.015C11.4839 14.1625 10.8053 15.1301 10 15.9869C9.19526 15.1324 8.51672 14.1672 7.98498 13.1207V13.1135ZM7.98498 6.8647C8.5162 5.81791 9.19479 4.8527 10 3.99854C10.8052 4.8527 11.4838 5.81791 12.015 6.8647H7.98498ZM8.37779 3.9549C7.65722 4.83869 7.06236 5.8179 6.6101 6.8647H4.63143C5.45625 5.44919 6.80005 4.41068 8.37779 3.96944V3.9549ZM4.0131 8.10863H6.15908C5.83071 9.3383 5.83071 10.6326 6.15908 11.8623H4.0131C3.64151 10.6445 3.65167 9.34224 4.0422 8.13045L4.0131 8.10863ZM4.56597 13.1062H6.58099C7.0314 14.154 7.62643 15.1334 8.3487 16.016C6.77894 15.5737 5.44467 14.5344 4.63143 13.1207L4.56597 13.1062ZM11.6004 16.016C12.3204 15.1332 12.913 14.1537 13.3608 13.1062H15.3759C14.9685 13.8154 14.4254 14.4374 13.7776 14.9367C13.1298 15.4359 12.39 15.8027 11.6004 16.016ZM15.9651 11.8696H13.7827C14.1111 10.6399 14.1111 9.34558 13.7827 8.11591H15.9287C16.3143 9.33741 16.3143 10.6481 15.9287 11.8696H15.9651Z" fill="black"/>
</svg>
