<svg width="19" height="22" viewBox="0 0 19 22" fill="none" xmlns="http://www.w3.org/2000/svg">
<path fill-rule="evenodd" clip-rule="evenodd" d="M9.18182 2C7.27708 2 5.45036 2.75665 4.10351 4.10351C2.75665 5.45036 2 7.27708 2 9.18182C2 11.9617 3.81119 14.6724 5.81686 16.7895C6.79925 17.8265 7.78503 18.6757 8.52634 19.266C8.77698 19.4656 8.99874 19.6348 9.18182 19.771C9.36489 19.6348 9.58666 19.4656 9.8373 19.266C10.5786 18.6757 11.5644 17.8265 12.5468 16.7895C14.5524 14.6724 16.3636 11.9617 16.3636 9.18182C16.3636 7.27708 15.607 5.45036 14.2601 4.10351C12.9133 2.75665 11.0866 2 9.18182 2ZM9.18182 21C8.62712 21.8321 8.62687 21.8319 8.62659 21.8317L8.62387 21.8299L8.61765 21.8257L8.59648 21.8114C8.57856 21.7992 8.55309 21.7818 8.52056 21.7593C8.45553 21.7142 8.36225 21.6487 8.24476 21.5639C8.00989 21.3942 7.67767 21.1469 7.28048 20.8306C6.4877 20.1993 5.42802 19.2871 4.36496 18.165C2.27972 15.9639 0 12.7656 0 9.18182C5.96046e-08 6.74665 0.967367 4.41122 2.68929 2.68929C4.41122 0.967367 6.74665 0 9.18182 0C11.617 0 13.9524 0.967367 15.6743 2.68929C17.3963 4.41122 18.3636 6.74665 18.3636 9.18182C18.3636 12.7656 16.0839 15.9639 13.9987 18.165C12.9356 19.2871 11.8759 20.1993 11.0832 20.8306C10.686 21.1469 10.3537 21.3942 10.1189 21.5639C10.0014 21.6487 9.90811 21.7142 9.84307 21.7593C9.81055 21.7818 9.78508 21.7992 9.76715 21.8114L9.74599 21.8257L9.73977 21.8299L9.73777 21.8312C9.73749 21.8314 9.73652 21.8321 9.18182 21ZM9.18182 21L9.73652 21.8321C9.40062 22.056 8.96249 22.0556 8.62659 21.8317L9.18182 21ZM9.18182 7.45455C8.22787 7.45455 7.45455 8.22787 7.45455 9.18182C7.45455 10.1358 8.22787 10.9091 9.18182 10.9091C10.1358 10.9091 10.9091 10.1358 10.9091 9.18182C10.9091 8.22787 10.1358 7.45455 9.18182 7.45455ZM5.45455 9.18182C5.45455 7.1233 7.1233 5.45455 9.18182 5.45455C11.2403 5.45455 12.9091 7.1233 12.9091 9.18182C12.9091 11.2403 11.2403 12.9091 9.18182 12.9091C7.1233 12.9091 5.45455 11.2403 5.45455 9.18182Z" fill="black"/>
</svg>
