<svg width="21" height="20" viewBox="0 0 21 20" fill="none" xmlns="http://www.w3.org/2000/svg">
<path fill-rule="evenodd" clip-rule="evenodd" d="M10.4818 0.0113996C13.0995 -0.0375595 15.6572 0.797406 17.7418 2.3814C19.3218 3.52126 20.4228 5.20662 20.8318 7.11141C21.0189 8.03589 21.0134 8.98903 20.8155 9.91127C20.6177 10.8335 20.2317 11.705 19.6818 12.4714C18.795 13.6898 17.7375 14.7742 16.5418 15.6914C14.6793 17.2202 12.6694 18.5601 10.5418 19.6914C10.3591 19.7876 10.1684 19.8679 9.97184 19.9314C9.60184 20.0414 9.35184 19.8014 9.44184 19.4214C9.53184 19.0414 9.66185 18.7914 9.73185 18.4214C9.80509 18.092 9.85521 17.7578 9.88184 17.4214C9.88184 17.0614 9.71183 16.8914 9.34183 16.8514C7.10411 16.6971 4.96152 15.8867 3.18184 14.5214C1.53787 13.321 0.425964 11.5277 0.0818366 9.5214C-0.0662623 8.56139 -0.0129335 7.58107 0.238422 6.64279C0.489778 5.70451 0.933665 4.82881 1.54184 4.0714C3.03955 2.15959 5.16464 0.838489 7.54184 0.341401C8.52316 0.100075 9.53141 -0.0141893 10.5418 0.00140513L10.4818 0.0113996ZM10.3718 8.0014L10.5118 8.1714L12.4218 10.7614C12.4863 10.8761 12.5873 10.966 12.7087 11.0167C12.8301 11.0674 12.9649 11.0761 13.0918 11.0414C13.2174 11.0006 13.325 10.9175 13.3961 10.8063C13.4673 10.695 13.4976 10.5625 13.4818 10.4314C13.4818 9.10141 13.4818 7.77141 13.4818 6.43141C13.4924 6.35364 13.4862 6.27452 13.4636 6.19935C13.4411 6.12418 13.4027 6.05471 13.3511 5.99561C13.2995 5.9365 13.2358 5.88913 13.1643 5.85667C13.0929 5.82421 13.0153 5.80741 12.9368 5.80741C12.8584 5.80741 12.7808 5.82421 12.7093 5.85667C12.6379 5.88913 12.5742 5.9365 12.5226 5.99561C12.471 6.05471 12.4326 6.12418 12.41 6.19935C12.3875 6.27452 12.3813 6.35364 12.3918 6.43141C12.3918 7.17141 12.3918 7.9014 12.3918 8.6414C12.3918 8.7014 12.3918 8.7614 12.3918 8.8814L12.2418 8.6914L10.2818 6.1714C10.0618 5.8714 9.86184 5.7914 9.60184 5.8714C9.34184 5.9514 9.21184 6.1514 9.21184 6.5314C9.21184 7.8214 9.21184 9.11141 9.21184 10.4014C9.21184 10.8114 9.42184 11.0614 9.76184 11.0614C10.1018 11.0614 10.3218 10.8214 10.3218 10.4214C10.3218 10.0214 10.3218 9.4214 10.3218 8.9114V8.0014H10.3718ZM15.2718 6.9414H16.7018C16.7773 6.94972 16.8536 6.94233 16.9261 6.91969C16.9985 6.89706 17.0655 6.85968 17.1228 6.80989C17.1801 6.76011 17.2265 6.69901 17.259 6.63043C17.2916 6.56185 17.3095 6.48727 17.3118 6.4114C17.3149 6.33271 17.3012 6.25426 17.2719 6.18118C17.2425 6.10811 17.1981 6.04204 17.1415 5.98731C17.0848 5.93257 17.0173 5.8904 16.9433 5.86353C16.8693 5.83667 16.7904 5.82572 16.7118 5.83141H14.7118C14.6306 5.8231 14.5484 5.83334 14.4717 5.86136C14.395 5.88938 14.3256 5.93445 14.2688 5.99318C14.212 6.05191 14.1692 6.12276 14.1438 6.2004C14.1183 6.27804 14.1108 6.36044 14.1218 6.4414C14.1218 7.7714 14.1218 9.1114 14.1218 10.4414C14.1098 10.5252 14.1176 10.6106 14.1447 10.6908C14.1717 10.7711 14.2173 10.8438 14.2776 10.9031C14.338 10.9625 14.4114 11.0069 14.4921 11.0326C14.5727 11.0584 14.6583 11.0648 14.7418 11.0514H16.7418C16.824 11.0713 16.9097 11.0713 16.9918 11.0514C17.111 11.0063 17.2099 10.9199 17.2705 10.8079C17.3311 10.6959 17.3493 10.5658 17.3218 10.4414C17.2937 10.3127 17.2212 10.1981 17.1169 10.1176C17.0127 10.0372 16.8834 9.99602 16.7518 10.0014C16.2618 10.0014 15.7518 10.0014 15.2718 10.0014V9.0014H16.7318C16.8082 9.00699 16.8849 8.99657 16.957 8.9708C17.0291 8.94504 17.0951 8.9045 17.1506 8.85178C17.2061 8.79907 17.2501 8.73534 17.2795 8.66467C17.309 8.59401 17.3234 8.51796 17.3218 8.4414C17.3219 8.36746 17.307 8.29427 17.2781 8.2262C17.2493 8.15814 17.2069 8.09659 17.1537 8.04525C17.1005 7.99391 17.0375 7.95382 16.9685 7.92738C16.8994 7.90095 16.8257 7.88872 16.7518 7.8914H15.2818L15.2718 6.9414ZM4.79184 9.9414V9.6314C4.79184 8.5714 4.79184 7.5214 4.79184 6.4614C4.79184 6.0714 4.57184 5.8214 4.24184 5.8214C4.16335 5.82372 4.0862 5.84223 4.0152 5.87576C3.9442 5.9093 3.8809 5.95714 3.82926 6.01629C3.77762 6.07544 3.73875 6.14462 3.71511 6.2195C3.69146 6.29437 3.68354 6.37332 3.69184 6.4514C3.69184 7.7814 3.69184 9.1014 3.69184 10.4514C3.68192 10.5348 3.69122 10.6193 3.71903 10.6985C3.74683 10.7778 3.7924 10.8496 3.85225 10.9084C3.9121 10.9673 3.98464 11.0117 4.0643 11.0382C4.14397 11.0648 4.22863 11.0727 4.31183 11.0614H6.24184C6.33748 11.0814 6.4362 11.0814 6.53183 11.0614C6.64467 11.0138 6.73841 10.93 6.79819 10.8231C6.85797 10.7162 6.88036 10.5925 6.86184 10.4714C6.8343 10.3435 6.76362 10.229 6.66166 10.1471C6.55969 10.0651 6.43264 10.0208 6.30184 10.0214H4.80184L4.79184 9.9414ZM8.45183 8.4914C8.45183 7.8414 8.45183 7.1914 8.45183 6.4914C8.4521 6.34291 8.41052 6.19734 8.33184 6.0714C8.26838 5.97634 8.17247 5.90766 8.06203 5.87821C7.95159 5.84876 7.83421 5.86056 7.73185 5.9114C7.61449 5.95742 7.51608 6.0417 7.45256 6.15058C7.38905 6.25947 7.36413 6.38659 7.38184 6.5114C7.38184 7.8214 7.38184 9.12141 7.38184 10.4314C7.38184 10.8314 7.60184 11.0814 7.94184 11.0714C8.28184 11.0614 8.48185 10.8314 8.48185 10.4514C8.48185 9.7814 8.48185 9.1214 8.48185 8.4514" fill="#333333"/>
</svg>
