<svg xmlns="http://www.w3.org/2000/svg" viewBox="0 0 19.95 20"><g id="圖層_2" data-name="圖層 2"><g id="圖層_1-2" data-name="圖層 1"><path d="M19.5.41a1.4,1.4,0,0,0-1-.41h-17A1.54,1.54,0,0,0,.91.1,1.6,1.6,0,0,0,.44.41,1.27,1.27,0,0,0,.12.88,1.3,1.3,0,0,0,0,1.43V18.56A1.47,1.47,0,0,0,1.47,20h17A1.47,1.47,0,0,0,20,18.56V1.43A1.46,1.46,0,0,0,19.5.41ZM6,16.74H3v-9H6ZM6.14,5.57a1.61,1.61,0,0,1-1,.86,1.59,1.59,0,0,1-.65.06l-.06,0a1.5,1.5,0,0,1-.63-.08,1.62,1.62,0,0,1-.55-.33,1.56,1.56,0,0,1-.35-1.78,1.43,1.43,0,0,1,.39-.52,1.49,1.49,0,0,1,.56-.32,1.52,1.52,0,0,1,.64-.07,1.78,1.78,0,0,1,.65.06,1.61,1.61,0,0,1,1,.86,1.53,1.53,0,0,1,0,1.28ZM16.89,16.82l0-.08h-3V11.91c0-1.22-.44-2-1.53-2a1.63,1.63,0,0,0-.95.31,1.57,1.57,0,0,0-.6.79,2,2,0,0,0-.1.73v5h-3v-9h3V9.07a3,3,0,0,1,2.72-1.5c2,0,3.48,1.29,3.48,4.07Z"/></g></g></svg>