<svg width="20" height="20" viewBox="0 0 20 20" fill="none" xmlns="http://www.w3.org/2000/svg">
<path d="M12.1554 7.7982C11.9168 7.56222 11.6536 7.35238 11.3705 7.17222C10.4729 6.60045 9.40755 6.35096 8.34943 6.46472C7.29131 6.57848 6.30335 7.04871 5.54782 7.7982L1.34477 12.0509C0.699185 12.7056 0.261228 13.5363 0.0857963 14.4389C-0.0896359 15.3415 0.0052626 16.2757 0.358598 17.1246C0.711934 17.9734 1.30798 18.6991 2.07202 19.2106C2.83606 19.7221 3.7341 19.9967 4.65355 20C5.26612 20.0026 5.87312 19.8836 6.43938 19.6499C7.00565 19.4162 7.51991 19.0725 7.95239 18.6387L11.4599 15.1312C11.5086 15.0853 11.5421 15.0257 11.5559 14.9603C11.5698 14.8949 11.5633 14.8268 11.5374 14.7652C11.5114 14.7036 11.4672 14.6513 11.4108 14.6155C11.3543 14.5797 11.2882 14.562 11.2214 14.5648H11.0823C10.35 14.5646 9.62459 14.4229 8.94602 14.1475C8.88526 14.1236 8.81875 14.1184 8.75502 14.1326C8.6913 14.1468 8.63325 14.1796 8.58832 14.227L6.01482 16.7707C5.82887 16.9566 5.60813 17.1041 5.36519 17.2047C5.12224 17.3054 4.86186 17.3572 4.5989 17.3572C4.33594 17.3572 4.07555 17.3054 3.8326 17.2047C3.58966 17.1041 3.36892 16.9566 3.18298 16.7707C2.99704 16.5847 2.84954 16.364 2.74891 16.121C2.64828 15.8781 2.59648 15.6177 2.59648 15.3547C2.59648 15.0918 2.64828 14.8314 2.74891 14.5885C2.84954 14.3455 2.99704 14.1248 3.18298 13.9388L7.44564 9.67616C7.63055 9.48839 7.85097 9.33928 8.09405 9.2375C8.33713 9.13572 8.59803 9.08331 8.86156 9.08331C9.1251 9.08331 9.38599 9.13572 9.62907 9.2375C9.87216 9.33928 10.0926 9.48839 10.2775 9.67616C10.5318 9.91509 10.8675 10.0481 11.2165 10.0481C11.5654 10.0481 11.9012 9.91509 12.1554 9.67616C12.3767 9.44782 12.5105 9.14876 12.533 8.83157C12.5474 8.64237 12.5211 8.45229 12.456 8.27407C12.3908 8.09585 12.2884 7.9336 12.1554 7.7982Z" fill="#040000"/>
<path d="M18.5842 1.36941C18.1505 0.935284 17.6355 0.590883 17.0686 0.35591C16.5017 0.120937 15.894 0 15.2804 0C14.6667 0 14.0591 0.120937 13.4922 0.35591C12.9253 0.590883 12.4103 0.935284 11.9766 1.36941L8.479 4.85704C8.43128 4.90488 8.39901 4.96593 8.38634 5.0323C8.37367 5.09867 8.38119 5.16732 8.40793 5.22937C8.43468 5.29142 8.47942 5.34402 8.53637 5.38038C8.59332 5.41675 8.65987 5.4352 8.72741 5.43335H8.84665C9.57918 5.4315 10.305 5.57328 10.9829 5.85067C11.0437 5.87453 11.1102 5.87972 11.1739 5.86556C11.2377 5.8514 11.2957 5.81854 11.3406 5.77119L13.8545 3.26724C14.2301 2.89172 14.7394 2.68075 15.2704 2.68075C15.8015 2.68075 16.3108 2.89172 16.6864 3.26724C17.0619 3.64277 17.2729 4.15209 17.2729 4.68316C17.2729 5.21424 17.0619 5.72355 16.6864 6.09908L13.5564 9.22901L12.4535 10.3121C12.2688 10.4983 12.049 10.6462 11.8068 10.7471C11.5646 10.8479 11.3049 10.8999 11.0426 10.8999C10.7802 10.8999 10.5205 10.8479 10.2783 10.7471C10.0361 10.6462 9.81635 10.4983 9.63161 10.3121C9.37734 10.0731 9.04155 9.94012 8.69263 9.94012C8.34371 9.94012 8.00792 10.0731 7.75365 10.3121C7.62928 10.4358 7.53058 10.5829 7.46323 10.7449C7.39588 10.9069 7.36121 11.0806 7.36121 11.256C7.36121 11.4314 7.39588 11.6051 7.46323 11.7671C7.53058 11.9291 7.62928 12.0762 7.75365 12.2C8.14123 12.5846 8.59149 12.9005 9.08512 13.134L9.29378 13.2234L9.51238 13.3029L9.72104 13.3724H9.91976L10.2874 13.5612C10.4528 13.5716 10.6188 13.5716 10.7842 13.5612H12.1554C12.9744 13.3511 13.7223 12.9257 14.3215 12.3291L18.5643 8.0764C19.0173 7.6438 19.3783 7.12414 19.6255 6.5486C19.8727 5.97307 20.0011 5.35352 20.0029 4.72714C20.0048 4.10076 19.8801 3.48046 19.6363 2.90347C19.3925 2.32648 19.0346 1.80469 18.5842 1.36941Z" fill="#040000"/>
</svg>
