<svg width="20" height="20" viewBox="0 0 20 20" fill="none" xmlns="http://www.w3.org/2000/svg">
<path fill-rule="evenodd" clip-rule="evenodd" d="M10.0001 3.25C8.57158 3.25 7.20154 3.81749 6.1914 4.82763C5.18126 5.83777 4.61377 7.20781 4.61377 8.63636C4.61377 10.7213 5.97216 12.7543 7.47642 14.3421C8.21321 15.1199 8.95254 15.7568 9.50852 16.1995C9.6965 16.3492 9.86282 16.4761 10.0001 16.5782C10.1374 16.4761 10.3038 16.3492 10.4917 16.1995C11.0477 15.7568 11.7871 15.1199 12.5239 14.3421C14.0281 12.7543 15.3865 10.7213 15.3865 8.63636C15.3865 7.20781 14.819 5.83777 13.8089 4.82763C12.7987 3.81749 11.4287 3.25 10.0001 3.25ZM10.0001 17.5C9.58411 18.124 9.58392 18.1239 9.58371 18.1238L9.58167 18.1224L9.577 18.1193L9.56113 18.1085C9.54769 18.0994 9.52858 18.0863 9.50419 18.0695C9.45542 18.0357 9.38546 17.9865 9.29734 17.9229C9.12119 17.7957 8.87202 17.6101 8.57413 17.3729C7.97954 16.8995 7.18479 16.2154 6.38749 15.3738C4.82356 13.7229 3.11377 11.3242 3.11377 8.63636C3.11377 6.80999 3.8393 5.05841 5.13074 3.76697C6.42218 2.47553 8.17376 1.75 10.0001 1.75C11.8265 1.75 13.5781 2.47553 14.8695 3.76697C16.161 5.05841 16.8865 6.80999 16.8865 8.63636C16.8865 11.3242 15.1767 13.7229 13.6128 15.3738C12.8155 16.2154 12.0207 16.8995 11.4261 17.3729C11.1282 17.6101 10.8791 17.7957 10.7029 17.9229C10.6148 17.9865 10.5448 18.0357 10.4961 18.0695C10.4717 18.0863 10.4526 18.0994 10.4391 18.1085L10.4233 18.1193L10.4186 18.1224L10.4171 18.1234C10.4169 18.1236 10.4162 18.124 10.0001 17.5ZM10.0001 17.5L10.4162 18.124C10.1642 18.292 9.83563 18.2917 9.58371 18.1238L10.0001 17.5ZM10.0001 7.34091C9.28467 7.34091 8.70468 7.9209 8.70468 8.63636C8.70468 9.35182 9.28467 9.93182 10.0001 9.93182C10.7156 9.93182 11.2956 9.35182 11.2956 8.63636C11.2956 7.9209 10.7156 7.34091 10.0001 7.34091ZM7.20468 8.63636C7.20468 7.09248 8.45625 5.84091 10.0001 5.84091C11.544 5.84091 12.7956 7.09248 12.7956 8.63636C12.7956 10.1803 11.544 11.4318 10.0001 11.4318C8.45625 11.4318 7.20468 10.1803 7.20468 8.63636Z" fill="black"/>
</svg>
