<svg width="20" height="23" viewBox="0 0 20 23" fill="none" xmlns="http://www.w3.org/2000/svg">
<path fill-rule="evenodd" clip-rule="evenodd" d="M9.99822 2.5C8.09349 2.5 6.26676 3.25665 4.91991 4.60351C3.57306 5.95036 2.81641 7.77708 2.81641 9.68182C2.81641 12.4617 4.6276 15.1724 6.63327 17.2895C7.61565 18.3265 8.60144 19.1757 9.34274 19.766C9.59338 19.9656 9.81515 20.1348 9.99822 20.271C10.1813 20.1348 10.4031 19.9656 10.6537 19.766C11.395 19.1757 12.3808 18.3265 13.3632 17.2895C15.3688 15.1724 17.18 12.4617 17.18 9.68182C17.18 7.77708 16.4234 5.95036 15.0765 4.60351C13.7297 3.25665 11.903 2.5 9.99822 2.5ZM9.99822 21.5C9.44352 22.3321 9.44327 22.3319 9.44299 22.3317L9.44027 22.3299L9.43405 22.3257L9.41289 22.3114C9.39497 22.2992 9.36949 22.2818 9.33697 22.2593C9.27193 22.2142 9.17866 22.1487 9.06117 22.0639C8.8263 21.8942 8.49407 21.6469 8.09689 21.3306C7.3041 20.6993 6.24443 19.7871 5.18136 18.665C3.09612 16.4639 0.816406 13.2656 0.816406 9.68182C0.816406 7.24665 1.78377 4.91122 3.5057 3.18929C5.22762 1.46737 7.56305 0.5 9.99822 0.5C12.4334 0.5 14.7688 1.46737 16.4907 3.18929C18.2127 4.91122 19.18 7.24665 19.18 9.68182C19.18 13.2656 16.9003 16.4639 14.8151 18.665C13.752 19.7871 12.6923 20.6993 11.8996 21.3306C11.5024 21.6469 11.1701 21.8942 10.9353 22.0639C10.8178 22.1487 10.7245 22.2142 10.6595 22.2593C10.627 22.2818 10.6015 22.2992 10.5836 22.3114L10.5624 22.3257L10.5562 22.3299L10.5542 22.3312C10.5539 22.3314 10.5529 22.3321 9.99822 21.5ZM9.99822 21.5L10.5529 22.3321C10.217 22.556 9.77889 22.5556 9.44299 22.3317L9.99822 21.5ZM9.99822 7.95455C9.04428 7.95455 8.27095 8.72787 8.27095 9.68182C8.27095 10.6358 9.04428 11.4091 9.99822 11.4091C10.9522 11.4091 11.7255 10.6358 11.7255 9.68182C11.7255 8.72787 10.9522 7.95455 9.99822 7.95455ZM6.27095 9.68182C6.27095 7.6233 7.93971 5.95455 9.99822 5.95455C12.0567 5.95455 13.7255 7.6233 13.7255 9.68182C13.7255 11.7403 12.0567 13.4091 9.99822 13.4091C7.93971 13.4091 6.27095 11.7403 6.27095 9.68182Z" fill="black"/>
</svg>
