<svg width="20" height="20" viewBox="0 0 20 20" fill="none" xmlns="http://www.w3.org/2000/svg">
<mask id="mask0_944_1284" style="mask-type:alpha" maskUnits="userSpaceOnUse" x="0" y="0" width="20" height="20">
<rect width="20" height="20" fill="#D9D9D9"/>
</mask>
<g mask="url(#mask0_944_1284)">
<path d="M4.16667 6.66663H15.8333V4.99996H4.16667V6.66663ZM4.16667 18.3333C3.70833 18.3333 3.31597 18.1701 2.98958 17.8437C2.66319 17.5173 2.5 17.125 2.5 16.6666V4.99996C2.5 4.54163 2.66319 4.14926 2.98958 3.82288C3.31597 3.49649 3.70833 3.33329 4.16667 3.33329H5V1.66663H6.66667V3.33329H13.3333V1.66663H15V3.33329H15.8333C16.2917 3.33329 16.684 3.49649 17.0104 3.82288C17.3368 4.14926 17.5 4.54163 17.5 4.99996V9.72913C17.2361 9.60413 16.9653 9.49996 16.6875 9.41663C16.4097 9.33329 16.125 9.27079 15.8333 9.22913V8.33329H4.16667V16.6666H9.41667C9.51389 16.9722 9.62847 17.2638 9.76042 17.5416C9.89236 17.8194 10.0486 18.0833 10.2292 18.3333H4.16667ZM15 19.1666C13.8472 19.1666 12.8646 18.7604 12.0521 17.9479C11.2396 17.1354 10.8333 16.1527 10.8333 15C10.8333 13.8472 11.2396 12.8645 12.0521 12.052C12.8646 11.2395 13.8472 10.8333 15 10.8333C16.1528 10.8333 17.1354 11.2395 17.9479 12.052C18.7604 12.8645 19.1667 13.8472 19.1667 15C19.1667 16.1527 18.7604 17.1354 17.9479 17.9479C17.1354 18.7604 16.1528 19.1666 15 19.1666ZM16.3958 16.9791L16.9792 16.3958L15.4167 14.8333V12.5H14.5833V15.1666L16.3958 16.9791Z" fill="black"/>
</g>
</svg>
