<svg width="20" height="20" viewBox="0 0 20 20" fill="none" xmlns="http://www.w3.org/2000/svg">
<mask id="mask0_944_1286" style="mask-type:alpha" maskUnits="userSpaceOnUse" x="0" y="0" width="20" height="20">
<rect width="20" height="20" fill="#D9D9D9"/>
</mask>
<g mask="url(#mask0_944_1286)">
<path d="M12.5002 16.6667C10.6391 16.6667 9.06266 16.0209 7.771 14.7292C6.47933 13.4375 5.8335 11.8612 5.8335 10C5.8335 8.15282 6.47933 6.5799 7.771 5.28129C9.06266 3.98268 10.6391 3.33337 12.5002 3.33337C14.3474 3.33337 15.9203 3.98268 17.2189 5.28129C18.5175 6.5799 19.1668 8.15282 19.1668 10C19.1668 11.8612 18.5175 13.4375 17.2189 14.7292C15.9203 16.0209 14.3474 16.6667 12.5002 16.6667ZM12.5002 15C13.8891 15 15.0696 14.5139 16.0418 13.5417C17.0141 12.5695 17.5002 11.3889 17.5002 10C17.5002 8.61115 17.0141 7.4306 16.0418 6.45837C15.0696 5.48615 13.8891 5.00004 12.5002 5.00004C11.1113 5.00004 9.93072 5.48615 8.9585 6.45837C7.98627 7.4306 7.50016 8.61115 7.50016 10C7.50016 11.3889 7.98627 12.5695 8.9585 13.5417C9.93072 14.5139 11.1113 15 12.5002 15ZM14.396 13.1042L15.5835 11.9167L13.3335 9.66671V6.66671H11.6668V10.3542L14.396 13.1042ZM1.66683 7.50004V5.83337H5.00016V7.50004H1.66683ZM0.833496 10.8334V9.16671H5.00016V10.8334H0.833496ZM1.66683 14.1667V12.5H5.00016V14.1667H1.66683Z" fill="black"/>
</g>
</svg>
