<?xml version="1.0" encoding="utf-8"?>
<!-- Generator: Adobe Illustrator 28.1.0, SVG Export Plug-In . SVG Version: 6.00 Build 0)  -->
<svg version="1.1" id="圖層_1" xmlns="http://www.w3.org/2000/svg" xmlns:xlink="http://www.w3.org/1999/xlink" x="0px" y="0px"
	 viewBox="0 0 22 23" style="enable-background:new 0 0 22 23;" xml:space="preserve">
<path d="M19,22.5c-0.1,0-0.2,0-0.3,0c-3.2-0.4-6.4-1.5-9.1-3.2c-2.5-1.6-4.7-3.8-6.3-6.3C1.5,10.2,0.4,7,0,3.8c0-0.4,0-0.8,0.1-1.2
	c0.1-0.4,0.3-0.8,0.6-1.1c0.3-0.3,0.6-0.6,1-0.7C2.2,0.6,2.6,0.5,3,0.5h3c0.7,0,1.4,0.3,2,0.7c0.6,0.5,0.9,1.1,1,1.9
	C9.1,4,9.4,4.9,9.7,5.7c0.2,0.5,0.2,1.1,0.1,1.7C9.7,7.9,9.4,8.5,9,8.9L8.3,9.6c1.2,1.9,2.8,3.4,4.6,4.6l0.7-0.7
	c0.4-0.4,0.9-0.7,1.5-0.8c0.6-0.1,1.1-0.1,1.7,0.1c0.8,0.3,1.7,0.5,2.6,0.6c0.7,0.1,1.4,0.5,1.9,1c0.5,0.6,0.7,1.3,0.7,2v3
	c0,0.4-0.1,0.8-0.3,1.2c-0.2,0.4-0.4,0.7-0.7,1c-0.3,0.3-0.7,0.5-1.1,0.6C19.6,22.4,19.3,22.5,19,22.5z M6,2.5C6,2.5,6,2.5,6,2.5H3
	c-0.1,0-0.3,0-0.4,0.1C2.5,2.6,2.4,2.7,2.3,2.8C2.2,2.9,2.1,3.1,2.1,3.2C2,3.3,2,3.5,2,3.6c0.3,2.9,1.3,5.8,2.9,8.2
	c1.5,2.3,3.4,4.3,5.7,5.7c2.5,1.6,5.3,2.6,8.3,2.9c0.1,0,0.3,0,0.4-0.1c0.1,0,0.3-0.1,0.4-0.2s0.2-0.2,0.2-0.3
	c0.1-0.1,0.1-0.3,0.1-0.4v-3c0,0,0,0,0,0c0-0.2-0.1-0.5-0.2-0.7c-0.2-0.2-0.4-0.3-0.6-0.3c-1-0.1-2.1-0.4-3-0.8
	c-0.2-0.1-0.4-0.1-0.6,0c-0.2,0-0.4,0.1-0.5,0.3l-1.3,1.3c-0.3,0.3-0.8,0.4-1.2,0.2c-2.7-1.5-4.9-3.7-6.4-6.4C5.9,9.5,6,9,6.3,8.7
	l1.3-1.3C7.7,7.3,7.8,7.2,7.8,7c0-0.2,0-0.4,0-0.6c-0.4-1-0.6-2-0.8-3c0-0.2-0.2-0.5-0.3-0.6C6.5,2.6,6.3,2.5,6,2.5z"/>
</svg>
