<svg width="20" height="20" viewBox="0 0 20 20" fill="none" xmlns="http://www.w3.org/2000/svg">
<mask id="mask0_944_1283" style="mask-type:alpha" maskUnits="userSpaceOnUse" x="0" y="0" width="20" height="20">
<rect width="20" height="20" fill="#D9D9D9"/>
</mask>
<g mask="url(#mask0_944_1283)">
<path d="M7.91667 13.0416H12.0833V11.7916H9.75L12.0833 9.16659V8.04159H7.91667V9.29159H10.2917L7.91667 11.9583V13.0416ZM10 18.3333C8.95833 18.3333 7.98264 18.1353 7.07292 17.7395C6.1632 17.3437 5.37153 16.8089 4.69792 16.1353C4.02431 15.4617 3.48958 14.6701 3.09375 13.7603C2.69792 12.8506 2.5 11.8749 2.5 10.8333C2.5 9.79159 2.69792 8.81589 3.09375 7.90617C3.48958 6.99645 4.02431 6.20478 4.69792 5.53117C5.37153 4.85756 6.1632 4.32284 7.07292 3.927C7.98264 3.53117 8.95833 3.33325 10 3.33325C11.0417 3.33325 12.0174 3.53117 12.9271 3.927C13.8368 4.32284 14.6285 4.85756 15.3021 5.53117C15.9757 6.20478 16.5104 6.99645 16.9063 7.90617C17.3021 8.81589 17.5 9.79159 17.5 10.8333C17.5 11.8749 17.3021 12.8506 16.9063 13.7603C16.5104 14.6701 15.9757 15.4617 15.3021 16.1353C14.6285 16.8089 13.8368 17.3437 12.9271 17.7395C12.0174 18.1353 11.0417 18.3333 10 18.3333ZM4.66667 1.95825L5.83333 3.12492L2.29167 6.66659L1.125 5.49992L4.66667 1.95825ZM15.3333 1.95825L18.875 5.49992L17.7083 6.66659L14.1667 3.12492L15.3333 1.95825ZM10 16.6666C11.625 16.6666 13.0035 16.1006 14.1354 14.9687C15.2674 13.8367 15.8333 12.4583 15.8333 10.8333C15.8333 9.20825 15.2674 7.82978 14.1354 6.69784C13.0035 5.56589 11.625 4.99992 10 4.99992C8.375 4.99992 6.99653 5.56589 5.86458 6.69784C4.73264 7.82978 4.16667 9.20825 4.16667 10.8333C4.16667 12.4583 4.73264 13.8367 5.86458 14.9687C6.99653 16.1006 8.375 16.6666 10 16.6666Z" fill="black"/>
</g>
</svg>
