<svg width="21" height="21" viewBox="0 0 21 21" fill="none" xmlns="http://www.w3.org/2000/svg">
<path fill-rule="evenodd" clip-rule="evenodd" d="M10.5 2C5.80558 2 2 5.80558 2 10.5C2 15.1944 5.80558 19 10.5 19C15.1944 19 19 15.1944 19 10.5C19 5.80558 15.1944 2 10.5 2ZM0 10.5C0 4.70101 4.70101 0 10.5 0C16.299 0 21 4.70101 21 10.5C21 16.299 16.299 21 10.5 21C4.70101 21 0 16.299 0 10.5ZM10.5 3.8C11.0523 3.8 11.5 4.24772 11.5 4.8V9.88197L14.7472 11.5056C15.2412 11.7526 15.4414 12.3532 15.1944 12.8472C14.9474 13.3412 14.3468 13.5414 13.8528 13.2944L10.0528 11.3944C9.714 11.225 9.5 10.8788 9.5 10.5V4.8C9.5 4.24772 9.94771 3.8 10.5 3.8Z" fill="black"/>
</svg>
