<svg width="20" height="20" viewBox="0 0 20 20" fill="none" xmlns="http://www.w3.org/2000/svg">
<path d="M4.16697 15.0352C4.91697 14.2991 5.7885 13.7192 6.78155 13.2956C7.77461 12.872 8.84753 12.6602 10.0003 12.6602C11.1531 12.6602 12.226 12.872 13.2191 13.2956C14.2121 13.7192 15.0836 14.2991 15.8336 15.0352V4.42304C15.8336 4.35893 15.8069 4.30016 15.7535 4.24673C15.7001 4.19331 15.6413 4.16661 15.5772 4.16661H4.42341C4.3593 4.16661 4.30053 4.19331 4.2471 4.24673C4.19368 4.30016 4.16697 4.35893 4.16697 4.42304V15.0352ZM10.0003 10.8653C10.7524 10.8653 11.3919 10.602 11.9186 10.0753C12.4453 9.54856 12.7086 8.90914 12.7086 8.157C12.7086 7.40488 12.4453 6.76546 11.9186 6.23875C11.3919 5.71204 10.7524 5.44869 10.0003 5.44869C9.24817 5.44869 8.60875 5.71204 8.08206 6.23875C7.55535 6.76546 7.29199 7.40488 7.29199 8.157C7.29199 8.90914 7.55535 9.54856 8.08206 10.0753C8.60875 10.602 9.24817 10.8653 10.0003 10.8653ZM4.42341 17.0833C4.00246 17.0833 3.64616 16.9374 3.35449 16.6458C3.06283 16.3541 2.91699 15.9978 2.91699 15.5768V4.42304C2.91699 4.0021 3.06283 3.64579 3.35449 3.35413C3.64616 3.06246 4.00246 2.91663 4.42341 2.91663H15.5772C15.9981 2.91663 16.3545 3.06246 16.6461 3.35413C16.9378 3.64579 17.0836 4.0021 17.0836 4.42304V15.5768C17.0836 15.9978 16.9378 16.3541 16.6461 16.6458C16.3545 16.9374 15.9981 17.0833 15.5772 17.0833H4.42341ZM5.36887 15.8333H14.6317V15.657C13.9736 15.0694 13.2517 14.6313 12.4659 14.3429C11.6801 14.0544 10.8582 13.9102 10.0003 13.9102C9.15308 13.9102 8.33524 14.0531 7.54676 14.3389C6.75829 14.6247 6.03233 15.0587 5.36887 15.641V15.8333ZM10.0003 9.61536C9.59967 9.61536 9.25644 9.47246 8.97064 9.18667C8.68485 8.90088 8.54195 8.55765 8.54195 8.157C8.54195 7.75636 8.68485 7.41315 8.97064 7.12736C9.25644 6.84156 9.59967 6.69867 10.0003 6.69867C10.4009 6.69867 10.7442 6.84156 11.03 7.12736C11.3158 7.41315 11.4587 7.75636 11.4587 8.157C11.4587 8.55765 11.3158 8.90088 11.03 9.18667C10.7442 9.47246 10.4009 9.61536 10.0003 9.61536Z" fill="black"/>
</svg>
