<svg width="20" height="20" viewBox="0 0 20 20" fill="none" xmlns="http://www.w3.org/2000/svg">
<mask id="mask0_944_1287" style="mask-type:alpha" maskUnits="userSpaceOnUse" x="0" y="0" width="20" height="20">
<rect width="20" height="20" fill="#D9D9D9"/>
</mask>
<g mask="url(#mask0_944_1287)">
<path d="M4.99984 13.3334H11.6665V10.6667L14.9998 13.3334V6.66671L11.6665 9.33337V6.66671H4.99984V13.3334ZM3.33317 16.6667C2.87484 16.6667 2.48248 16.5035 2.15609 16.1771C1.8297 15.8507 1.6665 15.4584 1.6665 15V5.00004C1.6665 4.54171 1.8297 4.14935 2.15609 3.82296C2.48248 3.49657 2.87484 3.33337 3.33317 3.33337H16.6665C17.1248 3.33337 17.5172 3.49657 17.8436 3.82296C18.17 4.14935 18.3332 4.54171 18.3332 5.00004V15C18.3332 15.4584 18.17 15.8507 17.8436 16.1771C17.5172 16.5035 17.1248 16.6667 16.6665 16.6667H3.33317ZM3.33317 15H16.6665V5.00004H3.33317V15Z" fill="black"/>
</g>
</svg>
