<svg width="21" height="20" viewBox="0 0 21 20" fill="none" xmlns="http://www.w3.org/2000/svg">
<path fill-rule="evenodd" clip-rule="evenodd" d="M10.5 1.75C5.94365 1.75 2.25 5.44365 2.25 10C2.25 14.5563 5.94365 18.25 10.5 18.25C15.0563 18.25 18.75 14.5563 18.75 10C18.75 5.44365 15.0563 1.75 10.5 1.75ZM0.75 10C0.75 4.61522 5.11522 0.25 10.5 0.25C15.8848 0.25 20.25 4.61522 20.25 10C20.25 15.3848 15.8848 19.75 10.5 19.75C5.11522 19.75 0.75 15.3848 0.75 10ZM10.5 5.65C10.9142 5.65 11.25 5.98579 11.25 6.4V10C11.25 10.4142 10.9142 10.75 10.5 10.75C10.0858 10.75 9.75 10.4142 9.75 10V6.4C9.75 5.98579 10.0858 5.65 10.5 5.65ZM9.75 13.6C9.75 13.1858 10.0858 12.85 10.5 12.85H10.509C10.9232 12.85 11.259 13.1858 11.259 13.6C11.259 14.0142 10.9232 14.35 10.509 14.35H10.5C10.0858 14.35 9.75 14.0142 9.75 13.6Z" fill="black"/>
</svg>
