<svg width="20" height="21" viewBox="0 0 20 21" fill="none" xmlns="http://www.w3.org/2000/svg">
<mask id="mask0_943_1214" style="mask-type:alpha" maskUnits="userSpaceOnUse" x="0" y="0" width="20" height="21">
<rect y="0.5" width="20" height="20" fill="#D9D9D9"/>
</mask>
<g mask="url(#mask0_943_1214)">
<path d="M8.55 16.1625C8.325 15.75 8.12813 15.3219 7.95938 14.8781C7.79063 14.4344 7.65 13.975 7.5375 13.5H5.325C5.6875 14.125 6.14062 14.6688 6.68437 15.1313C7.22813 15.5938 7.85 15.9375 8.55 16.1625ZM4.6875 12H7.2375C7.2 11.75 7.17188 11.5031 7.15312 11.2594C7.13438 11.0156 7.125 10.7625 7.125 10.5C7.125 10.2375 7.13438 9.98438 7.15312 9.74063C7.17188 9.49688 7.2 9.25 7.2375 9H4.6875C4.625 9.25 4.57812 9.49688 4.54688 9.74063C4.51562 9.98438 4.5 10.2375 4.5 10.5C4.5 10.7625 4.51562 11.0156 4.54688 11.2594C4.57812 11.5031 4.625 11.75 4.6875 12ZM5.325 7.5H7.5375C7.65 7.025 7.79063 6.56562 7.95938 6.12187C8.12813 5.67812 8.325 5.25 8.55 4.8375C7.85 5.0625 7.22813 5.40625 6.68437 5.86875C6.14062 6.33125 5.6875 6.875 5.325 7.5ZM9.075 7.5H11.925C11.775 6.95 11.5813 6.43125 11.3438 5.94375C11.1062 5.45625 10.825 4.9875 10.5 4.5375C10.175 4.9875 9.89375 5.45625 9.65625 5.94375C9.41875 6.43125 9.225 6.95 9.075 7.5ZM13.4625 7.5H15.675C15.3125 6.875 14.8594 6.33125 14.3156 5.86875C13.7719 5.40625 13.15 5.0625 12.45 4.8375C12.675 5.25 12.8719 5.67812 13.0406 6.12187C13.2094 6.56562 13.35 7.025 13.4625 7.5ZM10.5 18C9.475 18 8.50625 17.8031 7.59375 17.4094C6.68125 17.0156 5.88438 16.4781 5.20312 15.7969C4.52188 15.1156 3.98438 14.3188 3.59063 13.4062C3.19687 12.4937 3 11.525 3 10.5C3 9.4625 3.19687 8.49063 3.59063 7.58438C3.98438 6.67813 4.52188 5.88438 5.20312 5.20312C5.88438 4.52188 6.68125 3.98438 7.59375 3.59063C8.50625 3.19687 9.475 3 10.5 3C11.5375 3 12.5094 3.19687 13.4156 3.59063C14.3219 3.98438 15.1156 4.52188 15.7969 5.20312C16.4781 5.88438 17.0156 6.67813 17.4094 7.58438C17.8031 8.49063 18 9.4625 18 10.5C18 10.625 17.9969 10.75 17.9906 10.875C17.9844 11 17.975 11.125 17.9625 11.25H16.4438C16.4688 11.125 16.4844 11.0031 16.4906 10.8844C16.4969 10.7656 16.5 10.6375 16.5 10.5C16.5 10.2375 16.4844 9.98438 16.4531 9.74063C16.4219 9.49688 16.375 9.25 16.3125 9H13.7625C13.8 9.25 13.8281 9.49688 13.8469 9.74063C13.8656 9.98438 13.875 10.2375 13.875 10.5V10.8844C13.875 11.0031 13.8688 11.125 13.8563 11.25H12.3563C12.3688 11.125 12.375 11.0031 12.375 10.8844V10.5C12.375 10.2375 12.3656 9.98438 12.3469 9.74063C12.3281 9.49688 12.3 9.25 12.2625 9H8.7375C8.7 9.25 8.67188 9.49688 8.65312 9.74063C8.63438 9.98438 8.625 10.2375 8.625 10.5C8.625 10.7625 8.63438 11.0156 8.65312 11.2594C8.67188 11.5031 8.7 11.75 8.7375 12H11.25V13.5H9.075C9.225 14.05 9.41875 14.5688 9.65625 15.0563C9.89375 15.5438 10.175 16.0125 10.5 16.4625C10.6375 16.2625 10.7688 16.0594 10.8938 15.8531C11.0188 15.6469 11.1375 15.4375 11.25 15.225V17.9625C11.125 17.975 11.0031 17.9844 10.8844 17.9906C10.7656 17.9969 10.6375 18 10.5 18ZM16.4625 17.5312L14.25 15.3188V16.9875H12.75V12.75H16.9875V14.25H15.3L17.5125 16.4625L16.4625 17.5312Z" fill="black"/>
</g>
</svg>
