<svg xmlns="http://www.w3.org/2000/svg" viewBox="0 0 20.01 14.04"><g id="圖層_2" data-name="圖層 2"><g id="圖層_1-2" data-name="圖層 1"><path d="M19.67,2.29h0A2.56,2.56,0,0,0,18.91.94a2.63,2.63,0,0,0-1.4-.65A66.8,66.8,0,0,0,10,0a67,67,0,0,0-7.5.28A2.51,2.51,0,0,0,1.13,1,2.49,2.49,0,0,0,.37,2.29,21.46,21.46,0,0,0,0,7a20.83,20.83,0,0,0,.35,4.73,2.46,2.46,0,0,0,.75,1.35,2.49,2.49,0,0,0,1.41.65A64.51,64.51,0,0,0,10,14a64.59,64.59,0,0,0,7.49-.28,2.49,2.49,0,0,0,1.4-.65,2.54,2.54,0,0,0,.76-1.35A33.31,33.31,0,0,0,19.67,2.29ZM7.42,10.13V3.51l6.36,3.32Z"/></g></g></svg>