<svg width="80" height="80" viewBox="0 0 80 80" fill="none" xmlns="http://www.w3.org/2000/svg">
<path fill-rule="evenodd" clip-rule="evenodd" d="M28.725 44.0418C28.725 44.3418 28.825 44.5418 29.025 44.7418L32.425 48.1418C32.625 48.3418 32.825 48.4418 33.125 48.4418C33.425 48.4418 33.625 48.3418 33.825 48.1418L35.525 46.4418C35.625 46.4418 35.625 46.5418 35.725 46.5418C35.925 46.6418 36.125 46.7418 36.425 46.8418V49.9418C36.425 50.5418 36.825 50.9418 37.425 50.9418H42.525C43.125 50.9418 43.525 50.5418 43.525 49.9418V46.8418C43.825 46.7418 44.025 46.6418 44.225 46.5418C44.325 46.5418 44.325 46.4418 44.325 46.4418L45.925 48.1418C46.125 48.3418 46.325 48.4418 46.625 48.4418C46.925 48.4418 47.125 48.3418 47.325 48.1418L50.725 44.7418C50.925 44.5418 51.025 44.2418 51.025 44.0418C51.025 43.7418 50.925 43.5418 50.725 43.3418L49.025 41.7418C49.025 41.6418 49.125 41.6418 49.125 41.5418C49.225 41.3418 49.325 41.1418 49.425 40.8418H51.325C51.925 40.8418 52.325 40.4418 52.325 39.8418V34.7418C52.325 34.1418 51.925 33.7418 51.325 33.7418H49.425C49.325 33.4418 49.225 33.2418 49.125 33.0418C49.125 32.9418 49.025 32.9418 49.025 32.8418L50.725 31.1418C50.925 30.9418 51.025 30.7418 51.025 30.4418C51.025 30.1418 50.925 29.9418 50.725 29.7418L47.325 26.3418C47.125 26.1418 46.825 26.0418 46.625 26.0418C46.325 26.0418 46.125 26.1418 45.925 26.3418L44.325 28.0418L44.225 27.9418C44.025 27.8418 43.825 27.7418 43.525 27.6418V25.9418C43.525 25.3418 43.125 24.9418 42.525 24.9418H37.425C36.825 24.9418 36.425 25.3418 36.425 25.9418V27.6418C36.125 27.7418 35.925 27.8418 35.725 27.9418C35.625 27.9418 35.525 28.0418 35.525 28.0418L33.825 26.3418C33.625 26.1418 33.425 26.0418 33.125 26.0418C32.825 26.0418 32.625 26.1418 32.425 26.3418L29.025 29.7418C28.825 29.9418 28.725 30.1418 28.725 30.4418C28.725 30.7418 28.825 30.9418 29.025 31.1418L30.725 32.8418C30.725 32.9418 30.625 32.9418 30.625 33.0418C30.525 33.2418 30.425 33.4418 30.325 33.7418H27.425C26.825 33.7418 26.425 34.1418 26.425 34.7418V39.8418C26.425 40.4418 26.825 40.8418 27.425 40.8418H30.325C30.425 41.1418 30.525 41.3418 30.625 41.5418C30.625 41.6418 30.725 41.6418 30.725 41.7418L29.025 43.4418C28.825 43.4418 28.725 43.7418 28.725 44.0418ZM28.425 35.6418H31.225C31.725 35.6418 32.125 35.2418 32.225 34.8418C32.325 34.2418 32.425 34.0418 32.525 33.8418C32.525 33.7418 32.625 33.6418 32.725 33.5418C32.825 33.4418 32.925 33.2418 33.025 33.1418C33.225 32.7418 33.225 32.2418 32.825 31.9418L31.225 30.4418L33.225 28.4418L34.825 30.0418C35.125 30.3418 35.625 30.4418 36.025 30.2418C36.225 30.1418 36.325 30.0418 36.425 29.9418C36.525 29.8418 36.625 29.8418 36.725 29.7418C36.925 29.6418 37.125 29.5418 37.725 29.4418C38.225 29.3418 38.525 28.9418 38.525 28.4418V26.9418H41.625V28.4418C41.625 28.9418 42.025 29.3418 42.425 29.4418C43.025 29.5418 43.225 29.6418 43.325 29.7418C43.425 29.7418 43.525 29.8418 43.625 29.9418C43.725 30.0418 43.925 30.1418 44.125 30.2418C44.525 30.4418 45.025 30.4418 45.325 30.0418L46.825 28.5418L48.825 30.5418L47.225 32.0418C46.925 32.3418 46.825 32.8418 47.025 33.2418C47.125 33.4418 47.225 33.5418 47.325 33.6418C47.425 33.7418 47.425 33.8418 47.525 33.9418C47.625 34.1418 47.725 34.3418 47.825 34.9418C47.925 35.4418 48.325 35.7418 48.825 35.7418H50.525V38.8418H48.825C48.325 38.8418 47.925 39.2418 47.825 39.6418C47.725 40.2418 47.625 40.4418 47.525 40.5418C47.525 40.6418 47.425 40.7418 47.325 40.8418C47.225 40.9418 47.125 41.1418 47.025 41.3418C46.825 41.7418 46.825 42.2418 47.225 42.5418L48.725 44.0418L46.825 45.9418L45.325 44.4418C45.025 44.1418 44.525 44.0418 44.125 44.2418C43.925 44.3418 43.725 44.4418 43.625 44.5418C43.525 44.6418 43.425 44.6418 43.325 44.7418C43.225 44.8418 43.025 44.9418 42.425 45.0418C41.925 45.1418 41.625 45.5418 41.625 46.0418V48.9418H38.525V46.0418C38.525 45.5418 38.125 45.1418 37.725 45.0418C37.125 44.9418 36.925 44.8418 36.725 44.7418C36.625 44.7418 36.525 44.6418 36.425 44.5418C36.425 44.5418 36.425 44.5418 36.325 44.5418C36.225 44.4418 36.025 44.3418 35.925 44.2418C35.525 44.0418 35.025 44.0418 34.725 44.4418L33.225 46.0418L31.225 44.0418L32.725 42.5418C33.025 42.2418 33.125 41.7418 32.925 41.3418C32.825 41.1418 32.725 41.0418 32.625 40.8418C32.525 40.7418 32.525 40.6418 32.425 40.5418C32.325 40.4418 32.225 40.1418 32.125 39.6418C32.025 39.1418 31.625 38.8418 31.125 38.8418H28.425V35.6418Z" fill="#00AAE8"/>
<path fill-rule="evenodd" clip-rule="evenodd" d="M39.925 42.0418C42.625 42.0418 44.725 39.8418 44.725 37.2418C44.725 34.5418 42.525 32.4418 39.925 32.4418C37.225 32.4418 35.125 34.6418 35.125 37.2418C35.125 39.9418 37.225 42.0418 39.925 42.0418ZM39.925 34.4418C41.525 34.4418 42.725 35.7418 42.725 37.2418C42.725 38.8418 41.425 40.0418 39.925 40.0418C38.325 40.0418 37.125 38.7418 37.125 37.2418C37.125 35.7418 38.325 34.4418 39.925 34.4418Z" fill="#00AAE8"/>
<path fill-rule="evenodd" clip-rule="evenodd" d="M40.025 18.6418C30.025 18.6418 21.225 26.5418 21.225 36.3418C21.225 42.4418 23.825 47.2418 27.125 50.4418C27.825 51.1418 28.425 51.7418 29.025 52.2418C29.225 52.3418 29.325 52.5418 29.525 52.6418C30.225 53.2418 30.825 53.8418 31.325 54.4418C32.225 55.5418 32.825 56.7418 32.825 58.6418V61.2418H34.825V58.6418C34.825 56.1418 34.125 54.5418 32.925 53.1418C32.325 52.4418 31.625 51.8418 30.925 51.1418C30.725 51.0418 30.625 50.8418 30.425 50.7418C29.825 50.2418 29.225 49.6418 28.525 49.0418C25.625 46.2418 23.225 41.9418 23.225 36.4418C23.225 27.8418 31.025 20.7418 40.025 20.7418C49.025 20.7418 56.825 27.8418 56.825 36.4418C56.825 41.9418 54.425 46.2418 51.525 49.0418C50.825 49.6418 50.225 50.2418 49.725 50.7418C49.525 50.8418 49.425 51.0418 49.225 51.1418C48.525 51.7418 47.825 52.4418 47.225 53.1418C46.025 54.5418 45.325 56.2418 45.325 58.6418V61.2418H47.325V58.6418C47.325 56.6418 47.825 55.5418 48.825 54.4418C49.325 53.8418 49.925 53.3418 50.625 52.6418C50.725 52.5418 50.925 52.3418 51.125 52.2418C51.725 51.7418 52.325 51.1418 53.025 50.4418C56.225 47.3418 58.925 42.4418 58.925 36.3418C58.825 26.5418 50.025 18.6418 40.025 18.6418Z" fill="#00AAE8"/>
<path d="M47.625 62.7418H32.425V64.7418H47.625V62.7418Z" fill="#00AAE8"/>
<path fill-rule="evenodd" clip-rule="evenodd" d="M43.125 66.8418L42.125 67.8418H37.925L36.925 66.8418C36.725 66.6418 36.525 66.5418 36.225 66.5418H33.725V68.5418H35.825L36.825 69.5418C37.025 69.7418 37.225 69.8418 37.525 69.8418H42.625C42.925 69.8418 43.125 69.7418 43.325 69.5418L44.325 68.5418H46.425V66.5418H43.925C43.525 66.5418 43.325 66.6418 43.125 66.8418Z" fill="#00AAE8"/>
<path d="M43.825 58.9418H36.225V60.9418H43.825V58.9418Z" fill="#00AAE8"/>
<path d="M33.8466 10.1582L31.9142 10.6738L33.2032 15.5048L35.1356 14.9892L33.8466 10.1582Z" fill="#00AAE8"/>
<path d="M21.0515 16.8975L19.6373 18.3117L23.2435 21.9179L24.6577 20.5037L21.0515 16.8975Z" fill="#00AAE8"/>
<path d="M13.407 29.0699L12.8914 31.0023L17.7224 32.2913L18.238 30.3589L13.407 29.0699Z" fill="#00AAE8"/>
<path d="M17.7756 42.1307L12.9446 43.4197L13.4602 45.3521L18.2912 44.0631L17.7756 42.1307Z" fill="#00AAE8"/>
<path d="M23.2942 52.6061L19.688 56.2123L21.1022 57.6265L24.7084 54.0203L23.2942 52.6061Z" fill="#00AAE8"/>
<path d="M56.8104 52.5552L55.3962 53.9694L59.0024 57.5756L60.4166 56.1614L56.8104 52.5552Z" fill="#00AAE8"/>
<path d="M62.2328 42.1457L61.7172 44.0781L66.5482 45.3671L67.0638 43.4347L62.2328 42.1457Z" fill="#00AAE8"/>
<path d="M66.5932 29.1284L61.7622 30.4174L62.2778 32.3498L67.1088 31.0608L66.5932 29.1284Z" fill="#00AAE8"/>
<path d="M58.9524 16.848L55.3462 20.4542L56.7604 21.8684L60.3666 18.2622L58.9524 16.848Z" fill="#00AAE8"/>
<path d="M46.2295 10.1935L44.9405 15.0245L46.8729 15.5401L48.1619 10.7091L46.2295 10.1935Z" fill="#00AAE8"/>
</svg>
