<svg width="80" height="81" viewBox="0 0 80 81" fill="none" xmlns="http://www.w3.org/2000/svg">
<path d="M58.8157 22.0496L72.5 27.0264L66.8562 42.5446V42.5538L65.8951 45.1846L59.3135 63.2708L58.8157 63.0904M21.1833 63.0904L20.6835 63.2708L14.1049 45.1846L13.1408 42.5538V42.5446L7.5 27.0264L21.1833 22.0476M29.3231 21.4515H50.6748M29.3231 46.5745H50.6748M29.3231 50.9917H50.6748M29.3231 55.4088H50.6748M29.3231 59.8269H50.6748M34.8443 25.4093H45.1537M41.1968 32.4948H50.6748M41.1968 36.8207H50.6748M41.1968 41.1456H50.6748M66.183 30.5929L58.8157 27.9145M21.1833 27.9114L13.816 30.5929M64.4818 35.2767L58.8157 33.2136M21.1833 33.2136L15.5141 35.2767M62.7695 39.9706L58.8157 38.5351M21.1833 38.5351L17.2274 39.9706M61.0602 44.6534L58.8157 43.8362M21.1833 43.8362L18.9398 44.6534M59.3581 49.3473L58.8157 49.1496M21.1833 49.1496L20.6409 49.3473M55.9882 40.5393V40.5373V64.822H24.0098V43.014V43.0171V39.487V39.4911V16.1797H55.9882V40.5393ZM29.3231 32.4948H36.1339V41.1456H29.3231V32.4948Z" stroke="#00AAE8" stroke-width="1.5" stroke-linecap="round" stroke-linejoin="round"/>
</svg>
