<svg width="80" height="80" viewBox="0 0 80 80" fill="none" xmlns="http://www.w3.org/2000/svg">
<path d="M44.248 27.3535C41.908 25.0135 38.104 25.0135 35.764 27.3535C33.424 29.6935 33.424 33.4975 35.764 35.8375C36.928 37.0015 38.464 37.5895 40.012 37.5895C41.56 37.5895 43.084 37.0015 44.26 35.8375C46.6 33.4975 46.6 29.6935 44.26 27.3535H44.248ZM42.556 34.1455C41.152 35.5495 38.872 35.5495 37.468 34.1455C36.064 32.7415 36.064 30.4615 37.468 29.0575C38.164 28.3615 39.088 28.0015 40.012 28.0015C40.936 28.0015 41.86 28.3495 42.556 29.0575C43.96 30.4615 43.96 32.7415 42.556 34.1455Z" fill="#00AAE8"/>
<path d="M62.8 32.7895H65.2C65.86 32.7895 66.4 32.2495 66.4 31.5895C66.4 30.9295 65.86 30.3895 65.2 30.3895H62.8V27.9895C62.8 27.3295 62.26 26.7895 61.6 26.7895C60.94 26.7895 60.4 27.3295 60.4 27.9895V30.3895H58C57.34 30.3895 56.8 30.9295 56.8 31.5895C56.8 32.2495 57.34 32.7895 58 32.7895H60.4V35.1895C60.4 35.8495 60.94 36.3895 61.6 36.3895C62.26 36.3895 62.8 35.8495 62.8 35.1895V32.7895Z" fill="#00AAE8"/>
<path d="M68.8 55.5895H67.6V54.3895C67.6 53.7295 67.06 53.1895 66.4 53.1895C65.74 53.1895 65.2 53.7295 65.2 54.3895V55.5895H64C63.34 55.5895 62.8 56.1295 62.8 56.7895C62.8 57.4495 63.34 57.9895 64 57.9895H65.2V59.1895C65.2 59.8495 65.74 60.3895 66.4 60.3895C67.06 60.3895 67.6 59.8495 67.6 59.1895V57.9895H68.8C69.46 57.9895 70 57.4495 70 56.7895C70 56.1295 69.46 55.5895 68.8 55.5895Z" fill="#00AAE8"/>
<path d="M19.6 33.9895H18.4V32.7895C18.4 32.1295 17.86 31.5895 17.2 31.5895C16.54 31.5895 16 32.1295 16 32.7895V33.9895H14.8C14.14 33.9895 13.6 34.5295 13.6 35.1895C13.6 35.8495 14.14 36.3895 14.8 36.3895H16V37.5895C16 38.2495 16.54 38.7895 17.2 38.7895C17.86 38.7895 18.4 38.2495 18.4 37.5895V36.3895H19.6C20.26 36.3895 20.8 35.8495 20.8 35.1895C20.8 34.5295 20.26 33.9895 19.6 33.9895Z" fill="#00AAE8"/>
<path d="M18.4 49.5895H16V47.1895C16 46.5295 15.46 45.9895 14.8 45.9895C14.14 45.9895 13.6 46.5295 13.6 47.1895V49.5895H11.2C10.54 49.5895 10 50.1295 10 50.7895C10 51.4495 10.54 51.9895 11.2 51.9895H13.6V54.3895C13.6 55.0495 14.14 55.5895 14.8 55.5895C15.46 55.5895 16 55.0495 16 54.3895V51.9895H18.4C19.06 51.9895 19.6 51.4495 19.6 50.7895C19.6 50.1295 19.06 49.5895 18.4 49.5895Z" fill="#00AAE8"/>
<path d="M51.448 47.3455C51.844 44.5255 52.096 41.6335 52.096 38.8255C52.096 23.2855 41.356 10.9255 40.9 10.3975C40.444 9.8815 39.556 9.8815 39.1 10.3975C38.644 10.9135 27.904 23.2855 27.904 38.8255C27.904 41.6335 28.156 44.5255 28.552 47.3455L22.348 53.5495C22.12 53.7775 22 54.0775 22 54.4015V68.8015C22 69.4135 22.468 69.9295 23.08 69.9895C23.116 69.9895 23.164 69.9895 23.2 69.9895C23.764 69.9895 24.256 69.5935 24.376 69.0295C24.424 68.7775 25.648 63.2095 31.216 60.0775C32.08 63.2575 32.788 65.3575 32.872 65.5735C33.04 66.0535 33.496 66.3895 34.012 66.3895H38.812V68.7895C38.812 69.4495 39.352 69.9895 40.012 69.9895C40.672 69.9895 41.212 69.4495 41.212 68.7895V66.3895H46.012C46.528 66.3895 46.984 66.0655 47.152 65.5735C47.224 65.3575 47.944 63.2455 48.808 60.0775C54.376 63.2095 55.588 68.7775 55.648 69.0295C55.756 69.5935 56.26 69.9895 56.824 69.9895C56.86 69.9895 56.908 69.9895 56.944 69.9895C57.556 69.9295 58.024 69.4135 58.024 68.7895V54.3895C58.024 54.0655 57.892 53.7655 57.676 53.5375L51.472 47.3335L51.448 47.3455ZM40 13.1095C40.972 14.3695 42.592 16.6255 44.224 19.6015H35.764C37.408 16.6255 39.028 14.3695 39.988 13.1095H40ZM24.4 63.2215V54.8935L29.008 50.2855C29.476 52.9735 30.04 55.4935 30.592 57.7015C27.664 59.2015 25.696 61.2775 24.4 63.2215ZM41.2 64.0015V47.2015C41.2 46.5415 40.66 46.0015 40 46.0015C39.34 46.0015 38.8 46.5415 38.8 47.2015V64.0015H34.876C33.868 60.8335 30.304 48.9535 30.304 38.8375C30.304 32.4895 32.284 26.6335 34.54 22.0015H45.472C47.716 26.6215 49.708 32.4895 49.708 38.8375C49.708 48.9535 46.156 60.8335 45.136 64.0015H41.2ZM55.6 63.2215C54.304 61.2775 52.324 59.2135 49.408 57.7015C49.96 55.4935 50.524 52.9615 50.992 50.2855L55.6 54.8935V63.2215Z" fill="#00AAE8"/>
</svg>
