<svg width="80" height="80" viewBox="0 0 80 80" fill="none" xmlns="http://www.w3.org/2000/svg">
<path fill-rule="evenodd" clip-rule="evenodd" d="M69.9064 28.7C69.9064 28.6 69.9064 28.6 69.9064 28.7C69.8064 28.5 69.8064 28.5 69.7064 28.4C69.7064 28.4 69.7064 28.4 69.7064 28.3C69.6064 28.2 69.5064 28.2 69.5064 28.1L57.5064 22.1C57.2064 22 56.9064 22 56.6064 22.1L44.6064 28.1C44.5064 28.1 44.4064 28.2 44.4064 28.3C44.4064 28.3 44.4064 28.3 44.4064 28.4C44.3064 28.5 44.3064 28.5 44.2064 28.6V28.7C44.2064 28.8 44.1064 28.9 44.1064 29V38.3C44.1064 38.9 44.5064 39.3 45.1064 39.3C45.7064 39.3 46.1064 38.9 46.1064 38.3V30.6L50.1064 32.6V35C50.1064 35.6 50.5064 36 51.1064 36C51.7064 36 52.1064 35.6 52.1064 35V33.6L56.1064 35.6V47.4L50.0064 44.3C49.5064 44.1 48.9064 44.2 48.7064 44.7C48.5064 45.2 48.6064 45.8 49.1064 46L56.6064 49.8C56.9064 49.9 57.2064 49.9 57.5064 49.8L69.5064 43.7C69.8064 43.5 70.0064 43.2 70.0064 42.8V29C70.0064 28.9 70.0064 28.8 69.9064 28.7ZM51.0064 30.9L47.2064 29L57.0064 24.1L60.8064 26L51.0064 30.9ZM57.0064 33.9L53.2064 32L63.0064 27.1L66.8064 29L57.0064 33.9ZM68.0064 42.3L58.0064 47.4V35.6L68.0064 30.6V42.3Z" fill="#00AAE8"/>
<path fill-rule="evenodd" clip-rule="evenodd" d="M60.0064 51.4C59.5064 51.1 58.9064 51.2 58.6064 51.7C54.7064 57.9 47.9064 62 40.0064 62C38.3064 62 36.7064 61.8 35.1064 61.4C35.2064 60.5 35.4064 59.8 35.6064 59.3C35.9064 58.7 36.2064 58.3 36.6064 57.8C36.7064 57.7 36.7064 57.7 36.8064 57.6C37.4064 56.8 38.1064 56.3 38.8064 55.8C38.9064 55.7 39.0064 55.6 39.1064 55.5C40.0064 54.8 40.9064 54 41.8064 52.5C42.0064 52.1 42.5064 51.4 42.8064 50.5C43.1064 49.6 43.4064 48.5 43.1064 47.4C43.0064 46.9 42.4064 46.5 41.9064 46.7C41.1064 46.9 41.2064 47.9 41.2064 48.2C41.2064 49.2 41.0064 50 40.0064 51.5C39.3064 52.7 38.5064 53.3 37.8064 53.9C37.7064 54 37.6064 54.1 37.5064 54.1C36.8064 54.6 35.9064 55.3 35.1064 56.3C35.0064 56.4 35.0064 56.4 34.9064 56.5C34.5064 57 34.0064 57.6 33.7064 58.4C33.4064 59.1 33.2064 59.8 33.0064 60.8C32.9064 60.8 32.9064 60.8 32.8064 60.7C32.6064 60.6 32.4064 60.6 32.2064 60.5C32.2064 60.1 32.0064 59 32.0064 57C32.0064 55.7 32.2064 54.8 32.3064 54C32.3064 53.7 32.4064 53.5 32.4064 53.3C32.5064 52.3 32.5064 51.5 31.9064 50.5C31.6064 50.1 31.3064 49.8 31.1064 49.5C30.7064 49.1 30.0064 49.2 29.7064 49.6C29.4064 50 29.4064 50.7 29.8064 51C30.0064 51.1 30.1064 51.3 30.3064 51.5C30.6064 51.9 30.6064 52.2 30.5064 53C30.5064 53.2 30.4064 53.4 30.4064 53.6C30.2064 54.5 30.0064 55.5 30.0064 57C30.0064 58.1 30.0064 58.9 30.1064 59.7C26.1064 57.7 22.8064 54.5 20.7064 50.5C20.4064 50 19.8064 49.8 19.3064 50.1C18.8064 50.4 18.6064 51 18.9064 51.5C21.6064 56.4 25.9064 60.3 31.2064 62.4C31.3064 62.4 31.3064 62.4 31.4064 62.5C31.7064 62.6 32.0064 62.7 32.3064 62.8C32.5064 62.9 32.6064 62.9 32.8064 63C33.1064 63.1 33.3064 63.2 33.6064 63.2H33.7064C35.7064 63.7 37.8064 64 39.9064 64C48.5064 64 56.0064 59.5 60.2064 52.8C60.6064 52.3 60.5064 51.7 60.0064 51.4Z" fill="#00AAE8"/>
<path fill-rule="evenodd" clip-rule="evenodd" d="M39.5064 45.3C43.9064 44.1 47.9064 42.7 51.4064 41.2C51.9064 41 52.1064 40.4 51.9064 39.9C51.7064 39.4 51.1064 39.2 50.6064 39.4C47.2064 40.9 43.3064 42.3 39.0064 43.4C31.9064 45.3 25.2064 46.2 20.2064 46C19.7064 46 19.3064 46 18.8064 45.9C18.3064 44 18.0064 42.1 18.0064 40C18.0064 39.6 18.0064 39.2 18.0064 38.9C19.3064 40.4 21.1064 42 23.6064 42.9C24.5064 43.3 25.3064 43.5 26.1064 43.7C26.6064 43.8 27.2064 43.5 27.3064 42.9C27.3064 42.7 27.3064 42.4 27.2064 42.2C28.1064 42.5 29.0064 42.8 29.8064 42.9C30.3064 43 30.9064 42.7 31.0064 42.1C31.1064 41.6 30.8064 41 30.2064 40.9C28.9064 40.6 27.5064 40.2 26.5064 39.6C25.4064 39 24.8064 38.3 24.7064 37.6C24.6064 36.9 24.8064 36.5 24.9064 36.4C25.2064 35.8 25.9064 35.4 26.5064 35.5C26.9064 35.5 27.2064 35.7 27.5064 36.1C27.7064 36.3 27.8064 36.5 28.0064 36.8C28.0064 36.9 28.1064 36.9 28.1064 37C28.2064 37.2 28.4064 37.4 28.6064 37.7C28.8064 38 29.1064 38.1 29.5064 38.1C30.1064 38.1 30.5064 37.7 30.7064 37.4C30.9064 37.1 31.0064 36.7 31.0064 36.2C31.0064 35.9 30.9064 35.6 30.8064 35.4C30.8064 35.3 30.7064 35.2 30.7064 35.1C30.7064 35.1 30.7064 35 30.6064 35V34.9C30.6064 34.8 30.6064 34.6 30.7064 34.5C30.7064 34.4 30.8064 34.3 31.2064 34.1C31.2064 34.1 31.3064 34.1 31.3064 34C31.7064 33.8 32.4064 33.5 33.0064 32.9C33.7064 32.1 33.7064 31.3 33.7064 30.7V30.6C33.7064 30.1 33.7064 29.8 33.9064 29.4C34.2064 28.8 34.7064 28.5 35.5064 28.2C35.5064 28.2 35.6064 28.2 35.7064 28.1C36.0064 28 36.5064 27.8 36.8064 27.6C37.3064 27.3 37.7064 26.9 37.9064 26.2C38.2064 25.3 37.9064 24.4 37.5064 23.7C37.1064 22.9 36.5064 22.2 35.8064 21.6C35.1064 21 34.3064 20.4 33.4064 20C32.8064 19.7 32.2064 19.6 31.6064 19.5C34.3064 18.6 37.1064 18 40.0064 18C44.4064 18 48.6064 19.3 52.0064 21.6C52.5064 21.9 53.1064 21.8 53.4064 21.3C53.7064 20.8 53.6064 20.2 53.1064 19.9C49.4064 17.4 44.8064 16 40.0064 16C34.1064 16 28.7064 18.1 24.5064 21.7C24.5064 21.7 24.4064 21.7 24.4064 21.8C20.4064 25.2 17.5064 30 16.5064 35.4C14.4064 36.7 12.8064 38 11.6064 39.3C10.4064 40.7 9.7064 42.2 10.1064 43.8C10.5064 45.3 11.9064 46.3 13.6064 46.9C14.8064 47.3 16.3064 47.6 17.9064 47.8C17.9064 47.8 17.9064 47.8 18.0064 47.8C18.7064 47.9 19.4064 47.9 20.2064 47.9C25.4064 48.1 32.2064 47.2 39.5064 45.3ZM29.0064 21C28.9064 21.2 28.9064 21.5 28.9064 21.7C28.9064 22 28.9064 22.3 28.9064 22.6C28.9064 22.7 28.9064 22.9 28.9064 23C28.9064 23.6 28.8064 24 28.5064 24.2C28.2064 24.1 27.8064 23.9 27.4064 23.6C27.2064 23.4 26.9064 23.1 26.6064 22.9C27.3064 22 28.1064 21.5 29.0064 21ZM25.0064 23.9C25.1064 24 25.1064 24 25.2064 24.1C25.2064 24.1 25.2064 24.1 25.3064 24.2C25.6064 24.5 25.9064 24.8 26.2064 25C26.8064 25.6 27.7064 26.1 28.8064 26.1C29.0064 26.1 29.1064 26.1 29.2064 26C30.7064 25.3 30.8064 23.9 30.9064 23C30.9064 22.8 30.9064 22.6 30.9064 22.4C30.9064 22.2 30.9064 22 30.9064 21.8C30.9064 21.7 30.9064 21.7 30.9064 21.7C31.0064 21.7 31.0064 21.7 31.1064 21.7C31.5064 21.6 32.1064 21.7 32.7064 22C33.3064 22.3 34.0064 22.7 34.5064 23.2C35.1064 23.7 35.5064 24.3 35.8064 24.8C36.1064 25.3 36.1064 25.6 36.0064 25.8C36.0064 25.9 35.9064 25.9 35.8064 26C35.6064 26.1 35.4064 26.2 35.0064 26.3C34.9064 26.3 34.9064 26.3 34.8064 26.4C34.0064 26.7 32.7064 27.2 32.1064 28.6C31.7064 29.5 31.7064 30.2 31.7064 30.7V30.8C31.7064 31.3 31.7064 31.4 31.5064 31.6C31.3064 31.9 31.0064 32 30.5064 32.2C30.5064 32.2 30.4064 32.2 30.4064 32.3C29.9064 32.5 29.1064 32.9 28.8064 33.9C28.7064 34.1 28.7064 34.3 28.7064 34.5C28.2064 34.1 27.6064 33.7 26.8064 33.6C25.3064 33.4 23.8064 34.3 23.2064 35.6C23.1064 35.8 22.7064 36.6 22.8064 37.9C23.0064 39.6 24.2064 40.7 25.5064 41.5C25.5064 41.5 25.5064 41.5 25.6064 41.5C25.2064 41.4 24.8064 41.3 24.4064 41.1C21.5064 39.9 19.7064 37.9 18.4064 36.1C19.2064 31.3 21.6064 27.1 25.0064 23.9ZM14.3064 45.1C12.8064 44.6 12.2064 43.9 12.1064 43.3C11.9064 42.7 12.1064 41.8 13.2064 40.6C13.9064 39.8 14.9064 38.9 16.2064 38C16.0064 38.7 16.0064 39.3 16.0064 40C16.0064 42 16.2064 43.9 16.7064 45.7C15.8064 45.5 15.0064 45.3 14.3064 45.1Z" fill="#00AAE8"/>
</svg>
