<svg width="80" height="80" viewBox="0 0 80 80" fill="none" xmlns="http://www.w3.org/2000/svg">
<path d="M29.2143 47.6039L27.5297 49.2885C30.7374 54.7693 36.6681 58.4616 43.4643 58.4616C53.6412 58.4616 61.9258 50.1769 61.9258 40C61.9258 29.8231 53.6412 21.5385 43.4643 21.5385C36.6681 21.5385 30.7374 25.2308 27.5297 30.7116L29.2143 32.3962C31.9374 27.3077 37.3028 23.8462 43.4643 23.8462C52.372 23.8462 59.6181 31.0923 59.6181 40C59.6181 48.9077 52.372 56.1539 43.4643 56.1539C37.3028 56.1539 31.9374 52.6808 29.2143 47.6039Z" fill="#00AAE8"/>
<path d="M25.822 47.7423L32.4104 41.1539H41.4797C41.8835 41.8462 42.6104 42.3077 43.4643 42.3077C44.7335 42.3077 45.772 41.2692 45.772 40C45.772 38.7308 44.7335 37.6923 43.4643 37.6923C42.6104 37.6923 41.872 38.1539 41.4797 38.8462H32.4104L25.822 32.2577C25.6028 32.0385 25.3143 31.9231 25.0028 31.9231H11.1566C10.6951 31.9231 10.2681 32.2 10.0951 32.6385C9.92198 33.0769 10.0143 33.5616 10.3489 33.8962L16.4528 40L10.3374 46.1039C10.0028 46.4385 9.91044 46.9346 10.0835 47.3616C10.2566 47.7885 10.6835 48.0769 11.1451 48.0769H24.9912C25.3028 48.0769 25.5912 47.95 25.8104 47.7423H25.822ZM29.1451 38.8462H25.4874L20.872 34.2308H24.5297L29.1451 38.8462ZM13.9489 34.2308H17.6066L22.222 38.8462H18.5643L13.9489 34.2308ZM18.5643 41.1539H22.222L17.6066 45.7692H13.9489L18.5643 41.1539ZM20.872 45.7692L25.4874 41.1539H29.1451L24.5297 45.7692H20.872Z" fill="#00AAE8"/>
<path d="M43.4643 48.0769C40.2451 48.0769 37.4758 46.1846 36.172 43.4616H33.6797C35.1104 47.4885 38.9527 50.3846 43.4643 50.3846C49.1874 50.3846 53.8489 45.7231 53.8489 40C53.8489 34.2769 49.1874 29.6154 43.4643 29.6154C38.9527 29.6154 35.122 32.5116 33.6912 36.5385H36.1835C37.4874 33.8154 40.2566 31.9231 43.4643 31.9231C47.9181 31.9231 51.5412 35.5462 51.5412 40C51.5412 44.4539 47.9181 48.0769 43.4643 48.0769Z" fill="#00AAE8"/>
<path d="M43.4643 13.4615C32.5143 13.4615 23.0989 20.1308 19.0489 29.6154H21.6104C25.4989 21.4462 33.8181 15.7692 43.4643 15.7692C56.8258 15.7692 67.6951 26.6385 67.6951 40C67.6951 53.3616 56.8258 64.2308 43.4643 64.2308C33.8181 64.2308 25.4989 58.5539 21.6104 50.3846H19.0489C23.0989 59.8692 32.5143 66.5385 43.4643 66.5385C58.0951 66.5385 70.0028 54.6308 70.0028 40C70.0028 25.3692 58.0951 13.4615 43.4643 13.4615Z" fill="#00AAE8"/>
</svg>
