<svg width="80" height="80" viewBox="0 0 80 80" fill="none" xmlns="http://www.w3.org/2000/svg">
<path d="M40 21C30.8325 21 23.375 28.4575 23.375 37.625C23.375 41.3656 24.5862 44.8925 26.89 47.8375L29.9894 51.495C31.0819 52.7775 31.6875 54.4163 31.6875 56.1144V62.5625C31.6875 64.5219 33.2906 66.125 35.25 66.125H35.4162C35.9506 68.1675 37.7912 69.6875 40 69.6875C42.2087 69.6875 44.0494 68.1675 44.5837 66.125H44.75C46.7094 66.125 48.3125 64.5219 48.3125 62.5625V56.1144C48.3125 54.4281 48.9181 52.7894 50.0106 51.495L53.0031 47.98L53.1219 47.8256C55.4137 44.8806 56.625 41.3538 56.625 37.6131C56.625 28.4456 49.1675 20.9881 40 20.9881V21ZM40 67.3125C39.1212 67.3125 38.3612 66.8257 37.9575 66.125H42.0425C41.6269 66.8257 40.8669 67.3125 40 67.3125ZM44.75 63.75H35.25C34.5969 63.75 34.0625 63.2157 34.0625 62.5625V57.8125H45.9375V62.5625C45.9375 63.2157 45.4031 63.75 44.75 63.75ZM51.2575 46.365L48.2056 49.9631C46.8994 51.5069 46.1156 53.4306 45.9731 55.4375H34.0387C33.8962 53.4306 33.1125 51.5069 31.8062 49.9631L28.8612 46.5075L28.7544 46.3769C26.795 43.8594 25.75 40.8313 25.75 37.625C25.75 29.7638 32.1387 23.375 40 23.375C47.8612 23.375 54.25 29.7638 54.25 37.625C54.25 40.8313 53.2169 43.8475 51.2575 46.365Z" fill="#00AAE8"/>
<path d="M18.625 38.8125C18.625 38.1594 18.0906 37.625 17.4375 37.625H12.6875C12.0344 37.625 11.5 38.1594 11.5 38.8125C11.5 39.4656 12.0344 40 12.6875 40H17.4375C18.0906 40 18.625 39.4656 18.625 38.8125Z" fill="#00AAE8"/>
<path d="M67.3125 37.625H62.5625C61.9094 37.625 61.375 38.1594 61.375 38.8125C61.375 39.4656 61.9094 40 62.5625 40H67.3125C67.9656 40 68.5 39.4656 68.5 38.8125C68.5 38.1594 67.9656 37.625 67.3125 37.625Z" fill="#00AAE8"/>
<path d="M40 17.4375C40.6531 17.4375 41.1875 16.9031 41.1875 16.25V11.5C41.1875 10.8469 40.6531 10.3125 40 10.3125C39.3469 10.3125 38.8125 10.8469 38.8125 11.5V16.25C38.8125 16.9031 39.3469 17.4375 40 17.4375Z" fill="#00AAE8"/>
<path d="M19.8719 49.0606L15.7631 51.4356C15.1931 51.7681 15.0031 52.4925 15.3237 53.0625C15.5494 53.4425 15.9412 53.6562 16.3569 53.6562C16.5587 53.6562 16.7606 53.6087 16.9506 53.5019L21.0594 51.1269C21.6294 50.7944 21.8194 50.07 21.4987 49.5C21.1662 48.93 20.4419 48.74 19.8719 49.0606Z" fill="#00AAE8"/>
<path d="M59.5462 28.7188C59.7481 28.7188 59.95 28.6713 60.14 28.5644L64.2487 26.1894C64.8187 25.8569 65.0088 25.1325 64.6881 24.5625C64.3556 23.9925 63.6312 23.8025 63.0612 24.1231L58.9525 26.4981C58.3825 26.8306 58.1925 27.555 58.5131 28.125C58.7388 28.505 59.1306 28.7188 59.5462 28.7188Z" fill="#00AAE8"/>
<path d="M27.6856 19.8719C27.9112 20.2519 28.3031 20.4656 28.7187 20.4656C28.9206 20.4656 29.1225 20.4181 29.3125 20.3113C29.8825 19.9788 30.0725 19.2544 29.7519 18.6844L27.3769 14.5756C27.0444 14.0056 26.32 13.8156 25.75 14.1363C25.18 14.4688 24.99 15.1931 25.3106 15.7631L27.6856 19.8719Z" fill="#00AAE8"/>
<path d="M50.6875 20.2994C50.8775 20.4063 51.0794 20.4538 51.2813 20.4538C51.6969 20.4538 52.0888 20.24 52.3144 19.86L54.6894 15.7513C55.0219 15.1813 54.82 14.4569 54.25 14.1244C53.68 13.7919 52.9556 13.9938 52.6231 14.5638L50.2481 18.6725C49.9156 19.2425 50.1175 19.9669 50.6875 20.2994Z" fill="#00AAE8"/>
<path d="M21.0594 26.4981L16.9506 24.1231C16.3806 23.7906 15.6562 23.9925 15.3238 24.5625C14.9913 25.1325 15.1931 25.8569 15.7631 26.1894L19.8719 28.5644C20.0619 28.6713 20.2637 28.7188 20.4656 28.7188C20.8812 28.7188 21.2731 28.505 21.4987 28.125C21.8312 27.555 21.6294 26.8306 21.0594 26.4981Z" fill="#00AAE8"/>
<path d="M64.2488 51.4356L60.14 49.0606C59.57 48.7281 58.8456 48.93 58.5131 49.5C58.1806 50.07 58.3825 50.7944 58.9525 51.1269L63.0613 53.5019C63.2513 53.6088 63.4531 53.6563 63.655 53.6563C64.0706 53.6563 64.4625 53.4425 64.6881 53.0625C65.0206 52.4925 64.8188 51.7681 64.2488 51.4356Z" fill="#00AAE8"/>
</svg>
