<svg width="80" height="80" viewBox="0 0 80 80" fill="none" xmlns="http://www.w3.org/2000/svg">
<g clip-path="url(#clip0_976_22)">
<path fill-rule="evenodd" clip-rule="evenodd" d="M40 55.05V43.75C40 39.65 37.1 36.15 33.3 35.25L28.5 29.25L26.5 30.85L30 35.15C28.3 35.45 26.7 36.15 25.5 37.25L21 30.55L19 31.95L23.8 39.15C23 40.45 22.5 42.05 22.5 43.75V55.05H25V49.95C26.6 51.55 28.8 52.55 31.3 52.55C33.8 52.55 36 51.55 37.6 49.95V55.05H40ZM31.3 50.05C27.8 50.05 25 47.25 25 43.75C25 40.25 27.8 37.45 31.3 37.45C34.8 37.45 37.6 40.25 37.6 43.75C37.5 47.25 34.7 50.05 31.3 50.05Z" fill="#00AAE8"/>
<path fill-rule="evenodd" clip-rule="evenodd" d="M50.0001 24.35V28.75H49.5001L44.6001 33.65L49.0001 39.55L51.0001 38.05L47.9001 33.95L50.5001 31.35H51.2001H58.7001H59.4001L62.0001 33.95L59.0001 38.05L61.0001 39.55L65.4001 33.65L60.5001 28.75H60.0001V24.35C61.5001 22.95 62.5001 20.95 62.5001 18.75C62.5001 14.65 59.1001 11.25 55.0001 11.25C50.9001 11.25 47.5001 14.65 47.5001 18.75C47.5001 20.95 48.5001 22.95 50.0001 24.35ZM57.5001 28.75H52.5001V25.85C53.3001 26.15 54.1001 26.25 55.0001 26.25C55.9001 26.25 56.7001 26.05 57.5001 25.85V28.75ZM55.0001 13.75C57.8001 13.75 60.0001 15.95 60.0001 18.75C60.0001 21.55 57.8001 23.75 55.0001 23.75C52.2001 23.75 50.0001 21.55 50.0001 18.75C50.0001 15.95 52.2001 13.75 55.0001 13.75Z" fill="#00AAE8"/>
<path fill-rule="evenodd" clip-rule="evenodd" d="M22.5 30.05C24.8 30.05 26.8 29.05 28.2 27.45L46.5 23.75L46 21.25L29.7 24.55C29.9 23.95 30 23.25 30 22.55C30 21.05 29.6 19.65 28.8 18.45L46.4 16.25L46.1 13.75L26.6 16.25C25.4 15.45 24 15.05 22.5 15.05C18.4 15.05 15 18.35 15 22.55C15 26.75 18.4 30.05 22.5 30.05ZM22.5 17.55C25.3 17.55 27.5 19.75 27.5 22.55C27.5 25.35 25.3 27.55 22.5 27.55C19.7 27.55 17.5 25.35 17.5 22.55C17.5 19.75 19.7 17.55 22.5 17.55Z" fill="#00AAE8"/>
<path d="M63.8 61.25H61.3V63.75H63.8V61.25Z" fill="#00AAE8"/>
<path d="M18.8 61.25H16.3V63.75H18.8V61.25Z" fill="#00AAE8"/>
<path d="M26.3 61.25H23.8V63.75H26.3V61.25Z" fill="#00AAE8"/>
<path d="M33.8 61.25H31.3V63.75H33.8V61.25Z" fill="#00AAE8"/>
<path d="M41.3 61.25H38.8V63.75H41.3V61.25Z" fill="#00AAE8"/>
<path d="M48.8 61.25H46.3V63.75H48.8V61.25Z" fill="#00AAE8"/>
<path d="M56.3 61.25H53.8V63.75H56.3V61.25Z" fill="#00AAE8"/>
<path fill-rule="evenodd" clip-rule="evenodd" d="M63.8 56.25H62.5V45.05C62.5 44.35 61.9 43.75 61.2 43.75H48.8C48.1 43.75 47.5 44.35 47.5 45.05V56.25H16.3C12.8 56.25 10 59.05 10 62.55C10 66.05 12.8 68.85 16.3 68.85H63.8C67.3 68.85 70.1 66.05 70.1 62.55C70 59.05 67.2 56.25 63.8 56.25ZM50 46.25H60V56.25H50V46.25ZM63.8 66.25H16.3C14.2 66.25 12.5 64.55 12.5 62.45C12.5 60.35 14.2 58.65 16.3 58.65H48.8H61.3H63.8C65.9 58.65 67.6 60.35 67.6 62.45C67.5 64.55 65.8 66.25 63.8 66.25Z" fill="#00AAE8"/>
</g>
<defs>
<clipPath id="clip0_976_22">
<rect width="60" height="57.5" fill="white" transform="translate(10 11.25)"/>
</clipPath>
</defs>
</svg>
