<svg width="58" height="55" viewBox="0 0 58 55" fill="none" xmlns="http://www.w3.org/2000/svg">
<path d="M47.0219 23.1145C47.4124 22.7239 47.4124 22.0908 47.0219 21.7003C46.6314 21.3097 45.9982 21.3097 45.6077 21.7003L47.0219 23.1145ZM37.5818 29.7262C37.1913 30.1167 37.1913 30.7499 37.5818 31.1404C37.9723 31.5309 38.6055 31.5309 38.996 31.1404L37.5818 29.7262ZM5.57407 17.3333C5.02179 17.3333 4.57407 17.781 4.57407 18.3333C4.57407 18.8856 5.02179 19.3333 5.57407 19.3333V17.3333ZM21.8704 19.3333C22.4227 19.3333 22.8704 18.8856 22.8704 18.3333C22.8704 17.781 22.4227 17.3333 21.8704 17.3333V19.3333ZM9.64815 23.4444C9.09586 23.4444 8.64815 23.8921 8.64815 24.4444C8.64815 24.9967 9.09586 25.4444 9.64815 25.4444V23.4444ZM17.7963 25.4444C18.3486 25.4444 18.7963 24.9967 18.7963 24.4444C18.7963 23.8921 18.3486 23.4444 17.7963 23.4444V25.4444ZM16.8555 30.661C16.9138 30.1118 16.5158 29.6193 15.9666 29.5611C15.4174 29.5028 14.9249 29.9008 14.8667 30.45L16.8555 30.661ZM1.5 11.2222C0.947715 11.2222 0.5 11.6699 0.5 12.2222C0.5 12.7745 0.947715 13.2222 1.5 13.2222V11.2222ZM51.5049 19.4086C51.1144 19.7991 51.1144 20.4323 51.5049 20.8228C51.8955 21.2133 52.5286 21.2133 52.9191 20.8228L51.5049 19.4086ZM54.8907 17.437L54.1836 16.7299L54.8907 17.437ZM54.8907 14.5546L54.1836 15.2617V15.2617L54.8907 14.5546ZM54.1676 13.8314L54.8747 13.1243L54.1676 13.8314ZM51.2852 13.8314L51.9923 14.5385L51.2852 13.8314ZM47.8994 15.803C47.5089 16.1936 47.5089 16.8267 47.8994 17.2172C48.2899 17.6078 48.9231 17.6078 49.3136 17.2172L47.8994 15.803ZM36.1296 45.8518C35.5773 45.8518 35.1296 46.2995 35.1296 46.8518C35.1296 47.4041 35.5773 47.8518 36.1296 47.8518V45.8518ZM50.4944 27.4663C50.3071 26.9468 49.7341 26.6775 49.2145 26.8648C48.695 27.0521 48.4257 27.6251 48.613 28.1447L50.4944 27.4663ZM38.1852 32.5925C38.1852 33.7278 37.2649 34.6481 36.1296 34.6481V36.6481C38.3695 36.6481 40.1852 34.8324 40.1852 32.5925H38.1852ZM36.1296 34.6481C34.9944 34.6481 34.0741 33.7278 34.0741 32.5925H32.0741C32.0741 34.8324 33.8898 36.6481 36.1296 36.6481V34.6481ZM34.0741 32.5925C34.0741 31.4573 34.9944 30.537 36.1296 30.537V28.537C33.8898 28.537 32.0741 30.3527 32.0741 32.5925H34.0741ZM36.1296 30.537C37.2649 30.537 38.1852 31.4573 38.1852 32.5925H40.1852C40.1852 30.3527 38.3695 28.537 36.1296 28.537V30.537ZM45.6077 21.7003L37.5818 29.7262L38.996 31.1404L47.0219 23.1145L45.6077 21.7003ZM5.57407 19.3333H21.8704V17.3333H5.57407V19.3333ZM9.64815 25.4444H17.7963V23.4444H9.64815V25.4444ZM14.8667 30.45C14.7911 31.1624 14.7593 31.8703 14.7593 32.5925H16.7593C16.7593 31.9296 16.7885 31.2931 16.8555 30.661L14.8667 30.45ZM14.7593 32.5925C14.7593 44.3995 24.3227 53.9629 36.1296 53.9629V51.9629C25.4273 51.9629 16.7593 43.2949 16.7593 32.5925H14.7593ZM36.1296 53.9629C47.9365 53.9629 57.5 44.3995 57.5 32.5925H55.5C55.5 43.2949 46.832 51.9629 36.1296 51.9629V53.9629ZM57.5 32.5925C57.5 20.7856 47.9365 11.2222 36.1296 11.2222V13.2222C46.832 13.2222 55.5 21.8902 55.5 32.5925H57.5ZM36.1296 11.2222H1.5V13.2222H36.1296V11.2222ZM39.1852 7.1481H33.0741V9.1481H39.1852V7.1481ZM33.0741 7.1481C31.9356 7.1481 31.0185 6.231 31.0185 5.09254H29.0185C29.0185 7.33557 30.8311 9.1481 33.0741 9.1481V7.1481ZM31.0185 5.09254C31.0185 3.95409 31.9356 3.03699 33.0741 3.03699V1.03699C30.8311 1.03699 29.0185 2.84952 29.0185 5.09254H31.0185ZM33.0741 3.03699H39.1852V1.03699H33.0741V3.03699ZM39.1852 3.03699C40.3236 3.03699 41.2407 3.95409 41.2407 5.09254H43.2407C43.2407 2.84952 41.4282 1.03699 39.1852 1.03699V3.03699ZM41.2407 5.09254C41.2407 6.231 40.3236 7.1481 39.1852 7.1481V9.1481C41.4282 9.1481 43.2407 7.33557 43.2407 5.09254H41.2407ZM37.1296 12.2222V8.1481H35.1296V12.2222H37.1296ZM52.9191 20.8228L55.5978 18.1441L54.1836 16.7299L51.5049 19.4086L52.9191 20.8228ZM55.5978 18.1441C56.7828 16.9591 56.7828 15.0324 55.5978 13.8475L54.1836 15.2617C54.5876 15.6656 54.5876 16.326 54.1836 16.7299L55.5978 18.1441ZM55.5978 13.8475L54.8747 13.1243L53.4605 14.5385L54.1836 15.2617L55.5978 13.8475ZM54.8747 13.1243C53.6897 11.9394 51.7631 11.9394 50.5781 13.1243L51.9923 14.5385C52.3962 14.1346 53.0566 14.1346 53.4605 14.5385L54.8747 13.1243ZM50.5781 13.1243L47.8994 15.803L49.3136 17.2172L51.9923 14.5385L50.5781 13.1243ZM36.1296 47.8518C44.5551 47.8518 51.3889 41.018 51.3889 32.5925H49.3889C49.3889 39.9134 43.4505 45.8518 36.1296 45.8518V47.8518ZM51.3889 32.5925C51.3889 30.7938 51.0726 29.0699 50.4944 27.4663L48.613 28.1447C49.1145 29.5356 49.3889 31.0302 49.3889 32.5925H51.3889Z" fill="black"/>
</svg>
