<svg width="61" height="55" viewBox="0 0 61 55" fill="none" xmlns="http://www.w3.org/2000/svg">
<path d="M11.8486 43.441H3.89103V41.7223H10.1299V13.295H3.89103V11.5762H11.8486V43.441Z" fill="black"/>
<path d="M16.9532 26.6493H3.89103V28.368H16.9532V26.6493Z" fill="black"/>
<path d="M2.98012 15.0652C1.51922 15.0652 0.333313 13.8793 0.333313 12.4184C0.333313 10.9575 1.51922 9.78879 2.98012 9.78879C4.44102 9.78879 5.62692 10.9747 5.62692 12.4356C5.62692 13.8965 4.44102 15.0824 2.98012 15.0824V15.0652ZM2.98012 11.5075C2.48169 11.5075 2.05202 11.92 2.05202 12.4356C2.05202 12.9512 2.46451 13.3637 2.98012 13.3637C3.49573 13.3637 3.90822 12.9512 3.90822 12.4356C3.90822 11.92 3.49573 11.5075 2.98012 11.5075Z" fill="black"/>
<path d="M2.98012 30.1383C1.51922 30.1383 0.333313 28.9524 0.333313 27.5086C0.333313 26.0649 1.51922 24.8618 2.98012 24.8618C4.44102 24.8618 5.62692 26.0477 5.62692 27.5086C5.62692 28.9695 4.44102 30.1383 2.98012 30.1383ZM2.98012 26.5805C2.48169 26.5805 2.05202 26.993 2.05202 27.5086C2.05202 28.0243 2.46451 28.4196 2.98012 28.4196C3.49573 28.4196 3.90822 28.0071 3.90822 27.5086C3.90822 27.0102 3.49573 26.5805 2.98012 26.5805Z" fill="black"/>
<path d="M2.98012 45.2285C1.51922 45.2285 0.333313 44.0426 0.333313 42.5989C0.333313 41.1552 1.51922 39.9521 2.98012 39.9521C4.44102 39.9521 5.62692 41.138 5.62692 42.5989C5.62692 44.0598 4.44102 45.2285 2.98012 45.2285ZM2.98012 41.6708C2.48169 41.6708 2.05202 42.0833 2.05202 42.5989C2.05202 43.1145 2.46451 43.5098 2.98012 43.5098C3.49573 43.5098 3.90822 43.0973 3.90822 42.5989C3.90822 42.1005 3.49573 41.6708 2.98012 41.6708Z" fill="black"/>
<path d="M56.7756 43.441H48.818V11.5762H56.7756V13.295H50.5367V41.7223H56.7756V43.441Z" fill="black"/>
<path d="M56.7756 26.6493H43.7134V28.368H56.7756V26.6493Z" fill="black"/>
<path d="M57.6865 15.0652C56.2256 15.0652 55.0397 13.8793 55.0397 12.4184C55.0397 10.9575 56.2256 9.77161 57.6865 9.77161C59.1474 9.77161 60.3333 10.9575 60.3333 12.4184C60.3333 13.8793 59.1474 15.0652 57.6865 15.0652ZM57.6865 11.5075C57.1881 11.5075 56.7584 11.92 56.7584 12.4356C56.7584 12.9512 57.1709 13.3637 57.6865 13.3637C58.2021 13.3637 58.6146 12.9512 58.6146 12.4356C58.6146 11.92 58.2021 11.5075 57.6865 11.5075Z" fill="black"/>
<path d="M57.6865 30.1383C56.2256 30.1383 55.0397 28.9524 55.0397 27.5086C55.0397 26.0649 56.2256 24.8618 57.6865 24.8618C59.1474 24.8618 60.3333 26.0477 60.3333 27.5086C60.3333 28.9695 59.1474 30.1383 57.6865 30.1383ZM57.6865 26.5805C57.1881 26.5805 56.7584 26.993 56.7584 27.5086C56.7584 28.0243 57.1709 28.4196 57.6865 28.4196C58.2021 28.4196 58.6146 28.0071 58.6146 27.5086C58.6146 27.0102 58.2021 26.5805 57.6865 26.5805Z" fill="black"/>
<path d="M57.6865 45.2285C56.2256 45.2285 55.0397 44.0426 55.0397 42.5989C55.0397 41.1552 56.2256 39.9521 57.6865 39.9521C59.1474 39.9521 60.3333 41.138 60.3333 42.5989C60.3333 44.0598 59.1474 45.2285 57.6865 45.2285ZM57.6865 41.6708C57.1881 41.6708 56.7584 42.0833 56.7584 42.5989C56.7584 43.1145 57.1709 43.5098 57.6865 43.5098C58.2021 43.5098 58.6146 43.0973 58.6146 42.5989C58.6146 42.1005 58.2021 41.6708 57.6865 41.6708Z" fill="black"/>
<path d="M32.8512 41.6192H27.7982L26.4576 37.6318L25.8733 37.3912L22.1093 39.2646L18.5344 35.6897L20.4078 31.9257L20.1672 31.3414L16.1798 30.0008V24.9478L20.1672 23.6072L20.4078 23.0228L18.5344 19.2589L22.1093 15.684L25.8733 17.5573L26.4576 17.3167L27.7982 13.3293H32.8512L34.1918 17.3167L34.7762 17.5573L38.5401 15.684L42.115 19.2589L40.2416 23.0228L40.4823 23.6072L44.4697 24.9478V30.0008L40.4823 31.3414L40.2416 31.9257L42.115 35.6897L38.5401 39.2646L34.7762 37.3912L34.1918 37.6318L32.8512 41.6192ZM29.0357 39.9005H31.6138L32.7997 36.3428L34.8277 35.5006L38.1792 37.1678L40.001 35.3459L38.3339 31.9945L39.1761 29.9664L42.7338 28.7805V26.2024L39.1761 25.0165L38.3339 22.9884L40.001 19.637L38.1792 17.8151L34.8277 19.4823L32.7997 18.6401L31.6138 15.0824H29.0357L27.8498 18.6401L25.8217 19.4823L22.4702 17.8151L20.6484 19.637L22.3156 22.9884L21.4734 25.0165L17.9157 26.2024V28.7805L21.4734 29.9664L22.3156 31.9945L20.6484 35.3459L22.4702 37.1678L25.8217 35.5006L27.8498 36.3428L29.0357 39.9005Z" fill="black"/>
<path d="M30.3247 32.8366C27.3857 32.8366 24.9967 30.4476 24.9967 27.5086C24.9967 24.5697 27.3857 22.1807 30.3247 22.1807C33.2637 22.1807 35.6527 24.5697 35.6527 27.5086C35.6527 30.4476 33.2637 32.8366 30.3247 32.8366ZM30.3247 23.8994C28.331 23.8994 26.7154 25.5149 26.7154 27.5086C26.7154 29.5023 28.331 31.1179 30.3247 31.1179C32.3184 31.1179 33.934 29.5023 33.934 27.5086C33.934 25.5149 32.3184 23.8994 30.3247 23.8994Z" fill="black"/>
</svg>
