<svg width="56" height="55" viewBox="0 0 56 55" fill="none" xmlns="http://www.w3.org/2000/svg">
<path d="M27.9989 46.1933C27.8542 46.1933 27.7085 46.1595 27.5757 46.091L1.00585 32.4906C0.695815 32.3317 0.5 32.013 0.5 31.6638C0.5 31.3146 0.695815 30.9959 1.00585 30.837L20.7385 20.7373C21.1965 20.5035 21.7546 20.6851 21.9885 21.1409C22.2224 21.5978 22.0418 22.157 21.5849 22.3909L3.46659 31.6649L27.9989 44.2221L52.5312 31.6649L34.414 22.392C33.9571 22.1581 33.7765 21.5989 34.0104 21.142C34.2432 20.6862 34.8024 20.5045 35.2604 20.7384L54.9931 30.8381C55.3031 30.9969 55.4989 31.3157 55.4989 31.6649C55.4989 32.0141 55.3031 32.3328 54.9931 32.4917L28.4221 46.0921C28.2894 46.1606 28.1447 46.1943 27.9989 46.1943V46.1933Z" fill="black"/>
<path d="M27.9989 54.1781C27.8542 54.1781 27.7085 54.1444 27.5757 54.0759L1.00585 40.4766C0.695815 40.3177 0.5 39.999 0.5 39.6498C0.5 39.3006 0.695815 38.9818 1.00585 38.823L5.36491 36.5918C5.82181 36.3579 6.38097 36.5396 6.61486 36.9954C6.84875 37.4523 6.66816 38.0115 6.21126 38.2454L3.46768 39.6498L28 52.2059L52.5323 39.6498L49.4961 38.0952C49.0392 37.8613 48.8586 37.3022 49.0925 36.8453C49.3253 36.3884 49.8845 36.2078 50.3425 36.4417L54.9941 38.823C55.3042 38.9818 55.5 39.3006 55.5 39.6498C55.5 39.999 55.3042 40.3177 54.9941 40.4766L28.4232 54.0759C28.2905 54.1444 28.1458 54.1781 28 54.1781H27.9989Z" fill="black"/>
<path d="M27.9826 39.7879C27.7095 39.7879 27.4343 39.7727 27.1591 39.7412C23.964 39.3778 21.3238 36.805 20.8832 33.6241C20.5221 31.0165 21.561 28.4916 23.6094 26.9131V5.21141C23.6094 2.79092 25.5784 0.821899 27.9989 0.821899C30.4194 0.821899 32.3884 2.79092 32.3884 5.21141V26.9142C34.1486 28.2719 35.1853 30.3627 35.1853 32.6026C35.1853 34.6478 34.3096 36.6027 32.7822 37.9658C31.4616 39.145 29.7471 39.7879 27.9826 39.7879ZM27.9989 2.67888C26.6021 2.67888 25.4664 3.8146 25.4664 5.21141V27.3907C25.4664 27.7007 25.3108 27.9912 25.0519 28.1642C23.3287 29.3108 22.4356 31.3059 22.7228 33.3707C23.0492 35.7237 25.0029 37.6274 27.369 37.8972C28.9138 38.0724 30.3976 37.6057 31.5464 36.582C32.6789 35.5714 33.3283 34.1213 33.3283 32.6048C33.3283 30.8174 32.4374 29.1585 30.9459 28.1652C30.687 27.9934 30.5314 27.7029 30.5314 27.3918V5.21141C30.5314 3.8146 29.3957 2.67888 27.9989 2.67888Z" fill="black"/>
<path d="M27.9989 30.9741C27.4865 30.9741 27.071 30.5585 27.071 30.0462V13.0843C27.071 12.5719 27.4865 12.1563 27.9989 12.1563C28.5113 12.1563 28.9269 12.5719 28.9269 13.0843V30.0462C28.9269 30.5585 28.5113 30.9741 27.9989 30.9741Z" fill="black"/>
<path d="M30.2276 33.2892C30.5209 32.0589 29.7614 30.8239 28.5312 30.5306C27.301 30.2373 26.0659 30.9968 25.7726 32.227C25.4793 33.4572 26.2388 34.6923 27.469 34.9856C28.6992 35.2789 29.9343 34.5194 30.2276 33.2892Z" fill="black"/>
<path d="M27.9989 35.9728C26.2246 35.9728 24.781 34.5292 24.781 32.7549C24.781 30.9806 26.2246 29.537 27.9989 29.537C29.7732 29.537 31.2168 30.9806 31.2168 32.7549C31.2168 34.5292 29.7732 35.9728 27.9989 35.9728ZM27.9989 31.394C27.2483 31.394 26.638 32.0043 26.638 32.7549C26.638 33.5056 27.2483 34.1158 27.9989 34.1158C28.7495 34.1158 29.3598 33.5056 29.3598 32.7549C29.3598 32.0043 28.7495 31.394 27.9989 31.394Z" fill="black"/>
</svg>
