<svg width="50" height="50" viewBox="0 0 50 50" fill="none" xmlns="http://www.w3.org/2000/svg">
<path d="M5.73145 42.037C5.73145 42.4513 6.06723 42.787 6.48145 42.787C6.89566 42.787 7.23145 42.4513 7.23145 42.037H5.73145ZM9.04441 36.3926L8.7275 35.7128L8.72584 35.7136L9.04441 36.3926ZM17.5926 32.4074L18.2998 32.1578C18.2294 31.9583 18.078 31.7978 17.883 31.7159C17.6879 31.634 17.4674 31.6383 17.2757 31.7277L17.5926 32.4074ZM22.037 45L21.3298 45.2496C21.4378 45.5557 21.7304 45.7575 22.0549 45.7498C22.3794 45.742 22.6621 45.5264 22.7554 45.2155L22.037 45ZM42.7685 42.037C42.7685 42.4513 43.1043 42.787 43.5185 42.787C43.9327 42.787 44.2685 42.4513 44.2685 42.037H42.7685ZM40.9555 36.3926L41.2741 35.7136L41.2724 35.7128L40.9555 36.3926ZM32.4074 32.4074L32.7243 31.7277C32.5325 31.6383 32.312 31.634 32.1169 31.7159C31.9219 31.7978 31.7705 31.9583 31.7001 32.1578L32.4074 32.4074ZM27.9629 45L27.2446 45.2155C27.3378 45.5264 27.6205 45.742 27.945 45.7498C28.2695 45.7575 28.5621 45.5557 28.6702 45.2496L27.9629 45ZM16.8518 23.5185H17.6018C17.6018 23.1043 17.266 22.7685 16.8518 22.7685V23.5185ZM16.8518 19.0741V19.8241C17.266 19.8241 17.6018 19.4883 17.6018 19.0741H16.8518ZM32.0963 12.6815L32.8088 12.4473C32.7332 12.2173 32.5512 12.038 32.3202 11.9657C32.0892 11.8934 31.8375 11.9371 31.6443 12.083L32.0963 12.6815ZM33.1481 19.0815H32.3981C32.3981 19.4957 32.7339 19.8315 33.1481 19.8315V19.0815ZM33.1481 23.5259V22.7759C32.7339 22.7759 32.3981 23.1117 32.3981 23.5259H33.1481ZM32.4666 8.45185L31.7645 8.71552C31.8744 9.00808 32.1541 9.20185 32.4666 9.20185V8.45185ZM27.8462 35.7864C28.076 35.4418 27.9829 34.9761 27.6382 34.7463C27.2936 34.5166 26.8279 34.6097 26.5982 34.9543L27.8462 35.7864ZM23.4018 34.9543C23.172 34.6097 22.7064 34.5166 22.3617 34.7463C22.0171 34.9761 21.9239 35.4418 22.1537 35.7864L23.4018 34.9543ZM7.23145 42.037V40.4222H5.73145V42.037H7.23145ZM7.23145 40.4222C7.23145 38.9878 8.06267 37.6817 9.36298 37.0716L8.72584 35.7136C6.90022 36.5702 5.73145 38.4048 5.73145 40.4222H7.23145ZM9.36131 37.0724L17.9095 33.0872L17.2757 31.7277L8.7275 35.7128L9.36131 37.0724ZM16.8853 32.657L21.3298 45.2496L22.7442 44.7504L18.2998 32.1578L16.8853 32.657ZM22.7554 45.2155L24.9776 37.8081L23.5409 37.3771L21.3186 44.7845L22.7554 45.2155ZM44.2685 42.037V40.4222H42.7685V42.037H44.2685ZM44.2685 40.4222C44.2685 38.4048 43.0997 36.5702 41.2741 35.7136L40.6369 37.0716C41.9373 37.6817 42.7685 38.9878 42.7685 40.4222H44.2685ZM41.2724 35.7128L32.7243 31.7277L32.0905 33.0872L40.6386 37.0724L41.2724 35.7128ZM31.7001 32.1578L27.2557 44.7504L28.6702 45.2496L33.1146 32.657L31.7001 32.1578ZM28.6813 44.7845L26.4591 37.3771L25.0223 37.8081L27.2446 45.2155L28.6813 44.7845ZM16.8518 22.7685C16.5065 22.7685 16.2665 22.6145 16.0781 22.3091C15.8714 21.9739 15.75 21.4746 15.75 20.9259H14.25C14.25 21.6588 14.4063 22.4557 14.8014 23.0965C15.2149 23.767 15.9009 24.2685 16.8518 24.2685V22.7685ZM15.75 20.9259C15.75 20.3789 15.8736 20.1518 15.9757 20.0498C16.0777 19.9478 16.3048 19.8241 16.8518 19.8241V18.3241C16.1174 18.3241 15.4185 18.4856 14.915 18.9891C14.4115 19.4927 14.25 20.1915 14.25 20.9259H15.75ZM17.6018 19.0741C17.6018 17.724 17.8119 16.3763 18.1719 15.393C18.3527 14.8989 18.5558 14.5402 18.7531 14.318C18.946 14.1009 19.0802 14.0685 19.1555 14.0685V12.5685C18.516 12.5685 18.0048 12.9019 17.6318 13.3218C17.2631 13.7367 16.9796 14.2863 16.7633 14.8774C16.3287 16.0645 16.1018 17.5945 16.1018 19.0741H17.6018ZM19.1555 14.0685C20.1286 14.0685 21.1179 14.3529 22.3159 14.6824C23.4797 15.0025 24.7991 15.35 26.274 15.35V13.85C25.0231 13.85 23.8795 13.5568 22.7137 13.2361C21.582 12.9249 20.375 12.5685 19.1555 12.5685V14.0685ZM26.274 15.35C28.057 15.35 29.6218 14.8302 30.7285 14.3224C31.2844 14.0673 31.7324 13.8118 32.0438 13.6183C32.1998 13.5214 32.3221 13.4397 32.4072 13.3808C32.4498 13.3514 32.4831 13.3277 32.5067 13.3105C32.5186 13.302 32.528 13.2951 32.5349 13.29C32.5384 13.2874 32.5412 13.2853 32.5434 13.2836C32.5445 13.2828 32.5455 13.2821 32.5463 13.2815C32.5467 13.2812 32.5471 13.2809 32.5474 13.2807C32.5475 13.2805 32.5477 13.2804 32.5478 13.2803C32.548 13.2802 32.5482 13.28 32.0963 12.6815C31.6443 12.083 31.6445 12.0828 31.6446 12.0827C31.6447 12.0827 31.6448 12.0826 31.6449 12.0825C31.6451 12.0824 31.6452 12.0823 31.6453 12.0822C31.6455 12.0821 31.6455 12.082 31.6454 12.0821C31.6451 12.0823 31.6443 12.0829 31.6429 12.084C31.64 12.0861 31.6347 12.09 31.6271 12.0955C31.6119 12.1065 31.5875 12.124 31.5542 12.147C31.4875 12.1931 31.3857 12.2612 31.2522 12.3442C30.9847 12.5104 30.5924 12.7345 30.1029 12.9591C29.1189 13.4106 27.7726 13.85 26.274 13.85V15.35ZM32.0963 12.6815C31.3838 12.9157 31.3837 12.9156 31.3837 12.9155C31.3837 12.9155 31.3837 12.9154 31.3837 12.9154C31.3837 12.9154 31.3837 12.9154 31.3837 12.9154C31.3837 12.9155 31.3838 12.9159 31.384 12.9163C31.3843 12.9173 31.3849 12.9191 31.3857 12.9216C31.3873 12.9266 31.3899 12.9346 31.3934 12.9456C31.4003 12.9674 31.4108 13.0009 31.4244 13.0452C31.4516 13.1339 31.4911 13.2658 31.5387 13.4349C31.634 13.7732 31.7618 14.2587 31.8896 14.842C32.1464 16.0141 32.3981 17.556 32.3981 19.0815H33.8981C33.8981 17.4069 33.6239 15.7488 33.3548 14.5209C33.2197 13.9042 33.0844 13.3898 32.9825 13.0281C32.9315 12.8471 32.8888 12.7041 32.8585 12.6053C32.8433 12.5558 32.8312 12.5174 32.8228 12.4909C32.8186 12.4776 32.8152 12.4672 32.8129 12.4599C32.8117 12.4563 32.8108 12.4534 32.8101 12.4513C32.8097 12.4502 32.8094 12.4494 32.8092 12.4487C32.8091 12.4484 32.809 12.4481 32.8089 12.4478C32.8089 12.4477 32.8089 12.4476 32.8088 12.4475C32.8088 12.4474 32.8088 12.4473 32.0963 12.6815ZM33.1481 19.8315C33.6952 19.8315 33.9222 19.9552 34.0243 20.0572C34.1263 20.1592 34.25 20.3863 34.25 20.9333H35.75C35.75 20.1989 35.5885 19.5001 35.0849 18.9965C34.5814 18.493 33.8826 18.3315 33.1481 18.3315V19.8315ZM34.25 20.9333C34.25 21.4786 34.1261 21.9782 33.9173 22.3148C33.7255 22.6238 33.484 22.7759 33.1481 22.7759V24.2759C34.0938 24.2759 34.7781 23.7725 35.1919 23.1056C35.5886 22.4662 35.75 21.6695 35.75 20.9333H34.25ZM32.3981 23.5259C32.3981 28.4214 28.9158 32.4056 24.9777 32.4056V33.9056C29.973 33.9056 33.8981 29.0008 33.8981 23.5259H32.3981ZM24.9777 32.4056C21.0445 32.4056 17.6018 28.4271 17.6018 23.5259H16.1018C16.1018 28.9951 19.9777 33.9056 24.9777 33.9056V32.4056ZM17.6018 23.5259V23.5185H16.1018V23.5259H17.6018ZM35.612 20.2006C36.2028 16.9454 36.2991 13.9412 35.8707 11.7148C35.6572 10.6051 35.3022 9.62894 34.7607 8.91316C34.2017 8.17417 33.4293 7.70185 32.4666 7.70185V9.20185C32.8743 9.20185 33.2334 9.38046 33.5644 9.81809C33.913 10.2789 34.2066 11.0051 34.3977 11.9982C34.7786 13.9773 34.7082 16.7805 34.1361 19.9327L35.612 20.2006ZM33.1688 8.18818C32.4538 6.28439 31.3403 5.25488 30.0779 4.73751C28.8674 4.24137 27.5861 4.25 26.637 4.25V5.75C27.6287 5.75 28.614 5.75863 29.5091 6.12546C30.3523 6.47104 31.1832 7.16746 31.7645 8.71552L33.1688 8.18818ZM26.637 4.25C22.8216 4.25 19.1735 4.99473 16.7483 7.53485C14.3061 10.0927 13.2914 14.2673 14.2584 20.6676L15.7415 20.4435C14.8048 14.2438 15.8568 10.6407 17.8332 8.5707C19.8264 6.48305 22.9487 5.75 26.637 5.75V4.25ZM26.5982 34.9543L25.1167 37.1766L26.3647 38.0086L27.8462 35.7864L26.5982 34.9543ZM25.7407 36.8426H24.2592V38.3426H25.7407V36.8426ZM24.8833 37.1766L23.4018 34.9543L22.1537 35.7864L23.6352 38.0086L24.8833 37.1766Z" fill="#00AAE8"/>
</svg>
