<svg width="80" height="80" viewBox="0 0 80 80" fill="none" xmlns="http://www.w3.org/2000/svg">
<path fill-rule="evenodd" clip-rule="evenodd" d="M40 24.9104L63.25 36.03V40.7263L62.0521 41.9243L60.9914 40.8636L61.75 40.105V36.9753L40 26.5731L18.25 36.9753V40.105L19.0086 40.8636L17.9479 41.9243L16.75 40.7263V36.03L40 24.9104ZM21.2656 38.1575L21.9127 36.8043L40 45.4539L58.0873 36.8043L58.7344 38.1575L40 47.1166L21.2656 38.1575ZM20.8827 39.8853L21.9434 40.946L20.2065 42.6829V47.2635H18.7065V42.0615L20.8827 39.8853ZM59.7935 42.6829L58.0566 40.946L59.1173 39.8853L61.2935 42.0615V47.2635H59.7935V42.6829ZM24.7958 41.8419L25.8564 42.9025L24.1196 44.6394V49.22H22.6196V44.0181L24.7958 41.8419ZM55.8804 44.6394L54.1436 42.9025L55.2042 41.8419L57.3804 44.0181V49.22H55.8804V44.6394ZM28.7088 43.7984L29.7695 44.859L28.0326 46.5959V51.1765H26.5326V45.9746L28.7088 43.7984ZM51.9674 46.5959L50.2305 44.859L51.2912 43.7984L53.4674 45.9746V51.1765H51.9674V46.5959ZM32.6218 45.7549L33.6825 46.8156L31.9457 48.5524V53.1331H30.4457V47.9311L32.6218 45.7549ZM48.0543 48.5524L46.3175 46.8156L47.3782 45.7549L49.5543 47.9311V53.1331H48.0543V48.5524ZM36.5349 47.7114L37.5955 48.7721L35.8587 50.5089V55.0896H34.3587V49.8876L36.5349 47.7114ZM44.1413 50.5089L42.4045 48.7721L43.4651 47.7114L45.6413 49.8876V55.0896H44.1413V50.5089ZM40 51.7446L37.3879 50.4995L36.7425 51.8536L40 53.4063L43.2575 51.8536L42.6121 50.4995L40 51.7446Z" fill="#00AAE8"/>
</svg>
