<svg width="80" height="80" viewBox="0 0 80 80" fill="none" xmlns="http://www.w3.org/2000/svg">
<path fill-rule="evenodd" clip-rule="evenodd" d="M42.4 58C41.7 58 41.2 58.5 41.2 59.2V67.6H36.8L36.3 62.2C36.3 61.7 35.9 61.2 35.4 61.1C32.9 60.6 30.5 59.6 28.4 58.2C28 57.9 27.4 58 27 58.3L22.8 61.8L18.2 57.2L21.7 53C22 52.6 22.1 52 21.8 51.6C20.4 49.5 19.5 47.1 18.9 44.6C18.8 44.1 18.4 43.7 17.8 43.7L12.4 43.2V36.8L17.8 36.3C18.3 36.3 18.8 35.9 18.9 35.4C19.5 32.9 20.4 30.5 21.8 28.4C22.1 28 22.1 27.4 21.7 27L18.2 22.8L22.8 18.2L27 21.7C27.4 22 28 22.1 28.4 21.8C30.5 20.4 32.9 19.5 35.4 18.9C35.9 18.8 36.3 18.4 36.3 17.8L36.8 12.4H41.2V20.8C41.2 21.5 41.7 22 42.4 22C43.1 22 43.6 21.5 43.6 20.8V11.2C43.6 10.5 43.1 10 42.4 10H35.7C35.1 10 34.6 10.5 34.5 11.1L34 16.8C31.8 17.4 29.7 18.2 27.8 19.3L23.4 15.6C22.9 15.2 22.2 15.2 21.8 15.7L15.7 21.8C15.3 22.2 15.2 22.9 15.6 23.4L19.3 27.8C18.2 29.7 17.3 31.8 16.7 34L11 34.5C10.5 34.5 10 35.1 10 35.7V44.3C10 44.9 10.5 45.4 11.1 45.5L16.8 46C17.4 48.2 18.2 50.3 19.4 52.2L15.7 56.6C15.3 57.1 15.3 57.8 15.8 58.2L21.9 64.3C22.3 64.7 23 64.8 23.5 64.4L27.9 60.7C29.8 61.8 31.9 62.7 34.1 63.2L34.6 68.9C34.7 69.5 35.2 70 35.8 70H42.5C43.2 70 43.7 69.5 43.7 68.8V59.2C43.6 58.5 43.1 58 42.4 58Z" fill="#00AAE8"/>
<path fill-rule="evenodd" clip-rule="evenodd" d="M65.2 42.4C63.9 42.4 62.6 43 61.8 43.9L57.4 41.4C57.2 41.3 57 41.2 56.8 41.2H52V38.8H56.8C57 38.8 57.2 38.7 57.4 38.6L61.8 36.1C62.7 37 63.9 37.6 65.2 37.6C67.9 37.6 70 35.5 70 32.8C70 30.1 67.9 28 65.2 28C62.5 28 60.4 30.1 60.4 32.8C60.4 33.2 60.5 33.7 60.6 34.1L56.5 36.4H52V34H55.6C56.3 34 56.8 33.5 56.8 32.8V24.2C58.9 23.7 60.4 21.8 60.4 19.6C60.4 16.9 58.3 14.8 55.6 14.8C52.9 14.8 50.8 16.9 50.8 19.6C50.8 21.8 52.3 23.7 54.4 24.2V31.6H52C52 29.6 50.4 28 48.4 28V25.6C48.4 24.9 47.9 24.4 47.2 24.4C46.5 24.4 46 24.9 46 25.6V28H43.6V25.6C43.6 24.9 43.1 24.4 42.4 24.4C41.7 24.4 41.2 24.9 41.2 25.6V28H38.8V25.6C38.8 24.9 38.3 24.4 37.6 24.4C36.9 24.4 36.4 24.9 36.4 25.6V28H34V25.6C34 24.9 33.5 24.4 32.8 24.4C32.1 24.4 31.6 24.9 31.6 25.6V28C29.6 28 28 29.6 28 31.6H25.6C24.9 31.6 24.4 32.1 24.4 32.8C24.4 33.5 24.9 34 25.6 34H28V36.4H25.6C24.9 36.4 24.4 36.9 24.4 37.6C24.4 38.3 24.9 38.8 25.6 38.8H28V41.2H25.6C24.9 41.2 24.4 41.7 24.4 42.4C24.4 43.1 24.9 43.6 25.6 43.6H28V46H25.6C24.9 46 24.4 46.5 24.4 47.2C24.4 47.9 24.9 48.4 25.6 48.4H28C28 50.4 29.6 52 31.6 52V54.4C31.6 55.1 32.1 55.6 32.8 55.6C33.5 55.6 34 55.1 34 54.4V52H36.4V54.4C36.4 55.1 36.9 55.6 37.6 55.6C38.3 55.6 38.8 55.1 38.8 54.4V52H41.2V54.4C41.2 55.1 41.7 55.6 42.4 55.6C43.1 55.6 43.6 55.1 43.6 54.4V52H46V54.4C46 55.1 46.5 55.6 47.2 55.6C47.9 55.6 48.4 55.1 48.4 54.4V52C50.4 52 52 50.4 52 48.4H54.4V55.8C52.3 56.3 50.8 58.2 50.8 60.4C50.8 63.1 52.9 65.2 55.6 65.2C58.3 65.2 60.4 63.1 60.4 60.4C60.4 58.2 58.9 56.3 56.8 55.8V47.2C56.8 46.5 56.3 46 55.6 46H52V43.6H56.5L60.6 45.9C60.5 46.3 60.4 46.7 60.4 47.2C60.4 49.9 62.5 52 65.2 52C67.9 52 70 49.9 70 47.2C70 44.5 67.9 42.4 65.2 42.4ZM65.2 30.4C66.5 30.4 67.6 31.5 67.6 32.8C67.6 34.1 66.5 35.2 65.2 35.2C63.9 35.2 62.8 34.1 62.8 32.8C62.8 31.5 63.9 30.4 65.2 30.4ZM53.2 19.6C53.2 18.3 54.3 17.2 55.6 17.2C56.9 17.2 58 18.3 58 19.6C58 20.9 56.9 22 55.6 22C54.3 22 53.2 20.9 53.2 19.6ZM58 60.4C58 61.7 56.9 62.8 55.6 62.8C54.3 62.8 53.2 61.7 53.2 60.4C53.2 59.1 54.3 58 55.6 58C56.9 58 58 59.1 58 60.4ZM49.6 48.4C49.6 49.1 49.1 49.6 48.4 49.6H31.6C30.9 49.6 30.4 49.1 30.4 48.4V31.6C30.4 30.9 30.9 30.4 31.6 30.4H48.4C49.1 30.4 49.6 30.9 49.6 31.6V48.4ZM65.2 49.6C63.9 49.6 62.8 48.5 62.8 47.2C62.8 45.9 63.9 44.8 65.2 44.8C66.5 44.8 67.6 45.9 67.6 47.2C67.6 48.5 66.5 49.6 65.2 49.6Z" fill="#00AAE8"/>
</svg>
