<svg width="80" height="80" viewBox="0 0 80 80" fill="none" xmlns="http://www.w3.org/2000/svg">
<path d="M61.8661 46.2231L54.4121 43.033L51.8149 44.1475L58.8701 47.1741L39.9949 55.262L21.1196 47.1638L28.1748 44.1372L25.5777 43.0227L18.1237 46.2129C17.7454 46.3765 17.5 46.7446 17.5 47.1536C17.5 47.5626 17.7454 47.9307 18.1237 48.0943L39.5961 57.2968C39.729 57.3479 39.862 57.3786 39.9949 57.3786C40.1278 57.3786 40.271 57.3479 40.3937 57.2968L61.8661 48.0943C62.2444 47.9307 62.4898 47.5626 62.4898 47.1536C62.4898 46.7446 62.2444 46.3765 61.8661 46.2129V46.2231Z" fill="#00AAE8"/>
<path d="M61.8661 39.0657L54.4121 35.8755L51.8149 36.99L58.8701 40.0166L39.9949 48.1045L21.1196 40.0064L28.1748 36.9798L25.5777 35.8653L18.1237 39.0554C17.7454 39.219 17.5 39.5871 17.5 39.9961C17.5 40.4051 17.7454 40.7732 18.1237 40.9368L39.5961 50.1393C39.729 50.1904 39.862 50.2211 39.9949 50.2211C40.1278 50.2211 40.271 50.1904 40.3937 50.1393L61.8661 40.9368C62.2444 40.7732 62.4898 40.4051 62.4898 39.9961C62.4898 39.5871 62.2444 39.219 61.8661 39.0554V39.0657Z" fill="#00AAE8"/>
<path d="M39.9949 43.0739C39.862 43.0739 39.7188 43.0432 39.5961 42.9921L18.1237 33.7896C17.7454 33.626 17.5 33.2579 17.5 32.8489C17.5 32.4399 17.7454 32.0718 18.1237 31.9082L39.5961 22.7058C39.8517 22.5933 40.1483 22.5933 40.4039 22.7058L61.8763 31.9082C62.2546 32.0718 62.5 32.4399 62.5 32.8489C62.5 33.2579 62.2546 33.626 61.8763 33.7896L40.4039 42.9921C40.271 43.0432 40.138 43.0739 40.0051 43.0739H39.9949ZM21.1196 32.8489L39.9949 40.9368L58.8701 32.8489L39.9949 24.761L21.1196 32.8489Z" fill="#00AAE8"/>
</svg>
