<svg width="80" height="80" viewBox="0 0 80 80" fill="none" xmlns="http://www.w3.org/2000/svg">
<path fill-rule="evenodd" clip-rule="evenodd" d="M31.375 17.5V21.25H29.875V17.5H31.375ZM36.0625 17.5V21.25H34.5625V17.5H36.0625ZM40.75 17.5V21.25H39.25V17.5H40.75ZM45.4375 17.5V21.25H43.9375V17.5H45.4375ZM50.125 17.5V21.25H48.625V17.5H50.125ZM29.3768 23.3125H50.6232L56.6875 29.3768V50.6232L50.6232 56.6875H29.3768L23.3125 50.6232V29.3768L29.3768 23.3125ZM29.9982 24.8125L24.8125 29.9982V50.0018L29.9982 55.1875H50.0018L55.1875 50.0018V29.9982L50.0018 24.8125H29.9982ZM17.5 29.875H21.25V31.375H17.5V29.875ZM58.75 29.875H62.5V31.375H58.75V29.875ZM33.625 33.625H46.375V46.375H33.625V33.625ZM35.125 35.125V44.875H44.875V35.125H35.125ZM17.5 34.5625H21.25V36.0625H17.5V34.5625ZM58.75 34.5625H62.5V36.0625H58.75V34.5625ZM29.875 37.1875V35.3125H31.375V37.1875H29.875ZM48.625 37.1875V35.3125H50.125V37.1875H48.625ZM29.875 40.9375V39.0625H31.375V40.9375H29.875ZM48.625 40.9375V39.0625H50.125V40.9375H48.625ZM17.5 39.25H21.25V40.75H17.5V39.25ZM58.75 39.25H62.5V40.75H58.75V39.25ZM29.875 44.6875V42.8125H31.375V44.6875H29.875ZM48.625 44.6875V42.8125H50.125V44.6875H48.625ZM17.5 43.9375H21.25V45.4375H17.5V43.9375ZM58.75 43.9375H62.5V45.4375H58.75V43.9375ZM17.5 48.625H21.25V50.125H17.5V48.625ZM58.75 48.625H62.5V50.125H58.75V48.625ZM31.375 58.75V62.5H29.875V58.75H31.375ZM36.0625 58.75V62.5H34.5625V58.75H36.0625ZM40.75 58.75V62.5H39.25V58.75H40.75ZM45.4375 58.75V62.5H43.9375V58.75H45.4375ZM50.125 58.75V62.5H48.625V58.75H50.125Z" fill="#00AAE8"/>
</svg>
