<svg width="56" height="55" viewBox="0 0 56 55" fill="none" xmlns="http://www.w3.org/2000/svg">
<path d="M27.6666 0V8.06452M27.6666 46.9355V55M55.1666 27.5H47.1021M8.23114 27.5H0.166626M41.6989 42.4597V39.3952C41.6989 39.3952 42.0215 36.5121 38.9771 34.6976C37.1424 33.6089 34.4005 32.6411 32.5053 32.0565C31.215 31.6532 30.3481 30.4839 30.3481 29.1331M25.0053 29.1129C25.0053 30.4637 24.1182 31.6331 22.8481 32.0363C20.9529 32.621 18.211 33.5887 16.3763 34.6774C13.3319 36.4919 13.6747 39.375 13.6747 39.375V42.4395M22.0013 32.3185L22.2432 32.621C23.5537 34.2742 25.5699 35.2419 27.6868 35.2419C29.8037 35.2419 31.7997 34.2742 33.1303 32.621L33.3723 32.3185M37.6263 42.4597V39.1331M17.7069 42.4597V39.1331M51.1344 27.5C51.1344 40.4609 40.6275 50.9677 27.6666 50.9677C14.7058 50.9677 4.19888 40.4609 4.19888 27.5C4.19888 14.5391 14.7058 4.03226 27.6666 4.03226C40.6275 4.03226 51.1344 14.5391 51.1344 27.5ZM31.7392 13.75C32.8481 13.75 33.6948 14.6573 33.6948 15.7661V20.6048H34.4005V22.6613C34.4005 23.6694 33.8763 24.4758 32.8682 24.4758C32.8682 24.4758 31.8602 29.9597 27.8682 29.9597H27.4247C23.4328 29.9597 22.4247 24.4758 22.4247 24.4758C21.4166 24.4758 20.8924 23.6694 20.8924 22.6613V20.6048H21.6182V16.6129C21.6182 14.375 23.4328 12.5605 25.6707 12.5605H31.719V13.7702L31.7392 13.75Z" stroke="black" stroke-width="2" stroke-miterlimit="10"/>
</svg>
